
<svg xmlns="http://www.w3.org/2000/svg" xmlns:xlink="http://www.w3.org/1999/xlink" xmlns:ev="http://www.w3.org/2001/xml-events"
		xmlns:v="http://schemas.microsoft.com/visio/2003/SVGExtensions/" 
		viewBox="0 0 841.89 595.276" xml:space="preserve" color-interpolation-filters="sRGB" class="st16">
	<v:documentProperties v:langID="1033" v:metric="true" v:viewMarkup="false">
		<v:userDefs>
			<v:ud v:nameU="msvNoAutoConnect" v:val="VT0(0):26"/>
		</v:userDefs>
	</v:documentProperties>

	<style type="text/css">
	<![CDATA[
		.st1 {visibility:visible}
		.st2 {fill:#000000;fill-opacity:0.4;filter:url(#filter_2.6666667461395);stroke:#000000;stroke-linecap:round;stroke-linejoin:round;stroke-opacity:0.4}
		.st3 {fill:url(#grad0-7);stroke:#c7dde6;stroke-linecap:round;stroke-linejoin:round;stroke-width:1}
		.st4 {fill:#000000;font-family:Calibri;font-size:1.16666em}
		.st5 {font-size:1em}
		.st6 {stroke:#a6d0de;stroke-dasharray:5.25,5.25;stroke-linecap:round;stroke-linejoin:round;stroke-width:1.75}
		.st7 {fill:url(#grad0-19);stroke:#bfd9c8;stroke-linecap:round;stroke-linejoin:round;stroke-width:1}
		.st8 {fill:#ebe3c1;stroke:#c7dde6;stroke-linecap:round;stroke-linejoin:round;stroke-width:1}
		.st9 {fill:#000000;font-family:Calibri;font-size:1.99999em}
		.st10 {stroke:none;stroke-linecap:round;stroke-linejoin:round;stroke-width:0.807346}
		.st11 {stroke:#000000;stroke-linecap:round;stroke-linejoin:round;stroke-width:0.75}
		.st12 {fill:#f9dda2;stroke:#d8d8d8;stroke-linecap:round;stroke-linejoin:round;stroke-width:1}
		.st13 {fill:#4672c4;stroke:none;stroke-linecap:butt;stroke-width:6.375}
		.st14 {fill:none;stroke:none;stroke-linecap:round;stroke-linejoin:round;stroke-width:0.75}
		.st15 {fill:#000000;font-family:Calibri;font-size:0.833336em}
		.st16 {fill:none;fill-rule:evenodd;font-size:12px;overflow:visible;stroke-linecap:square;stroke-miterlimit:3}
	]]>
	</style>

	<defs id="Patterns_And_Gradients">
		<linearGradient id="grad0-7" x1="0" y1="0" x2="1" y2="0" gradientTransform="rotate(45 0.5 0.5)">
			<stop offset="0" stop-color="#f0f5f7" stop-opacity="1"/>
			<stop offset="0.78" stop-color="#c7dce6" stop-opacity="1"/>
			<stop offset="0.86" stop-color="#c7dce6" stop-opacity="1"/>
		</linearGradient>
		<linearGradient id="grad0-19" x1="0" y1="0" x2="1" y2="0" gradientTransform="rotate(45 0.5 0.5)">
			<stop offset="0" stop-color="#eef4f0" stop-opacity="1"/>
			<stop offset="0.78" stop-color="#bed8c8" stop-opacity="1"/>
			<stop offset="0.86" stop-color="#bed8c8" stop-opacity="1"/>
		</linearGradient>
	</defs>
	<defs id="Filters">
		<filter id="filter_2.6666667461395">
			<feGaussianBlur stdDeviation="2.6666667461395"/>
		</filter>
	</defs>
	<g v:mID="0" v:index="1" v:groupContext="foregroundPage">
		<v:userDefs>
			<v:ud v:nameU="msvThemeOrder" v:val="VT0(0):26"/>
		</v:userDefs>
		<title></title>
		<v:pageProperties v:drawingScale="0.0393701" v:pageScale="0.0393701" v:drawingUnits="24" v:shadowOffsetX="8.50394"
				v:shadowOffsetY="-8.50394"/>
		<v:layer v:name="Flowchart" v:index="0"/>
		<v:layer v:name="Azure" v:index="1"/>
		<v:layer v:name="Future" v:index="2" v:visibility="hidden" v:print="false"/>
		<v:layer v:name="symbols" v:index="3"/>
		<v:layer v:name="Connector" v:index="4"/>
		<v:layer v:name="Callout" v:index="5"/>
		<v:layer v:name="Container" v:index="6"/>
		<g id="shape1055-1" v:mID="1055" v:groupContext="shape" transform="translate(42.5197,-344.325)">
			<title></title>
			<desc>Extended access hub</desc>
			<v:userDefs>
				<v:ud v:nameU="visVersion" v:val="VT0(15):26"/>
			</v:userDefs>
			<v:textBlock v:margins="rect(2,2,2,2)" v:tabSpace="42.5197"/>
			<v:textRect cx="63.7795" cy="552.756" width="111.62" height="74.4094"/>
			<g id="shadow1055-2" v:groupContext="shadow" v:shadowOffsetX="2.12132" v:shadowOffsetY="-2.12132" v:shadowType="1"
					transform="matrix(1,0,0,1,2.12132,2.12132)" class="st1">
				<path d="M0 552.76 A63.7795 42.5197 0 0 1 127.56 552.76 A63.7795 42.5197 0 1 1 0 552.76 Z" class="st2"/>
			</g>
			<path d="M0 552.76 A63.7795 42.5197 0 0 1 127.56 552.76 A63.7795 42.5197 0 1 1 0 552.76 Z" class="st3"/>
			<text x="17.17" y="548.56" class="st4" v:langID="1033"><v:paragraph v:horizAlign="1"/><v:tabList/>Extended access <tspan
						x="52.75" dy="1.2em" class="st5">hub</tspan></text>		</g>
		<g id="shape1252-10" v:mID="1252" v:groupContext="shape" transform="translate(571.314,-157.233) rotate(0.283756)">
			<title></title>
			<path d="M0 595.28 L97.78 595.28" class="st6"/>
		</g>
		<g id="shape1253-13" v:mID="1253" v:groupContext="shape" v:layerMember="0" transform="translate(666.142,-123.283)">
			<title></title>
			<desc>5</desc>
			<v:custProps>
				<v:cp v:nameU="Cost" v:lbl="Cost" v:prompt="" v:type="7" v:format="@" v:sortKey="" v:invis="false" v:ask="false"
						v:langID="1033" v:cal="0"/>
				<v:cp v:nameU="ProcessNumber" v:lbl="Process Number" v:prompt="" v:type="2" v:format="" v:sortKey=""
						v:invis="false" v:ask="false" v:langID="1033" v:cal="0"/>
				<v:cp v:nameU="Owner" v:lbl="Owner" v:prompt="" v:type="0" v:format="" v:sortKey="" v:invis="false" v:ask="false"
						v:langID="1033" v:cal="0"/>
				<v:cp v:nameU="Function" v:lbl="Function" v:prompt="" v:type="0" v:format="" v:sortKey="" v:invis="false"
						v:ask="false" v:langID="1033" v:cal="0" v:val="VT4()"/>
				<v:cp v:nameU="StartDate" v:lbl="Start Date" v:prompt="" v:type="5" v:format="" v:sortKey="" v:invis="false"
						v:ask="false" v:langID="1033" v:cal="0"/>
				<v:cp v:nameU="EndDate" v:lbl="End Date" v:prompt="" v:type="5" v:format="" v:sortKey="" v:invis="false"
						v:ask="false" v:langID="1033" v:cal="0"/>
				<v:cp v:nameU="Status" v:lbl="Status" v:prompt="" v:type="4"
						v:format=";Not Started;In Progress;Completed;Deferred;Waiting on Input" v:sortKey="" v:invis="false"
						v:ask="false" v:langID="1033" v:cal="0" v:val="VT4()"/>
			</v:custProps>
			<v:userDefs>
				<v:ud v:nameU="visVersion" v:prompt="" v:val="VT0(15):26"/>
				<v:ud v:nameU="DefaultWidth" v:prompt="" v:val="VT0(0.98425196850394):24"/>
				<v:ud v:nameU="DefaultHeight" v:prompt="" v:val="VT0(0.59055118110236):24"/>
				<v:ud v:nameU="ResizeTxtHeight" v:prompt="" v:val="VT0(0.59055118110236):24"/>
			</v:userDefs>
			<v:textBlock v:margins="rect(2,2,2,2)" v:tabSpace="42.5197"/>
			<v:textRect cx="63.7795" cy="561.803" width="110.83" height="66.9453"/>
			<g id="shadow1253-14" v:groupContext="shadow" v:shadowOffsetX="2.12132" v:shadowOffsetY="-2.12132" v:shadowType="1"
					transform="matrix(1,0,0,1,2.12132,2.12132)" class="st1">
				<path d="M8.37 528.33 L127.56 528.33 A71.1293 71.1293 -180 0 0 127.56 595.28 L8.37 595.28 A71.1293 71.1293 0 0 1
							 8.37 528.33 Z" class="st2"/>
			</g>
			<path d="M8.37 528.33 L127.56 528.33 A71.1293 71.1293 -180 0 0 127.56 595.28 L8.37 595.28 A71.1293 71.1293 0 0 1 8.37
						 528.33 Z" class="st7"/>
			<text x="60.23" y="566" class="st4" v:langID="2057"><v:paragraph v:horizAlign="1"/><v:tabList/>5</text>		</g>
		<g id="shape1249-21" v:mID="1249" v:groupContext="shape" transform="translate(571.314,-238.849) rotate(0.283756)">
			<title></title>
			<path d="M0 595.28 L97.78 595.28" class="st6"/>
		</g>
		<g id="shape1250-24" v:mID="1250" v:groupContext="shape" v:layerMember="0" transform="translate(666.142,-204.9)">
			<title></title>
			<desc>4</desc>
			<v:custProps>
				<v:cp v:nameU="Cost" v:lbl="Cost" v:prompt="" v:type="7" v:format="@" v:sortKey="" v:invis="false" v:ask="false"
						v:langID="1033" v:cal="0"/>
				<v:cp v:nameU="ProcessNumber" v:lbl="Process Number" v:prompt="" v:type="2" v:format="" v:sortKey=""
						v:invis="false" v:ask="false" v:langID="1033" v:cal="0"/>
				<v:cp v:nameU="Owner" v:lbl="Owner" v:prompt="" v:type="0" v:format="" v:sortKey="" v:invis="false" v:ask="false"
						v:langID="1033" v:cal="0"/>
				<v:cp v:nameU="Function" v:lbl="Function" v:prompt="" v:type="0" v:format="" v:sortKey="" v:invis="false"
						v:ask="false" v:langID="1033" v:cal="0" v:val="VT4()"/>
				<v:cp v:nameU="StartDate" v:lbl="Start Date" v:prompt="" v:type="5" v:format="" v:sortKey="" v:invis="false"
						v:ask="false" v:langID="1033" v:cal="0"/>
				<v:cp v:nameU="EndDate" v:lbl="End Date" v:prompt="" v:type="5" v:format="" v:sortKey="" v:invis="false"
						v:ask="false" v:langID="1033" v:cal="0"/>
				<v:cp v:nameU="Status" v:lbl="Status" v:prompt="" v:type="4"
						v:format=";Not Started;In Progress;Completed;Deferred;Waiting on Input" v:sortKey="" v:invis="false"
						v:ask="false" v:langID="1033" v:cal="0" v:val="VT4()"/>
			</v:custProps>
			<v:userDefs>
				<v:ud v:nameU="visVersion" v:prompt="" v:val="VT0(15):26"/>
				<v:ud v:nameU="DefaultWidth" v:prompt="" v:val="VT0(0.98425196850394):24"/>
				<v:ud v:nameU="DefaultHeight" v:prompt="" v:val="VT0(0.59055118110236):24"/>
				<v:ud v:nameU="ResizeTxtHeight" v:prompt="" v:val="VT0(0.59055118110236):24"/>
			</v:userDefs>
			<v:textBlock v:margins="rect(2,2,2,2)" v:tabSpace="42.5197"/>
			<v:textRect cx="63.7795" cy="561.803" width="110.83" height="66.9453"/>
			<g id="shadow1250-25" v:groupContext="shadow" v:shadowOffsetX="2.12132" v:shadowOffsetY="-2.12132" v:shadowType="1"
					transform="matrix(1,0,0,1,2.12132,2.12132)" class="st1">
				<path d="M8.37 528.33 L127.56 528.33 A71.1293 71.1293 -180 0 0 127.56 595.28 L8.37 595.28 A71.1293 71.1293 0 0 1
							 8.37 528.33 Z" class="st2"/>
			</g>
			<path d="M8.37 528.33 L127.56 528.33 A71.1293 71.1293 -180 0 0 127.56 595.28 L8.37 595.28 A71.1293 71.1293 0 0 1 8.37
						 528.33 Z" class="st7"/>
			<text x="60.23" y="566" class="st4" v:langID="2057"><v:paragraph v:horizAlign="1"/><v:tabList/>4</text>		</g>
		<g id="shape1246-31" v:mID="1246" v:groupContext="shape" transform="translate(571.314,-320.466) rotate(0.283756)">
			<title></title>
			<path d="M0 595.28 L97.78 595.28" class="st6"/>
		</g>
		<g id="shape1247-34" v:mID="1247" v:groupContext="shape" v:layerMember="0" transform="translate(666.142,-286.516)">
			<title></title>
			<desc>3</desc>
			<v:custProps>
				<v:cp v:nameU="Cost" v:lbl="Cost" v:prompt="" v:type="7" v:format="@" v:sortKey="" v:invis="false" v:ask="false"
						v:langID="1033" v:cal="0"/>
				<v:cp v:nameU="ProcessNumber" v:lbl="Process Number" v:prompt="" v:type="2" v:format="" v:sortKey=""
						v:invis="false" v:ask="false" v:langID="1033" v:cal="0"/>
				<v:cp v:nameU="Owner" v:lbl="Owner" v:prompt="" v:type="0" v:format="" v:sortKey="" v:invis="false" v:ask="false"
						v:langID="1033" v:cal="0"/>
				<v:cp v:nameU="Function" v:lbl="Function" v:prompt="" v:type="0" v:format="" v:sortKey="" v:invis="false"
						v:ask="false" v:langID="1033" v:cal="0" v:val="VT4()"/>
				<v:cp v:nameU="StartDate" v:lbl="Start Date" v:prompt="" v:type="5" v:format="" v:sortKey="" v:invis="false"
						v:ask="false" v:langID="1033" v:cal="0"/>
				<v:cp v:nameU="EndDate" v:lbl="End Date" v:prompt="" v:type="5" v:format="" v:sortKey="" v:invis="false"
						v:ask="false" v:langID="1033" v:cal="0"/>
				<v:cp v:nameU="Status" v:lbl="Status" v:prompt="" v:type="4"
						v:format=";Not Started;In Progress;Completed;Deferred;Waiting on Input" v:sortKey="" v:invis="false"
						v:ask="false" v:langID="1033" v:cal="0" v:val="VT4()"/>
			</v:custProps>
			<v:userDefs>
				<v:ud v:nameU="visVersion" v:prompt="" v:val="VT0(15):26"/>
				<v:ud v:nameU="DefaultWidth" v:prompt="" v:val="VT0(0.98425196850394):24"/>
				<v:ud v:nameU="DefaultHeight" v:prompt="" v:val="VT0(0.59055118110236):24"/>
				<v:ud v:nameU="ResizeTxtHeight" v:prompt="" v:val="VT0(0.59055118110236):24"/>
			</v:userDefs>
			<v:textBlock v:margins="rect(2,2,2,2)" v:tabSpace="42.5197"/>
			<v:textRect cx="63.7795" cy="561.803" width="110.83" height="66.9453"/>
			<g id="shadow1247-35" v:groupContext="shadow" v:shadowOffsetX="2.12132" v:shadowOffsetY="-2.12132" v:shadowType="1"
					transform="matrix(1,0,0,1,2.12132,2.12132)" class="st1">
				<path d="M8.37 528.33 L127.56 528.33 A71.1293 71.1293 -180 0 0 127.56 595.28 L8.37 595.28 A71.1293 71.1293 0 0 1
							 8.37 528.33 Z" class="st2"/>
			</g>
			<path d="M8.37 528.33 L127.56 528.33 A71.1293 71.1293 -180 0 0 127.56 595.28 L8.37 595.28 A71.1293 71.1293 0 0 1 8.37
						 528.33 Z" class="st7"/>
			<text x="60.23" y="566" class="st4" v:langID="2057"><v:paragraph v:horizAlign="1"/><v:tabList/>3</text>		</g>
		<g id="shape1243-41" v:mID="1243" v:groupContext="shape" transform="translate(571.314,-402.083) rotate(0.283756)">
			<title></title>
			<path d="M0 595.28 L97.78 595.28" class="st6"/>
		</g>
		<g id="shape1244-44" v:mID="1244" v:groupContext="shape" v:layerMember="0" transform="translate(666.142,-368.133)">
			<title></title>
			<desc>2</desc>
			<v:custProps>
				<v:cp v:nameU="Cost" v:lbl="Cost" v:prompt="" v:type="7" v:format="@" v:sortKey="" v:invis="false" v:ask="false"
						v:langID="1033" v:cal="0"/>
				<v:cp v:nameU="ProcessNumber" v:lbl="Process Number" v:prompt="" v:type="2" v:format="" v:sortKey=""
						v:invis="false" v:ask="false" v:langID="1033" v:cal="0"/>
				<v:cp v:nameU="Owner" v:lbl="Owner" v:prompt="" v:type="0" v:format="" v:sortKey="" v:invis="false" v:ask="false"
						v:langID="1033" v:cal="0"/>
				<v:cp v:nameU="Function" v:lbl="Function" v:prompt="" v:type="0" v:format="" v:sortKey="" v:invis="false"
						v:ask="false" v:langID="1033" v:cal="0" v:val="VT4()"/>
				<v:cp v:nameU="StartDate" v:lbl="Start Date" v:prompt="" v:type="5" v:format="" v:sortKey="" v:invis="false"
						v:ask="false" v:langID="1033" v:cal="0"/>
				<v:cp v:nameU="EndDate" v:lbl="End Date" v:prompt="" v:type="5" v:format="" v:sortKey="" v:invis="false"
						v:ask="false" v:langID="1033" v:cal="0"/>
				<v:cp v:nameU="Status" v:lbl="Status" v:prompt="" v:type="4"
						v:format=";Not Started;In Progress;Completed;Deferred;Waiting on Input" v:sortKey="" v:invis="false"
						v:ask="false" v:langID="1033" v:cal="0" v:val="VT4()"/>
			</v:custProps>
			<v:userDefs>
				<v:ud v:nameU="visVersion" v:prompt="" v:val="VT0(15):26"/>
				<v:ud v:nameU="DefaultWidth" v:prompt="" v:val="VT0(0.98425196850394):24"/>
				<v:ud v:nameU="DefaultHeight" v:prompt="" v:val="VT0(0.59055118110236):24"/>
				<v:ud v:nameU="ResizeTxtHeight" v:prompt="" v:val="VT0(0.59055118110236):24"/>
			</v:userDefs>
			<v:textBlock v:margins="rect(2,2,2,2)" v:tabSpace="42.5197"/>
			<v:textRect cx="63.7795" cy="561.803" width="110.83" height="66.9453"/>
			<g id="shadow1244-45" v:groupContext="shadow" v:shadowOffsetX="2.12132" v:shadowOffsetY="-2.12132" v:shadowType="1"
					transform="matrix(1,0,0,1,2.12132,2.12132)" class="st1">
				<path d="M8.37 528.33 L127.56 528.33 A71.1293 71.1293 -180 0 0 127.56 595.28 L8.37 595.28 A71.1293 71.1293 0 0 1
							 8.37 528.33 Z" class="st2"/>
			</g>
			<path d="M8.37 528.33 L127.56 528.33 A71.1293 71.1293 -180 0 0 127.56 595.28 L8.37 595.28 A71.1293 71.1293 0 0 1 8.37
						 528.33 Z" class="st7"/>
			<text x="60.23" y="566" class="st4" v:langID="2057"><v:paragraph v:horizAlign="1"/><v:tabList/>2</text>		</g>
		<g id="shape1240-51" v:mID="1240" v:groupContext="shape" transform="translate(571.314,-483.7) rotate(0.283755)">
			<title></title>
			<path d="M0 595.28 L97.78 595.28" class="st6"/>
		</g>
		<g id="shape1228-54" v:mID="1228" v:groupContext="shape" transform="translate(489.657,-103.38)">
			<title></title>
			<desc>Spine</desc>
			<v:userDefs>
				<v:ud v:nameU="visVersion" v:val="VT0(15):26"/>
			</v:userDefs>
			<v:textBlock v:margins="rect(2,2,2,2)" v:tabSpace="42.5197"/>
			<v:textRect cx="40.6755" cy="396.85" width="81.36" height="396.85"/>
			<g id="shadow1228-55" v:groupContext="shadow" v:shadowOffsetX="2.12132" v:shadowOffsetY="-2.12132" v:shadowType="1"
					transform="matrix(1,0,0,1,2.12132,2.12132)" class="st1">
				<rect x="0" y="198.425" width="81.351" height="396.85" class="st2"/>
			</g>
			<rect x="0" y="198.425" width="81.351" height="396.85" class="st8"/>
			<text x="13.83" y="504.85" class="st9" v:langID="2057"><v:paragraph v:horizAlign="1"/><v:tabList/><v:newlineChar/><v:newlineChar/><v:newlineChar/><v:newlineChar/><v:newlineChar/><v:newlineChar/><v:newlineChar/>Spine</text>		</g>
		<g id="shape1031-60" v:mID="1031" v:groupContext="shape" transform="translate(215.311,-440.53)">
			<title></title>
			<path d="M0 560.59 C-0 541.45 23.05 525.91 51.45 525.91 C79.87 525.91 102.9 541.45 102.9 560.59 C102.9 579.75 79.87 595.28
						 51.45 595.28 C23.05 595.28 -0 579.75 0 560.59" class="st10"/>
		</g>
		<g id="shape1034-64" v:mID="1034" v:groupContext="shape" transform="translate(335.721,-126.774)">
			<title></title>
			<path d="M0 561.8 C0 543.32 22.8 528.33 50.91 528.33 C79.04 528.33 101.82 543.32 101.82 561.8 C101.82 580.3 79.04 595.28
						 50.91 595.28 C22.8 595.28 0 580.3 0 561.8" class="st10"/>
		</g>
		<g id="shape1035-68" v:mID="1035" v:groupContext="shape" transform="translate(19.4758,-10.253)">
			<title></title>
			<path d="M0 560.73 C-0 541.66 23.05 526.18 51.45 526.18 C79.87 526.18 102.9 541.66 102.9 560.73 C102.9 579.82 79.87 595.28
						 51.45 595.28 C23.05 595.28 -0 579.82 0 560.73" class="st10"/>
		</g>
		<g id="shape1040-72" v:mID="1040" v:groupContext="shape" transform="translate(627.511,-344.112) rotate(35.9945)">
			<title></title>
			<path d="M0 595.28 L233.46 595.28" class="st6"/>
		</g>
		<g id="shape1041-75" v:mID="1041" v:groupContext="shape" transform="translate(246.434,-347.856) rotate(8.85482)">
			<title></title>
			<path d="M0 595.28 L315.51 595.28" class="st6"/>
		</g>
		<g id="shape1042-78" v:mID="1042" v:groupContext="shape" transform="translate(657.374,-430.5) rotate(24.3107)">
			<title></title>
			<path d="M0 595.28 L59.52 595.28" class="st6"/>
		</g>
		<g id="shape1043-81" v:mID="1043" v:groupContext="shape" transform="translate(796.902,-268.175) rotate(47.4055)">
			<title></title>
			<path d="M0 595.28 L159.38 595.28" class="st6"/>
		</g>
		<g id="shape1044-84" v:mID="1044" v:groupContext="shape" transform="translate(56.5707,-375.923) rotate(-10.9926)">
			<title></title>
			<path d="M0 595.28 L297.32 595.28" class="st6"/>
		</g>
		<g id="shape1045-87" v:mID="1045" v:groupContext="shape" transform="translate(112.851,-268.876) rotate(-4.95593)">
			<title></title>
			<path d="M0 595.28 L303.41 595.28" class="st6"/>
		</g>
		<g id="shape1046-90" v:mID="1046" v:groupContext="shape" transform="translate(-173.747,154.615) rotate(-64.3382)">
			<title></title>
			<path d="M0 595.28 L252.05 595.28" class="st6"/>
		</g>
		<g id="shape1047-93" v:mID="1047" v:groupContext="shape" transform="translate(-72.3931,30.7857) rotate(-49.5407)">
			<title></title>
			<path d="M0 595.28 L143.09 595.28" class="st6"/>
		</g>
		<g id="shape1051-96" v:mID="1051" v:groupContext="shape" transform="translate(-161.146,-57.4444) rotate(-41.4214)">
			<title></title>
			<path d="M0 595.28 L311.88 595.28" class="st6"/>
		</g>
		<g id="shape1052-99" v:mID="1052" v:groupContext="shape" transform="translate(39.7158,-168.07) rotate(-20.5608)">
			<title></title>
			<path d="M0 595.28 L232.59 595.28" class="st6"/>
		</g>
		<g id="shape1053-102" v:mID="1053" v:groupContext="shape" transform="translate(284.749,-460.022)">
			<title></title>
			<desc>GP practices</desc>
			<v:userDefs>
				<v:ud v:nameU="visVersion" v:val="VT0(15):26"/>
			</v:userDefs>
			<v:textBlock v:margins="rect(2,2,2,2)" v:tabSpace="42.5197"/>
			<v:textRect cx="63.7795" cy="552.756" width="111.62" height="74.4094"/>
			<g id="shadow1053-103" v:groupContext="shadow" v:shadowOffsetX="2.12132" v:shadowOffsetY="-2.12132" v:shadowType="1"
					transform="matrix(1,0,0,1,2.12132,2.12132)" class="st1">
				<path d="M0 552.76 A63.7795 42.5197 0 0 1 127.56 552.76 A63.7795 42.5197 0 1 1 0 552.76 Z" class="st2"/>
			</g>
			<path d="M0 552.76 A63.7795 42.5197 0 0 1 127.56 552.76 A63.7795 42.5197 0 1 1 0 552.76 Z" class="st3"/>
			<text x="28.6" y="556.96" class="st4" v:langID="1033"><v:paragraph v:horizAlign="1"/><v:tabList/>GP practices</text>		</g>
		<g id="shape1268-109" v:mID="1268" v:groupContext="shape" transform="translate(641.999,480.806) rotate(133.637)">
			<title></title>
			<path d="M0 595.28 L145.74 595.28" class="st11"/>
		</g>
		<g id="shape1054-112" v:mID="1054" v:groupContext="shape" transform="translate(150.104,-415.247)">
			<title></title>
			<desc>Shared care record portal</desc>
			<v:userDefs>
				<v:ud v:nameU="visVersion" v:val="VT0(15):26"/>
			</v:userDefs>
			<v:textBlock v:margins="rect(2,2,2,2)" v:tabSpace="42.5197"/>
			<v:textRect cx="63.7795" cy="552.756" width="111.62" height="74.4094"/>
			<g id="shadow1054-113" v:groupContext="shadow" v:shadowOffsetX="2.12132" v:shadowOffsetY="-2.12132" v:shadowType="1"
					transform="matrix(1,0,0,1,2.12132,2.12132)" class="st1">
				<path d="M0 552.76 A63.7795 42.5197 0 0 1 127.56 552.76 A63.7795 42.5197 0 1 1 0 552.76 Z" class="st2"/>
			</g>
			<path d="M0 552.76 A63.7795 42.5197 0 0 1 127.56 552.76 A63.7795 42.5197 0 1 1 0 552.76 Z" class="st3"/>
			<text x="30.11" y="548.56" class="st4" v:langID="1033"><v:paragraph v:horizAlign="1"/><v:tabList/>Shared care <tspan
						x="26.39" dy="1.2em" class="st5">record portal</tspan></text>		</g>
		<g id="shape1056-120" v:mID="1056" v:groupContext="shape" transform="translate(36.7177,-228.582)">
			<title></title>
			<desc>Hospital trusts</desc>
			<v:userDefs>
				<v:ud v:nameU="visVersion" v:val="VT0(15):26"/>
			</v:userDefs>
			<v:textBlock v:margins="rect(2,2,2,2)" v:tabSpace="42.5197"/>
			<v:textRect cx="63.7795" cy="552.756" width="111.62" height="74.4094"/>
			<g id="shadow1056-121" v:groupContext="shadow" v:shadowOffsetX="2.12132" v:shadowOffsetY="-2.12132" v:shadowType="1"
					transform="matrix(1,0,0,1,2.12132,2.12132)" class="st1">
				<path d="M0 552.76 A63.7795 42.5197 0 0 1 127.56 552.76 A63.7795 42.5197 0 1 1 0 552.76 Z" class="st2"/>
			</g>
			<path d="M0 552.76 A63.7795 42.5197 0 0 1 127.56 552.76 A63.7795 42.5197 0 1 1 0 552.76 Z" class="st3"/>
			<text x="22.53" y="556.96" class="st4" v:langID="1033"><v:paragraph v:horizAlign="1"/><v:tabList/>Hospital trusts</text>		</g>
		<g id="shape1057-127" v:mID="1057" v:groupContext="shape" transform="translate(150.104,-150.479)">
			<title></title>
			<desc>111 services</desc>
			<v:userDefs>
				<v:ud v:nameU="visVersion" v:val="VT0(15):26"/>
			</v:userDefs>
			<v:textBlock v:margins="rect(2,2,2,2)" v:tabSpace="42.5197"/>
			<v:textRect cx="63.7795" cy="552.756" width="111.62" height="74.4094"/>
			<g id="shadow1057-128" v:groupContext="shadow" v:shadowOffsetX="2.12132" v:shadowOffsetY="-2.12132" v:shadowType="1"
					transform="matrix(1,0,0,1,2.12132,2.12132)" class="st1">
				<path d="M0 552.76 A63.7795 42.5197 0 0 1 127.56 552.76 A63.7795 42.5197 0 1 1 0 552.76 Z" class="st2"/>
			</g>
			<path d="M0 552.76 A63.7795 42.5197 0 0 1 127.56 552.76 A63.7795 42.5197 0 1 1 0 552.76 Z" class="st3"/>
			<text x="28.94" y="556.96" class="st4" v:langID="1033"><v:paragraph v:horizAlign="1"/><v:tabList/>111 services</text>		</g>
		<g id="shape1058-134" v:mID="1058" v:groupContext="shape" transform="translate(284.749,-98.9123)">
			<title></title>
			<desc>Federation or primary care network</desc>
			<v:userDefs>
				<v:ud v:nameU="visVersion" v:val="VT0(15):26"/>
			</v:userDefs>
			<v:textBlock v:margins="rect(2,2,2,2)" v:tabSpace="42.5197"/>
			<v:textRect cx="63.7795" cy="552.756" width="111.62" height="74.4094"/>
			<g id="shadow1058-135" v:groupContext="shadow" v:shadowOffsetX="2.12132" v:shadowOffsetY="-2.12132" v:shadowType="1"
					transform="matrix(1,0,0,1,2.12132,2.12132)" class="st1">
				<path d="M0 552.76 A63.7795 42.5197 0 0 1 127.56 552.76 A63.7795 42.5197 0 1 1 0 552.76 Z" class="st2"/>
			</g>
			<path d="M0 552.76 A63.7795 42.5197 0 0 1 127.56 552.76 A63.7795 42.5197 0 1 1 0 552.76 Z" class="st3"/>
			<text x="25.09" y="540.16" class="st4" v:langID="1033"><v:paragraph v:horizAlign="1"/><v:tabList/>Federation or <tspan
						x="27.68" dy="1.2em" class="st5">primary care </tspan><tspan x="39.96" dy="1.2em" class="st5">network</tspan></text>		</g>
		<g id="shape1060-143" v:mID="1060" v:groupContext="shape" transform="translate(466.553,-287.085)">
			<title></title>
			<desc>View records and documents</desc>
			<v:userDefs>
				<v:ud v:nameU="visVersion" v:val="VT0(15):26"/>
			</v:userDefs>
			<v:textBlock v:margins="rect(2,2,2,2)" v:tabSpace="42.5197"/>
			<v:textRect cx="63.7795" cy="561.803" width="127.56" height="66.9453"/>
			<g id="shadow1060-144" v:groupContext="shadow" v:shadowOffsetX="2.12132" v:shadowOffsetY="-2.12132" v:shadowType="1"
					transform="matrix(1,0,0,1,2.12132,2.12132)" class="st1">
				<rect x="0" y="528.33" width="127.559" height="66.9453" class="st2"/>
			</g>
			<rect x="0" y="528.33" width="127.559" height="66.9453" class="st12"/>
			<text x="14.41" y="557.6" class="st4" v:langID="1033"><v:paragraph v:horizAlign="1"/><v:tabList/>View records and <tspan
						x="31.94" dy="1.2em" class="st5">documents</tspan></text>		</g>
		<g id="shape1260-150" v:mID="1260" v:groupContext="shape" transform="translate(1096.28,40.4929) rotate(87.1572)">
			<title></title>
			<path d="M0 595.28 L181.15 595.28" class="st11"/>
		</g>
		<g id="group1255-153" transform="translate(517.423,-139.567)" v:mID="1255" v:groupContext="group">
			<title></title>
			<g id="shape1256-154" v:mID="1256" v:groupContext="shape">
				<title></title>
				<path d="M22.59 576.43 L25.82 576.66 L25.82 594.34 L12.91 595.28 L0 594.34 L0 576.66 L3.23 576.43 L3.23 571.08 C3.23
							 565.68 7.56 561.3 12.91 561.3 C18.26 561.3 22.59 565.68 22.59 571.08 L22.59 576.43 ZM5.99 571.08 L5.99
							 576.24 L12.91 575.73 L19.82 576.24 L19.82 571.08 C19.82 567.21 16.74 564.1 12.91 564.1 C9.08 564.1 5.99
							 567.21 5.99 571.08 ZM13.83 588.16 C14.89 587.74 15.68 586.71 15.68 585.5 C15.68 583.97 14.43 582.71
							 12.91 582.71 C11.39 582.71 10.14 583.97 10.14 585.5 C10.14 586.76 10.93 587.78 11.99 588.16 L11.99 590.62
							 L13.83 590.62 L13.83 588.16 Z" class="st13"/>
			</g>
		</g>
		<g id="shape1233-156" v:mID="1233" v:groupContext="shape" v:layerMember="0" transform="translate(461.941,-410.065)">
			<title></title>
			<desc>Book, amend, cancel appointments</desc>
			<v:custProps>
				<v:cp v:nameU="Cost" v:lbl="Cost" v:prompt="" v:type="7" v:format="@" v:sortKey="" v:invis="false" v:ask="false"
						v:langID="1033" v:cal="0"/>
				<v:cp v:nameU="ProcessNumber" v:lbl="Process Number" v:prompt="" v:type="2" v:format="" v:sortKey=""
						v:invis="false" v:ask="false" v:langID="1033" v:cal="0"/>
				<v:cp v:nameU="Owner" v:lbl="Owner" v:prompt="" v:type="0" v:format="" v:sortKey="" v:invis="false" v:ask="false"
						v:langID="1033" v:cal="0"/>
				<v:cp v:nameU="Function" v:lbl="Function" v:prompt="" v:type="0" v:format="" v:sortKey="" v:invis="false"
						v:ask="false" v:langID="1033" v:cal="0" v:val="VT4()"/>
				<v:cp v:nameU="StartDate" v:lbl="Start Date" v:prompt="" v:type="5" v:format="" v:sortKey="" v:invis="false"
						v:ask="false" v:langID="1033" v:cal="0"/>
				<v:cp v:nameU="EndDate" v:lbl="End Date" v:prompt="" v:type="5" v:format="" v:sortKey="" v:invis="false"
						v:ask="false" v:langID="1033" v:cal="0"/>
				<v:cp v:nameU="Status" v:lbl="Status" v:prompt="" v:type="4"
						v:format=";Not Started;In Progress;Completed;Deferred;Waiting on Input" v:sortKey="" v:invis="false"
						v:ask="false" v:langID="1033" v:cal="0" v:val="VT4()"/>
			</v:custProps>
			<v:userDefs>
				<v:ud v:nameU="visVersion" v:prompt="" v:val="VT0(15):26"/>
				<v:ud v:nameU="DefaultWidth" v:prompt="" v:val="VT0(0.98425196850394):24"/>
				<v:ud v:nameU="DefaultHeight" v:prompt="" v:val="VT0(0.59055118110236):24"/>
				<v:ud v:nameU="ResizeTxtHeight" v:prompt="" v:val="VT0(0.59055118110236):24"/>
			</v:userDefs>
			<v:textBlock v:margins="rect(2,2,2,2)" v:tabSpace="42.5197"/>
			<v:textRect cx="67.3228" cy="561.803" width="134.65" height="66.9452"/>
			<g id="shadow1233-157" v:groupContext="shadow" v:shadowOffsetX="2.12132" v:shadowOffsetY="-2.12132" v:shadowType="1"
					transform="matrix(1,0,0,1,2.12132,2.12132)" class="st1">
				<rect x="0" y="528.33" width="134.646" height="66.9452" class="st2"/>
			</g>
			<rect x="0" y="528.33" width="134.646" height="66.9452" class="st12"/>
			<text x="8.47" y="557.6" class="st4" v:langID="1033"><v:paragraph v:horizAlign="1"/><v:tabList/>Book, amend, cancel <tspan
						x="27.46" dy="1.2em" class="st5">appointments</tspan></text>		</g>
		<g id="shape1261-163" v:mID="1261" v:groupContext="shape" transform="translate(204.456,-525.26)">
			<title></title>
			<desc>Consumer organisations</desc>
			<v:textBlock v:margins="rect(2,2,2,2)" v:tabSpace="42.5197"/>
			<v:textRect cx="31.4646" cy="581.528" width="62.93" height="27.4961"/>
			<rect x="0" y="567.78" width="62.9291" height="27.4961" class="st14"/>
			<text x="10.73" y="578.53" class="st15" v:langID="2057"><v:paragraph v:horizAlign="1"/><v:tabList/>Consumer <tspan
						x="4.17" dy="1.2em" class="st5">organisations</tspan></text>		</g>
		<g id="shape1262-167" v:mID="1262" v:groupContext="shape" transform="translate(389.369,-516.343) rotate(11.7972)">
			<title></title>
			<path d="M0 595.28 L47.41 595.28" class="st11"/>
		</g>
		<g id="shape1263-170" v:mID="1263" v:groupContext="shape" transform="translate(475.654,-525.26)">
			<title></title>
			<desc>GP Connect APIs</desc>
			<v:textBlock v:margins="rect(2,2,2,2)" v:tabSpace="42.5197"/>
			<v:textRect cx="31.4646" cy="581.528" width="62.93" height="27.4961"/>
			<rect x="0" y="567.78" width="62.9291" height="27.4961" class="st14"/>
			<text x="7.76" y="578.53" class="st15" v:langID="2057"><v:paragraph v:horizAlign="1"/><v:tabList/>GP Connect <tspan
						x="22.77" dy="1.2em" class="st5">APIs</tspan></text>		</g>
		<g id="shape1264-174" v:mID="1264" v:groupContext="shape" transform="translate(1092.32,-65.9999) rotate(76.7917)">
			<title></title>
			<path d="M0 595.28 L63.27 595.28" class="st11"/>
		</g>
		<g id="shape1258-177" v:mID="1258" v:groupContext="shape" transform="translate(809.076,187.415) rotate(101.167)">
			<title></title>
			<path d="M0 595.28 L38.29 595.28" class="st11"/>
		</g>
		<g id="shape1265-180" v:mID="1265" v:groupContext="shape" transform="translate(627.511,-525.26)">
			<title></title>
			<desc>GP clinical systems</desc>
			<v:textBlock v:margins="rect(2,2,2,2)" v:tabSpace="42.5197"/>
			<v:textRect cx="31.4646" cy="581.528" width="62.93" height="27.4961"/>
			<rect x="0" y="567.78" width="62.9291" height="27.4961" class="st14"/>
			<text x="10.76" y="578.53" class="st15" v:langID="2057"><v:paragraph v:horizAlign="1"/><v:tabList/>GP clinical <tspan
						x="15.18" dy="1.2em" class="st5">systems</tspan></text>		</g>
		<g id="shape1267-184" v:mID="1267" v:groupContext="shape" transform="translate(1212.92,-157.256) rotate(67.5553)">
			<title></title>
			<path d="M0 595.28 L119.09 595.28" class="st11"/>
		</g>
		<g id="shape1226-187" v:mID="1226" v:groupContext="shape" v:layerMember="0" transform="translate(666.142,-449.75)">
			<title></title>
			<desc>1</desc>
			<v:custProps>
				<v:cp v:nameU="Cost" v:lbl="Cost" v:prompt="" v:type="7" v:format="@" v:sortKey="" v:invis="false" v:ask="false"
						v:langID="1033" v:cal="0"/>
				<v:cp v:nameU="ProcessNumber" v:lbl="Process Number" v:prompt="" v:type="2" v:format="" v:sortKey=""
						v:invis="false" v:ask="false" v:langID="1033" v:cal="0"/>
				<v:cp v:nameU="Owner" v:lbl="Owner" v:prompt="" v:type="0" v:format="" v:sortKey="" v:invis="false" v:ask="false"
						v:langID="1033" v:cal="0"/>
				<v:cp v:nameU="Function" v:lbl="Function" v:prompt="" v:type="0" v:format="" v:sortKey="" v:invis="false"
						v:ask="false" v:langID="1033" v:cal="0" v:val="VT4()"/>
				<v:cp v:nameU="StartDate" v:lbl="Start Date" v:prompt="" v:type="5" v:format="" v:sortKey="" v:invis="false"
						v:ask="false" v:langID="1033" v:cal="0"/>
				<v:cp v:nameU="EndDate" v:lbl="End Date" v:prompt="" v:type="5" v:format="" v:sortKey="" v:invis="false"
						v:ask="false" v:langID="1033" v:cal="0"/>
				<v:cp v:nameU="Status" v:lbl="Status" v:prompt="" v:type="4"
						v:format=";Not Started;In Progress;Completed;Deferred;Waiting on Input" v:sortKey="" v:invis="false"
						v:ask="false" v:langID="1033" v:cal="0" v:val="VT4()"/>
			</v:custProps>
			<v:userDefs>
				<v:ud v:nameU="visVersion" v:prompt="" v:val="VT0(15):26"/>
				<v:ud v:nameU="DefaultWidth" v:prompt="" v:val="VT0(0.98425196850394):24"/>
				<v:ud v:nameU="DefaultHeight" v:prompt="" v:val="VT0(0.59055118110236):24"/>
				<v:ud v:nameU="ResizeTxtHeight" v:prompt="" v:val="VT0(0.59055118110236):24"/>
			</v:userDefs>
			<v:textBlock v:margins="rect(2,2,2,2)" v:tabSpace="42.5197"/>
			<v:textRect cx="63.7795" cy="561.803" width="110.83" height="66.9452"/>
			<g id="shadow1226-188" v:groupContext="shadow" v:shadowOffsetX="2.12132" v:shadowOffsetY="-2.12132" v:shadowType="1"
					transform="matrix(1,0,0,1,2.12132,2.12132)" class="st1">
				<path d="M8.37 528.33 L127.56 528.33 A71.1293 71.1293 -180 0 0 127.56 595.28 L8.37 595.28 A71.1293 71.1293 0 0 1
							 8.37 528.33 Z" class="st2"/>
			</g>
			<path d="M8.37 528.33 L127.56 528.33 A71.1293 71.1293 -180 0 0 127.56 595.28 L8.37 595.28 A71.1293 71.1293 0 0 1 8.37
						 528.33 Z" class="st7"/>
			<text x="60.23" y="566" class="st4" v:langID="2057"><v:paragraph v:horizAlign="1"/><v:tabList/>1</text>		</g>
		<g id="shape1266-194" v:mID="1266" v:groupContext="shape" transform="translate(1138.52,-313.82) rotate(50.6138)">
			<title></title>
			<path d="M0 595.28 L47.62 595.28" class="st11"/>
		</g>
	</g>
</svg>
