<?xml version="1.0" encoding="UTF-8" standalone="no"?>
<!DOCTYPE svg PUBLIC "-//W3C//DTD SVG 1.1//EN" "http://www.w3.org/Graphics/SVG/1.1/DTD/svg11.dtd">
<!-- Generated by Microsoft Visio, SVG Export sequence_book_no_patient.svg Page-1 -->
<svg xmlns="http://www.w3.org/2000/svg" xmlns:xlink="http://www.w3.org/1999/xlink" xmlns:ev="http://www.w3.org/2001/xml-events"
		xmlns:v="http://schemas.microsoft.com/visio/2003/SVGExtensions/" width="6.03458in" height="5.75333in"
		viewBox="0 0 434.49 414.24" xml:space="preserve" color-interpolation-filters="sRGB" class="st11">
	<v:documentProperties v:langID="1033" v:metric="true" v:viewMarkup="false">
		<v:userDefs>
			<v:ud v:nameU="msvConvertTheme"/>
		</v:userDefs>
	</v:documentProperties>

	<style type="text/css">
	<![CDATA[
		.st1 {stroke:#000000;stroke-dasharray:3.6,2.16;stroke-linecap:round;stroke-linejoin:round;stroke-width:0.24}
		.st2 {marker-end:url(#mrkr12-12);stroke:#000000;stroke-linecap:round;stroke-linejoin:round;stroke-width:0.24}
		.st3 {fill:#000000;fill-opacity:1;stroke:#000000;stroke-opacity:1;stroke-width:0.08695652173913}
		.st4 {fill:#000000;font-family:Calibri;font-size:1.00001em}
		.st5 {fill:#a5a5a5}
		.st6 {stroke:#000000;stroke-linecap:round;stroke-linejoin:round;stroke-width:0.24}
		.st7 {fill:#d5dfeb}
		.st8 {fill:#000000;font-family:Calibri;font-size:1.16666em;font-weight:bold}
		.st9 {font-size:1em}
		.st10 {fill:#eeeaf2}
		.st11 {fill:none;fill-rule:evenodd;font-size:12px;overflow:visible;stroke-linecap:square;stroke-miterlimit:3}
	]]>
	</style>

	<defs id="Markers">
		<g id="lend12">
			<path d="M 3 1 L 0 0 L 3 -1 " style="stroke-linecap:round;stroke-linejoin:round;fill:none"/>
		</g>
		<marker id="mrkr12-12" class="st3" v:arrowType="12" v:arrowSize="2" orient="auto" markerUnits="strokeWidth"
				overflow="visible">
			<use xlink:href="#lend12" transform="scale(-11.5,-11.5) "/>
		</marker>
	</defs>
	<g v:mID="0" v:index="1" v:groupContext="foregroundPage">
		<title></title>
		<v:pageProperties v:drawingScale="1" v:pageScale="1" v:drawingUnits="19" v:shadowOffsetX="9" v:shadowOffsetY="-9"/>
		<g id="shape1-1" v:mID="1" v:groupContext="shape" transform="translate(60.87,463.86) scale(1,-1)">
			<title></title>
			<path d="M0 414.24 L0 49.74" class="st1"/>
		</g>
		<g id="shape2-4" v:mID="2" v:groupContext="shape" transform="translate(371.37,463.86) scale(1,-1)">
			<title></title>
			<path d="M0 414.24 L0 49.74" class="st1"/>
		</g>
		<g id="shape3-7" v:mID="3" v:groupContext="shape" transform="translate(65.37,-236.37)">
			<title></title>
			<desc>2a: Find a patient</desc>
			<v:userDefs>
				<v:ud v:nameU="State" v:val="VT0(1):26"/>
				<v:ud v:nameU="LostFound" v:val="VT0(0):26"/>
			</v:userDefs>
			<v:textBlock v:margins="rect(4,4,4,4)"/>
			<v:textRect cx="150.75" cy="407.49" width="95.65" height="22.4037"/>
			<path d="M0 414.24 L301.5 414.24" class="st2"/>
			<text x="106.93" y="411.09" class="st4" v:langID="2057"><v:paragraph/><v:tabList/>2a: Find a patient</text>		</g>
		<g id="group4-14" transform="translate(366.87,-189.12)" v:mID="4" v:groupContext="group">
			<v:userDefs>
				<v:ud v:nameU="F" v:val="VT0(1):26"/>
				<v:ud v:nameU="Format" v:val="VT0(0):26"/>
				<v:ud v:nameU="ActiveObject" v:prompt="0,0626" v:val="VT0(0):26"/>
			</v:userDefs>
			<title></title>
			<g id="shape5-15" v:mID="5" v:groupContext="shape" transform="translate(9,1.7053E-13)">
				<title></title>
				<path d="M0 414.24 L0 351.24 L0 414.24 Z" class="st5"/>
			</g>
			<g id="shape6-18" v:mID="6" v:groupContext="shape">
				<title></title>
				<path d="M9 414.24 L0 414.24 L9 414.24 Z" class="st5"/>
			</g>
			<g id="shape7-21" v:mID="7" v:groupContext="shape">
				<title></title>
				<path d="M9 414.24 L0 414.24 L9 414.24 Z" class="st5"/>
			</g>
			<g id="shape8-24" v:mID="8" v:groupContext="shape">
				<title></title>
				<path d="M9 414.24 L0 414.24 L9 414.24 Z" class="st5"/>
			</g>
			<g id="shape9-27" v:mID="9" v:groupContext="shape">
				<title></title>
				<v:userDefs>
					<v:ud v:nameU="TabSize" v:val="VT0(0.125):0"/>
				</v:userDefs>
				<path d="M9 414.24 L9 351.24 L0 351.24 L0 414.24 L9 414.24 ZM0 414.24 L0 351.24 L0 414.24 ZM9 351.24 L9 414.24 L9
							 351.24 Z" class="st5"/>
				<path d="M9 414.24 L9 351.24" class="st6"/>
				<path d="M0 414.24 L0 351.24" class="st6"/>
				<path d="M0 351.24 L9 351.24" class="st6"/>
				<path d="M0 414.24 L9 414.24" class="st6"/>
			</g>
		</g>
		<g id="group10-33" transform="translate(56.37,-189.12)" v:mID="10" v:groupContext="group">
			<v:userDefs>
				<v:ud v:nameU="F" v:val="VT0(1):26"/>
				<v:ud v:nameU="Format" v:val="VT0(0):26"/>
				<v:ud v:nameU="ActiveObject" v:prompt="0,0626" v:val="VT0(0):26"/>
			</v:userDefs>
			<title></title>
			<g id="shape11-34" v:mID="11" v:groupContext="shape" transform="translate(9,1.7053E-13)">
				<title></title>
				<path d="M0 414.24 L0 351.24 L0 414.24 Z" class="st5"/>
			</g>
			<g id="shape12-37" v:mID="12" v:groupContext="shape">
				<title></title>
				<path d="M9 414.24 L0 414.24 L9 414.24 Z" class="st5"/>
			</g>
			<g id="shape13-40" v:mID="13" v:groupContext="shape">
				<title></title>
				<path d="M9 414.24 L0 414.24 L9 414.24 Z" class="st5"/>
			</g>
			<g id="shape14-43" v:mID="14" v:groupContext="shape">
				<title></title>
				<path d="M9 414.24 L0 414.24 L9 414.24 Z" class="st5"/>
			</g>
			<g id="shape15-46" v:mID="15" v:groupContext="shape">
				<title></title>
				<v:userDefs>
					<v:ud v:nameU="TabSize" v:val="VT0(0.125):0"/>
				</v:userDefs>
				<path d="M9 414.24 L9 351.24 L0 351.24 L0 414.24 L9 414.24 ZM0 414.24 L0 351.24 L0 414.24 ZM9 351.24 L9 414.24 L9
							 351.24 Z" class="st5"/>
				<path d="M9 414.24 L9 351.24" class="st6"/>
				<path d="M0 414.24 L0 351.24" class="st6"/>
				<path d="M0 351.24 L9 351.24" class="st6"/>
				<path d="M0 414.24 L9 414.24" class="st6"/>
			</g>
		</g>
		<g id="shape16-52" v:mID="16" v:groupContext="shape" transform="translate(366.87,-204.87) scale(-1,1)">
			<title></title>
			<desc>2b: No patient returned</desc>
			<v:userDefs>
				<v:ud v:nameU="State" v:val="VT0(1):26"/>
				<v:ud v:nameU="LostFound" v:val="VT0(0):26"/>
			</v:userDefs>
			<v:textBlock v:margins="rect(4,4,4,4)"/>
			<v:textRect cx="150.75" cy="407.49" width="129.61" height="22.4037"/>
			<path d="M0 414.24 L301.5 414.24" class="st2"/>
			<text x="-211.55" y="411.09" transform="scale(-1,1)" class="st4" v:langID="2057"><v:paragraph/><v:tabList/>2b: No patient returned  </text>		</g>
		<g id="shape17-58" v:mID="17" v:groupContext="shape" transform="translate(65.37,-155.37)">
			<title></title>
			<desc>3a: Register a patient</desc>
			<v:userDefs>
				<v:ud v:nameU="State" v:val="VT0(1):26"/>
				<v:ud v:nameU="LostFound" v:val="VT0(0):26"/>
			</v:userDefs>
			<v:textBlock v:margins="rect(4,4,4,4)"/>
			<v:textRect cx="150.75" cy="407.49" width="114.53" height="22.4037"/>
			<path d="M0 414.24 L301.5 414.24" class="st2"/>
			<text x="97.49" y="411.09" class="st4" v:langID="2057"><v:paragraph/><v:tabList/>3a: Register a patient</text>		</g>
		<g id="group18-64" transform="translate(366.87,-108.12)" v:mID="18" v:groupContext="group">
			<v:userDefs>
				<v:ud v:nameU="F" v:val="VT0(1):26"/>
				<v:ud v:nameU="Format" v:val="VT0(0):26"/>
				<v:ud v:nameU="ActiveObject" v:prompt="0,0626" v:val="VT0(0):26"/>
			</v:userDefs>
			<title></title>
			<g id="shape19-65" v:mID="19" v:groupContext="shape" transform="translate(9,1.7053E-13)">
				<title></title>
				<path d="M0 414.24 L0 351.24 L0 414.24 Z" class="st5"/>
			</g>
			<g id="shape20-68" v:mID="20" v:groupContext="shape">
				<title></title>
				<path d="M9 414.24 L0 414.24 L9 414.24 Z" class="st5"/>
			</g>
			<g id="shape21-71" v:mID="21" v:groupContext="shape">
				<title></title>
				<path d="M9 414.24 L0 414.24 L9 414.24 Z" class="st5"/>
			</g>
			<g id="shape22-74" v:mID="22" v:groupContext="shape">
				<title></title>
				<path d="M9 414.24 L0 414.24 L9 414.24 Z" class="st5"/>
			</g>
			<g id="shape23-77" v:mID="23" v:groupContext="shape">
				<title></title>
				<v:userDefs>
					<v:ud v:nameU="TabSize" v:val="VT0(0.125):0"/>
				</v:userDefs>
				<path d="M9 414.24 L9 351.24 L0 351.24 L0 414.24 L9 414.24 ZM0 414.24 L0 351.24 L0 414.24 ZM9 351.24 L9 414.24 L9
							 351.24 Z" class="st5"/>
				<path d="M9 414.24 L9 351.24" class="st6"/>
				<path d="M0 414.24 L0 351.24" class="st6"/>
				<path d="M0 351.24 L9 351.24" class="st6"/>
				<path d="M0 414.24 L9 414.24" class="st6"/>
			</g>
		</g>
		<g id="group24-83" transform="translate(56.37,-108.12)" v:mID="24" v:groupContext="group">
			<v:userDefs>
				<v:ud v:nameU="F" v:val="VT0(1):26"/>
				<v:ud v:nameU="Format" v:val="VT0(0):26"/>
				<v:ud v:nameU="ActiveObject" v:prompt="0,0626" v:val="VT0(0):26"/>
			</v:userDefs>
			<title></title>
			<g id="shape25-84" v:mID="25" v:groupContext="shape" transform="translate(9,1.7053E-13)">
				<title></title>
				<path d="M0 414.24 L0 351.24 L0 414.24 Z" class="st5"/>
			</g>
			<g id="shape26-87" v:mID="26" v:groupContext="shape">
				<title></title>
				<path d="M9 414.24 L0 414.24 L9 414.24 Z" class="st5"/>
			</g>
			<g id="shape27-90" v:mID="27" v:groupContext="shape">
				<title></title>
				<path d="M9 414.24 L0 414.24 L9 414.24 Z" class="st5"/>
			</g>
			<g id="shape28-93" v:mID="28" v:groupContext="shape">
				<title></title>
				<path d="M9 414.24 L0 414.24 L9 414.24 Z" class="st5"/>
			</g>
			<g id="shape30-96" v:mID="30" v:groupContext="shape">
				<title></title>
				<v:userDefs>
					<v:ud v:nameU="TabSize" v:val="VT0(0.125):0"/>
				</v:userDefs>
				<path d="M9 414.24 L9 351.24 L0 351.24 L0 414.24 L9 414.24 ZM0 414.24 L0 351.24 L0 414.24 ZM9 351.24 L9 414.24 L9
							 351.24 Z" class="st5"/>
				<path d="M9 414.24 L9 351.24" class="st6"/>
				<path d="M0 414.24 L0 351.24" class="st6"/>
				<path d="M0 351.24 L9 351.24" class="st6"/>
				<path d="M0 414.24 L9 414.24" class="st6"/>
			</g>
		</g>
		<g id="shape31-102" v:mID="31" v:groupContext="shape" transform="translate(366.87,-123.87) scale(-1,1)">
			<title></title>
			<desc>3b: Registered patient returned</desc>
			<v:userDefs>
				<v:ud v:nameU="State" v:val="VT0(1):26"/>
				<v:ud v:nameU="LostFound" v:val="VT0(0):26"/>
			</v:userDefs>
			<v:textBlock v:margins="rect(4,4,4,4)"/>
			<v:textRect cx="150.75" cy="407.49" width="167.57" height="22.4037"/>
			<path d="M0 414.24 L301.5 414.24" class="st2"/>
			<text x="-230.53" y="411.09" transform="scale(-1,1)" class="st4" v:langID="2057"><v:paragraph/><v:tabList/>3b: Registered patient returned  </text>		</g>
		<g id="shape32-108" v:mID="32" v:groupContext="shape" transform="translate(65.37,-330.87)">
			<title></title>
			<desc>1a: Search for free slots</desc>
			<v:userDefs>
				<v:ud v:nameU="State" v:val="VT0(1):26"/>
				<v:ud v:nameU="LostFound" v:val="VT0(0):26"/>
			</v:userDefs>
			<v:textBlock v:margins="rect(4,4,4,4)"/>
			<v:textRect cx="150.75" cy="407.49" width="125.86" height="22.4037"/>
			<path d="M0 414.24 L301.5 414.24" class="st2"/>
			<text x="91.82" y="411.09" class="st4" v:langID="2057"><v:paragraph/><v:tabList/>1a: Search for free slots</text>		</g>
		<g id="group33-114" transform="translate(366.87,-283.62)" v:mID="33" v:groupContext="group">
			<v:userDefs>
				<v:ud v:nameU="F" v:val="VT0(1):26"/>
				<v:ud v:nameU="Format" v:val="VT0(0):26"/>
				<v:ud v:nameU="ActiveObject" v:prompt="0,0626" v:val="VT0(0):26"/>
			</v:userDefs>
			<title></title>
			<g id="shape34-115" v:mID="34" v:groupContext="shape" transform="translate(9,1.7053E-13)">
				<title></title>
				<path d="M0 414.24 L0 351.24 L0 414.24 Z" class="st5"/>
			</g>
			<g id="shape35-118" v:mID="35" v:groupContext="shape">
				<title></title>
				<path d="M9 414.24 L0 414.24 L9 414.24 Z" class="st5"/>
			</g>
			<g id="shape36-121" v:mID="36" v:groupContext="shape">
				<title></title>
				<path d="M9 414.24 L0 414.24 L9 414.24 Z" class="st5"/>
			</g>
			<g id="shape37-124" v:mID="37" v:groupContext="shape">
				<title></title>
				<path d="M9 414.24 L0 414.24 L9 414.24 Z" class="st5"/>
			</g>
			<g id="shape38-127" v:mID="38" v:groupContext="shape">
				<title></title>
				<v:userDefs>
					<v:ud v:nameU="TabSize" v:val="VT0(0.125):0"/>
				</v:userDefs>
				<path d="M9 414.24 L9 351.24 L0 351.24 L0 414.24 L9 414.24 ZM0 414.24 L0 351.24 L0 414.24 ZM9 351.24 L9 414.24 L9
							 351.24 Z" class="st5"/>
				<path d="M9 414.24 L9 351.24" class="st6"/>
				<path d="M0 414.24 L0 351.24" class="st6"/>
				<path d="M0 351.24 L9 351.24" class="st6"/>
				<path d="M0 414.24 L9 414.24" class="st6"/>
			</g>
		</g>
		<g id="group39-133" transform="translate(56.37,-283.62)" v:mID="39" v:groupContext="group">
			<v:userDefs>
				<v:ud v:nameU="F" v:val="VT0(1):26"/>
				<v:ud v:nameU="Format" v:val="VT0(0):26"/>
				<v:ud v:nameU="ActiveObject" v:prompt="0,0626" v:val="VT0(0):26"/>
			</v:userDefs>
			<title></title>
			<g id="shape40-134" v:mID="40" v:groupContext="shape" transform="translate(9,1.7053E-13)">
				<title></title>
				<path d="M0 414.24 L0 351.24 L0 414.24 Z" class="st5"/>
			</g>
			<g id="shape41-137" v:mID="41" v:groupContext="shape">
				<title></title>
				<path d="M9 414.24 L0 414.24 L9 414.24 Z" class="st5"/>
			</g>
			<g id="shape42-140" v:mID="42" v:groupContext="shape">
				<title></title>
				<path d="M9 414.24 L0 414.24 L9 414.24 Z" class="st5"/>
			</g>
			<g id="shape43-143" v:mID="43" v:groupContext="shape">
				<title></title>
				<path d="M9 414.24 L0 414.24 L9 414.24 Z" class="st5"/>
			</g>
			<g id="shape44-146" v:mID="44" v:groupContext="shape">
				<title></title>
				<v:userDefs>
					<v:ud v:nameU="TabSize" v:val="VT0(0.125):0"/>
				</v:userDefs>
				<path d="M9 414.24 L9 351.24 L0 351.24 L0 414.24 L9 414.24 ZM0 414.24 L0 351.24 L0 414.24 ZM9 351.24 L9 414.24 L9
							 351.24 Z" class="st5"/>
				<path d="M9 414.24 L9 351.24" class="st6"/>
				<path d="M0 414.24 L0 351.24" class="st6"/>
				<path d="M0 351.24 L9 351.24" class="st6"/>
				<path d="M0 414.24 L9 414.24" class="st6"/>
			</g>
		</g>
		<g id="shape45-152" v:mID="45" v:groupContext="shape" transform="translate(366.87,-299.37) scale(-1,1)">
			<title></title>
			<desc>1b: Free slots returned</desc>
			<v:userDefs>
				<v:ud v:nameU="State" v:val="VT0(1):26"/>
				<v:ud v:nameU="LostFound" v:val="VT0(0):26"/>
			</v:userDefs>
			<v:textBlock v:margins="rect(4,4,4,4)"/>
			<v:textRect cx="150.75" cy="407.49" width="124.54" height="22.4037"/>
			<path d="M0 414.24 L301.5 414.24" class="st2"/>
			<text x="-209.02" y="411.09" transform="scale(-1,1)" class="st4" v:langID="2057"><v:paragraph/><v:tabList/>1b: Free slots returned  </text>		</g>
		<g id="group46-158" transform="translate(0.12,-364.62)" v:mID="46" v:groupContext="group">
			<v:userDefs>
				<v:ud v:nameU="F" v:val="VT0(1):26"/>
				<v:ud v:nameU="Format" v:val="VT0(0):26"/>
				<v:ud v:nameU="ActiveObject" v:prompt="0,0626" v:val="VT0(0):26"/>
			</v:userDefs>
			<title></title>
			<g id="shape47-159" v:mID="47" v:groupContext="shape" transform="translate(121.5,1.13687E-13)">
				<title></title>
				<path d="M0 414.24 L0 364.74 L0 414.24 Z" class="st7"/>
			</g>
			<g id="shape48-162" v:mID="48" v:groupContext="shape">
				<title></title>
				<path d="M121.5 414.24 L0 414.24 L121.5 414.24 Z" class="st7"/>
			</g>
			<g id="shape49-165" v:mID="49" v:groupContext="shape">
				<title></title>
				<path d="M121.5 414.24 L0 414.24 L121.5 414.24 Z" class="st7"/>
			</g>
			<g id="shape50-168" v:mID="50" v:groupContext="shape">
				<title></title>
				<path d="M121.5 414.24 L0 414.24 L121.5 414.24 Z" class="st7"/>
			</g>
			<g id="shape51-171" v:mID="51" v:groupContext="shape">
				<title></title>
				<desc>GP Connect Consumer</desc>
				<v:userDefs>
					<v:ud v:nameU="TabSize" v:val="VT0(0.125):0"/>
				</v:userDefs>
				<v:textBlock v:margins="rect(4,4,4,4)" v:tabSpace="42.5197"/>
				<v:textRect cx="60.75" cy="389.49" width="121.5" height="49.5"/>
				<path d="M121.5 414.24 L121.5 364.74 L0 364.74 L0 414.24 L121.5 414.24 ZM0 414.24 L0 364.74 L0 414.24 ZM121.5 364.74
							 L121.5 414.24 L121.5 364.74 Z" class="st7"/>
				<path d="M121.5 414.24 L121.5 364.74" class="st6"/>
				<path d="M0 414.24 L0 364.74" class="st6"/>
				<path d="M0 364.74 L121.5 364.74" class="st6"/>
				<path d="M0 414.24 L121.5 414.24" class="st6"/>
				<text x="27.12" y="385.29" class="st8" v:langID="2057"><v:paragraph v:horizAlign="1"/><v:tabList/>GP Connect <tspan
							x="31.27" dy="1.2em" class="st9">Consumer</tspan></text>			</g>
		</g>
		<g id="group52-179" transform="translate(312.87,-364.62)" v:mID="52" v:groupContext="group">
			<v:userDefs>
				<v:ud v:nameU="F" v:val="VT0(1):26"/>
				<v:ud v:nameU="Format" v:val="VT0(0):26"/>
				<v:ud v:nameU="ActiveObject" v:prompt="0,0626" v:val="VT0(0):26"/>
			</v:userDefs>
			<title></title>
			<g id="shape53-180" v:mID="53" v:groupContext="shape" transform="translate(121.5,1.13687E-13)">
				<title></title>
				<path d="M0 414.24 L0 364.74 L0 414.24 Z" class="st10"/>
			</g>
			<g id="shape54-183" v:mID="54" v:groupContext="shape">
				<title></title>
				<path d="M121.5 414.24 L0 414.24 L121.5 414.24 Z" class="st10"/>
			</g>
			<g id="shape55-186" v:mID="55" v:groupContext="shape">
				<title></title>
				<path d="M121.5 414.24 L0 414.24 L121.5 414.24 Z" class="st10"/>
			</g>
			<g id="shape56-189" v:mID="56" v:groupContext="shape">
				<title></title>
				<path d="M121.5 414.24 L0 414.24 L121.5 414.24 Z" class="st10"/>
			</g>
			<g id="shape57-192" v:mID="57" v:groupContext="shape">
				<title></title>
				<desc>GP Connect Provider</desc>
				<v:userDefs>
					<v:ud v:nameU="TabSize" v:val="VT0(0.125):0"/>
				</v:userDefs>
				<v:textBlock v:margins="rect(4,4,4,4)" v:tabSpace="42.5197"/>
				<v:textRect cx="60.75" cy="389.49" width="121.5" height="49.5"/>
				<path d="M121.5 414.24 L121.5 364.74 L0 364.74 L0 414.24 L121.5 414.24 ZM0 414.24 L0 364.74 L0 414.24 ZM121.5 364.74
							 L121.5 414.24 L121.5 364.74 Z" class="st10"/>
				<path d="M121.5 414.24 L121.5 364.74" class="st6"/>
				<path d="M0 414.24 L0 364.74" class="st6"/>
				<path d="M0 364.74 L121.5 364.74" class="st6"/>
				<path d="M0 414.24 L121.5 414.24" class="st6"/>
				<text x="27.12" y="385.29" class="st8" v:langID="2057"><v:paragraph v:horizAlign="1"/><v:tabList/>GP Connect <tspan
							x="35.97" dy="1.2em" class="st9">Provider</tspan></text>			</g>
		</g>
		<g id="shape58-200" v:mID="58" v:groupContext="shape" transform="translate(65.37,-69.87)">
			<title></title>
			<desc>4a: Book an appointment</desc>
			<v:userDefs>
				<v:ud v:nameU="State" v:val="VT0(1):26"/>
				<v:ud v:nameU="LostFound" v:val="VT0(0):26"/>
			</v:userDefs>
			<v:textBlock v:margins="rect(4,4,4,4)"/>
			<v:textRect cx="150.75" cy="407.49" width="134.24" height="22.4037"/>
			<path d="M0 414.24 L301.5 414.24" class="st2"/>
			<text x="87.63" y="411.09" class="st4" v:langID="2057"><v:paragraph/><v:tabList/>4a: Book an appointment</text>		</g>
		<g id="group59-206" transform="translate(366.87,-22.62)" v:mID="59" v:groupContext="group">
			<v:userDefs>
				<v:ud v:nameU="F" v:val="VT0(1):26"/>
				<v:ud v:nameU="Format" v:val="VT0(0):26"/>
				<v:ud v:nameU="ActiveObject" v:prompt="0,0626" v:val="VT0(0):26"/>
			</v:userDefs>
			<title></title>
			<g id="shape60-207" v:mID="60" v:groupContext="shape" transform="translate(9,1.7053E-13)">
				<title></title>
				<path d="M0 414.24 L0 351.24 L0 414.24 Z" class="st5"/>
			</g>
			<g id="shape61-210" v:mID="61" v:groupContext="shape">
				<title></title>
				<path d="M9 414.24 L0 414.24 L9 414.24 Z" class="st5"/>
			</g>
			<g id="shape62-213" v:mID="62" v:groupContext="shape">
				<title></title>
				<path d="M9 414.24 L0 414.24 L9 414.24 Z" class="st5"/>
			</g>
			<g id="shape63-216" v:mID="63" v:groupContext="shape">
				<title></title>
				<path d="M9 414.24 L0 414.24 L9 414.24 Z" class="st5"/>
			</g>
			<g id="shape64-219" v:mID="64" v:groupContext="shape">
				<title></title>
				<v:userDefs>
					<v:ud v:nameU="TabSize" v:val="VT0(0.125):0"/>
				</v:userDefs>
				<path d="M9 414.24 L9 351.24 L0 351.24 L0 414.24 L9 414.24 ZM0 414.24 L0 351.24 L0 414.24 ZM9 351.24 L9 414.24 L9
							 351.24 Z" class="st5"/>
				<path d="M9 414.24 L9 351.24" class="st6"/>
				<path d="M0 414.24 L0 351.24" class="st6"/>
				<path d="M0 351.24 L9 351.24" class="st6"/>
				<path d="M0 414.24 L9 414.24" class="st6"/>
			</g>
		</g>
		<g id="group65-225" transform="translate(56.37,-22.62)" v:mID="65" v:groupContext="group">
			<v:userDefs>
				<v:ud v:nameU="F" v:val="VT0(1):26"/>
				<v:ud v:nameU="Format" v:val="VT0(0):26"/>
				<v:ud v:nameU="ActiveObject" v:prompt="0,0626" v:val="VT0(0):26"/>
			</v:userDefs>
			<title></title>
			<g id="shape66-226" v:mID="66" v:groupContext="shape" transform="translate(9,1.7053E-13)">
				<title></title>
				<path d="M0 414.24 L0 351.24 L0 414.24 Z" class="st5"/>
			</g>
			<g id="shape67-229" v:mID="67" v:groupContext="shape">
				<title></title>
				<path d="M9 414.24 L0 414.24 L9 414.24 Z" class="st5"/>
			</g>
			<g id="shape68-232" v:mID="68" v:groupContext="shape">
				<title></title>
				<path d="M9 414.24 L0 414.24 L9 414.24 Z" class="st5"/>
			</g>
			<g id="shape69-235" v:mID="69" v:groupContext="shape">
				<title></title>
				<path d="M9 414.24 L0 414.24 L9 414.24 Z" class="st5"/>
			</g>
			<g id="shape70-238" v:mID="70" v:groupContext="shape">
				<title></title>
				<v:userDefs>
					<v:ud v:nameU="TabSize" v:val="VT0(0.125):0"/>
				</v:userDefs>
				<path d="M9 414.24 L9 351.24 L0 351.24 L0 414.24 L9 414.24 ZM0 414.24 L0 351.24 L0 414.24 ZM9 351.24 L9 414.24 L9
							 351.24 Z" class="st5"/>
				<path d="M9 414.24 L9 351.24" class="st6"/>
				<path d="M0 414.24 L0 351.24" class="st6"/>
				<path d="M0 351.24 L9 351.24" class="st6"/>
				<path d="M0 414.24 L9 414.24" class="st6"/>
			</g>
		</g>
		<g id="shape71-244" v:mID="71" v:groupContext="shape" transform="translate(366.87,-38.37) scale(-1,1)">
			<title></title>
			<desc>4b: Booked appointment returned</desc>
			<v:userDefs>
				<v:ud v:nameU="State" v:val="VT0(1):26"/>
				<v:ud v:nameU="LostFound" v:val="VT0(0):26"/>
			</v:userDefs>
			<v:textBlock v:margins="rect(4,4,4,4)"/>
			<v:textRect cx="150.75" cy="407.49" width="180.97" height="22.4037"/>
			<path d="M0 414.24 L301.5 414.24" class="st2"/>
			<text x="-237.23" y="411.09" transform="scale(-1,1)" class="st4" v:langID="2057"><v:paragraph/><v:tabList/>4b: Booked appointment returned  </text>		</g>
	</g>
</svg>
