<?xml version="1.0" encoding="UTF-8" standalone="no"?>
<!DOCTYPE svg PUBLIC "-//W3C//DTD SVG 1.1//EN" "http://www.w3.org/Graphics/SVG/1.1/DTD/svg11.dtd">
<!-- Generated by Microsoft Visio, SVG Export sequence_book_simple_federated.svg Page-1 -->
<svg xmlns="http://www.w3.org/2000/svg" xmlns:xlink="http://www.w3.org/1999/xlink" xmlns:ev="http://www.w3.org/2001/xml-events"
		xmlns:v="http://schemas.microsoft.com/visio/2003/SVGExtensions/" width="6.03986in" height="5.62833in"
		viewBox="0 0 434.87 405.24" xml:space="preserve" color-interpolation-filters="sRGB" class="st15">
	<v:documentProperties v:langID="1033" v:metric="true" v:viewMarkup="false">
		<v:userDefs>
			<v:ud v:nameU="msvConvertTheme"/>
		</v:userDefs>
	</v:documentProperties>

	<style type="text/css">
	<![CDATA[
		.st1 {stroke:#000000;stroke-dasharray:3.6,2.16;stroke-linecap:round;stroke-linejoin:round;stroke-width:0.24}
		.st2 {marker-end:url(#mrkr12-12);stroke:#000000;stroke-linecap:round;stroke-linejoin:round;stroke-width:0.24}
		.st3 {fill:#000000;fill-opacity:1;stroke:#000000;stroke-opacity:1;stroke-width:0.08695652173913}
		.st4 {fill:#000000;font-family:Calibri;font-size:1.00001em}
		.st5 {fill:#a5a5a5}
		.st6 {stroke:#000000;stroke-linecap:round;stroke-linejoin:round;stroke-width:0.24}
		.st7 {fill:#ffffff;visibility:hidden}
		.st8 {stroke:#000000;stroke-linecap:round;stroke-linejoin:round;stroke-width:1}
		.st9 {fill:#ffffff;stroke:#000000;stroke-linecap:round;stroke-linejoin:round;stroke-width:1}
		.st10 {fill:#000000;font-family:Calibri;font-size:1.00001em;font-weight:bold}
		.st11 {fill:#d5dfeb}
		.st12 {fill:#000000;font-family:Calibri;font-size:1.16666em;font-weight:bold}
		.st13 {font-size:1em}
		.st14 {fill:#eeeaf2}
		.st15 {fill:none;fill-rule:evenodd;font-size:12px;overflow:visible;stroke-linecap:square;stroke-miterlimit:3}
	]]>
	</style>

	<defs id="Markers">
		<g id="lend12">
			<path d="M 3 1 L 0 0 L 3 -1 " style="stroke-linecap:round;stroke-linejoin:round;fill:none"/>
		</g>
		<marker id="mrkr12-12" class="st3" v:arrowType="12" v:arrowSize="2" orient="auto" markerUnits="strokeWidth"
				overflow="visible">
			<use xlink:href="#lend12" transform="scale(-11.5,-11.5) "/>
		</marker>
	</defs>
	<g v:mID="0" v:index="1" v:groupContext="foregroundPage">
		<title>Page-1</title>
		<v:pageProperties v:drawingScale="1" v:pageScale="1" v:drawingUnits="19" v:shadowOffsetX="9" v:shadowOffsetY="-9"/>
		<g id="shape7-1" v:mID="7" v:groupContext="shape" transform="translate(60.87,454.86) scale(1,-1)">
			<title>Lifeline</title>
			<path d="M0 405.24 L0 49.74" class="st1"/>
		</g>
		<g id="shape14-4" v:mID="14" v:groupContext="shape" transform="translate(371.37,454.86) scale(1,-1)">
			<title>Lifeline.14</title>
			<path d="M0 405.24 L0 49.74" class="st1"/>
		</g>
		<g id="shape15-7" v:mID="15" v:groupContext="shape" transform="translate(65.37,-276.87)">
			<title>Message (seq.diag)</title>
			<desc>1a: Search for free slots</desc>
			<v:userDefs>
				<v:ud v:nameU="State" v:val="VT0(1):26"/>
				<v:ud v:nameU="LostFound" v:val="VT0(0):26"/>
			</v:userDefs>
			<v:textBlock v:margins="rect(4,4,4,4)"/>
			<v:textRect cx="150.75" cy="398.49" width="125.86" height="22.4037"/>
			<path d="M0 405.24 L301.5 405.24" class="st2"/>
			<text x="91.82" y="402.09" class="st4" v:langID="2057"><v:paragraph/><v:tabList/>1a: Search for free slots</text>		</g>
		<g id="group16-14" transform="translate(366.87,-229.62)" v:mID="16" v:groupContext="group">
			<v:userDefs>
				<v:ud v:nameU="F" v:val="VT0(1):26"/>
				<v:ud v:nameU="Format" v:val="VT0(0):26"/>
				<v:ud v:nameU="ActiveObject" v:prompt="0,0626" v:val="VT0(0):26"/>
			</v:userDefs>
			<title>Part, Lifeline</title>
			<g id="shape17-15" v:mID="17" v:groupContext="shape" transform="translate(9,1.7053E-13)">
				<title>Sheet.17</title>
				<path d="M0 405.24 L0 342.24 L0 405.24 Z" class="st5"/>
			</g>
			<g id="shape18-18" v:mID="18" v:groupContext="shape">
				<title>Sheet.18</title>
				<path d="M9 405.24 L0 405.24 L9 405.24 Z" class="st5"/>
			</g>
			<g id="shape19-21" v:mID="19" v:groupContext="shape">
				<title>Sheet.19</title>
				<path d="M9 405.24 L0 405.24 L9 405.24 Z" class="st5"/>
			</g>
			<g id="shape20-24" v:mID="20" v:groupContext="shape">
				<title>Sheet.20</title>
				<path d="M9 405.24 L0 405.24 L9 405.24 Z" class="st5"/>
			</g>
			<g id="shape21-27" v:mID="21" v:groupContext="shape">
				<title>Sheet.21</title>
				<v:userDefs>
					<v:ud v:nameU="TabSize" v:val="VT0(0.125):0"/>
				</v:userDefs>
				<path d="M9 405.24 L9 342.24 L0 342.24 L0 405.24 L9 405.24 ZM0 405.24 L0 342.24 L0 405.24 ZM9 342.24 L9 405.24 L9
							 342.24 Z" class="st5"/>
				<path d="M9 405.24 L9 342.24" class="st6"/>
				<path d="M0 405.24 L0 342.24" class="st6"/>
				<path d="M0 342.24 L9 342.24" class="st6"/>
				<path d="M0 405.24 L9 405.24" class="st6"/>
			</g>
		</g>
		<g id="group22-33" transform="translate(56.37,-229.62)" v:mID="22" v:groupContext="group">
			<v:userDefs>
				<v:ud v:nameU="F" v:val="VT0(1):26"/>
				<v:ud v:nameU="Format" v:val="VT0(0):26"/>
				<v:ud v:nameU="ActiveObject" v:prompt="0,0626" v:val="VT0(0):26"/>
			</v:userDefs>
			<title>Part, Lifeline.22</title>
			<g id="shape23-34" v:mID="23" v:groupContext="shape" transform="translate(9,1.7053E-13)">
				<title>Sheet.23</title>
				<path d="M0 405.24 L0 342.24 L0 405.24 Z" class="st5"/>
			</g>
			<g id="shape24-37" v:mID="24" v:groupContext="shape">
				<title>Sheet.24</title>
				<path d="M9 405.24 L0 405.24 L9 405.24 Z" class="st5"/>
			</g>
			<g id="shape25-40" v:mID="25" v:groupContext="shape">
				<title>Sheet.25</title>
				<path d="M9 405.24 L0 405.24 L9 405.24 Z" class="st5"/>
			</g>
			<g id="shape26-43" v:mID="26" v:groupContext="shape">
				<title>Sheet.26</title>
				<path d="M9 405.24 L0 405.24 L9 405.24 Z" class="st5"/>
			</g>
			<g id="shape27-46" v:mID="27" v:groupContext="shape">
				<title>Sheet.27</title>
				<v:userDefs>
					<v:ud v:nameU="TabSize" v:val="VT0(0.125):0"/>
				</v:userDefs>
				<path d="M9 405.24 L9 342.24 L0 342.24 L0 405.24 L9 405.24 ZM0 405.24 L0 342.24 L0 405.24 ZM9 342.24 L9 405.24 L9
							 342.24 Z" class="st5"/>
				<path d="M9 405.24 L9 342.24" class="st6"/>
				<path d="M0 405.24 L0 342.24" class="st6"/>
				<path d="M0 342.24 L9 342.24" class="st6"/>
				<path d="M0 405.24 L9 405.24" class="st6"/>
			</g>
		</g>
		<g id="shape28-52" v:mID="28" v:groupContext="shape" transform="translate(366.87,-245.37) scale(-1,1)">
			<title>Message (seq.diag).28</title>
			<desc>1b: Free slots returned</desc>
			<v:userDefs>
				<v:ud v:nameU="State" v:val="VT0(1):26"/>
				<v:ud v:nameU="LostFound" v:val="VT0(0):26"/>
			</v:userDefs>
			<v:textBlock v:margins="rect(4,4,4,4)"/>
			<v:textRect cx="150.75" cy="398.49" width="124.54" height="22.4037"/>
			<path d="M0 405.24 L301.5 405.24" class="st2"/>
			<text x="-209.02" y="402.09" transform="scale(-1,1)" class="st4" v:langID="2057"><v:paragraph/><v:tabList/>1b: Free slots returned  </text>		</g>
		<g id="shape29-58" v:mID="29" v:groupContext="shape" transform="translate(65.37,-164.37)">
			<title>Message (seq.diag).30</title>
			<desc>2a: Find a patient</desc>
			<v:userDefs>
				<v:ud v:nameU="State" v:val="VT0(1):26"/>
				<v:ud v:nameU="LostFound" v:val="VT0(0):26"/>
			</v:userDefs>
			<v:textBlock v:margins="rect(4,4,4,4)"/>
			<v:textRect cx="150.75" cy="398.49" width="95.65" height="22.4037"/>
			<path d="M0 405.24 L301.5 405.24" class="st2"/>
			<text x="106.93" y="402.09" class="st4" v:langID="2057"><v:paragraph/><v:tabList/>2a: Find a patient</text>		</g>
		<g id="group30-64" transform="translate(366.87,-117.12)" v:mID="30" v:groupContext="group">
			<v:userDefs>
				<v:ud v:nameU="F" v:val="VT0(1):26"/>
				<v:ud v:nameU="Format" v:val="VT0(0):26"/>
				<v:ud v:nameU="ActiveObject" v:prompt="0,0626" v:val="VT0(0):26"/>
			</v:userDefs>
			<title>Part, Lifeline.31</title>
			<g id="shape31-65" v:mID="31" v:groupContext="shape" transform="translate(9,1.7053E-13)">
				<title>Sheet.31</title>
				<path d="M0 405.24 L0 342.24 L0 405.24 Z" class="st5"/>
			</g>
			<g id="shape32-68" v:mID="32" v:groupContext="shape">
				<title>Sheet.32</title>
				<path d="M9 405.24 L0 405.24 L9 405.24 Z" class="st5"/>
			</g>
			<g id="shape33-71" v:mID="33" v:groupContext="shape">
				<title>Sheet.33</title>
				<path d="M9 405.24 L0 405.24 L9 405.24 Z" class="st5"/>
			</g>
			<g id="shape34-74" v:mID="34" v:groupContext="shape">
				<title>Sheet.34</title>
				<path d="M9 405.24 L0 405.24 L9 405.24 Z" class="st5"/>
			</g>
			<g id="shape35-77" v:mID="35" v:groupContext="shape">
				<title>Sheet.35</title>
				<v:userDefs>
					<v:ud v:nameU="TabSize" v:val="VT0(0.125):0"/>
				</v:userDefs>
				<path d="M9 405.24 L9 342.24 L0 342.24 L0 405.24 L9 405.24 ZM0 405.24 L0 342.24 L0 405.24 ZM9 342.24 L9 405.24 L9
							 342.24 Z" class="st5"/>
				<path d="M9 405.24 L9 342.24" class="st6"/>
				<path d="M0 405.24 L0 342.24" class="st6"/>
				<path d="M0 342.24 L9 342.24" class="st6"/>
				<path d="M0 405.24 L9 405.24" class="st6"/>
			</g>
		</g>
		<g id="group36-83" transform="translate(56.37,-117.12)" v:mID="36" v:groupContext="group">
			<v:userDefs>
				<v:ud v:nameU="F" v:val="VT0(1):26"/>
				<v:ud v:nameU="Format" v:val="VT0(0):26"/>
				<v:ud v:nameU="ActiveObject" v:prompt="0,0626" v:val="VT0(0):26"/>
			</v:userDefs>
			<title>Part, Lifeline.37</title>
			<g id="shape37-84" v:mID="37" v:groupContext="shape" transform="translate(9,1.7053E-13)">
				<title>Sheet.37</title>
				<path d="M0 405.24 L0 342.24 L0 405.24 Z" class="st5"/>
			</g>
			<g id="shape38-87" v:mID="38" v:groupContext="shape">
				<title>Sheet.38</title>
				<path d="M9 405.24 L0 405.24 L9 405.24 Z" class="st5"/>
			</g>
			<g id="shape39-90" v:mID="39" v:groupContext="shape">
				<title>Sheet.39</title>
				<path d="M9 405.24 L0 405.24 L9 405.24 Z" class="st5"/>
			</g>
			<g id="shape40-93" v:mID="40" v:groupContext="shape">
				<title>Sheet.40</title>
				<path d="M9 405.24 L0 405.24 L9 405.24 Z" class="st5"/>
			</g>
			<g id="shape41-96" v:mID="41" v:groupContext="shape">
				<title>Sheet.41</title>
				<v:userDefs>
					<v:ud v:nameU="TabSize" v:val="VT0(0.125):0"/>
				</v:userDefs>
				<path d="M9 405.24 L9 342.24 L0 342.24 L0 405.24 L9 405.24 ZM0 405.24 L0 342.24 L0 405.24 ZM9 342.24 L9 405.24 L9
							 342.24 Z" class="st5"/>
				<path d="M9 405.24 L9 342.24" class="st6"/>
				<path d="M0 405.24 L0 342.24" class="st6"/>
				<path d="M0 342.24 L9 342.24" class="st6"/>
				<path d="M0 405.24 L9 405.24" class="st6"/>
			</g>
		</g>
		<g id="shape42-102" v:mID="42" v:groupContext="shape" transform="translate(366.87,-132.87) scale(-1,1)">
			<title>Message (seq.diag).42</title>
			<desc>2b: Patient returned</desc>
			<v:userDefs>
				<v:ud v:nameU="State" v:val="VT0(1):26"/>
				<v:ud v:nameU="LostFound" v:val="VT0(0):26"/>
			</v:userDefs>
			<v:textBlock v:margins="rect(4,4,4,4)"/>
			<v:textRect cx="150.75" cy="398.49" width="112.72" height="22.4037"/>
			<path d="M0 405.24 L301.5 405.24" class="st2"/>
			<text x="-203.11" y="402.09" transform="scale(-1,1)" class="st4" v:langID="2057"><v:paragraph/><v:tabList/>2b: Patient returned  </text>		</g>
		<g id="shape43-108" v:mID="43" v:groupContext="shape" transform="translate(65.37,-65.37)">
			<title>Message (seq.diag).44</title>
			<desc>3a: Book an appointment</desc>
			<v:userDefs>
				<v:ud v:nameU="State" v:val="VT0(1):26"/>
				<v:ud v:nameU="LostFound" v:val="VT0(0):26"/>
			</v:userDefs>
			<v:textBlock v:margins="rect(4,4,4,4)"/>
			<v:textRect cx="150.75" cy="398.49" width="134.24" height="22.4037"/>
			<path d="M0 405.24 L301.5 405.24" class="st2"/>
			<text x="87.63" y="402.09" class="st4" v:langID="2057"><v:paragraph/><v:tabList/>3a: Book an appointment</text>		</g>
		<g id="group44-114" transform="translate(366.87,-18.12)" v:mID="44" v:groupContext="group">
			<v:userDefs>
				<v:ud v:nameU="F" v:val="VT0(1):26"/>
				<v:ud v:nameU="Format" v:val="VT0(0):26"/>
				<v:ud v:nameU="ActiveObject" v:prompt="0,0626" v:val="VT0(0):26"/>
			</v:userDefs>
			<title>Part, Lifeline.45</title>
			<g id="shape45-115" v:mID="45" v:groupContext="shape" transform="translate(9,1.7053E-13)">
				<title>Sheet.45</title>
				<path d="M0 405.24 L0 342.24 L0 405.24 Z" class="st5"/>
			</g>
			<g id="shape46-118" v:mID="46" v:groupContext="shape">
				<title>Sheet.46</title>
				<path d="M9 405.24 L0 405.24 L9 405.24 Z" class="st5"/>
			</g>
			<g id="shape47-121" v:mID="47" v:groupContext="shape">
				<title>Sheet.47</title>
				<path d="M9 405.24 L0 405.24 L9 405.24 Z" class="st5"/>
			</g>
			<g id="shape48-124" v:mID="48" v:groupContext="shape">
				<title>Sheet.48</title>
				<path d="M9 405.24 L0 405.24 L9 405.24 Z" class="st5"/>
			</g>
			<g id="shape49-127" v:mID="49" v:groupContext="shape">
				<title>Sheet.49</title>
				<v:userDefs>
					<v:ud v:nameU="TabSize" v:val="VT0(0.125):0"/>
				</v:userDefs>
				<path d="M9 405.24 L9 342.24 L0 342.24 L0 405.24 L9 405.24 ZM0 405.24 L0 342.24 L0 405.24 ZM9 342.24 L9 405.24 L9
							 342.24 Z" class="st5"/>
				<path d="M9 405.24 L9 342.24" class="st6"/>
				<path d="M0 405.24 L0 342.24" class="st6"/>
				<path d="M0 342.24 L9 342.24" class="st6"/>
				<path d="M0 405.24 L9 405.24" class="st6"/>
			</g>
		</g>
		<g id="group50-133" transform="translate(56.37,-18.12)" v:mID="50" v:groupContext="group">
			<v:userDefs>
				<v:ud v:nameU="F" v:val="VT0(1):26"/>
				<v:ud v:nameU="Format" v:val="VT0(0):26"/>
				<v:ud v:nameU="ActiveObject" v:prompt="0,0626" v:val="VT0(0):26"/>
			</v:userDefs>
			<title>Part, Lifeline.51</title>
			<g id="shape51-134" v:mID="51" v:groupContext="shape" transform="translate(9,1.7053E-13)">
				<title>Sheet.51</title>
				<path d="M0 405.24 L0 342.24 L0 405.24 Z" class="st5"/>
			</g>
			<g id="shape52-137" v:mID="52" v:groupContext="shape">
				<title>Sheet.52</title>
				<path d="M9 405.24 L0 405.24 L9 405.24 Z" class="st5"/>
			</g>
			<g id="shape53-140" v:mID="53" v:groupContext="shape">
				<title>Sheet.53</title>
				<path d="M9 405.24 L0 405.24 L9 405.24 Z" class="st5"/>
			</g>
			<g id="shape54-143" v:mID="54" v:groupContext="shape">
				<title>Sheet.54</title>
				<path d="M9 405.24 L0 405.24 L9 405.24 Z" class="st5"/>
			</g>
			<g id="shape55-146" v:mID="55" v:groupContext="shape">
				<title>Sheet.55</title>
				<v:userDefs>
					<v:ud v:nameU="TabSize" v:val="VT0(0.125):0"/>
				</v:userDefs>
				<path d="M9 405.24 L9 342.24 L0 342.24 L0 405.24 L9 405.24 ZM0 405.24 L0 342.24 L0 405.24 ZM9 342.24 L9 405.24 L9
							 342.24 Z" class="st5"/>
				<path d="M9 405.24 L9 342.24" class="st6"/>
				<path d="M0 405.24 L0 342.24" class="st6"/>
				<path d="M0 342.24 L9 342.24" class="st6"/>
				<path d="M0 405.24 L9 405.24" class="st6"/>
			</g>
		</g>
		<g id="shape56-152" v:mID="56" v:groupContext="shape" transform="translate(366.87,-33.87) scale(-1,1)">
			<title>Message (seq.diag).57</title>
			<desc>3b: Booked appointment returned</desc>
			<v:userDefs>
				<v:ud v:nameU="State" v:val="VT0(1):26"/>
				<v:ud v:nameU="LostFound" v:val="VT0(0):26"/>
			</v:userDefs>
			<v:textBlock v:margins="rect(4,4,4,4)"/>
			<v:textRect cx="150.75" cy="398.49" width="180.97" height="22.4037"/>
			<path d="M0 405.24 L301.5 405.24" class="st2"/>
			<text x="-237.23" y="402.09" transform="scale(-1,1)" class="st4" v:langID="2057"><v:paragraph/><v:tabList/>3b: Booked appointment returned  </text>		</g>
		<g id="group57-158" transform="translate(2.37,-207.12)" v:mID="57" v:groupContext="group">
			<v:userDefs>
				<v:ud v:nameU="Row_1" v:val="VT0(0):26"/>
				<v:ud v:nameU="MoveText" v:val="VT0(0):26"/>
				<v:ud v:nameU="Row_3" v:val="VT0(0):26"/>
				<v:ud v:nameU="Row_4" v:val="VT0(0):26"/>
				<v:ud v:nameU="Row_5" v:val="VT0(0):26"/>
				<v:ud v:nameU="Row_6" v:val="VT0(0):26"/>
				<v:ud v:nameU="Row_7" v:val="VT0(0):26"/>
				<v:ud v:nameU="Row_8" v:val="VT0(0):26"/>
				<v:ud v:nameU="Row_9" v:val="VT0(0):26"/>
				<v:ud v:nameU="Row_10" v:val="VT0(0):26"/>
			</v:userDefs>
			<title>Diagram, Frame</title>
			<g id="shape58-159" v:mID="58" v:groupContext="shape">
				<title>Sheet.58</title>
				<v:userDefs>
					<v:ud v:nameU="HideText"/>
					<v:ud v:nameU="MoveText" v:val="VT0(0):26"/>
				</v:userDefs>
				<rect x="0" y="279.24" width="432" height="126" rx="13.5" ry="13.5" class="st7"/>
				<rect x="0" y="279.24" width="432" height="126" rx="13.5" ry="13.5" class="st8"/>
			</g>
			<g id="shape59-162" v:mID="59" v:groupContext="shape">
				<title>Sheet.59</title>
				<desc>[guard]</desc>
				<v:userDefs>
					<v:ud v:nameU="HideText" v:val="VT0(0):26"/>
					<v:ud v:nameU="MoveText" v:val="VT0(0):26"/>
					<v:ud v:nameU="HideLine" v:val="VT0(0):26"/>
				</v:userDefs>
				<v:textBlock v:margins="rect(4,4,4,4)" v:tabSpace="42.5197"/>
				<v:textRect cx="53.76" cy="414.24" width="46.27" height="22.4037"/>
			</g>
			<g id="shape60-164" v:mID="60" v:groupContext="shape">
				<title>Sheet.60</title>
				<desc>[guard]</desc>
				<v:userDefs>
					<v:ud v:nameU="HideText" v:val="VT0(0):26"/>
					<v:ud v:nameU="MoveText" v:val="VT0(0):26"/>
					<v:ud v:nameU="HideLine" v:val="VT0(0):26"/>
				</v:userDefs>
				<v:textBlock v:margins="rect(4,4,4,4)" v:tabSpace="42.5197"/>
				<v:textRect cx="216" cy="414.24" width="46.27" height="22.4037"/>
			</g>
			<g id="shape61-166" v:mID="61" v:groupContext="shape">
				<title>Sheet.61</title>
				<desc>[guard]</desc>
				<v:userDefs>
					<v:ud v:nameU="HideText" v:val="VT0(0):26"/>
					<v:ud v:nameU="MoveText" v:val="VT0(0):26"/>
					<v:ud v:nameU="HideLine" v:val="VT0(0):26"/>
				</v:userDefs>
				<v:textBlock v:margins="rect(4,4,4,4)" v:tabSpace="42.5197"/>
				<v:textRect cx="216" cy="414.24" width="46.27" height="22.4037"/>
			</g>
			<g id="shape62-168" v:mID="62" v:groupContext="shape">
				<title>Sheet.62</title>
				<desc>[guard]</desc>
				<v:userDefs>
					<v:ud v:nameU="HideText" v:val="VT0(0):26"/>
					<v:ud v:nameU="MoveText" v:val="VT0(0):26"/>
					<v:ud v:nameU="HideLine" v:val="VT0(0):26"/>
				</v:userDefs>
				<v:textBlock v:margins="rect(4,4,4,4)" v:tabSpace="42.5197"/>
				<v:textRect cx="216" cy="414.24" width="46.27" height="22.4037"/>
			</g>
			<g id="shape63-170" v:mID="63" v:groupContext="shape">
				<title>Sheet.63</title>
				<desc>[guard]</desc>
				<v:userDefs>
					<v:ud v:nameU="HideText" v:val="VT0(0):26"/>
					<v:ud v:nameU="MoveText" v:val="VT0(0):26"/>
					<v:ud v:nameU="HideLine" v:val="VT0(0):26"/>
				</v:userDefs>
				<v:textBlock v:margins="rect(4,4,4,4)" v:tabSpace="42.5197"/>
				<v:textRect cx="216" cy="414.24" width="46.27" height="22.4037"/>
			</g>
			<g id="shape64-172" v:mID="64" v:groupContext="shape">
				<title>Sheet.64</title>
				<desc>[guard]</desc>
				<v:userDefs>
					<v:ud v:nameU="HideText" v:val="VT0(0):26"/>
					<v:ud v:nameU="MoveText" v:val="VT0(0):26"/>
					<v:ud v:nameU="HideLine" v:val="VT0(0):26"/>
				</v:userDefs>
				<v:textBlock v:margins="rect(4,4,4,4)" v:tabSpace="42.5197"/>
				<v:textRect cx="216" cy="414.24" width="46.27" height="22.4037"/>
			</g>
			<g id="shape65-174" v:mID="65" v:groupContext="shape">
				<title>Sheet.65</title>
				<desc>[guard]</desc>
				<v:userDefs>
					<v:ud v:nameU="HideText" v:val="VT0(0):26"/>
					<v:ud v:nameU="MoveText" v:val="VT0(0):26"/>
					<v:ud v:nameU="HideLine" v:val="VT0(0):26"/>
				</v:userDefs>
				<v:textBlock v:margins="rect(4,4,4,4)" v:tabSpace="42.5197"/>
				<v:textRect cx="216" cy="414.24" width="46.27" height="22.4037"/>
			</g>
			<g id="shape66-176" v:mID="66" v:groupContext="shape">
				<title>Sheet.66</title>
				<desc>[guard]</desc>
				<v:userDefs>
					<v:ud v:nameU="HideText" v:val="VT0(0):26"/>
					<v:ud v:nameU="MoveText" v:val="VT0(0):26"/>
					<v:ud v:nameU="HideLine" v:val="VT0(0):26"/>
				</v:userDefs>
				<v:textBlock v:margins="rect(4,4,4,4)" v:tabSpace="42.5197"/>
				<v:textRect cx="216" cy="414.24" width="46.27" height="22.4037"/>
			</g>
			<g id="shape67-178" v:mID="67" v:groupContext="shape" transform="translate(0,-103.596)">
				<title>Sheet.67</title>
				<desc>Repeat for each practice in the federation</desc>
				<v:userDefs>
					<v:ud v:nameU="Row_1" v:val="VT0(0):26"/>
					<v:ud v:nameU="Row_2" v:val="VT0(0):26"/>
				</v:userDefs>
				<v:textBlock v:margins="rect(4,4,4,4)" v:tabSpace="42.5197"/>
				<v:textRect cx="146.588" cy="394.038" width="218.66" height="22.4037"/>
				<path d="M11.2 405.24 L278.58 405.24 A13.5 13.5 -180 0 0 288.13 401.29 L289.22 400.19 A13.5 13.5 -180 0 0 293.18
							 390.65 L293.18 390.65 A7.81183 7.81183 -180 0 0 285.36 382.84 L11.2 382.84 A11.2019 11.2019 -180 0 0
							 0 394.04 L0 394.04 A11.2019 11.2019 -180 0 0 11.2 405.24 Z" class="st9"/>
				<text x="42.62" y="397.64" class="st10" v:langID="2057"><v:paragraph v:horizAlign="1"/><v:tabList/>Repeat for each practice in the federation</text>			</g>
		</g>
		<g id="group68-181" transform="translate(0.12,-355.62)" v:mID="68" v:groupContext="group">
			<v:userDefs>
				<v:ud v:nameU="F" v:val="VT0(1):26"/>
				<v:ud v:nameU="Format" v:val="VT0(0):26"/>
				<v:ud v:nameU="ActiveObject" v:prompt="0,0626" v:val="VT0(0):26"/>
			</v:userDefs>
			<title>Class</title>
			<g id="shape69-182" v:mID="69" v:groupContext="shape" transform="translate(121.5,5.68434E-14)">
				<title>Sheet.69</title>
				<path d="M0 405.24 L0 355.74 L0 405.24 Z" class="st11"/>
			</g>
			<g id="shape70-185" v:mID="70" v:groupContext="shape">
				<title>Sheet.70</title>
				<path d="M121.5 405.24 L0 405.24 L121.5 405.24 Z" class="st11"/>
			</g>
			<g id="shape71-188" v:mID="71" v:groupContext="shape">
				<title>Sheet.71</title>
				<path d="M121.5 405.24 L0 405.24 L121.5 405.24 Z" class="st11"/>
			</g>
			<g id="shape72-191" v:mID="72" v:groupContext="shape">
				<title>Sheet.72</title>
				<path d="M121.5 405.24 L0 405.24 L121.5 405.24 Z" class="st11"/>
			</g>
			<g id="shape73-194" v:mID="73" v:groupContext="shape">
				<title>Sheet.73</title>
				<desc>GP Connect Consumer</desc>
				<v:userDefs>
					<v:ud v:nameU="TabSize" v:val="VT0(0.125):0"/>
				</v:userDefs>
				<v:textBlock v:margins="rect(4,4,4,4)" v:tabSpace="42.5197"/>
				<v:textRect cx="60.75" cy="380.49" width="121.5" height="49.5"/>
				<path d="M121.5 405.24 L121.5 355.74 L0 355.74 L0 405.24 L121.5 405.24 ZM0 405.24 L0 355.74 L0 405.24 ZM121.5 355.74
							 L121.5 405.24 L121.5 355.74 Z" class="st11"/>
				<path d="M121.5 405.24 L121.5 355.74" class="st6"/>
				<path d="M0 405.24 L0 355.74" class="st6"/>
				<path d="M0 355.74 L121.5 355.74" class="st6"/>
				<path d="M0 405.24 L121.5 405.24" class="st6"/>
				<text x="27.12" y="376.29" class="st12" v:langID="2057"><v:paragraph v:horizAlign="1"/><v:tabList/>GP Connect <tspan
							x="31.27" dy="1.2em" class="st13">Consumer</tspan></text>			</g>
		</g>
		<g id="group1-202" transform="translate(312.87,-355.62)" v:mID="1" v:groupContext="group">
			<v:userDefs>
				<v:ud v:nameU="F" v:val="VT0(1):26"/>
				<v:ud v:nameU="Format" v:val="VT0(0):26"/>
				<v:ud v:nameU="ActiveObject" v:prompt="0,0626" v:val="VT0(0):26"/>
			</v:userDefs>
			<title>Class.1</title>
			<g id="shape2-203" v:mID="2" v:groupContext="shape" transform="translate(121.5,5.68434E-14)">
				<title>Sheet.2</title>
				<path d="M0 405.24 L0 355.74 L0 405.24 Z" class="st14"/>
			</g>
			<g id="shape3-206" v:mID="3" v:groupContext="shape">
				<title>Sheet.3</title>
				<path d="M121.5 405.24 L0 405.24 L121.5 405.24 Z" class="st14"/>
			</g>
			<g id="shape4-209" v:mID="4" v:groupContext="shape">
				<title>Sheet.4</title>
				<path d="M121.5 405.24 L0 405.24 L121.5 405.24 Z" class="st14"/>
			</g>
			<g id="shape5-212" v:mID="5" v:groupContext="shape">
				<title>Sheet.5</title>
				<path d="M121.5 405.24 L0 405.24 L121.5 405.24 Z" class="st14"/>
			</g>
			<g id="shape6-215" v:mID="6" v:groupContext="shape">
				<title>Sheet.6</title>
				<desc>GP Connect Provider</desc>
				<v:userDefs>
					<v:ud v:nameU="TabSize" v:val="VT0(0.125):0"/>
				</v:userDefs>
				<v:textBlock v:margins="rect(4,4,4,4)" v:tabSpace="42.5197"/>
				<v:textRect cx="60.75" cy="380.49" width="121.5" height="49.5"/>
				<path d="M121.5 405.24 L121.5 355.74 L0 355.74 L0 405.24 L121.5 405.24 ZM0 405.24 L0 355.74 L0 405.24 ZM121.5 355.74
							 L121.5 405.24 L121.5 355.74 Z" class="st14"/>
				<path d="M121.5 405.24 L121.5 355.74" class="st6"/>
				<path d="M0 405.24 L0 355.74" class="st6"/>
				<path d="M0 355.74 L121.5 355.74" class="st6"/>
				<path d="M0 405.24 L121.5 405.24" class="st6"/>
				<text x="27.12" y="376.29" class="st12" v:langID="2057"><v:paragraph v:horizAlign="1"/><v:tabList/>GP Connect <tspan
							x="35.97" dy="1.2em" class="st13">Provider</tspan></text>			</g>
		</g>
	</g>
</svg>
