<?xml version="1.0" encoding="UTF-8" standalone="no"?>
<!DOCTYPE svg PUBLIC "-//W3C//DTD SVG 1.1//EN" "http://www.w3.org/Graphics/SVG/1.1/DTD/svg11.dtd">
<!-- Generated by Microsoft Visio, SVG Export Consultation_FHIR_Resource_Model.svg Consultation Model -->
<svg xmlns="http://www.w3.org/2000/svg" xmlns:xlink="http://www.w3.org/1999/xlink" xmlns:ev="http://www.w3.org/2001/xml-events"
		width="8.5in" height="11in" viewBox="0 0 612 792" xml:space="preserve" color-interpolation-filters="sRGB" class="st15">
	<style type="text/css">
	<![CDATA[
		.st1 {stroke:#92d050;stroke-linecap:round;stroke-linejoin:round;stroke-width:1.25}
		.st2 {stroke:#0070c0;stroke-dasharray:0,6.75;stroke-linecap:round;stroke-linejoin:round;stroke-width:2.25}
		.st3 {stroke:#bfbfbf;stroke-width:2.25}
		.st4 {fill:#000000;font-family:Calibri;font-size:0.801659em}
		.st5 {font-size:1em}
		.st6 {fill:#fec000;stroke:#c8c8c8;stroke-linecap:round;stroke-linejoin:round;stroke-width:0.75}
		.st7 {fill:#feffff;font-family:Calibri;font-size:0.801659em;font-weight:bold}
		.st8 {font-size:1em;font-style:italic}
		.st9 {fill:#70ad47;stroke:#c8c8c8;stroke-linecap:round;stroke-linejoin:round;stroke-width:0.75}
		.st10 {fill:#feffff;font-family:Calibri;font-size:0.801979em}
		.st11 {fill:#4672c4;stroke:#c8c8c8;stroke-linecap:round;stroke-linejoin:round;stroke-width:0.75}
		.st12 {stroke:#f59d56;stroke-linecap:round;stroke-linejoin:round;stroke-width:0.75}
		.st13 {fill:none;stroke:none;stroke-linecap:round;stroke-linejoin:round;stroke-width:0.75}
		.st14 {fill:#92d050;font-family:Calibri;font-size:0.75em;font-weight:bold}
		.st15 {fill:none;fill-rule:evenodd;font-size:12px;overflow:visible;stroke-linecap:square;stroke-miterlimit:3}
	]]>
	</style>

	<g>
		<title>Consultation Model</title>
		<g id="shape1045-1" transform="translate(396.85,-510.236)">
			<title>Dynamic connector.1045</title>
			<path d="M0 792 L0 886.96 L-101.96 886.96" class="st1"/>
		</g>
		<g id="shape1048-4" transform="translate(294.895,-627.165)">
			<title>Dynamic connector.1048</title>
			<path d="M0 792 L70.64 792 L70.64 724.24" class="st1"/>
		</g>
		<g id="shape1043-7" transform="translate(294.895,-708.762)">
			<title>Dynamic connector.1043</title>
			<path d="M0 784.91 L59.44 784.91" class="st1"/>
		</g>
		<g id="group1006-10" transform="translate(-657.354,103.241) rotate(-90)">
			<title>Annotation.1006</title>
			<g id="shape1007-11" transform="translate(819.09,792) rotate(90)">
				<title>Sheet.1007</title>
				<path d="M34.11 792 L0 792" class="st2"/>
			</g>
			<g id="shape1008-14" transform="translate(792,792) rotate(90) scale(-1,1)">
				<title>Sheet.1008</title>
				<desc>A consultation has context – ‘Date, Dr, Place, Type’ represen...</desc>
				<path d="M20.55 737.82 L0 737.82 L0 792 L20.55 792" class="st3"/>
				<text x="-114.68" y="750.48" transform="scale(-1,1)" class="st4">A consultation has context –<tspan x="-89.86"
							dy="1.2em" class="st5">‘</tspan>Date, Dr, Place, Type’ <tspan x="-99.06" dy="1.2em" class="st5">represented by the FHIR </tspan><tspan
							x="-80.78" dy="1.2em" class="st5">Encounter resource</tspan></text>			</g>
		</g>
		<g id="group1010-21" transform="translate(-657.354,197.731) rotate(-90)">
			<title>Annotation.1010</title>
			<g id="shape1012-22" transform="translate(792,792) rotate(90) scale(-1,1)">
				<title>Sheet.1012</title>
				<desc>A consultation as a grouped and organised collection of clini...</desc>
				<path d="M19.44 726.28 L0 726.28 L0 792 L19.44 792" class="st3"/>
				<text x="-77.68" y="738.94" transform="scale(-1,1)" class="st4">A consultation as a <tspan x="-94.4" dy="1.2em"
							class="st5">grouped and organised </tspan><tspan x="-108.82" dy="1.2em" class="st5">collection of clinical record </tspan><tspan
							x="-107.86" dy="1.2em" class="st5">entries is represented by a </tspan><tspan x="-90.45" dy="1.2em"
							class="st5">top</tspan>-level List resource</text>			</g>
			<g id="shape1011-30" transform="translate(824.861,791.151) rotate(89.9386)">
				<title>Sheet.1011</title>
				<path d="M32.69 792 L0 792" class="st2"/>
			</g>
		</g>
		<g id="group1015-33" transform="translate(-658.772,297.663) rotate(-90)">
			<title>Annotation.1015</title>
			<g id="shape1016-34" transform="translate(824.86,790.585) rotate(89.8976)">
				<title>Sheet.1016</title>
				<path d="M34.11 792 L0 792" class="st2"/>
			</g>
			<g id="shape1017-37" transform="translate(792,792) rotate(90) scale(-1,1)">
				<title>Sheet.1017</title>
				<desc>A Consultation may be organised into sub-groups sometimes des...</desc>
				<path d="M18.66 726.28 L0 726.28 L0 792 L18.66 792" class="st3"/>
				<text x="-92.25" y="738.94" transform="scale(-1,1)" class="st4">A Consultation may be <tspan x="-105.98" dy="1.2em"
							class="st5">organised into sub</tspan>-groups <tspan x="-97.82" dy="1.2em" class="st5">sometimes described as </tspan><tspan
							x="-83.45" dy="1.2em" class="st5">‘</tspan>topics’ or related to <tspan x="-40.98" dy="1.2em"
							class="st5">problems</tspan></text>			</g>
		</g>
		<g id="group1019-45" transform="translate(-657.136,409.586) rotate(-90)">
			<title>Annotation.1019</title>
			<g id="shape1020-46" transform="translate(824.862,792) rotate(90)">
				<title>Sheet.1020</title>
				<path d="M32.47 792 L0 792" class="st2"/>
			</g>
			<g id="shape1021-49" transform="translate(792,792) rotate(90) scale(-1,1)">
				<title>Sheet.1021</title>
				<desc>A topic is further decomposed into sub-headings equivalent to...</desc>
				<path d="M19.48 726.28 L0 726.28 L0 792 L19.48 792" class="st3"/>
				<text x="-69.45" y="738.94" transform="scale(-1,1)" class="st4">A topic is further <tspan x="-91.12" dy="1.2em"
							class="st5">decomposed into sub</tspan>-<tspan x="-103.63" dy="1.2em" class="st5">headings equivalent to or </tspan><tspan
							x="-109.82" dy="1.2em" class="st5">along the lines of the SOAP </tspan><tspan x="-106.93" dy="1.2em"
							class="st5">structure of medical notes</tspan></text>			</g>
		</g>
		<g id="shape1028-57" transform="translate(167.336,-490.162)">
			<title>Rectangle.1028</title>
			<desc>Topic/Problem (List.code = 25851000000105 | Topic (EHR) (reco...</desc>
			<rect x="0" y="717.805" width="127.559" height="74.1946" class="st6"/>
			<text x="34.02" y="746.24" class="st7">Topic/Problem<tspan x="2.73" dy="1.2em" class="st8">(List.code = 25851000000105 | </tspan><tspan
						x="4.85" dy="1.2em" class="st8">Topic (EHR) (record artifact) |</tspan></text>		</g>
		<g id="shape1029-62" transform="translate(167.336,-691.599)">
			<title>Rectangle.1029</title>
			<desc>Consultation Context (Encounter)</desc>
			<rect x="0" y="743.5" width="127.559" height="48.4999" class="st6"/>
			<text x="21.56" y="764.86" class="st7">Consultation Context <tspan x="40.59" dy="1.2em" class="st8">(Encounter)</tspan></text>		</g>
		<g id="shape1030-66" transform="translate(167.336,-378.178)">
			<title>Rectangle.1030</title>
			<desc>Heading (List.code = 24781000000107 | Category (EHR) (record ...</desc>
			<rect x="0" y="717.805" width="127.559" height="74.1946" class="st6"/>
			<text x="47.33" y="740.47" class="st7">Heading <tspan x="2.73" dy="1.2em" class="st8">(List.code = 24781000000107 | </tspan><tspan
						x="18.12" dy="1.2em" class="st8">Category (EHR) (record </tspan><tspan x="43.71" dy="1.2em" class="st8">artifact)|)</tspan></text>		</g>
		<g id="group1031-72" transform="translate(-365.168,226.807) rotate(-90)">
			<title>Annotation.1031</title>
			<g id="shape1032-73" transform="translate(-233.658,-64.1336) rotate(-18.7802)">
				<title>Sheet.1032</title>
				<path d="M42.94 792 L0 792" class="st2"/>
			</g>
			<g id="shape1033-76" transform="translate(792,685.701) rotate(90)">
				<title>Sheet.1033</title>
				<desc>Represents the authorship of the Consultation</desc>
				<path d="M17.72 749.36 L0 749.36 L0 792 L17.72 792" class="st3"/>
				<text x="4" y="762.02" class="st4">Represents the <tspan x="4" dy="1.2em" class="st5">authorship of the </tspan><tspan
							x="4" dy="1.2em" class="st5">Consultation</tspan></text>			</g>
		</g>
		<g id="group1034-82" transform="translate(-205.532,83.3464) rotate(-90)">
			<title>Annotation.1034</title>
			<g id="shape1035-83" transform="translate(-758.67,784.928) rotate(-97.1973)">
				<title>Sheet.1035</title>
				<path d="M158.79 792 L0 792" class="st2"/>
			</g>
			<g id="shape1036-86" transform="translate(792,685.701) rotate(90)">
				<title>Sheet.1036</title>
				<desc>A Consultation or Record Entry may be attributed to more then...</desc>
				<path d="M17.72 737.82 L0 737.82 L0 792 L17.72 792" class="st3"/>
				<text x="4" y="750.48" class="st4">A Consultation or Record <tspan x="4" dy="1.2em" class="st5">Entry may be attributed </tspan><tspan
							x="4" dy="1.2em" class="st5">to more then one Actor </tspan><tspan x="4" dy="1.2em" class="st5">acting in different role</tspan></text>			</g>
		</g>
		<g id="group1037-93" transform="translate(-196.73,355.029) rotate(-90)">
			<title>Annotation.1037</title>
			<g id="shape1038-94" transform="translate(-535.11,154.513) rotate(-50.1881)">
				<title>Sheet.1038</title>
				<path d="M33.2 792 L0 792" class="st2"/>
			</g>
			<g id="shape1039-97" transform="translate(792,661.606) rotate(90)">
				<title>Sheet.1039</title>
				<desc>Record entries may appear directly within a consultation with...</desc>
				<path d="M21.73 645.47 L0 645.47 L0 792 L21.73 792" class="st3"/>
				<text x="4" y="658.13" class="st4">Record entries may appear <tspan x="4" dy="1.2em" class="st5">directly within a consultation </tspan><tspan
							x="4" dy="1.2em" class="st5">without being embedded in </tspan><tspan x="4" dy="1.2em" class="st5">the Topic/Heading structure. </tspan><tspan
							x="4" dy="1.2em" class="st5">By convention, an </tspan>‘artificial’ <tspan x="4" dy="1.2em" class="st5">topic level will be generated to </tspan><tspan
							x="4" dy="1.2em" class="st5">accommodate record entries </tspan><tspan x="4" dy="1.2em" class="st5">recorded within this </tspan>‘flat’ <tspan
							x="4" dy="1.2em" class="st5">structure. A Consultation may </tspan><tspan x="4" dy="1.2em" class="st5">exhibit both styles but </tspan><tspan
							x="4" dy="1.2em" class="st5">represented within different </tspan><tspan x="4" dy="1.2em" class="st5">topics.</tspan></text>			</g>
		</g>
		<g id="group1040-112" transform="translate(-256.252,445.321) rotate(-90)">
			<title>Annotation.1040</title>
			<g id="shape1041-113" transform="translate(-535.105,102.495) rotate(-45.222)">
				<title>Sheet.1041</title>
				<path d="M58.93 792 L0 792" class="st2"/>
			</g>
			<g id="shape1042-116" transform="translate(792,660.349) rotate(90)">
				<title>Sheet.1042</title>
				<desc>Each heading may contain multiple record entries of different...</desc>
				<path d="M21.94 737.82 L0 737.82 L0 792 L21.94 792" class="st3"/>
				<text x="4" y="750.48" class="st4">Each heading may contain <tspan x="4" dy="1.2em" class="st5">multiple record entries of </tspan><tspan
							x="4" dy="1.2em" class="st5">different types represented by </tspan><tspan x="4" dy="1.2em" class="st5">an appropriate FHIR resource</tspan></text>			</g>
		</g>
		<g id="shape1046-123" transform="translate(354.331,1055.35) rotate(180)">
			<title>Sheet.1046</title>
			<path d="M0 792 L59.44 792" class="st1"/>
		</g>
		<g id="shape1047-126" transform="translate(1188.85,97.0729) rotate(90)">
			<title>Sheet.1047</title>
			<path d="M0 792 L142.17 792" class="st1"/>
		</g>
		<g id="shape1000-129" transform="translate(354.331,-694.927)">
			<title>Shape14.1000</title>
			<desc>Actor (Practitioner)</desc>
			<rect x="0" y="749.48" width="85.0394" height="42.5197" class="st9"/>
			<text x="31.87" y="767.85" class="st10">Actor<tspan x="16.67" dy="1.2em" class="st8">(Practitioner)</tspan></text>		</g>
		<g id="shape1004-133" transform="translate(354.331,-510.236)">
			<title>Shape40</title>
			<desc>Record Entry (Appropriate FHIR Resource)</desc>
			<rect x="0" y="749.48" width="85.0394" height="42.5197" class="st11"/>
			<text x="17.3" y="762.08" class="st10">Record Entry<tspan x="7.26" dy="1.2em" class="st5">(Appropriate FHIR </tspan><tspan
						x="23" dy="1.2em" class="st5">Resource)</tspan></text>		</g>
		<g id="shape1027-138" transform="translate(167.336,-590.068)">
			<title>Rectangle.1027</title>
			<desc>Consultation (List.code = 325851000000107| Consultation encou...</desc>
			<rect x="0" y="717.805" width="127.559" height="74.1946" class="st6"/>
			<text x="38.33" y="740.47" class="st7">Consultation <tspan x="1.38" dy="1.2em" class="st8">(List.code = 325851000000107|</tspan><tspan
						x="7.25" dy="1.2em" class="st8">Consultation encounter type </tspan><tspan x="31.31" dy="1.2em" class="st8">record artifact|)</tspan></text>		</g>
		<g id="shape1049-144" transform="translate(224.028,-664.263)">
			<title>Dynamic connector.1049</title>
			<path d="M7.09 792 L7.09 764.66" class="st12"/>
		</g>
		<g id="shape1050-147" transform="translate(224.028,-590.068)">
			<title>Dynamic connector.1050</title>
			<path d="M7.09 792 L7.09 817.71" class="st12"/>
		</g>
		<g id="shape1051-150" transform="translate(224.028,-490.162)">
			<title>Dynamic connector.1051</title>
			<path d="M7.09 792 L7.09 829.79" class="st12"/>
		</g>
		<g id="shape1052-153" transform="translate(283.465,-709.484)">
			<title>Sheet.1052</title>
			<desc>0..*</desc>
			<rect x="0" y="761.386" width="42.5197" height="30.6142" class="st13"/>
			<text x="14.33" y="779.39" class="st14">0..*</text>		</g>
		<g id="shape1053-156" transform="translate(323,-688.521)">
			<title>Sheet.1053</title>
			<desc>0..*</desc>
			<rect x="0" y="761.386" width="42.5197" height="30.6142" class="st13"/>
			<text x="14.33" y="779.39" class="st14">0..*</text>		</g>
		<g id="shape1054-159" transform="translate(354.331,-668.656)">
			<title>Sheet.1054</title>
			<desc>1.1</desc>
			<rect x="0" y="761.386" width="42.5197" height="30.6142" class="st13"/>
			<text x="15.5" y="779.39" class="st14">1.1</text>		</g>
		<g id="shape1055-162" transform="translate(223.114,-668.656)">
			<title>Sheet.1055</title>
			<desc>1.1</desc>
			<rect x="0" y="761.386" width="42.5197" height="30.6142" class="st13"/>
			<text x="15.5" y="779.39" class="st14">1.1</text>		</g>
		<g id="shape1056-165" transform="translate(198.425,-654.712)">
			<title>Sheet.1056</title>
			<desc>1.1</desc>
			<rect x="0" y="761.386" width="42.5197" height="30.6142" class="st13"/>
			<text x="15.5" y="779.39" class="st14">1.1</text>		</g>
		<g id="shape1057-168" transform="translate(222.2,-566.929)">
			<title>Sheet.1057</title>
			<desc>1.1</desc>
			<rect x="0" y="761.386" width="42.5197" height="30.6142" class="st13"/>
			<text x="15.5" y="779.39" class="st14">1.1</text>		</g>
		<g id="shape1058-171" transform="translate(198.425,-555.042)">
			<title>Sheet.1058</title>
			<desc>1..*</desc>
			<rect x="0" y="761.386" width="42.5197" height="30.6142" class="st13"/>
			<text x="14.33" y="779.39" class="st14">1..*</text>		</g>
		<g id="shape1059-174" transform="translate(216.713,-467.717)">
			<title>Sheet.1059</title>
			<desc>1</desc>
			<rect x="0" y="761.386" width="42.5197" height="30.6142" class="st13"/>
			<text x="18.98" y="779.39" class="st14">1</text>		</g>
		<g id="shape1060-177" transform="translate(199.797,-444.189)">
			<title>Sheet.1060</title>
			<desc>0..*</desc>
			<rect x="0" y="761.386" width="42.5197" height="30.6142" class="st13"/>
			<text x="14.33" y="779.39" class="st14">0..*</text>		</g>
		<g id="shape1061-180" transform="translate(290.551,-408.756)">
			<title>Sheet.1061</title>
			<desc>0.1</desc>
			<rect x="0" y="761.386" width="42.5197" height="30.6142" class="st13"/>
			<text x="15.5" y="779.39" class="st14">0.1</text>		</g>
		<g id="shape1062-183" transform="translate(284.811,-522.142)">
			<title>Sheet.1062</title>
			<desc>0.1</desc>
			<rect x="0" y="761.386" width="42.5197" height="30.6142" class="st13"/>
			<text x="15.5" y="779.39" class="st14">0.1</text>		</g>
		<g id="shape1063-186" transform="translate(285.979,-625.679)">
			<title>Sheet.1063</title>
			<desc>0..*</desc>
			<rect x="0" y="761.386" width="42.5197" height="30.6142" class="st13"/>
			<text x="14.33" y="779.39" class="st14">0..*</text>		</g>
		<g id="shape1064-189" transform="translate(363.018,-546.364)">
			<title>Sheet.1064</title>
			<desc>0..*</desc>
			<rect x="0" y="761.386" width="42.5197" height="30.6142" class="st13"/>
			<text x="14.33" y="779.39" class="st14">0..*</text>		</g>
		<g id="shape1065-192" transform="translate(323.698,-503.15)">
			<title>Sheet.1065</title>
			<desc>0..*</desc>
			<rect x="0" y="761.386" width="42.5197" height="30.6142" class="st13"/>
			<text x="14.33" y="779.39" class="st14">0..*</text>		</g>
		<g id="shape1066-195" transform="translate(389.764,-486.709)">
			<title>Sheet.1066</title>
			<desc>1..*</desc>
			<rect x="0" y="761.386" width="42.5197" height="30.6142" class="st13"/>
			<text x="14.33" y="779.39" class="st14">1..*</text>		</g>
		<g id="shape1067-198" transform="translate(389.764,-670.99)">
			<title>Sheet.1067</title>
			<desc>0..*</desc>
			<rect x="0" y="761.386" width="42.5197" height="30.6142" class="st13"/>
			<text x="14.33" y="779.39" class="st14">0..*</text>		</g>
	</g>
</svg>
