<?xml version="1.0" encoding="UTF-8" standalone="no"?>
<!DOCTYPE svg PUBLIC "-//W3C//DTD SVG 1.1//EN" "http://www.w3.org/Graphics/SVG/1.1/DTD/svg11.dtd">
<!-- Generated by Microsoft Visio, SVG Export Consultation_Structure.svg Consultation Model -->
<svg xmlns="http://www.w3.org/2000/svg" xmlns:xlink="http://www.w3.org/1999/xlink" xmlns:ev="http://www.w3.org/2001/xml-events"
		width="16.5in" height="11in" viewBox="0 0 1188 792" xml:space="preserve" color-interpolation-filters="sRGB" class="st14">
	<style type="text/css">
	<![CDATA[
		.st1 {marker-end:url(#mrkr4-7);stroke:#000000;stroke-linecap:round;stroke-linejoin:round;stroke-width:0.75}
		.st2 {fill:#000000;fill-opacity:1;stroke:#000000;stroke-opacity:1;stroke-width:0.22935779816514}
		.st3 {fill:#dbeef3;stroke:#000000;stroke-linecap:round;stroke-linejoin:round;stroke-width:0.24}
		.st4 {fill:#000000;font-family:Calibri;font-size:0.833336em}
		.st5 {font-size:1em}
		.st6 {fill:#d8d8d8;stroke:#000000;stroke-linecap:round;stroke-linejoin:round;stroke-width:0.24}
		.st7 {fill:#ebf1df;stroke:#000000;stroke-linecap:round;stroke-linejoin:round;stroke-width:0.24}
		.st8 {fill:#ddd6e5;stroke:#000000;stroke-linecap:round;stroke-linejoin:round;stroke-width:0.24}
		.st9 {fill:none;stroke:none;stroke-linecap:round;stroke-linejoin:round;stroke-width:0.24}
		.st10 {fill:#000000;font-family:Calibri;font-size:1.16666em;font-weight:bold}
		.st11 {fill:#ffffff;stroke:#000000;stroke-dasharray:1.68,1.2;stroke-linecap:round;stroke-linejoin:round;stroke-width:0.24}
		.st12 {fill:#ffffff;stroke:#000000;stroke-linecap:round;stroke-linejoin:round;stroke-width:0.24}
		.st13 {fill:#92d050;stroke:#000000;stroke-linecap:round;stroke-linejoin:round;stroke-width:0.24}
		.st14 {fill:none;fill-rule:evenodd;font-size:12px;overflow:visible;stroke-linecap:square;stroke-miterlimit:3}
	]]>
	</style>

	<defs id="Markers">
		<g id="lend4">
			<path d="M 2 1 L 0 0 L 2 -1 L 2 1 " style="stroke:none"/>
		</g>
		<marker id="mrkr4-7" class="st2" refX="-8.72" orient="auto" markerUnits="strokeWidth" overflow="visible">
			<use xlink:href="#lend4" transform="scale(-4.36,-4.36) "/>
		</marker>
	</defs>
	<g>
		<title>Consultation Structure</title>
		<g id="group1171-1" transform="translate(10.9134,-325.089)">
			<title>Sheet.1171</title>
			<g id="shape1160-2" transform="translate(495.071,-72.0149)">
				<title>Sheet.1160</title>
				<path d="M0 792 L14.77 792" class="st1"/>
			</g>
			<g id="shape1161-8" transform="translate(495.071,-85.1139)">
				<title>Sheet.1161</title>
				<path d="M0 792 L14.77 792" class="st1"/>
			</g>
			<g id="shape1162-13" transform="translate(495.071,-98.1608)">
				<title>Sheet.1162</title>
				<path d="M0 792 L14.77 792" class="st1"/>
			</g>
			<g id="shape1170-18" transform="translate(495.071,-36.3282)">
				<title>Sheet.1170</title>
				<path d="M0 792 L14.77 792" class="st1"/>
			</g>
			<g id="shape1168-23" transform="translate(572.017,-164.767)">
				<title>Sheet.1168</title>
				<path d="M0 792 L18.8 792" class="st1"/>
			</g>
			<g id="shape1169-28" transform="translate(572.017,-151.698)">
				<title>Sheet.1169</title>
				<path d="M0 792 L18.8 792" class="st1"/>
			</g>
			<g id="shape1154-33" transform="translate(473.811,-426.103)">
				<title>Dynamic connector.1154</title>
				<path d="M0 799.08 L13.5 799.08 L13.5 799.1 L22.8 799.1" class="st1"/>
			</g>
			<g id="shape1163-38" transform="translate(569.779,-325.537)">
				<title>Sheet.1163</title>
				<path d="M0 792 L21.04 792" class="st1"/>
			</g>
			<g id="shape1164-43" transform="translate(569.779,-312.453)">
				<title>Sheet.1164</title>
				<path d="M0 792 L21.04 792" class="st1"/>
			</g>
			<g id="shape1165-48" transform="translate(569.779,-299.353)">
				<title>Sheet.1165</title>
				<path d="M0 792 L21.04 792" class="st1"/>
			</g>
			<g id="shape1166-53" transform="translate(569.779,-252.358)">
				<title>Sheet.1166</title>
				<path d="M0 792 L21.04 792" class="st1"/>
			</g>
			<g id="shape1167-58" transform="translate(569.779,-239.319)">
				<title>Sheet.1167</title>
				<path d="M0 792 L21.04 792" class="st1"/>
			</g>
			<g id="shape1155-63" transform="translate(429.591,-354.775)">
				<title>Dynamic connector.1155</title>
				<path d="M0 793.85 L0 804.33 L17.43 804.33" class="st1"/>
			</g>
			<g id="shape1156-68" transform="translate(429.591,-281.656)">
				<title>Dynamic connector.1156</title>
				<path d="M0 793.83 L0 804.34 L17.43 804.34" class="st1"/>
			</g>
			<g id="shape1157-73" transform="translate(429.874,-193.487)">
				<title>Dynamic connector.1157</title>
				<path d="M0 793.86 L0 804.31 L19.38 804.31" class="st1"/>
			</g>
			<g id="shape1087-78" transform="translate(74.126,-17.6736)">
				<title>Rectangle.1087</title>
				<desc>Record entries may also appear directly within a consultation...</desc>
				<rect x="0" y="684.806" width="116.22" height="107.194" class="st3"/>
				<text x="9.48" y="705.4" class="st4">Record entries may also <tspan x="10.05" dy="1.2em" class="st5">appear directly within a </tspan><tspan
							x="8.64" dy="1.2em" class="st5">consultation outside the </tspan><tspan x="6.29" dy="1.2em" class="st5">topic/section level. These </tspan><tspan
							x="17.05" dy="1.2em" class="st5">styles may be mixed </tspan><tspan x="25.43" dy="1.2em" class="st5">within the same </tspan><tspan
							x="31.58" dy="1.2em" class="st5">consultation.</tspan></text>			</g>
			<g id="shape1088-87" transform="translate(244.205,-17.6736)">
				<title>Rectangle.1088</title>
				<desc>Entries are handled directly within a generated Topic level</desc>
				<rect x="0" y="684.806" width="73.2283" height="107.194" class="st3"/>
				<text x="14.78" y="717.4" class="st4">Entries are <tspan x="20.08" dy="1.2em" class="st5">handled </tspan><tspan
							x="7.48" dy="1.2em" class="st5">directly within </tspan><tspan x="12.2" dy="1.2em" class="st5">a generated </tspan><tspan
							x="14.99" dy="1.2em" class="st5">Topic level</tspan></text>			</g>
			<g id="shape1089-94" transform="translate(238.834,1501.86) rotate(-180)">
				<title>Simple Arrow.1089</title>
				<path d="M0 792 L19.8 768.76 L19.8 780.38 L44.24 780.38 L44.24 792 L44.24 803.62 L19.8 803.62 L19.8 815.24 L0 792
							 Z" class="st6"/>
			</g>
			<g id="shape1090-96" transform="translate(368.42,1501.72) rotate(-180)">
				<title>Simple Arrow.1090</title>
				<path d="M0 792 L19.8 768.76 L19.8 780.38 L43.52 780.38 L43.52 792 L43.52 803.62 L19.8 803.62 L19.8 815.24 L0 792
							 Z" class="st6"/>
			</g>
			<g id="shape1091-98" transform="translate(371.764,1291.14) rotate(-180)">
				<title>Simple Arrow.1091</title>
				<path d="M0 792 L19.8 768.76 L19.8 780.38 L99.21 780.38 L99.21 792 L99.21 803.62 L19.8 803.62 L19.8 815.24 L0 792
							 Z" class="st6"/>
			</g>
			<g id="shape1092-100" transform="translate(334.913,1175.25) rotate(180)">
				<title>Simple Arrow.1092</title>
				<path d="M0 792 L19.8 768.76 L19.8 780.38 L62.36 780.38 L62.36 792 L62.36 803.62 L19.8 803.62 L19.8 815.24 L0 792
							 Z" class="st6"/>
			</g>
			<g id="shape1093-102" transform="translate(343.417,-408.562)">
				<title>Rectangle.1093</title>
				<desc>List (Consultation) encounter</desc>
				<rect x="0" y="771.068" width="130.394" height="20.9316" class="st7"/>
				<text x="6.18" y="784.53" class="st4">List (Consultation) encounter</text>			</g>
			<g id="shape1094-105" transform="translate(343.417,-396.552)">
				<title>Rectangle.1094</title>
				<desc>.entry</desc>
				<rect x="0" y="779.02" width="130.394" height="12.9797" class="st6"/>
				<text x="53.14" y="788.51" class="st4">.entry</text>			</g>
			<g id="shape1095-108" transform="translate(503.15,-408.54)">
				<title>Rectangle.1095</title>
				<desc>Encounter</desc>
				<rect x="0" y="771.068" width="95.3858" height="20.9316" class="st3"/>
				<text x="26.71" y="784.53" class="st4">Encounter</text>			</g>
			<g id="shape1096-111" transform="translate(384.109,-364.938)">
				<title>Rectangle.1096</title>
				<desc>List(Topic) : Topic n</desc>
				<rect x="0" y="771.068" width="116.22" height="20.9316" class="st8"/>
				<text x="18.92" y="784.53" class="st4">List(Topic) : Topic n</text>			</g>
			<g id="shape1097-114" transform="translate(384.109,-352.928)">
				<title>Rectangle.1097</title>
				<desc>.entry</desc>
				<rect x="0" y="779.02" width="116.22" height="12.9797" class="st6"/>
				<text x="46.05" y="788.51" class="st4">.entry</text>			</g>
			<g id="shape1100-117" transform="translate(1389.36,432.895) rotate(90)">
				<title>Rectangle.1100</title>
				<desc>Other Resources, e.g. Observation</desc>
				<rect x="0" y="761.296" width="234.237" height="30.7037" class="st3"/>
				<text x="47.68" y="779.65" class="st4">Other Resources, e.g. Observation</text>			</g>
			<g id="shape1101-120" transform="translate(453.558,-331.982)">
				<title>Rectangle.1101</title>
				<desc>List(Category) : Heading 1</desc>
				<rect x="0" y="771.068" width="116.22" height="20.9316" class="st8"/>
				<text x="5.96" y="784.53" class="st4">List(Category) : Heading 1</text>			</g>
			<g id="shape1102-123" transform="translate(453.558,-319.047)">
				<title>Rectangle.1102</title>
				<desc>.entry</desc>
				<rect x="0" y="779.02" width="116.22" height="12.9797" class="st6"/>
				<text x="46.05" y="788.51" class="st4">.entry</text>			</g>
			<g id="shape1103-126" transform="translate(453.558,-305.963)">
				<title>Rectangle.1103</title>
				<desc>.entry</desc>
				<rect x="0" y="779.02" width="116.22" height="12.9797" class="st6"/>
				<text x="46.05" y="788.51" class="st4">.entry</text>			</g>
			<g id="shape1104-129" transform="translate(453.558,-292.864)">
				<title>Rectangle.1104</title>
				<desc>.entry</desc>
				<rect x="0" y="779.02" width="116.22" height="12.9797" class="st6"/>
				<text x="46.05" y="788.51" class="st4">.entry</text>			</g>
			<g id="shape1105-132" transform="translate(385.527,-279.824)">
				<title>Rectangle.1105</title>
				<desc>.entry</desc>
				<rect x="0" y="779.02" width="116.22" height="12.9797" class="st6"/>
				<text x="46.05" y="788.51" class="st4">.entry</text>			</g>
			<g id="shape1106-135" transform="translate(453.558,-258.848)">
				<title>Rectangle.1106</title>
				<desc>List(Category) : Heading 2</desc>
				<rect x="0" y="771.068" width="116.22" height="20.9316" class="st8"/>
				<text x="5.96" y="784.53" class="st4">List(Category) : Heading 2</text>			</g>
			<g id="shape1107-138" transform="translate(453.558,-245.868)">
				<title>Rectangle.1107</title>
				<desc>.entry</desc>
				<rect x="0" y="779.02" width="116.22" height="12.9797" class="st6"/>
				<text x="46.05" y="788.51" class="st4">.entry</text>			</g>
			<g id="shape1108-141" transform="translate(453.558,-232.829)">
				<title>Rectangle.1108</title>
				<desc>.entry</desc>
				<rect x="0" y="779.02" width="116.22" height="12.9797" class="st6"/>
				<text x="46.05" y="788.51" class="st4">.entry</text>			</g>
			<g id="shape1109-144" transform="translate(387.765,-191.622)">
				<title>Rectangle.1109</title>
				<desc>.entry</desc>
				<rect x="0" y="779.02" width="116.22" height="12.9797" class="st6"/>
				<text x="46.05" y="788.51" class="st4">.entry</text>			</g>
			<g id="shape1110-147" transform="translate(455.796,-170.713)">
				<title>Rectangle.1110</title>
				<desc>List(Category) : Heading n</desc>
				<rect x="0" y="771.068" width="116.22" height="20.9316" class="st8"/>
				<text x="5.87" y="784.53" class="st4">List(Category) : Heading n</text>			</g>
			<g id="shape1111-150" transform="translate(455.796,-158.278)">
				<title>Rectangle.1111</title>
				<desc>.entry</desc>
				<rect x="0" y="779.02" width="116.22" height="12.9797" class="st6"/>
				<text x="46.05" y="788.51" class="st4">.entry</text>			</g>
			<g id="shape1112-153" transform="translate(455.796,-145.208)">
				<title>Rectangle.1112</title>
				<desc>.entry</desc>
				<rect x="0" y="779.02" width="116.22" height="12.9797" class="st6"/>
				<text x="46.05" y="788.51" class="st4">.entry</text>			</g>
			<g id="shape1113-156" transform="translate(378.85,-103.681)">
				<title>Rectangle.1113</title>
				<desc>List(Topic)</desc>
				<rect x="0" y="771.068" width="116.22" height="20.9316" class="st8"/>
				<text x="37.24" y="784.53" class="st4">List(Topic)</text>			</g>
			<g id="shape1114-159" transform="translate(378.85,-91.6709)">
				<title>Rectangle.1114</title>
				<desc>.entry</desc>
				<rect x="0" y="779.02" width="116.22" height="12.9797" class="st6"/>
				<text x="46.05" y="788.51" class="st4">.entry</text>			</g>
			<g id="shape1115-162" transform="translate(378.85,-78.6241)">
				<title>Rectangle.1115</title>
				<desc>.entry</desc>
				<rect x="0" y="779.02" width="116.22" height="12.9797" class="st6"/>
				<text x="46.05" y="788.51" class="st4">.entry</text>			</g>
			<g id="shape1116-165" transform="translate(378.85,-65.5251)">
				<title>Rectangle.1116</title>
				<desc>.entry</desc>
				<rect x="0" y="779.02" width="116.22" height="12.9797" class="st6"/>
				<text x="46.05" y="788.51" class="st4">.entry</text>			</g>
			<g id="shape1117-168" transform="translate(378.85,-29.8384)">
				<title>Rectangle.1117</title>
				<desc>.entry</desc>
				<rect x="0" y="779.02" width="116.22" height="12.9797" class="st6"/>
				<text x="46.05" y="788.51" class="st4">.entry</text>			</g>
			<g id="shape1118-171" transform="translate(516.383,-17.6736)">
				<title>Rectangle.1118</title>
				<desc>Other Resources e.g. Observations</desc>
				<rect x="0" y="684.806" width="61.8661" height="107.194" class="st3"/>
				<text x="19.09" y="723.4" class="st4">Other <tspan x="10.21" dy="1.2em" class="st5">Resources </tspan><tspan
							x="23.57" dy="1.2em" class="st5">e.g. </tspan><tspan x="4.11" dy="1.2em" class="st5">Observations</tspan></text>			</g>
			<g id="shape1119-177" transform="translate(1211.47,517.823) rotate(90)">
				<title>Rectangle.1119</title>
				<desc>...</desc>
				<rect x="0" y="761.296" width="107.194" height="30.7037" class="st9"/>
				<text x="47.99" y="780.85" class="st10">...</text>			</g>
			<g id="shape1067-180" transform="translate(0,-397.298)">
				<title>Rectangle.1067</title>
				<desc>Consultation</desc>
				<rect x="0" y="766.041" width="261.213" height="25.9594" class="st7"/>
				<text x="104.79" y="782.02" class="st4">Consultation</text>			</g>
			<g id="shape1070-183" transform="translate(99.1156,-360.448)">
				<title>Rectangle.1070</title>
				<desc>Topic</desc>
				<path d="M0 792 L61.87 792 L61.87 766.04 L0 766.04 L0 792 Z" class="st11"/>
				<text x="19.97" y="782.02" class="st4">Topic</text>			</g>
			<g id="shape1071-186" transform="translate(99.1156,-332.176)">
				<title>Rectangle.1071</title>
				<desc>Entry</desc>
				<rect x="0" y="776.588" width="61.8661" height="15.4115" class="st6"/>
				<text x="20.18" y="787.29" class="st4">Entry</text>			</g>
			<g id="shape1072-189" transform="translate(99.1156,-310.066)">
				<title>Rectangle.1072</title>
				<desc>Entry</desc>
				<rect x="0" y="776.588" width="61.8661" height="15.4115" class="st6"/>
				<text x="20.18" y="787.29" class="st4">Entry</text>			</g>
			<g id="shape1073-192" transform="translate(99.1156,-287.956)">
				<title>Rectangle.1073</title>
				<desc>Entry</desc>
				<rect x="0" y="776.588" width="61.8661" height="15.4115" class="st6"/>
				<text x="20.18" y="787.29" class="st4">Entry</text>			</g>
			<g id="shape1074-195" transform="translate(99.1156,-265.846)">
				<title>Rectangle.1074</title>
				<desc>Entry</desc>
				<rect x="0" y="776.588" width="61.8661" height="15.4115" class="st6"/>
				<text x="20.18" y="787.29" class="st4">Entry</text>			</g>
			<g id="shape1075-198" transform="translate(99.1156,-204.542)">
				<title>Rectangle.1075</title>
				<desc>Entry</desc>
				<rect x="0" y="776.588" width="61.8661" height="15.4115" class="st6"/>
				<text x="20.18" y="787.29" class="st4">Entry</text>			</g>
			<g id="shape1086-201" transform="translate(-661.181,660.712) rotate(-90)">
				<title>Simple Arrow.1086</title>
				<path d="M0 792 L19.8 768.76 L19.8 780.38 L59.53 780.38 L59.53 792 L59.53 803.62 L19.8 803.62 L19.8 815.24 L0 792
							 Z" class="st6"/>
			</g>
			<g id="shape1068-203" transform="translate(7.99361E-14,-183.282)">
				<title>Rectangle.1068</title>
				<rect x="0" y="587.906" width="95.3858" height="204.094" class="st12"/>
			</g>
			<g id="shape1076-205" transform="translate(7.99361E-14,-361.346)">
				<title>Rectangle.1076</title>
				<desc>Topic 1</desc>
				<rect x="0" y="766.041" width="95.3858" height="25.9594" class="st8"/>
				<text x="33.07" y="782.02" class="st4">Topic 1</text>			</g>
			<g id="shape1077-208" transform="translate(10.3465,-345.812)">
				<title>Rectangle.1077</title>
				<desc>Heading 1</desc>
				<rect x="0" y="776.588" width="75.685" height="15.4115" class="st13"/>
				<text x="17.42" y="787.29" class="st4">Heading 1</text>			</g>
			<g id="shape1078-211" transform="translate(17.2559,-330.4)">
				<title>Rectangle.1078</title>
				<desc>Entry</desc>
				<rect x="0" y="776.588" width="61.8661" height="15.4115" class="st6"/>
				<text x="20.18" y="787.29" class="st4">Entry</text>			</g>
			<g id="shape1079-214" transform="translate(17.2559,-315.093)">
				<title>Rectangle.1079</title>
				<desc>Entry</desc>
				<rect x="0" y="776.588" width="61.8661" height="15.4115" class="st6"/>
				<text x="20.18" y="787.29" class="st4">Entry</text>			</g>
			<g id="shape1080-217" transform="translate(17.2559,-299.786)">
				<title>Rectangle.1080</title>
				<desc>Entry</desc>
				<rect x="0" y="776.588" width="61.8661" height="15.4115" class="st6"/>
				<text x="20.18" y="787.29" class="st4">Entry</text>			</g>
			<g id="shape1081-220" transform="translate(10.3465,-284.479)">
				<title>Rectangle.1081</title>
				<desc>Heading 2</desc>
				<rect x="0" y="776.588" width="75.685" height="15.4115" class="st13"/>
				<text x="17.42" y="787.29" class="st4">Heading 2</text>			</g>
			<g id="shape1082-223" transform="translate(17.2559,-269.041)">
				<title>Rectangle.1082</title>
				<desc>Entry</desc>
				<rect x="0" y="776.588" width="61.8661" height="15.4115" class="st6"/>
				<text x="20.18" y="787.29" class="st4">Entry</text>			</g>
			<g id="shape1083-226" transform="translate(17.2559,-253.76)">
				<title>Rectangle.1083</title>
				<desc>Entry</desc>
				<rect x="0" y="776.588" width="61.8661" height="15.4115" class="st6"/>
				<text x="20.18" y="787.29" class="st4">Entry</text>			</g>
			<g id="shape1084-229" transform="translate(10.3465,-211.576)">
				<title>Rectangle.1084</title>
				<desc>Heading n</desc>
				<rect x="0" y="776.588" width="75.685" height="15.4115" class="st13"/>
				<text x="17.33" y="787.29" class="st4">Heading n</text>			</g>
			<g id="shape1085-232" transform="translate(17.2559,-196.269)">
				<title>Rectangle.1085</title>
				<desc>Entry</desc>
				<rect x="0" y="776.588" width="61.8661" height="15.4115" class="st6"/>
				<text x="20.18" y="787.29" class="st4">Entry</text>			</g>
			<g id="shape1121-235" transform="translate(828.709,526.207) rotate(90)">
				<title>Rectangle.1121</title>
				<desc>...</desc>
				<rect x="0" y="761.296" width="51.3295" height="30.7037" class="st9"/>
				<text x="20.06" y="780.85" class="st10">...</text>			</g>
			<g id="group1137-238" transform="translate(164.835,-183.282)">
				<title>Sheet.1137</title>
				<g id="shape1138-239">
					<title>Rectangle.1068</title>
					<rect x="0" y="587.906" width="95.3858" height="204.094" class="st12"/>
				</g>
				<g id="shape1139-241" transform="translate(0,-178.064)">
					<title>Rectangle.1076</title>
					<desc>Topic n</desc>
					<rect x="0" y="766.041" width="95.3858" height="25.9594" class="st8"/>
					<text x="32.97" y="782.02" class="st4">Topic n</text>				</g>
				<g id="shape1140-244" transform="translate(10.3465,-162.53)">
					<title>Rectangle.1077</title>
					<desc>Heading 1</desc>
					<rect x="0" y="776.588" width="75.685" height="15.4115" class="st13"/>
					<text x="17.42" y="787.29" class="st4">Heading 1</text>				</g>
				<g id="shape1141-247" transform="translate(17.2559,-147.118)">
					<title>Rectangle.1078</title>
					<desc>Entry</desc>
					<rect x="0" y="776.588" width="61.8661" height="15.4115" class="st6"/>
					<text x="20.18" y="787.29" class="st4">Entry</text>				</g>
				<g id="shape1142-250" transform="translate(17.2559,-131.811)">
					<title>Rectangle.1079</title>
					<desc>Entry</desc>
					<rect x="0" y="776.588" width="61.8661" height="15.4115" class="st6"/>
					<text x="20.18" y="787.29" class="st4">Entry</text>				</g>
				<g id="shape1143-253" transform="translate(17.2559,-116.504)">
					<title>Rectangle.1080</title>
					<desc>Entry</desc>
					<rect x="0" y="776.588" width="61.8661" height="15.4115" class="st6"/>
					<text x="20.18" y="787.29" class="st4">Entry</text>				</g>
				<g id="shape1144-256" transform="translate(10.3465,-101.197)">
					<title>Rectangle.1081</title>
					<desc>Heading 2</desc>
					<rect x="0" y="776.588" width="75.685" height="15.4115" class="st13"/>
					<text x="17.42" y="787.29" class="st4">Heading 2</text>				</g>
				<g id="shape1145-259" transform="translate(17.2559,-85.7592)">
					<title>Rectangle.1082</title>
					<desc>Entry</desc>
					<rect x="0" y="776.588" width="61.8661" height="15.4115" class="st6"/>
					<text x="20.18" y="787.29" class="st4">Entry</text>				</g>
				<g id="shape1146-262" transform="translate(17.2559,-70.4782)">
					<title>Rectangle.1083</title>
					<desc>Entry</desc>
					<rect x="0" y="776.588" width="61.8661" height="15.4115" class="st6"/>
					<text x="20.18" y="787.29" class="st4">Entry</text>				</g>
				<g id="shape1147-265" transform="translate(10.3465,-28.2943)">
					<title>Rectangle.1084</title>
					<desc>Heading n</desc>
					<rect x="0" y="776.588" width="75.685" height="15.4115" class="st13"/>
					<text x="17.33" y="787.29" class="st4">Heading n</text>				</g>
				<g id="shape1148-268" transform="translate(17.2559,-12.9871)">
					<title>Rectangle.1085</title>
					<desc>Entry</desc>
					<rect x="0" y="776.588" width="61.8661" height="15.4115" class="st6"/>
					<text x="20.18" y="787.29" class="st4">Entry</text>				</g>
				<g id="shape1149-271" transform="translate(828.709,709.489) rotate(90)">
					<title>Rectangle.1121</title>
					<desc>...</desc>
					<rect x="0" y="761.296" width="51.3295" height="30.7037" class="st9"/>
					<text x="20.06" y="780.85" class="st10">...</text>				</g>
			</g>
			<g id="shape1150-274" transform="translate(910.884,526.207) rotate(90)">
				<title>Rectangle.1150</title>
				<desc>...</desc>
				<rect x="0" y="761.296" width="51.3295" height="30.7037" class="st9"/>
				<text x="20.06" y="780.85" class="st10">...</text>			</g>
			<g id="shape1152-277" transform="translate(1218.1,684.806) rotate(90)">
				<title>Rectangle.1152</title>
				<desc>...</desc>
				<rect x="0" y="761.296" width="107.194" height="30.7037" class="st9"/>
				<text x="47.99" y="780.85" class="st10">...</text>			</g>
			<g id="shape1153-280" transform="translate(357.591,-396.552)">
				<title>Dynamic connector.1153</title>
				<path d="M0 792 L0 813.15 L19.98 813.15" class="st1"/>
			</g>
		</g>
	</g>
</svg>
