<?xml version="1.0" encoding="UTF-8" standalone="no"?>
<!DOCTYPE svg PUBLIC "-//W3C//DTD SVG 1.1//EN" "http://www.w3.org/Graphics/SVG/1.1/DTD/svg11.dtd">
<!-- Generated by Microsoft Visio, SVG Export Consultation_Return.svg Page-1 -->
<svg xmlns="http://www.w3.org/2000/svg" xmlns:xlink="http://www.w3.org/1999/xlink" xmlns:ev="http://www.w3.org/2001/xml-events"
		width="10.5465in" height="16.2552in" viewBox="0 0 759.351 1170.38" xml:space="preserve" color-interpolation-filters="sRGB"
		class="st26">
	<style type="text/css">
	<![CDATA[
		.st1 {fill:none;stroke:#0070c0;stroke-dasharray:4.25197,4.25197;stroke-linecap:round;stroke-linejoin:round;stroke-width:1.41732}
		.st2 {fill:none;stroke:#fec000;stroke-dasharray:4.25197,4.25197;stroke-linecap:round;stroke-linejoin:round;stroke-width:1.41732}
		.st3 {fill:#4672c4;stroke:#c8c8c8;stroke-linecap:round;stroke-linejoin:round;stroke-width:0.75}
		.st4 {fill:#feffff;font-family:Calibri;font-size:0.801979em}
		.st5 {font-size:1em}
		.st6 {fill:#70ad47;stroke:#c8c8c8;stroke-linecap:round;stroke-linejoin:round;stroke-width:0.75}
		.st7 {fill:#fec000;stroke:#c8c8c8;stroke-linecap:round;stroke-linejoin:round;stroke-width:0.75}
		.st8 {fill:none;stroke:none;stroke-linecap:round;stroke-linejoin:round;stroke-width:0.75}
		.st9 {fill:#00b050;font-family:Calibri;font-size:0.630112em}
		.st10 {fill:#feffff;font-family:Calibri;font-size:0.687401em}
		.st11 {marker-end:url(#mrkr5-67);stroke:#4672c4;stroke-linecap:round;stroke-linejoin:round;stroke-width:1.41732}
		.st12 {fill:#4672c4;fill-opacity:1;stroke:#4672c4;stroke-opacity:1;stroke-width:0.35997120230382}
		.st13 {marker-end:url(#mrkr5-67);marker-start:url(#mrkr5-124);stroke:#4672c4;stroke-linecap:round;stroke-linejoin:round;stroke-width:1.41732}
		.st14 {fill:#7030a0;stroke:#c8c8c8;stroke-linecap:round;stroke-linejoin:round;stroke-width:0.75}
		.st15 {fill:#7030a0;font-family:Calibri;font-size:0.630112em}
		.st16 {marker-end:url(#mrkr5-238);stroke:#7030a0;stroke-linecap:round;stroke-linejoin:round;stroke-width:1.41732}
		.st17 {fill:#7030a0;fill-opacity:1;stroke:#7030a0;stroke-opacity:1;stroke-width:0.35997120230382}
		.st18 {fill:#4672c4;font-family:Calibri;font-size:0.630112em}
		.st19 {fill:#ffffff;stroke:none;stroke-linecap:butt}
		.st20 {fill:#ffffff;stroke:none;stroke-linecap:butt;stroke-width:7.2}
		.st21 {fill:#fec000;font-family:Calibri;font-size:0.630112em}
		.st22 {fill:#feffff;stroke:none;stroke-linecap:round;stroke-linejoin:round;stroke-width:0.75}
		.st23 {fill:#000000;font-family:Calibri;font-size:0.687401em}
		.st24 {marker-end:url(#mrkr1-393);stroke:#000000;stroke-linecap:round;stroke-linejoin:round;stroke-width:1.41732}
		.st25 {fill:#000000;fill-opacity:1;stroke:#000000;stroke-opacity:1;stroke-width:0.35997120230382}
		.st26 {fill:none;fill-rule:evenodd;font-size:12px;overflow:visible;stroke-linecap:square;stroke-miterlimit:3}
	]]>
	</style>

	<defs id="Markers">
		<g id="lend5">
			<path d="M 2 1 L 0 0 L 1.98117 -0.993387 C 1.67173 -0.364515 1.67301 0.372641 1.98465 1.00043 " style="stroke:none"/>
		</g>
		<marker id="mrkr5-67" class="st12" refX="-4.8615" orient="auto" markerUnits="strokeWidth" overflow="visible">
			<use xlink:href="#lend5" transform="scale(-2.778,-2.778) "/>
		</marker>
		<marker id="mrkr5-124" class="st12" refX="4.6075" orient="auto" markerUnits="strokeWidth" overflow="visible">
			<use xlink:href="#lend5" transform="scale(2.778) "/>
		</marker>
		<marker id="mrkr5-238" class="st17" refX="-4.8615" orient="auto" markerUnits="strokeWidth" overflow="visible">
			<use xlink:href="#lend5" transform="scale(-2.778,-2.778) "/>
		</marker>
		<g id="lend1">
			<path d="M 1 -1 L 0 0 L 1 1 " style="stroke-linecap:round;stroke-linejoin:round;fill:none"/>
		</g>
		<marker id="mrkr1-393" class="st25" orient="auto" markerUnits="strokeWidth" overflow="visible">
			<use xlink:href="#lend1" transform="scale(-2.778,-2.778) "/>
		</marker>
	</defs>
	<g>
		<title>Page-1</title>
		<g id="shape155-1" transform="translate(347.953,-751.89)">
			<title>Shape155</title>
			<path d="M0 1170.38 L283.46 1170.38 L283.46 957.78 L0 957.78 L0 1170.38 Z" class="st1"/>
		</g>
		<g id="shape156-3" transform="translate(0.708661,-851.102)">
			<title>Shape156</title>
			<path d="M0 1170.38 L155.91 1170.38 L155.91 929.43 L0 929.43 L0 1170.38 Z" class="st2"/>
		</g>
		<g id="shape157-5" transform="translate(220.394,-29.0551)">
			<title>Shape157</title>
			<path d="M0 1170.38 L418.11 1170.38 L418.11 875.57 L0 875.57 L0 1170.38 Z" class="st1"/>
		</g>
		<g id="shape161-7" transform="translate(518.031,-907.795)">
			<title>Shape161</title>
			<desc>Medication Statement</desc>
			<rect x="0" y="1127.86" width="85.0394" height="42.5197" class="st3"/>
			<text x="20.26" y="1146.23" class="st4">Medication <tspan x="22.01" dy="1.2em" class="st5">Statement</tspan></text>		</g>
		<g id="shape159-11" transform="translate(376.299,-836.929)">
			<title>Shape159</title>
			<desc>MedicationRequest (Intent = Plan)</desc>
			<rect x="0" y="1127.86" width="85.0394" height="42.5197" class="st3"/>
			<text x="4.31" y="1146.23" class="st4">MedicationRequest <tspan x="14.72" dy="1.2em" class="st5">(Intent = Plan)</tspan></text>		</g>
		<g id="shape167-15" transform="translate(376.299,-766.063)">
			<title>Shape167</title>
			<desc>MedicationRequest (Intent = Issue)</desc>
			<rect x="0" y="1127.86" width="85.0394" height="42.5197" class="st3"/>
			<text x="4.31" y="1146.23" class="st4">MedicationRequest <tspan x="13.24" dy="1.2em" class="st5">(Intent = Issue)</tspan></text>		</g>
		<g id="shape162-19" transform="translate(518.031,-836.929)">
			<title>Shape162</title>
			<desc>Medication</desc>
			<rect x="0" y="1127.86" width="85.0394" height="42.5197" class="st3"/>
			<text x="20.26" y="1152" class="st4">Medication</text>		</g>
		<g id="shape170-22" transform="translate(177.874,-893.622)">
			<title>Shape170</title>
			<desc>ProblemHeader (Condition)</desc>
			<rect x="0" y="1127.86" width="85.0394" height="42.5197" class="st6"/>
			<text x="11.65" y="1146.23" class="st4">ProblemHeader <tspan x="20.56" dy="1.2em" class="st5">(Condition)</tspan></text>		</g>
		<g id="shape196-26" transform="translate(43.2283,-893.622)">
			<title>Shape196</title>
			<desc>List (Topic / Heading)</desc>
			<rect x="0" y="1127.86" width="85.0394" height="42.5197" class="st7"/>
			<text x="35.9" y="1146.23" class="st4">List <tspan x="8.9" dy="1.2em" class="st5">(Topic / Heading)</tspan></text>		</g>
		<g id="shape164-30" transform="translate(43.2283,-1035.35)">
			<title>Shape164</title>
			<desc>Encounter</desc>
			<rect x="0" y="1127.86" width="85.0394" height="42.5197" class="st7"/>
			<text x="22.33" y="1152" class="st4">Encounter</text>		</g>
		<g id="shape174-33" transform="translate(376.299,-695.197)">
			<title>Shape174</title>
			<desc>AllergyIntolerance</desc>
			<rect x="0" y="1127.86" width="85.0394" height="42.5197" class="st3"/>
			<text x="6.68" y="1152" class="st4">AllergyIntolerance</text>		</g>
		<g id="shape176-36" transform="translate(376.299,-624.331)">
			<title>Shape176</title>
			<desc>Immunization</desc>
			<rect x="0" y="1127.86" width="85.0394" height="42.5197" class="st3"/>
			<text x="15.47" y="1152" class="st4">Immunization</text>		</g>
		<g id="shape178-39" transform="translate(376.299,-553.465)">
			<title>Shape178</title>
			<desc>Observation (Uncategorised)</desc>
			<rect x="0" y="1127.86" width="85.0394" height="42.5197" class="st3"/>
			<text x="18.59" y="1146.23" class="st4">Observation <tspan x="11.25" dy="1.2em" class="st5">(Uncategorised)</tspan></text>		</g>
		<g id="shape209-43" transform="translate(234.567,-863.15)">
			<title>Shape209</title>
			<desc>Primary Item</desc>
			<rect x="0" y="1151.95" width="56.6929" height="18.4252" class="st8"/>
			<text x="-5.67" y="1158.89" class="st9">Primary <tspan x="-5.67" dy="1.2em" class="st5">Item</tspan></text>		</g>
		<g id="shape210-47" transform="translate(145.984,-863.15)">
			<title>Shape210</title>
			<desc>Associated Item</desc>
			<rect x="0" y="1151.95" width="56.6929" height="18.4252" class="st8"/>
			<text x="24.66" y="1158.89" class="st9">Associated <tspan x="43.52" dy="1.2em" class="st5">Item</tspan></text>		</g>
		<g id="shape212-51" transform="translate(43.2283,-964.488)">
			<title>Shape212</title>
			<desc>List (Consultation)</desc>
			<rect x="0" y="1127.86" width="85.0394" height="42.5197" class="st7"/>
			<text x="35.9" y="1146.23" class="st4">List <tspan x="14.76" dy="1.2em" class="st5">(Consultation)</tspan></text>		</g>
		<g id="shape180-55" transform="translate(376.299,-482.598)">
			<title>Shape180</title>
			<desc>ReferralRequest</desc>
			<rect x="0" y="1127.86" width="85.0394" height="42.5197" class="st3"/>
			<text x="10.93" y="1152" class="st4">ReferralRequest</text>		</g>
		<g id="shape182-58" transform="translate(376.299,-411.732)">
			<title>Shape182</title>
			<desc>DocumentReference (Metadata only)</desc>
			<rect x="0" y="1127.86" width="85.0394" height="42.5197" class="st3"/>
			<text x="7.95" y="1146.64" class="st10">DocumentReference <tspan x="15.5" dy="1.2em" class="st5">(Metadata only)</tspan></text>		</g>
		<g id="shape216-62" transform="translate(453.543,-276.378)">
			<title>Dynamic connector.216</title>
			<path d="M7.09 1170.38 L7.09 1148.92" class="st11"/>
		</g>
		<g id="shape218-68" transform="translate(453.543,-233.858)">
			<title>Dynamic connector.218</title>
			<path d="M7.09 1170.38 L7.09 1206" class="st11"/>
		</g>
		<g id="shape220-73" transform="translate(447.165,-233.858)">
			<title>Dynamic connector.220</title>
			<path d="M0 1170.38 L0 1189.51 L-56.69 1189.51 L-56.69 1295.1 L-35.95 1295.1" class="st11"/>
		</g>
		<g id="shape222-78" transform="translate(481.89,-233.858)">
			<title>Dynamic connector.222</title>
			<path d="M0 1170.38 L0 1188.8 L39.52 1188.8 A3 3 0 1 1 45.52 1188.8 L121.18 1188.8 L121.18 1206" class="st11"/>
		</g>
		<g id="shape224-83" transform="translate(432.992,-233.858)">
			<title>Dynamic connector.224</title>
			<path d="M0 1170.38 L0 1181.71 L-113.39 1181.71 L-113.39 1206" class="st11"/>
		</g>
		<g id="shape226-88" transform="translate(432.992,-276.378)">
			<title>Dynamic connector.226</title>
			<path d="M0 1170.38 L0 1153.37 L-50.31 1153.37 L-50.31 1121.48 L-64.68 1121.48" class="st11"/>
		</g>
		<g id="shape186-93" transform="translate(376.299,-196.299)">
			<title>Shape186</title>
			<desc>DiagnosticReport</desc>
			<rect x="0" y="1127.86" width="85.0394" height="42.5197" class="st3"/>
			<text x="8.82" y="1152" class="st4">DiagnosticReport</text>		</g>
		<g id="shape229-96" transform="translate(418.11,-162.992)">
			<title>Dynamic connector.229</title>
			<path d="M0 1163.29 L-24.64 1163.29 A3 3 -180 0 0 -30.64 1163.29 L-49.8 1163.29" class="st11"/>
		</g>
		<g id="shape230-101" transform="translate(503.15,-162.992)">
			<title>Dynamic connector.230</title>
			<path d="M0 1163.29 L49.8 1163.29" class="st11"/>
		</g>
		<g id="shape219-106" transform="translate(376.299,-111.26)">
			<title>Shape219</title>
			<desc>Observation (Test Group)</desc>
			<rect x="0" y="1127.86" width="85.0394" height="42.5197" class="st3"/>
			<text x="18.59" y="1146.23" class="st4">Observation <tspan x="17.97" dy="1.2em" class="st5">(Test Group)</tspan></text>		</g>
		<g id="shape217-110" transform="translate(376.299,-267.165)">
			<title>Shape217</title>
			<desc>ProcedureRequest</desc>
			<rect x="0" y="1127.86" width="85.0394" height="42.5197" class="st3"/>
			<text x="6.31" y="1152" class="st4">ProcedureRequest</text>		</g>
		<g id="shape231-113" transform="translate(489.685,-120.472)">
			<title>Dynamic connector.231</title>
			<path d="M0 1170.38 L0 1153.37 L113.39 1153.37 L113.39 1148.92" class="st11"/>
		</g>
		<g id="shape232-118" transform="translate(453.543,-120.472)">
			<title>Dynamic connector.232</title>
			<path d="M7.09 1163.84 L7.09 1163.48 L7.09 1148.92" class="st13"/>
		</g>
		<g id="shape233-126" transform="translate(418.11,-99.2126)">
			<title>Dynamic connector.233</title>
			<path d="M0 1170.38 L-99.21 1170.38 L-99.21 1127.66" class="st11"/>
		</g>
		<g id="shape221-131" transform="translate(376.299,-40.3937)">
			<title>Shape221</title>
			<desc>Observation (Test Result)</desc>
			<rect x="0" y="1127.86" width="85.0394" height="42.5197" class="st3"/>
			<text x="18.59" y="1146.23" class="st4">Observation <tspan x="18.15" dy="1.2em" class="st5">(Test Result)</tspan></text>		</g>
		<g id="shape223-135" transform="translate(518.031,-111.26)">
			<title>Shape223</title>
			<desc>Specimen</desc>
			<rect x="0" y="1127.86" width="85.0394" height="42.5197" class="st3"/>
			<text x="23.48" y="1152" class="st4">Specimen</text>		</g>
		<g id="shape234-138" transform="translate(644.882,-325.276)">
			<title>Dynamic connector.234</title>
			<path d="M0 1170.38 L14.88 1170.38 L14.88 1397.15 L-134.84 1397.15" class="st11"/>
		</g>
		<g id="shape236-143" transform="translate(559.843,-325.276)">
			<title>Dynamic connector.236</title>
			<path d="M0 1170.38 L-35.43 1170.38 L-35.43 1202.26 L-77.24 1202.26 L-77.24 1211.67" class="st11"/>
		</g>
		<g id="shape237-148" transform="translate(603.071,-304.724)">
			<title>Dynamic connector.237</title>
			<path d="M0 1170.38 L0 1195.89 L-78.66 1195.89 L-78.66 1266.75 L-121.18 1266.75 L-121.18 1276.87" class="st11"/>
		</g>
		<g id="shape235-153" transform="translate(518.031,-267.165)">
			<title>Shape235</title>
			<desc>Observation (Test Report Filing)</desc>
			<rect x="0" y="1127.86" width="85.0394" height="42.5197" class="st3"/>
			<text x="18.59" y="1146.23" class="st4">Observation <tspan x="5.51" dy="1.2em" class="st5">(Test Report Filing)</tspan></text>		</g>
		<g id="shape225-157" transform="translate(234.567,-111.26)">
			<title>Shape225</title>
			<desc>DocumentReference (Test Result)</desc>
			<rect x="0" y="1127.86" width="85.0394" height="42.5197" class="st3"/>
			<text x="7.95" y="1146.64" class="st10">DocumentReference <tspan x="21.63" dy="1.2em" class="st5">(Test Result)</tspan></text>		</g>
		<g id="shape227-161" transform="translate(234.567,-267.165)">
			<title>Shape227</title>
			<desc>DocumentReference (Test Report)</desc>
			<rect x="0" y="1127.86" width="85.0394" height="42.5197" class="st3"/>
			<text x="7.95" y="1146.64" class="st10">DocumentReference <tspan x="20.58" dy="1.2em" class="st5">(Test Report)</tspan></text>		</g>
		<g id="shape238-165" transform="translate(672.52,-907.795)">
			<title>Shape238</title>
			<desc>List (Medications and Medical Devices)</desc>
			<rect x="0" y="1127.86" width="85.0394" height="42.5197" class="st14"/>
			<text x="35.9" y="1140.45" class="st4">List <tspan x="8.47" dy="1.2em" class="st5">(Medications and </tspan><tspan
						x="9.45" dy="1.2em" class="st5">Medical Devices)</tspan></text>		</g>
		<g id="shape239-170" transform="translate(672.52,-702.283)">
			<title>Shape239</title>
			<desc>List (Allergies)</desc>
			<rect x="0" y="1127.86" width="85.0394" height="42.5197" class="st14"/>
			<text x="35.9" y="1146.23" class="st4">List <tspan x="22.89" dy="1.2em" class="st5">(Allergies)</tspan></text>		</g>
		<g id="shape240-174" transform="translate(468.425,-728.504)">
			<title>Shape240</title>
			<desc>0..*</desc>
			<rect x="0" y="1161.16" width="13.4646" height="9.2126" class="st8"/>
			<text x="1.02" y="1168.04" class="st15">0..*</text>		</g>
		<g id="shape241-177" transform="translate(610.157,-936.85)">
			<title>Shape241</title>
			<desc>0..*</desc>
			<rect x="0" y="1161.16" width="13.4646" height="9.2126" class="st8"/>
			<text x="1.02" y="1168.04" class="st15">0..*</text>		</g>
		<g id="shape242-180" transform="translate(652.677,-931.89)">
			<title>Shape242</title>
			<desc>0..1</desc>
			<rect x="0" y="1161.16" width="13.4646" height="9.2126" class="st8"/>
			<text x="0.99" y="1168.04" class="st15">0..1</text>		</g>
		<g id="shape243-183" transform="translate(673.228,-631.417)">
			<title>Shape243</title>
			<desc>List (Immunisations)</desc>
			<rect x="0" y="1127.86" width="85.0394" height="42.5197" class="st14"/>
			<text x="35.9" y="1146.23" class="st4">List <tspan x="10.69" dy="1.2em" class="st5">(Immunisations)</tspan></text>		</g>
		<g id="shape244-187" transform="translate(468.425,-657.638)">
			<title>Shape244</title>
			<desc>0..*</desc>
			<rect x="0" y="1161.16" width="13.4646" height="9.2126" class="st8"/>
			<text x="1.02" y="1168.04" class="st15">0..*</text>		</g>
		<g id="shape245-190" transform="translate(672.52,-560.551)">
			<title>Shape245</title>
			<desc>List (Uncategorised)</desc>
			<rect x="0" y="1127.86" width="85.0394" height="42.5197" class="st14"/>
			<text x="35.9" y="1146.23" class="st4">List <tspan x="11.25" dy="1.2em" class="st5">(Uncategorised)</tspan></text>		</g>
		<g id="shape246-194" transform="translate(673.937,-493.228)">
			<title>Shape246</title>
			<desc>List (Referralls)</desc>
			<rect x="0" y="1127.86" width="85.0394" height="42.5197" class="st14"/>
			<text x="35.9" y="1146.23" class="st4">List <tspan x="20.98" dy="1.2em" class="st5">(Referralls)</tspan></text>		</g>
		<g id="shape247-198" transform="translate(671.102,-421.654)">
			<title>Shape247</title>
			<desc>List (Documents)</desc>
			<rect x="0" y="1127.86" width="85.0394" height="42.5197" class="st14"/>
			<text x="35.9" y="1146.23" class="st4">List <tspan x="17.28" dy="1.2em" class="st5">(Documents)</tspan></text>		</g>
		<g id="shape248-202" transform="translate(652.677,-728.504)">
			<title>Shape248</title>
			<desc>0..1</desc>
			<rect x="0" y="1161.16" width="13.4646" height="9.2126" class="st8"/>
			<text x="0.99" y="1168.04" class="st15">0..1</text>		</g>
		<g id="shape249-205" transform="translate(652.677,-657.638)">
			<title>Shape249</title>
			<desc>0..1</desc>
			<rect x="0" y="1161.16" width="13.4646" height="9.2126" class="st8"/>
			<text x="0.99" y="1168.04" class="st15">0..1</text>		</g>
		<g id="shape250-208" transform="translate(652.677,-586.772)">
			<title>Shape250</title>
			<desc>0..1</desc>
			<rect x="0" y="1161.16" width="13.4646" height="9.2126" class="st8"/>
			<text x="0.99" y="1168.04" class="st15">0..1</text>		</g>
		<g id="shape251-211" transform="translate(652.677,-518.031)">
			<title>Shape251</title>
			<desc>0..1</desc>
			<rect x="0" y="1161.16" width="13.4646" height="9.2126" class="st8"/>
			<text x="0.99" y="1168.04" class="st15">0..1</text>		</g>
		<g id="shape252-214" transform="translate(652.677,-450)">
			<title>Shape252</title>
			<desc>0..1</desc>
			<rect x="0" y="1161.16" width="13.4646" height="9.2126" class="st8"/>
			<text x="0.99" y="1168.04" class="st15">0..1</text>		</g>
		<g id="shape253-217" transform="translate(673.937,-203.386)">
			<title>Shape253</title>
			<desc>List (Investigations)</desc>
			<rect x="0" y="1127.86" width="85.0394" height="42.5197" class="st14"/>
			<text x="35.9" y="1146.23" class="st4">List <tspan x="12.46" dy="1.2em" class="st5">(Investigations)</tspan></text>		</g>
		<g id="shape254-221" transform="translate(673.228,-971.575)">
			<title>Shape254</title>
			<desc>List (Problems)</desc>
			<rect x="0" y="1127.86" width="85.0394" height="42.5197" class="st14"/>
			<text x="35.9" y="1146.23" class="st4">List <tspan x="21.15" dy="1.2em" class="st5">(Problems)</tspan></text>		</g>
		<g id="shape256-225" transform="translate(43.2283,-1127.48)">
			<title>Shape256</title>
			<desc>List (Query Response)</desc>
			<rect x="0" y="1127.86" width="85.0394" height="42.5197" class="st14"/>
			<text x="35.9" y="1146.23" class="st4">List <tspan x="7.74" dy="1.2em" class="st5">(Query Response)</tspan></text>		</g>
		<g id="shape184-229" transform="translate(376.299,-346.535)">
			<title>Shape184</title>
			<desc>ProcedureRequest (Diary Entries)</desc>
			<rect x="0" y="1127.86" width="85.0394" height="42.5197" class="st3"/>
			<text x="11.48" y="1146.64" class="st10">ProcedureRequest <tspan x="18.71" dy="1.2em" class="st5">(Diary Entries)</tspan></text>		</g>
		<g id="shape260-233" transform="translate(712.913,-413.858)">
			<title>Dynamic connector.260</title>
			<path d="M0 1170.38 L-246.18 1207.61" class="st16"/>
		</g>
		<g id="shape261-239" transform="translate(671.102,-355.039)">
			<title>Shape261</title>
			<desc>List (Diary Entries)</desc>
			<rect x="0" y="1127.86" width="85.0394" height="42.5197" class="st14"/>
			<text x="35.9" y="1146.23" class="st4">List <tspan x="14.74" dy="1.2em" class="st5">(Diary Entries)</tspan></text>		</g>
		<g id="shape262-243" transform="translate(652.677,-379.843)">
			<title>Shape262</title>
			<desc>0..1</desc>
			<rect x="0" y="1161.16" width="13.4646" height="9.2126" class="st8"/>
			<text x="0.99" y="1168.04" class="st15">0..1</text>		</g>
		<g id="shape263-246" transform="translate(502.441,-936.142)">
			<title>Shape263</title>
			<desc>1..1</desc>
			<rect x="0" y="1161.16" width="13.4646" height="9.2126" class="st8"/>
			<text x="0.99" y="1168.04" class="st18">1..1</text>		</g>
		<g id="shape265-249" transform="translate(347.953,-352.913)">
			<title>Shape265</title>
			<desc>0..*</desc>
			<rect x="0" y="1153.37" width="21.2598" height="17.0079" class="st8"/>
			<rect x="4.92196" y="1157.33" width="11.4159" height="9.07388" class="st19"/>
			<text x="4.92" y="1164.14" class="st9">0..*</text>		</g>
		<g id="shape266-253" transform="translate(347.953,-367.441)">
			<title>Shape266</title>
			<desc>0..1</desc>
			<rect x="0" y="1153.37" width="21.2598" height="17.0079" class="st8"/>
			<rect x="4.88873" y="1157.33" width="11.4824" height="9.07388" class="st20"/>
			<text x="4.89" y="1164.14" class="st9">0..1</text>		</g>
		<g id="shape268-257" transform="translate(160.157,-902.835)">
			<title>Shape268</title>
			<desc>0..*</desc>
			<rect x="0" y="1161.16" width="13.4646" height="9.2126" class="st8"/>
			<text x="1.02" y="1168.04" class="st21">0..*</text>		</g>
		<g id="shape269-260" transform="translate(128.976,-917.008)">
			<title>Shape269</title>
			<desc>0..*</desc>
			<rect x="0" y="1161.16" width="13.4646" height="9.2126" class="st8"/>
			<text x="1.02" y="1168.04" class="st21">0..*</text>		</g>
		<g id="shape270-263" transform="translate(347.953,-403.228)">
			<title>Shape270</title>
			<desc>0..*</desc>
			<rect x="0" y="1153.37" width="21.2598" height="17.0079" class="st8"/>
			<rect x="4.92196" y="1157.33" width="11.4159" height="9.07388" class="st20"/>
			<text x="4.92" y="1164.14" class="st21">0..*</text>		</g>
		<g id="shape271-267" transform="translate(347.953,-340.157)">
			<title>Shape271</title>
			<desc>0..*</desc>
			<rect x="0" y="1153.37" width="21.2598" height="17.0079" class="st8"/>
			<rect x="4.92196" y="1157.33" width="11.4159" height="9.07388" class="st19"/>
			<text x="4.92" y="1164.14" class="st21">0..*</text>		</g>
		<g id="shape272-271" transform="translate(475.512,-591.024)">
			<title>Dynamic connector.272</title>
			<path d="M0 1170.38 L0 1184.55 L56.69 1184.55 L56.69 1199.43 L-7.99 1199.43" class="st11"/>
		</g>
		<g id="shape274-276" transform="translate(90,-1115.43)">
			<title>Shape274</title>
			<desc>1..1</desc>
			<rect x="0" y="1161.16" width="13.4646" height="9.2126" class="st8"/>
			<text x="0.99" y="1168.04" class="st15">1..1</text>		</g>
		<g id="shape275-279" transform="translate(652.677,-1008.43)">
			<title>Shape275</title>
			<desc>0..1</desc>
			<rect x="0" y="1161.16" width="13.4646" height="9.2126" class="st8"/>
			<text x="0.99" y="1168.04" class="st15">0..1</text>		</g>
		<g id="shape276-282" transform="translate(192.756,-943.937)">
			<title>Shape276</title>
			<desc>0..*</desc>
			<rect x="0" y="1161.16" width="13.4646" height="9.2126" class="st8"/>
			<text x="1.02" y="1168.04" class="st15">0..*</text>		</g>
		<g id="shape277-285" transform="translate(65.1969,-1082.83)">
			<title>Shape277</title>
			<desc>0..*</desc>
			<rect x="0" y="1161.16" width="13.4646" height="9.2126" class="st8"/>
			<text x="1.02" y="1168.04" class="st15">0..*</text>		</g>
		<g id="shape278-288" transform="translate(469.134,-586.063)">
			<title>Shape278</title>
			<desc>0..*</desc>
			<rect x="0" y="1161.16" width="13.4646" height="9.2126" class="st8"/>
			<text x="1.02" y="1168.04" class="st15">0..*</text>		</g>
		<g id="shape279-291" transform="translate(467.717,-493.228)">
			<title>Shape279</title>
			<desc>0..*</desc>
			<rect x="0" y="1161.16" width="13.4646" height="9.2126" class="st8"/>
			<text x="1.02" y="1168.04" class="st18">0..*</text>		</g>
		<g id="shape280-294" transform="translate(470.551,-445.039)">
			<title>Shape280</title>
			<desc>0..*</desc>
			<rect x="0" y="1161.16" width="13.4646" height="9.2126" class="st8"/>
			<text x="1.02" y="1168.04" class="st18">0..*</text>		</g>
		<g id="shape281-297" transform="translate(470.551,-377.008)">
			<title>Shape281</title>
			<desc>0..*</desc>
			<rect x="0" y="1161.16" width="13.4646" height="9.2126" class="st8"/>
			<text x="1.02" y="1168.04" class="st18">0..*</text>		</g>
		<g id="shape282-300" transform="translate(398.976,-257.953)">
			<title>Shape282</title>
			<desc>0..1</desc>
			<rect x="0" y="1161.16" width="13.4646" height="9.2126" class="st8"/>
			<text x="0.99" y="1168.04" class="st18">0..1</text>		</g>
		<g id="shape283-303" transform="translate(420.945,-240.236)">
			<title>Shape283</title>
			<desc>1..1</desc>
			<rect x="0" y="1161.16" width="13.4646" height="9.2126" class="st8"/>
			<text x="0.99" y="1168.04" class="st18">1..1</text>		</g>
		<g id="shape284-306" transform="translate(447.165,-246.614)">
			<title>Shape284</title>
			<desc>0..1</desc>
			<rect x="0" y="1161.16" width="13.4646" height="9.2126" class="st8"/>
			<text x="0.99" y="1168.04" class="st18">0..1</text>		</g>
		<g id="shape285-309" transform="translate(501.732,-277.795)">
			<title>Shape285</title>
			<desc>0..1</desc>
			<rect x="0" y="1161.16" width="13.4646" height="9.2126" class="st8"/>
			<text x="0.99" y="1168.04" class="st18">0..1</text>		</g>
		<g id="shape286-312" transform="translate(544.252,-257.953)">
			<title>Shape286</title>
			<desc>0..1</desc>
			<rect x="0" y="1161.16" width="13.4646" height="9.2126" class="st8"/>
			<text x="0.99" y="1168.04" class="st18">0..1</text>		</g>
		<g id="shape287-315" transform="translate(606.614,-289.843)">
			<title>Shape287</title>
			<desc>0..1</desc>
			<rect x="0" y="1161.16" width="13.4646" height="9.2126" class="st8"/>
			<text x="0.99" y="1168.04" class="st18">0..1</text>		</g>
		<g id="shape288-318" transform="translate(568.346,-100.63)">
			<title>Shape288</title>
			<desc>0..*</desc>
			<rect x="0" y="1161.16" width="13.4646" height="9.2126" class="st8"/>
			<text x="1.02" y="1168.04" class="st18">0..*</text>		</g>
		<g id="shape289-321" transform="translate(405.354,-186.378)">
			<title>Shape289</title>
			<desc>1..1</desc>
			<rect x="0" y="1161.16" width="13.4646" height="9.2126" class="st8"/>
			<text x="0.99" y="1168.04" class="st18">1..1</text>		</g>
		<g id="shape290-324" transform="translate(391.89,-186.378)">
			<title>Shape290</title>
			<desc>0..1</desc>
			<rect x="0" y="1161.16" width="13.4646" height="9.2126" class="st8"/>
			<text x="0.99" y="1168.04" class="st18">0..1</text>		</g>
		<g id="shape291-327" transform="translate(501.024,-116.22)">
			<title>Shape291</title>
			<desc>0..*</desc>
			<rect x="0" y="1161.16" width="13.4646" height="9.2126" class="st8"/>
			<text x="1.02" y="1168.04" class="st18">0..*</text>		</g>
		<g id="shape292-330" transform="translate(423.78,-85.0394)">
			<title>Shape292</title>
			<desc>0..*</desc>
			<rect x="0" y="1161.16" width="13.4646" height="9.2126" class="st8"/>
			<text x="1.02" y="1168.04" class="st18">0..*</text>		</g>
		<g id="shape293-333" transform="translate(398.976,-102.756)">
			<title>Shape293</title>
			<desc>0..1</desc>
			<rect x="0" y="1161.16" width="13.4646" height="9.2126" class="st8"/>
			<text x="0.99" y="1168.04" class="st18">0..1</text>		</g>
		<g id="shape294-336" transform="translate(360.709,-77.2441)">
			<title>Shape294</title>
			<desc>0..*</desc>
			<rect x="0" y="1161.16" width="13.4646" height="9.2126" class="st8"/>
			<text x="1.02" y="1168.04" class="st18">0..*</text>		</g>
		<g id="shape295-339" transform="translate(470.551,-62.3622)">
			<title>Shape295</title>
			<desc>0..1</desc>
			<rect x="0" y="1161.16" width="13.4646" height="9.2126" class="st8"/>
			<text x="0.99" y="1168.04" class="st18">0..1</text>		</g>
		<g id="shape296-342" transform="translate(450,-85.0394)">
			<title>Shape296</title>
			<desc>1..1</desc>
			<rect x="0" y="1161.16" width="13.4646" height="9.2126" class="st8"/>
			<text x="0.99" y="1168.04" class="st18">1..1</text>		</g>
		<g id="shape297-345" transform="translate(463.465,-135.354)">
			<title>Shape297</title>
			<desc>1..1</desc>
			<rect x="0" y="1161.16" width="13.4646" height="9.2126" class="st8"/>
			<text x="0.99" y="1168.04" class="st18">1..1</text>		</g>
		<g id="shape298-348" transform="translate(446.457,-161.575)">
			<title>Shape298</title>
			<desc>0..1</desc>
			<rect x="0" y="1161.16" width="13.4646" height="9.2126" class="st8"/>
			<text x="0.99" y="1168.04" class="st18">0..1</text>		</g>
		<g id="shape299-351" transform="translate(421.654,-162.283)">
			<title>Shape299</title>
			<desc>0..*</desc>
			<rect x="0" y="1161.16" width="13.4646" height="9.2126" class="st8"/>
			<text x="1.02" y="1168.04" class="st18">0..*</text>		</g>
		<g id="shape300-354" transform="translate(464.173,-206.929)">
			<title>Shape300</title>
			<desc>0..*</desc>
			<rect x="0" y="1161.16" width="13.4646" height="9.2126" class="st8"/>
			<text x="1.02" y="1168.04" class="st18">0..*</text>		</g>
		<g id="shape301-357" transform="translate(652.677,-228.898)">
			<title>Shape301</title>
			<desc>0..1</desc>
			<rect x="0" y="1161.16" width="13.4646" height="9.2126" class="st8"/>
			<text x="0.99" y="1168.04" class="st15">0..1</text>		</g>
		<g id="shape302-360" transform="translate(204.094,-996.378)">
			<title>Shape302</title>
			<desc>Include a ProblemHeader profile for each Problem either: - di...</desc>
			<rect x="0" y="1127.86" width="208.346" height="42.5197" class="st22"/>
			<text x="1.42" y="1141.69" class="st23">Include a ProblemHeader profile for each Problem either: <tspan x="1.42"
						dy="1.2em" class="st5">-</tspan> directly linked to the consultation <tspan x="1.42" dy="1.2em" class="st5">-</tspan> linked to a clinical item that is linked to the consultation</text>		</g>
		<g id="shape304-365" transform="translate(435.827,-992.835)">
			<title>Shape304</title>
			<desc>Include a MedicationStatement, MedicationRequest (plan) and M...</desc>
			<rect x="0" y="1119.35" width="204.803" height="51.0236" class="st22"/>
			<text x="1.42" y="1137.44" class="st23">Include a MedicationStatement, MedicationRequest (plan) <tspan x="1.42"
						dy="1.2em" class="st5">and Medication profile for each Medication or Medical </tspan><tspan x="1.42"
						dy="1.2em" class="st5">Device plan or </tspan>issue directly linked to the consultation</text>		</g>
		<g id="shape308-370" transform="translate(491.102,-737.717)">
			<title>Shape308</title>
			<desc>Include a MedicationRequest(issue) profile for each Medicatio...</desc>
			<rect x="0" y="1125.02" width="151.654" height="45.3543" class="st22"/>
			<text x="1.42" y="1140.27" class="st23">Include a MedicationRequest(issue) profile <tspan x="1.42" dy="1.2em"
						class="st5">for each Medication or Medical Device issue </tspan><tspan x="1.42" dy="1.2em" class="st5">directly linked to the consultation</tspan></text>		</g>
		<g id="shape310-375" transform="translate(496.772,-675.354)">
			<title>Shape310</title>
			<desc>Include an AllergyIntolerance profile for each allergy linked...</desc>
			<rect x="0" y="1147.7" width="141.732" height="22.6772" class="st22"/>
			<text x="1.42" y="1156.56" class="st23">Include an AllergyIntolerance profile for <tspan x="1.42" dy="1.2em"
						class="st5">each allergy linked to the consultation</tspan></text>		</g>
		<g id="shape312-379" transform="translate(496.772,-603.071)">
			<title>Shape312</title>
			<desc>Include an Immunization profile for each immunisation linked ...</desc>
			<rect x="0" y="1147.7" width="147.402" height="22.6772" class="st22"/>
			<text x="1.42" y="1156.56" class="st23">Include an Immunization profile for each <tspan x="1.42" dy="1.2em" class="st5">immunisation linked to the consultation</tspan></text>		</g>
		<g id="shape314-383" transform="translate(496.772,-529.37)">
			<title>Shape314</title>
			<desc>Include an Observation profile for each uncategorised data li...</desc>
			<rect x="0" y="1132.11" width="134.646" height="38.2677" class="st22"/>
			<text x="1.42" y="1143.82" class="st23">Include an Observation profile for each <tspan x="1.42" dy="1.2em" class="st5">uncategorised data linked to the </tspan><tspan
						x="1.42" dy="1.2em" class="st5">consultation</tspan></text>		</g>
		<g id="shape315-388" transform="translate(493.583,-545.669)">
			<title>Dynamic connector.315</title>
			<path d="M0 1168.25 L-31.18 1158.33" class="st24"/>
		</g>
		<g id="shape316-394" transform="translate(495.354,-463.465)">
			<title>Shape316</title>
			<desc>Include a ReferralRequest profile for each referral data link...</desc>
			<rect x="0" y="1132.11" width="148.819" height="38.2677" class="st22"/>
			<text x="1.42" y="1148.77" class="st23">Include a ReferralRequest profile for each <tspan x="1.42" dy="1.2em"
						class="st5">referral data linked to the consultation</tspan></text>		</g>
		<g id="shape317-398" transform="translate(496.772,-479.764)">
			<title>Dynamic connector.317</title>
			<path d="M0 1167.54 L-36.14 1159.04" class="st24"/>
		</g>
		<g id="shape318-403" transform="translate(494.646,-389.055)">
			<title>Shape318</title>
			<desc>Include a DocumentReference profile containing metadata only ...</desc>
			<rect x="0" y="1132.11" width="150.236" height="38.2677" class="st22"/>
			<text x="1.42" y="1143.82" class="st23">Include a DocumentReference profile <tspan x="1.42" dy="1.2em" class="st5">containing metadata only for each </tspan><tspan
						x="1.42" dy="1.2em" class="st5">document linked to the consultation</tspan></text>		</g>
		<g id="shape319-408" transform="translate(496.772,-407.48)">
			<title>Dynamic connector.319</title>
			<path d="M0 1167.54 L-36.85 1159.04" class="st24"/>
		</g>
		<g id="shape320-413" transform="translate(491.102,-327.402)">
			<title>Shape320</title>
			<desc>Include a ProcedureRequest profile for each diary entry data ...</desc>
			<rect x="0" y="1132.11" width="153.071" height="38.2677" class="st22"/>
			<text x="1.42" y="1148.77" class="st23">Include a ProcedureRequest profile for each <tspan x="1.42" dy="1.2em"
						class="st5">diary entry data linked to the consultation</tspan></text>		</g>
		<g id="shape321-417" transform="translate(489.685,-343.701)">
			<title>Dynamic connector.321</title>
			<path d="M0 1167.54 L-29.06 1159.04" class="st24"/>
		</g>
		<g id="shape322-422" transform="translate(495.354,-188.504)">
			<title>Dynamic connector.322</title>
			<path d="M0 1166.12 L-10.51 1164.37 A3 3 -180 0 0 -16.42 1163.39 L-34.02 1160.45" class="st24"/>
		</g>
		<g id="shape323-427" transform="translate(491.811,-178.583)">
			<title>Shape323</title>
			<desc>Include a DiagnosticReport for each Investigation linked to t...</desc>
			<rect x="0" y="1142.03" width="144.567" height="28.3465" class="st22"/>
			<text x="1.42" y="1153.73" class="st23">Include a DiagnosticReport for each <tspan x="1.42" dy="1.2em" class="st5">Investigation linked to the consultation.</tspan></text>		</g>
		<g id="shape324-431" transform="translate(504.567,-10.6299)">
			<title>Shape324</title>
			<desc>Include all the ProcedureRequests, Observations, Specimens an...</desc>
			<rect x="0" y="1132.11" width="194.173" height="38.2677" class="st22"/>
			<text x="1.42" y="1143.82" class="st23">Include all the ProcedureRequests, Observations, <tspan x="1.42" dy="1.2em"
						class="st5">Specimens and DocumentReferences (metadata only) </tspan><tspan x="1.42" dy="1.2em" class="st5">related to the diagnostic report</tspan></text>		</g>
	</g>
</svg>
