<?xml version="1.0" encoding="UTF-8" standalone="no"?>
<!DOCTYPE svg PUBLIC "-//W3C//DTD SVG 1.1//EN" "http://www.w3.org/Graphics/SVG/1.1/DTD/svg11.dtd">
<!-- Generated by Microsoft Visio, SVG Export GP_Connect_FHIR_Model.svg Page-1 -->
<svg xmlns="http://www.w3.org/2000/svg" xmlns:xlink="http://www.w3.org/1999/xlink" xmlns:ev="http://www.w3.org/2001/xml-events"
		width="10.5465in" height="15.4529in" viewBox="0 0 759.351 1112.61" xml:space="preserve" color-interpolation-filters="sRGB"
		class="st26">
	<style type="text/css">
	<![CDATA[
		.st1 {fill:#4672c4;stroke:#c8c8c8;stroke-linecap:round;stroke-linejoin:round;stroke-width:0.75}
		.st2 {fill:#feffff;font-family:Calibri;font-size:0.801979em}
		.st3 {font-size:1em}
		.st4 {fill:none;stroke:none;stroke-linecap:round;stroke-linejoin:round;stroke-width:0.75}
		.st5 {fill:#4672c4;font-family:Calibri;font-size:0.630112em}
		.st6 {fill:#70ad47;stroke:#c8c8c8;stroke-linecap:round;stroke-linejoin:round;stroke-width:0.75}
		.st7 {fill:#fec000;stroke:#c8c8c8;stroke-linecap:round;stroke-linejoin:round;stroke-width:0.75}
		.st8 {fill:none;stroke:#0070c0;stroke-dasharray:4.25197,4.25197;stroke-linecap:round;stroke-linejoin:round;stroke-width:1.41732}
		.st9 {fill:#00b050;font-family:Calibri;font-size:0.630112em}
		.st10 {fill:none;stroke:#fec000;stroke-dasharray:4.25197,4.25197;stroke-linecap:round;stroke-linejoin:round;stroke-width:1.41732}
		.st11 {fill:#feffff;font-family:Calibri;font-size:0.687401em}
		.st12 {fill:#7030a0;stroke:#c8c8c8;stroke-linecap:round;stroke-linejoin:round;stroke-width:0.75}
		.st13 {fill:#7030a0;font-family:Calibri;font-size:0.630112em}
		.st14 {marker-end:url(#mrkr4-164);stroke:#7030a0;stroke-linecap:round;stroke-linejoin:round;stroke-width:1.41732}
		.st15 {fill:#7030a0;fill-opacity:1;stroke:#7030a0;stroke-opacity:1;stroke-width:0.35997120230382}
		.st16 {marker-end:url(#mrkr5-170);stroke:#4672c4;stroke-linecap:round;stroke-linejoin:round;stroke-width:1.41732}
		.st17 {fill:#4672c4;fill-opacity:1;stroke:#4672c4;stroke-opacity:1;stroke-width:0.35997120230382}
		.st18 {marker-end:url(#mrkr5-201);stroke:#70ad47;stroke-linecap:round;stroke-linejoin:round;stroke-width:1.41732}
		.st19 {fill:#70ad47;fill-opacity:1;stroke:#70ad47;stroke-opacity:1;stroke-width:0.35997120230382}
		.st20 {marker-end:url(#mrkr5-292);stroke:#fec000;stroke-linecap:round;stroke-linejoin:round;stroke-width:1.41732}
		.st21 {fill:#fec000;fill-opacity:1;stroke:#fec000;stroke-opacity:1;stroke-width:0.35997120230382}
		.st22 {marker-end:url(#mrkr5-170);marker-start:url(#mrkr5-429);stroke:#4672c4;stroke-linecap:round;stroke-linejoin:round;stroke-width:1.41732}
		.st23 {marker-end:url(#mrkr5-465);stroke:#7030a0;stroke-linecap:round;stroke-linejoin:round;stroke-width:1.41732}
		.st24 {fill:#ffffff;stroke:none;stroke-linecap:butt;stroke-width:7.2}
		.st25 {fill:#fec000;font-family:Calibri;font-size:0.630112em}
		.st26 {fill:none;fill-rule:evenodd;font-size:12px;overflow:visible;stroke-linecap:square;stroke-miterlimit:3}
	]]>
	</style>

	<defs id="Markers">
		<g id="lend4">
			<path d="M 2 1 L 0 0 L 2 -1 L 2 1 " style="stroke:none"/>
		</g>
		<marker id="mrkr4-164" class="st15" refX="-5.556" orient="auto" markerUnits="strokeWidth" overflow="visible">
			<use xlink:href="#lend4" transform="scale(-2.778,-2.778) "/>
		</marker>
		<g id="lend5">
			<path d="M 2 1 L 0 0 L 1.98117 -0.993387 C 1.67173 -0.364515 1.67301 0.372641 1.98465 1.00043 " style="stroke:none"/>
		</g>
		<marker id="mrkr5-170" class="st17" refX="-4.8615" orient="auto" markerUnits="strokeWidth" overflow="visible">
			<use xlink:href="#lend5" transform="scale(-2.778,-2.778) "/>
		</marker>
		<marker id="mrkr5-201" class="st19" refX="-4.8615" orient="auto" markerUnits="strokeWidth" overflow="visible">
			<use xlink:href="#lend5" transform="scale(-2.778,-2.778) "/>
		</marker>
		<marker id="mrkr5-292" class="st21" refX="-4.8615" orient="auto" markerUnits="strokeWidth" overflow="visible">
			<use xlink:href="#lend5" transform="scale(-2.778,-2.778) "/>
		</marker>
		<marker id="mrkr5-429" class="st17" refX="4.6075" orient="auto" markerUnits="strokeWidth" overflow="visible">
			<use xlink:href="#lend5" transform="scale(2.778) "/>
		</marker>
		<marker id="mrkr5-465" class="st15" refX="-4.8615" orient="auto" markerUnits="strokeWidth" overflow="visible">
			<use xlink:href="#lend5" transform="scale(-2.778,-2.778) "/>
		</marker>
	</defs>
	<g>
		<title>Page-1</title>
		<g id="shape1-1" transform="translate(518.031,-927.65)">
			<title>Shape1</title>
			<desc>Medication Statement</desc>
			<rect x="0" y="1070.09" width="85.0394" height="42.5197" class="st1"/>
			<text x="20.26" y="1088.46" class="st2">Medication <tspan x="22.01" dy="1.2em" class="st3">Statement</tspan></text>		</g>
		<g id="shape2-5" transform="translate(376.299,-856.784)">
			<title>Shape2</title>
			<desc>MedicationRequest (Intent = Plan)</desc>
			<rect x="0" y="1070.09" width="85.0394" height="42.5197" class="st1"/>
			<text x="4.31" y="1088.46" class="st2">MedicationRequest <tspan x="14.72" dy="1.2em" class="st3">(Intent = Plan)</tspan></text>		</g>
		<g id="shape3-9" transform="translate(376.299,-785.918)">
			<title>Shape3</title>
			<desc>MedicationRequest (Intent = Issue)</desc>
			<rect x="0" y="1070.09" width="85.0394" height="42.5197" class="st1"/>
			<text x="4.31" y="1088.46" class="st2">MedicationRequest <tspan x="13.24" dy="1.2em" class="st3">(Intent = Issue)</tspan></text>		</g>
		<g id="shape4-13" transform="translate(496.772,-955.997)">
			<title>Shape4</title>
			<desc>1..1</desc>
			<rect x="0" y="1103.4" width="13.4646" height="9.2126" class="st4"/>
			<text x="0.99" y="1110.27" class="st5">1..1</text>		</g>
		<g id="shape5-16" transform="translate(518.031,-856.784)">
			<title>Shape5</title>
			<desc>Medication</desc>
			<rect x="0" y="1070.09" width="85.0394" height="42.5197" class="st1"/>
			<text x="20.26" y="1094.24" class="st2">Medication</text>		</g>
		<g id="shape6-19" transform="translate(177.874,-913.477)">
			<title>Shape6</title>
			<desc>ProblemHeader (Condition)</desc>
			<rect x="0" y="1070.09" width="85.0394" height="42.5197" class="st6"/>
			<text x="11.65" y="1088.46" class="st2">ProblemHeader <tspan x="20.56" dy="1.2em" class="st3">(Condition)</tspan></text>		</g>
		<g id="shape7-23" transform="translate(43.2283,-913.477)">
			<title>Shape7</title>
			<desc>List (Topic / Heading)</desc>
			<rect x="0" y="1070.09" width="85.0394" height="42.5197" class="st7"/>
			<text x="35.9" y="1088.46" class="st2">List <tspan x="8.9" dy="1.2em" class="st3">(Topic / Heading)</tspan></text>		</g>
		<g id="shape8-27" transform="translate(43.2283,-1055.21)">
			<title>Shape8</title>
			<desc>Encounter</desc>
			<rect x="0" y="1070.09" width="85.0394" height="42.5197" class="st7"/>
			<text x="22.33" y="1094.24" class="st2">Encounter</text>		</g>
		<g id="shape9-30" transform="translate(376.299,-715.052)">
			<title>Shape9</title>
			<desc>AllergyIntolerance</desc>
			<rect x="0" y="1070.09" width="85.0394" height="42.5197" class="st1"/>
			<text x="6.68" y="1094.24" class="st2">AllergyIntolerance</text>		</g>
		<g id="shape10-33" transform="translate(376.299,-644.186)">
			<title>Shape10</title>
			<desc>Immunization</desc>
			<rect x="0" y="1070.09" width="85.0394" height="42.5197" class="st1"/>
			<text x="15.47" y="1094.24" class="st2">Immunization</text>		</g>
		<g id="shape11-36" transform="translate(376.299,-573.32)">
			<title>Shape11</title>
			<desc>Observation (Uncategorised)</desc>
			<rect x="0" y="1070.09" width="85.0394" height="42.5197" class="st1"/>
			<text x="18.59" y="1088.46" class="st2">Observation <tspan x="11.25" dy="1.2em" class="st3">(Uncategorised)</tspan></text>		</g>
		<g id="shape12-40" transform="translate(347.953,-771.745)">
			<title>Shape12</title>
			<path d="M0 1112.61 L283.46 1112.61 L283.46 900.01 L0 900.01 L0 1112.61 Z" class="st8"/>
		</g>
		<g id="shape13-42" transform="translate(234.567,-883.005)">
			<title>Shape13</title>
			<desc>Primary Item</desc>
			<rect x="0" y="1094.19" width="56.6929" height="18.4252" class="st4"/>
			<text x="-5.67" y="1101.13" class="st9">Primary <tspan x="-5.67" dy="1.2em" class="st3">Item</tspan></text>		</g>
		<g id="shape14-46" transform="translate(145.984,-883.005)">
			<title>Shape14</title>
			<desc>Associated Item</desc>
			<rect x="0" y="1094.19" width="56.6929" height="18.4252" class="st4"/>
			<text x="24.66" y="1101.13" class="st9">Associated <tspan x="43.52" dy="1.2em" class="st3">Item</tspan></text>		</g>
		<g id="shape15-50" transform="translate(43.2283,-984.343)">
			<title>Shape15</title>
			<desc>List (Consultation)</desc>
			<rect x="0" y="1070.09" width="85.0394" height="42.5197" class="st7"/>
			<text x="35.9" y="1088.46" class="st2">List <tspan x="14.76" dy="1.2em" class="st3">(Consultation)</tspan></text>		</g>
		<g id="shape16-54" transform="translate(0.708661,-870.957)">
			<title>Shape16</title>
			<path d="M0 1112.61 L155.91 1112.61 L155.91 871.67 L0 871.67 L0 1112.61 Z" class="st10"/>
		</g>
		<g id="shape17-56" transform="translate(376.299,-502.454)">
			<title>Shape17</title>
			<desc>ReferralRequest</desc>
			<rect x="0" y="1070.09" width="85.0394" height="42.5197" class="st1"/>
			<text x="10.93" y="1094.24" class="st2">ReferralRequest</text>		</g>
		<g id="shape18-59" transform="translate(376.299,-431.587)">
			<title>Shape18</title>
			<desc>DocumentReference (Metadata only)</desc>
			<rect x="0" y="1070.09" width="85.0394" height="42.5197" class="st1"/>
			<text x="7.95" y="1088.88" class="st11">DocumentReference <tspan x="15.5" dy="1.2em" class="st3">(Metadata only)</tspan></text>		</g>
		<g id="shape19-63" transform="translate(376.299,-216.154)">
			<title>Shape19</title>
			<desc>DiagnosticReport</desc>
			<rect x="0" y="1070.09" width="85.0394" height="42.5197" class="st1"/>
			<text x="8.82" y="1094.24" class="st2">DiagnosticReport</text>		</g>
		<g id="shape20-66" transform="translate(376.299,-131.115)">
			<title>Shape20</title>
			<desc>Observation (Test Group)</desc>
			<rect x="0" y="1070.09" width="85.0394" height="42.5197" class="st1"/>
			<text x="18.59" y="1088.46" class="st2">Observation <tspan x="17.97" dy="1.2em" class="st3">(Test Group)</tspan></text>		</g>
		<g id="shape21-70" transform="translate(376.299,-287.02)">
			<title>Shape21</title>
			<desc>ProcedureRequest</desc>
			<rect x="0" y="1070.09" width="85.0394" height="42.5197" class="st1"/>
			<text x="6.31" y="1094.24" class="st2">ProcedureRequest</text>		</g>
		<g id="shape22-73" transform="translate(376.299,-60.2488)">
			<title>Shape22</title>
			<desc>Observation (Test Result)</desc>
			<rect x="0" y="1070.09" width="85.0394" height="42.5197" class="st1"/>
			<text x="18.59" y="1088.46" class="st2">Observation <tspan x="18.15" dy="1.2em" class="st3">(Test Result)</tspan></text>		</g>
		<g id="shape23-77" transform="translate(518.031,-131.115)">
			<title>Shape23</title>
			<desc>Specimen</desc>
			<rect x="0" y="1070.09" width="85.0394" height="42.5197" class="st1"/>
			<text x="23.48" y="1094.24" class="st2">Specimen</text>		</g>
		<g id="shape24-80" transform="translate(518.031,-287.02)">
			<title>Shape24</title>
			<desc>Observation (Test Report Filing)</desc>
			<rect x="0" y="1070.09" width="85.0394" height="42.5197" class="st1"/>
			<text x="18.59" y="1088.46" class="st2">Observation <tspan x="5.51" dy="1.2em" class="st3">(Test Report Filing)</tspan></text>		</g>
		<g id="shape25-84" transform="translate(220.394,-46.0756)">
			<title>Shape25</title>
			<path d="M0 1112.61 L411.02 1112.61 L411.02 814.97 L0 814.97 L0 1112.61 Z" class="st8"/>
		</g>
		<g id="shape26-86" transform="translate(234.567,-131.115)">
			<title>Shape26</title>
			<desc>DocumentReference (Test Result)</desc>
			<rect x="0" y="1070.09" width="85.0394" height="42.5197" class="st1"/>
			<text x="7.95" y="1088.88" class="st11">DocumentReference <tspan x="21.63" dy="1.2em" class="st3">(Test Result)</tspan></text>		</g>
		<g id="shape27-90" transform="translate(234.567,-287.02)">
			<title>Shape27</title>
			<desc>DocumentReference (Test Report)</desc>
			<rect x="0" y="1070.09" width="85.0394" height="42.5197" class="st1"/>
			<text x="7.95" y="1088.88" class="st11">DocumentReference <tspan x="20.58" dy="1.2em" class="st3">(Test Report)</tspan></text>		</g>
		<g id="shape28-94" transform="translate(672.52,-927.65)">
			<title>Shape28</title>
			<desc>List (Medications and Medical Devices)</desc>
			<rect x="0" y="1070.09" width="85.0394" height="42.5197" class="st12"/>
			<text x="35.9" y="1082.69" class="st2">List <tspan x="8.47" dy="1.2em" class="st3">(Medications and </tspan><tspan
						x="9.45" dy="1.2em" class="st3">Medical Devices)</tspan></text>		</g>
		<g id="shape29-99" transform="translate(672.52,-722.139)">
			<title>Shape29</title>
			<desc>List (Allergies)</desc>
			<rect x="0" y="1070.09" width="85.0394" height="42.5197" class="st12"/>
			<text x="35.9" y="1088.46" class="st2">List <tspan x="22.89" dy="1.2em" class="st3">(Allergies)</tspan></text>		</g>
		<g id="shape30-103" transform="translate(468.425,-748.359)">
			<title>Shape30</title>
			<desc>0..*</desc>
			<rect x="0" y="1103.4" width="13.4646" height="9.2126" class="st4"/>
			<text x="1.02" y="1110.27" class="st13">0..*</text>		</g>
		<g id="shape31-106" transform="translate(610.157,-956.706)">
			<title>Shape31</title>
			<desc>0..*</desc>
			<rect x="0" y="1103.4" width="13.4646" height="9.2126" class="st4"/>
			<text x="1.02" y="1110.27" class="st13">0..*</text>		</g>
		<g id="shape32-109" transform="translate(652.677,-951.745)">
			<title>Shape32</title>
			<desc>0..1</desc>
			<rect x="0" y="1103.4" width="13.4646" height="9.2126" class="st4"/>
			<text x="0.99" y="1110.27" class="st13">0..1</text>		</g>
		<g id="shape33-112" transform="translate(673.228,-651.272)">
			<title>Shape33</title>
			<desc>List (Immunisations)</desc>
			<rect x="0" y="1070.09" width="85.0394" height="42.5197" class="st12"/>
			<text x="35.9" y="1088.46" class="st2">List <tspan x="10.69" dy="1.2em" class="st3">(Immunisations)</tspan></text>		</g>
		<g id="shape34-116" transform="translate(468.425,-677.493)">
			<title>Shape34</title>
			<desc>0..*</desc>
			<rect x="0" y="1103.4" width="13.4646" height="9.2126" class="st4"/>
			<text x="1.02" y="1110.27" class="st13">0..*</text>		</g>
		<g id="shape35-119" transform="translate(672.52,-580.406)">
			<title>Shape35</title>
			<desc>List (Uncategorised)</desc>
			<rect x="0" y="1070.09" width="85.0394" height="42.5197" class="st12"/>
			<text x="35.9" y="1088.46" class="st2">List <tspan x="11.25" dy="1.2em" class="st3">(Uncategorised)</tspan></text>		</g>
		<g id="shape36-123" transform="translate(673.937,-513.083)">
			<title>Shape36</title>
			<desc>List (Referralls)</desc>
			<rect x="0" y="1070.09" width="85.0394" height="42.5197" class="st12"/>
			<text x="35.9" y="1088.46" class="st2">List <tspan x="20.98" dy="1.2em" class="st3">(Referralls)</tspan></text>		</g>
		<g id="shape37-127" transform="translate(671.102,-441.509)">
			<title>Shape37</title>
			<desc>List (Documents)</desc>
			<rect x="0" y="1070.09" width="85.0394" height="42.5197" class="st12"/>
			<text x="35.9" y="1088.46" class="st2">List <tspan x="17.28" dy="1.2em" class="st3">(Documents)</tspan></text>		</g>
		<g id="shape38-131" transform="translate(652.677,-748.359)">
			<title>Shape38</title>
			<desc>0..1</desc>
			<rect x="0" y="1103.4" width="13.4646" height="9.2126" class="st4"/>
			<text x="0.99" y="1110.27" class="st13">0..1</text>		</g>
		<g id="shape39-134" transform="translate(652.677,-677.493)">
			<title>Shape39</title>
			<desc>0..1</desc>
			<rect x="0" y="1103.4" width="13.4646" height="9.2126" class="st4"/>
			<text x="0.99" y="1110.27" class="st13">0..1</text>		</g>
		<g id="shape40-137" transform="translate(652.677,-606.627)">
			<title>Shape40</title>
			<desc>0..1</desc>
			<rect x="0" y="1103.4" width="13.4646" height="9.2126" class="st4"/>
			<text x="0.99" y="1110.27" class="st13">0..1</text>		</g>
		<g id="shape41-140" transform="translate(652.677,-537.887)">
			<title>Shape41</title>
			<desc>0..1</desc>
			<rect x="0" y="1103.4" width="13.4646" height="9.2126" class="st4"/>
			<text x="0.99" y="1110.27" class="st13">0..1</text>		</g>
		<g id="shape42-143" transform="translate(652.677,-469.855)">
			<title>Shape42</title>
			<desc>0..1</desc>
			<rect x="0" y="1103.4" width="13.4646" height="9.2126" class="st4"/>
			<text x="0.99" y="1110.27" class="st13">0..1</text>		</g>
		<g id="shape43-146" transform="translate(673.937,-223.241)">
			<title>Shape43</title>
			<desc>List (Investigations)</desc>
			<rect x="0" y="1070.09" width="85.0394" height="42.5197" class="st12"/>
			<text x="35.9" y="1088.46" class="st2">List <tspan x="12.46" dy="1.2em" class="st3">(Investigations)</tspan></text>		</g>
		<g id="shape44-150" transform="translate(673.937,-1005.6)">
			<title>Shape44</title>
			<desc>List (Problems)</desc>
			<rect x="0" y="1070.09" width="85.0394" height="42.5197" class="st12"/>
			<text x="35.9" y="1088.46" class="st2">List <tspan x="21.15" dy="1.2em" class="st3">(Problems)</tspan></text>		</g>
		<g id="shape45-154" transform="translate(673.937,-1055.21)">
			<title>Shape45</title>
			<desc>List (List of Consultations)</desc>
			<rect x="0" y="1070.09" width="85.0394" height="42.5197" class="st12"/>
			<text x="35.9" y="1082.69" class="st2">List <tspan x="29.35" dy="1.2em" class="st3">(List of </tspan><tspan x="14.33"
						dy="1.2em" class="st3">Consultations)</tspan></text>		</g>
		<g id="shape46-159" transform="translate(715.039,-690.236)">
			<title>Dynamic connector.46</title>
			<path d="M0 1112.61 L-23.93 1112.61 A3.35433 3.35433 -180 0 0 -30.64 1112.61 L-66.45 1112.61 A3 3 -180 0 0 -72.45 1112.61
						 L-105.94 1112.61 L-105.94 1130.31 L-245.83 1130.31" class="st14"/>
		</g>
		<g id="shape48-165" transform="translate(518.031,-949.146)">
			<title>Dynamic connector.48</title>
			<path d="M0 1112.61 L-28.35 1112.61 L-28.35 1137.15" class="st16"/>
		</g>
		<g id="shape49-171" transform="translate(595.276,-945.354)">
			<title>Dynamic connector.49</title>
			<path d="M7.09 1112.61 L7.09 1134.07" class="st16"/>
		</g>
		<g id="shape50-176" transform="translate(461.339,-917.008)">
			<title>Dynamic connector.50</title>
			<path d="M0 1112.61 L0 928.36 L-284.37 928.36" class="st16"/>
		</g>
		<g id="shape51-181" transform="translate(503.15,-888.661)">
			<title>Dynamic connector.51</title>
			<path d="M0 1105.52 L49.8 1105.52" class="st16"/>
		</g>
		<g id="shape52-186" transform="translate(503.15,-824.882)">
			<title>Dynamic connector.52</title>
			<path d="M0 1112.61 L99.92 1112.61 L99.92 1067.06" class="st16"/>
		</g>
		<g id="shape53-191" transform="translate(453.543,-846.142)">
			<title>Dynamic connector.53</title>
			<path d="M7.09 1112.61 L7.09 1091.15" class="st16"/>
		</g>
		<g id="shape54-196" transform="translate(234.567,-973.701)">
			<title>Dynamic connector.54</title>
			<path d="M0 1112.61 L0 1007.02 L-57.6 1007.02" class="st18"/>
		</g>
		<g id="shape55-202" transform="translate(269.291,-931.181)">
			<title>Dynamic connector.55</title>
			<path d="M0 1112.61 L0 1134.58 L141.93 1134.58" class="st18"/>
		</g>
		<g id="shape56-207" transform="translate(269.291,-931.181)">
			<title>Dynamic connector.56</title>
			<path d="M0 1112.61 L0 1205.45 L141.93 1205.45" class="st18"/>
		</g>
		<g id="shape57-212" transform="translate(269.291,-931.181)">
			<title>Dynamic connector.57</title>
			<path d="M0 1112.61 L0 1276.31 L141.93 1276.31" class="st18"/>
		</g>
		<g id="shape58-217" transform="translate(269.291,-931.181)">
			<title>Dynamic connector.58</title>
			<path d="M0 1112.61 L0 1347.18 L141.93 1347.18" class="st18"/>
		</g>
		<g id="shape59-222" transform="translate(269.291,-931.181)">
			<title>Dynamic connector.59</title>
			<path d="M0 1112.61 L0 1418.04 L141.93 1418.04" class="st18"/>
		</g>
		<g id="shape60-227" transform="translate(269.291,-931.181)">
			<title>Dynamic connector.60</title>
			<path d="M0 1112.61 L0 1488.91 L141.93 1488.91" class="st18"/>
		</g>
		<g id="shape61-232" transform="translate(269.291,-931.181)">
			<title>Dynamic connector.61</title>
			<path d="M0 1112.61 L0 1559.78 L141.93 1559.78" class="st18"/>
		</g>
		<g id="shape62-237" transform="translate(269.291,-931.181)">
			<title>Dynamic connector.62</title>
			<path d="M0 1112.61 L0 1622.85 L141.93 1622.85" class="st18"/>
		</g>
		<g id="shape64-242" transform="translate(269.291,-931.181)">
			<title>Dynamic connector.64</title>
			<path d="M0 1112.61 L0 1772.37 L141.93 1772.37" class="st18"/>
		</g>
		<g id="shape65-247" transform="translate(248.74,-931.181)">
			<title>Dynamic connector.65</title>
			<path d="M0 1112.61 L0 1148.75 L17.55 1148.75 A3 3 0 0 1 23.55 1148.75 L162.48 1148.75" class="st18"/>
		</g>
		<g id="shape66-252" transform="translate(248.74,-931.181)">
			<title>Dynamic connector.66</title>
			<path d="M0 1112.61 L0 1290.49 L17.55 1290.49 A3 3 0 0 1 23.55 1290.49 L162.48 1290.49" class="st18"/>
		</g>
		<g id="shape67-257" transform="translate(248.74,-931.181)">
			<title>Dynamic connector.67</title>
			<path d="M0 1112.61 L0 1361.35 L17.55 1361.35 A3 3 0 0 1 23.55 1361.35 L162.48 1361.35" class="st18"/>
		</g>
		<g id="shape68-262" transform="translate(248.74,-931.181)">
			<title>Dynamic connector.68</title>
			<path d="M0 1112.61 L0 1432.22 L17.55 1432.22 A3 3 0 0 1 23.55 1432.22 L162.48 1432.22" class="st18"/>
		</g>
		<g id="shape69-267" transform="translate(248.74,-931.181)">
			<title>Dynamic connector.69</title>
			<path d="M0 1112.61 L0 1503.08 L17.55 1503.08 A3 3 0 0 1 23.55 1503.08 L162.48 1503.08" class="st18"/>
		</g>
		<g id="shape70-272" transform="translate(248.74,-931.181)">
			<title>Dynamic connector.70</title>
			<path d="M0 1112.61 L0 1573.95 L17.55 1573.95 A3 3 0 0 1 23.55 1573.95 L162.48 1573.95" class="st18"/>
		</g>
		<g id="shape71-277" transform="translate(248.74,-931.181)">
			<title>Dynamic connector.71</title>
			<path d="M0 1112.61 L0 1639.15 L17.55 1639.15 A3 3 0 0 1 23.55 1639.15 L162.48 1639.15" class="st18"/>
		</g>
		<g id="shape72-282" transform="translate(248.74,-931.181)">
			<title>Dynamic connector.72</title>
			<path d="M0 1112.61 L0 1789.38 L162.48 1789.38" class="st18"/>
		</g>
		<g id="shape73-287" transform="translate(170.079,-945.354)">
			<title>Dynamic connector.73</title>
			<path d="M0 1105.52 L42.72 1105.52" class="st20"/>
		</g>
		<g id="shape74-293" transform="translate(127.559,-931.181)">
			<title>Dynamic connector.74</title>
			<path d="M0 1112.61 L0 1162.93 L118.18 1162.93 A3 3 0 0 1 124.18 1162.93 L138.73 1162.93 A3 3 0 0 1 144.73 1162.93 L283.66
						 1162.93" class="st20"/>
		</g>
		<g id="shape75-298" transform="translate(127.559,-931.181)">
			<title>Dynamic connector.75</title>
			<path d="M0 1112.61 L0 1233.79 L118.18 1233.79 A3 3 0 0 1 124.18 1233.79 L138.73 1233.79 A3 3 0 0 1 144.73 1233.79 L283.66
						 1233.79" class="st20"/>
		</g>
		<g id="shape76-303" transform="translate(127.559,-931.181)">
			<title>Dynamic connector.76</title>
			<path d="M0 1112.61 L0 1304.66 L118.18 1304.66 A3 3 0 0 1 124.18 1304.66 L138.73 1304.66 A3 3 0 0 1 144.73 1304.66 L283.66
						 1304.66" class="st20"/>
		</g>
		<g id="shape77-308" transform="translate(127.559,-931.181)">
			<title>Dynamic connector.77</title>
			<path d="M0 1112.61 L0 1375.52 L118.18 1375.52 A3 3 0 0 1 124.18 1375.52 L138.73 1375.52 A3 3 0 0 1 144.73 1375.52 L283.66
						 1375.52" class="st20"/>
		</g>
		<g id="shape78-313" transform="translate(127.559,-931.181)">
			<title>Dynamic connector.78</title>
			<path d="M0 1112.61 L0 1517.26 L118.18 1517.26 A3 3 0 0 1 124.18 1517.26 L138.73 1517.26 A3 3 0 0 1 144.73 1517.26 L283.66
						 1517.26" class="st20"/>
		</g>
		<g id="shape79-318" transform="translate(127.559,-931.181)">
			<title>Dynamic connector.79</title>
			<path d="M0 1112.61 L0 1446.39 L118.18 1446.39 A3 3 0 0 1 124.18 1446.39 L138.73 1446.39 A3 3 0 0 1 144.73 1446.39 L283.66
						 1446.39" class="st20"/>
		</g>
		<g id="shape80-323" transform="translate(127.559,-931.181)">
			<title>Dynamic connector.80</title>
			<path d="M0 1112.61 L0 1588.12 L118.18 1588.12 A3 3 0 0 1 124.18 1588.12 L138.73 1588.12 A3 3 0 0 1 144.73 1588.12 L283.66
						 1588.12" class="st20"/>
		</g>
		<g id="shape81-328" transform="translate(127.559,-931.181)">
			<title>Dynamic connector.81</title>
			<path d="M0 1112.61 L0 1651.19 L118.18 1651.19 A3 3 0 0 1 124.18 1651.19 L138.73 1651.19 A3 3 0 0 1 144.73 1651.19 L283.66
						 1651.19" class="st20"/>
		</g>
		<g id="shape82-333" transform="translate(127.559,-931.181)">
			<title>Dynamic connector.82</title>
			<path d="M0 1112.61 L0 1800.72 L283.66 1800.72" class="st20"/>
		</g>
		<g id="shape83-338" transform="translate(503.15,-753.307)">
			<title>Dynamic connector.83</title>
			<path d="M0 1112.61 L139.44 1112.61 A3 3 0 1 1 145.44 1112.61 L184.25 1112.61 L184.25 763.95 L-326.18 763.95"
					class="st16"/>
		</g>
		<g id="shape84-343" transform="translate(461.339,-665.446)">
			<title>Dynamic connector.84</title>
			<path d="M0 1112.61 L184.25 1112.61 L184.25 693.79 L3 693.79 A3 3 -180 0 0 -3 693.79 L-326.18 693.79" class="st16"/>
		</g>
		<g id="shape85-348" transform="translate(503.15,-611.575)">
			<title>Dynamic connector.85</title>
			<path d="M0 1112.61 L139.44 1112.61 A3 3 0 1 1 145.44 1112.61 L184.25 1112.61 L184.25 622.22 L-326.89 622.22"
					class="st16"/>
		</g>
		<g id="shape86-353" transform="translate(120.472,-1002.05)">
			<title>Dynamic connector.86</title>
			<path d="M7.09 1112.61 L7.09 1134.07" class="st20"/>
		</g>
		<g id="shape87-358" transform="translate(120.472,-1044.57)">
			<title>Dynamic connector.87</title>
			<path d="M7.09 1112.61 L7.09 1091.15" class="st20"/>
		</g>
		<g id="shape88-363" transform="translate(377.008,-523.713)">
			<title>Dynamic connector.88</title>
			<path d="M0 1112.61 L268.58 1112.61 L268.58 552.06 L87.33 552.06 A3 3 -180 0 0 81.33 552.06 L-241.14 552.06"
					class="st16"/>
		</g>
		<g id="shape89-368" transform="translate(503.15,-469.843)">
			<title>Dynamic connector.89</title>
			<path d="M0 1112.61 L184.25 1112.61 L184.25 480.49 L-326.18 480.49" class="st16"/>
		</g>
		<g id="shape90-373" transform="translate(453.543,-276.378)">
			<title>Dynamic connector.90</title>
			<path d="M7.09 1112.61 L7.09 1091.15" class="st16"/>
		</g>
		<g id="shape91-378" transform="translate(453.543,-233.858)">
			<title>Dynamic connector.91</title>
			<path d="M7.09 1112.61 L7.09 1148.24" class="st16"/>
		</g>
		<g id="shape92-383" transform="translate(447.165,-233.858)">
			<title>Dynamic connector.92</title>
			<path d="M0 1112.61 L0 1131.74 L-56.69 1131.74 L-56.69 1237.34 L-35.95 1237.34" class="st16"/>
		</g>
		<g id="shape93-388" transform="translate(481.89,-233.858)">
			<title>Dynamic connector.93</title>
			<path d="M0 1112.61 L0 1123.95 L53.69 1123.95 A3 3 0 1 1 59.69 1123.95 L121.18 1123.95 L121.18 1148.24" class="st16"/>
		</g>
		<g id="shape94-393" transform="translate(432.992,-233.858)">
			<title>Dynamic connector.94</title>
			<path d="M0 1112.61 L0 1123.95 L-113.39 1123.95 L-113.39 1148.24" class="st16"/>
		</g>
		<g id="shape95-398" transform="translate(432.992,-276.378)">
			<title>Dynamic connector.95</title>
			<path d="M0 1112.61 L0 1095.6 L-50.31 1095.6 L-50.31 1063.71 L-64.68 1063.71" class="st16"/>
		</g>
		<g id="shape96-403" transform="translate(503.15,-254.409)">
			<title>Dynamic connector.96</title>
			<path d="M0 1112.61 L32.43 1112.61 A3 3 0 1 1 38.43 1112.61 L153.61 1112.61 A3 3 0 1 1 159.61 1112.61 L184.96 1112.61
						 L184.96 265.76 L-326.18 265.76" class="st16"/>
		</g>
		<g id="shape97-408" transform="translate(418.11,-162.992)">
			<title>Dynamic connector.97</title>
			<path d="M0 1105.52 L-24.64 1105.52 A3 3 -180 0 0 -30.64 1105.52 L-49.8 1105.52" class="st16"/>
		</g>
		<g id="shape98-413" transform="translate(503.15,-162.992)">
			<title>Dynamic connector.98</title>
			<path d="M0 1105.52 L49.8 1105.52" class="st16"/>
		</g>
		<g id="shape99-418" transform="translate(489.685,-120.472)">
			<title>Dynamic connector.99</title>
			<path d="M0 1112.61 L0 1095.6 L113.39 1095.6 L113.39 1091.15" class="st16"/>
		</g>
		<g id="shape100-423" transform="translate(453.543,-120.472)">
			<title>Dynamic connector.100</title>
			<path d="M7.09 1106.08 L7.09 1105.72 L7.09 1091.15" class="st22"/>
		</g>
		<g id="shape101-431" transform="translate(418.11,-99.2126)">
			<title>Dynamic connector.101</title>
			<path d="M0 1112.61 L-99.21 1112.61 L-99.21 1069.9" class="st16"/>
		</g>
		<g id="shape102-436" transform="translate(644.882,-325.276)">
			<title>Dynamic connector.102</title>
			<path d="M0 1112.61 L14.88 1112.61 L14.88 1339.38 L-134.84 1339.38" class="st16"/>
		</g>
		<g id="shape103-441" transform="translate(559.843,-325.276)">
			<title>Dynamic connector.103</title>
			<path d="M0 1112.61 L-35.43 1112.61 L-35.43 1144.5 L-77.24 1144.5 L-77.24 1153.91" class="st16"/>
		</g>
		<g id="shape104-446" transform="translate(603.071,-304.724)">
			<title>Dynamic connector.104</title>
			<path d="M0 1112.61 L0 1138.12 L-64.49 1138.12 L-64.49 1208.99 L-121.18 1208.99 L-121.18 1219.11" class="st16"/>
		</g>
		<g id="shape105-451" transform="translate(503.15,-404.646)">
			<title>Dynamic connector.105</title>
			<path d="M0 1112.61 L80.18 1112.61 A3 3 0 0 1 86.18 1112.61 L184.25 1112.61 L184.25 416 L-326.18 416" class="st16"/>
		</g>
		<g id="shape63-456" transform="translate(376.299,-366.391)">
			<title>Shape63</title>
			<desc>ProcedureRequest (Diary Entries)</desc>
			<rect x="0" y="1070.09" width="85.0394" height="42.5197" class="st1"/>
			<text x="11.48" y="1088.88" class="st11">ProcedureRequest <tspan x="18.71" dy="1.2em" class="st3">(Diary Entries)</tspan></text>		</g>
		<g id="shape106-460" transform="translate(712.913,-413.858)">
			<title>Dynamic connector.106</title>
			<path d="M0 1112.61 L-21.81 1114.2 A3.35527 3.35527 -180 1 0 -28.5 1114.69 L-246.12 1130.52" class="st23"/>
		</g>
		<g id="shape107-466" transform="translate(671.102,-374.894)">
			<title>Shape107</title>
			<desc>List (Diary Entries)</desc>
			<rect x="0" y="1070.09" width="85.0394" height="42.5197" class="st12"/>
			<text x="35.9" y="1088.46" class="st2">List <tspan x="14.74" dy="1.2em" class="st3">(Diary Entries)</tspan></text>		</g>
		<g id="shape108-470" transform="translate(652.677,-399.698)">
			<title>Shape108</title>
			<desc>0..1</desc>
			<rect x="0" y="1103.4" width="13.4646" height="9.2126" class="st4"/>
			<text x="0.99" y="1110.27" class="st13">0..1</text>		</g>
		<g id="shape109-473" transform="translate(266.457,-973.701)">
			<title>Dynamic connector.109</title>
			<path d="M0 1112.61 L0 1084.26 L67.32 1084.26 L67.32 1136 L46.58 1136" class="st18"/>
		</g>
		<g id="shape110-478" transform="translate(347.953,-372.769)">
			<title>Shape110</title>
			<desc>0..*</desc>
			<rect x="0" y="1095.6" width="21.2598" height="17.0079" class="st4"/>
			<rect x="4.92196" y="1099.57" width="11.4159" height="9.07388" class="st24"/>
			<text x="4.92" y="1106.38" class="st9">0..*</text>		</g>
		<g id="shape111-482" transform="translate(347.953,-387.296)">
			<title>Shape111</title>
			<desc>0..1</desc>
			<rect x="0" y="1095.6" width="21.2598" height="17.0079" class="st4"/>
			<rect x="4.88873" y="1099.57" width="11.4824" height="9.07388" class="st24"/>
			<text x="4.89" y="1106.38" class="st9">0..1</text>		</g>
		<g id="shape112-486" transform="translate(85.0394,-952.441)">
			<title>Dynamic connector.112</title>
			<path d="M0 1112.61 L-20.55 1112.61 L-20.55 1162.22 L21.26 1162.22 L21.26 1140.76" class="st20"/>
		</g>
		<g id="shape113-491" transform="translate(160.157,-922.69)">
			<title>Shape113</title>
			<desc>0..*</desc>
			<rect x="0" y="1103.4" width="13.4646" height="9.2126" class="st4"/>
			<text x="1.02" y="1110.27" class="st25">0..*</text>		</g>
		<g id="shape114-494" transform="translate(128.976,-936.863)">
			<title>Shape114</title>
			<desc>0..*</desc>
			<rect x="0" y="1103.4" width="13.4646" height="9.2126" class="st4"/>
			<text x="1.02" y="1110.27" class="st25">0..*</text>		</g>
		<g id="shape115-497" transform="translate(347.953,-423.083)">
			<title>Shape115</title>
			<desc>0..*</desc>
			<rect x="0" y="1095.6" width="21.2598" height="17.0079" class="st4"/>
			<rect x="4.92196" y="1099.57" width="11.4159" height="9.07388" class="st24"/>
			<text x="4.92" y="1106.38" class="st25">0..*</text>		</g>
		<g id="shape116-501" transform="translate(347.953,-360.013)">
			<title>Shape116</title>
			<desc>0..*</desc>
			<rect x="0" y="1095.6" width="21.2598" height="17.0079" class="st4"/>
			<rect x="4.92196" y="1099.57" width="11.4159" height="9.07388" class="st24"/>
			<text x="4.92" y="1106.38" class="st25">0..*</text>		</g>
		<g id="shape117-505" transform="translate(475.866,-594.928)">
			<title>Dynamic connector.117</title>
			<path d="M-0.35 1116.51 L-0.35 1130.69 L56.34 1130.69 L56.34 1122.88 L2.65 1122.88 A3 3 -180 0 0 -3.35 1122.88 L-6.93
						 1122.88" class="st16"/>
		</g>
		<g id="shape119-510" transform="translate(652.677,-1078.6)">
			<title>Shape119</title>
			<desc>0..1</desc>
			<rect x="0" y="1103.4" width="13.4646" height="9.2126" class="st4"/>
			<text x="0.99" y="1110.27" class="st13">0..1</text>		</g>
		<g id="shape120-513" transform="translate(652.677,-1028.28)">
			<title>Shape120</title>
			<desc>0..1</desc>
			<rect x="0" y="1103.4" width="13.4646" height="9.2126" class="st4"/>
			<text x="0.99" y="1110.27" class="st13">0..1</text>		</g>
		<g id="shape121-516" transform="translate(209.055,-963.792)">
			<title>Shape121</title>
			<desc>0..*</desc>
			<rect x="0" y="1103.4" width="13.4646" height="9.2126" class="st4"/>
			<text x="1.02" y="1110.27" class="st13">0..*</text>		</g>
		<g id="shape122-519" transform="translate(138.898,-1065.84)">
			<title>Shape122</title>
			<desc>0..*</desc>
			<rect x="0" y="1103.4" width="13.4646" height="9.2126" class="st4"/>
			<text x="1.02" y="1110.27" class="st13">0..*</text>		</g>
		<g id="shape123-522" transform="translate(469.134,-605.918)">
			<title>Shape123</title>
			<desc>0..*</desc>
			<rect x="0" y="1103.4" width="13.4646" height="9.2126" class="st4"/>
			<text x="1.02" y="1110.27" class="st13">0..*</text>		</g>
		<g id="shape124-525" transform="translate(467.717,-513.083)">
			<title>Shape124</title>
			<desc>0..*</desc>
			<rect x="0" y="1103.4" width="13.4646" height="9.2126" class="st4"/>
			<text x="1.02" y="1110.27" class="st5">0..*</text>		</g>
		<g id="shape125-528" transform="translate(470.551,-464.894)">
			<title>Shape125</title>
			<desc>0..*</desc>
			<rect x="0" y="1103.4" width="13.4646" height="9.2126" class="st4"/>
			<text x="1.02" y="1110.27" class="st5">0..*</text>		</g>
		<g id="shape126-531" transform="translate(470.551,-396.863)">
			<title>Shape126</title>
			<desc>0..*</desc>
			<rect x="0" y="1103.4" width="13.4646" height="9.2126" class="st4"/>
			<text x="1.02" y="1110.27" class="st5">0..*</text>		</g>
		<g id="shape127-534" transform="translate(398.976,-277.808)">
			<title>Shape127</title>
			<desc>0..1</desc>
			<rect x="0" y="1103.4" width="13.4646" height="9.2126" class="st4"/>
			<text x="0.99" y="1110.27" class="st5">0..1</text>		</g>
		<g id="shape128-537" transform="translate(420.945,-260.091)">
			<title>Shape128</title>
			<desc>1..1</desc>
			<rect x="0" y="1103.4" width="13.4646" height="9.2126" class="st4"/>
			<text x="0.99" y="1110.27" class="st5">1..1</text>		</g>
		<g id="shape129-540" transform="translate(447.165,-266.469)">
			<title>Shape129</title>
			<desc>0..1</desc>
			<rect x="0" y="1103.4" width="13.4646" height="9.2126" class="st4"/>
			<text x="0.99" y="1110.27" class="st5">0..1</text>		</g>
		<g id="shape130-543" transform="translate(501.732,-297.65)">
			<title>Shape130</title>
			<desc>0..1</desc>
			<rect x="0" y="1103.4" width="13.4646" height="9.2126" class="st4"/>
			<text x="0.99" y="1110.27" class="st5">0..1</text>		</g>
		<g id="shape131-546" transform="translate(544.252,-277.808)">
			<title>Shape131</title>
			<desc>0..1</desc>
			<rect x="0" y="1103.4" width="13.4646" height="9.2126" class="st4"/>
			<text x="0.99" y="1110.27" class="st5">0..1</text>		</g>
		<g id="shape132-549" transform="translate(606.614,-309.698)">
			<title>Shape132</title>
			<desc>0..1</desc>
			<rect x="0" y="1103.4" width="13.4646" height="9.2126" class="st4"/>
			<text x="0.99" y="1110.27" class="st5">0..1</text>		</g>
		<g id="shape133-552" transform="translate(568.346,-120.485)">
			<title>Shape133</title>
			<desc>0..*</desc>
			<rect x="0" y="1103.4" width="13.4646" height="9.2126" class="st4"/>
			<text x="1.02" y="1110.27" class="st5">0..*</text>		</g>
		<g id="shape134-555" transform="translate(405.354,-206.233)">
			<title>Shape134</title>
			<desc>1..1</desc>
			<rect x="0" y="1103.4" width="13.4646" height="9.2126" class="st4"/>
			<text x="0.99" y="1110.27" class="st5">1..1</text>		</g>
		<g id="shape135-558" transform="translate(391.89,-206.233)">
			<title>Shape135</title>
			<desc>0..1</desc>
			<rect x="0" y="1103.4" width="13.4646" height="9.2126" class="st4"/>
			<text x="0.99" y="1110.27" class="st5">0..1</text>		</g>
		<g id="shape136-561" transform="translate(501.024,-136.076)">
			<title>Shape136</title>
			<desc>0..*</desc>
			<rect x="0" y="1103.4" width="13.4646" height="9.2126" class="st4"/>
			<text x="1.02" y="1110.27" class="st5">0..*</text>		</g>
		<g id="shape137-564" transform="translate(423.78,-104.894)">
			<title>Shape137</title>
			<desc>0..*</desc>
			<rect x="0" y="1103.4" width="13.4646" height="9.2126" class="st4"/>
			<text x="1.02" y="1110.27" class="st5">0..*</text>		</g>
		<g id="shape138-567" transform="translate(398.976,-122.611)">
			<title>Shape138</title>
			<desc>0..1</desc>
			<rect x="0" y="1103.4" width="13.4646" height="9.2126" class="st4"/>
			<text x="0.99" y="1110.27" class="st5">0..1</text>		</g>
		<g id="shape139-570" transform="translate(360.709,-97.0992)">
			<title>Shape139</title>
			<desc>0..*</desc>
			<rect x="0" y="1103.4" width="13.4646" height="9.2126" class="st4"/>
			<text x="1.02" y="1110.27" class="st5">0..*</text>		</g>
		<g id="shape140-573" transform="translate(470.551,-82.2173)">
			<title>Shape140</title>
			<desc>0..1</desc>
			<rect x="0" y="1103.4" width="13.4646" height="9.2126" class="st4"/>
			<text x="0.99" y="1110.27" class="st5">0..1</text>		</g>
		<g id="shape141-576" transform="translate(450,-104.894)">
			<title>Shape141</title>
			<desc>1..1</desc>
			<rect x="0" y="1103.4" width="13.4646" height="9.2126" class="st4"/>
			<text x="0.99" y="1110.27" class="st5">1..1</text>		</g>
		<g id="shape142-579" transform="translate(463.465,-155.209)">
			<title>Shape142</title>
			<desc>1..1</desc>
			<rect x="0" y="1103.4" width="13.4646" height="9.2126" class="st4"/>
			<text x="0.99" y="1110.27" class="st5">1..1</text>		</g>
		<g id="shape143-582" transform="translate(446.457,-181.43)">
			<title>Shape143</title>
			<desc>0..1</desc>
			<rect x="0" y="1103.4" width="13.4646" height="9.2126" class="st4"/>
			<text x="0.99" y="1110.27" class="st5">0..1</text>		</g>
		<g id="shape144-585" transform="translate(421.654,-182.139)">
			<title>Shape144</title>
			<desc>0..*</desc>
			<rect x="0" y="1103.4" width="13.4646" height="9.2126" class="st4"/>
			<text x="1.02" y="1110.27" class="st5">0..*</text>		</g>
		<g id="shape145-588" transform="translate(464.173,-226.784)">
			<title>Shape145</title>
			<desc>0..*</desc>
			<rect x="0" y="1103.4" width="13.4646" height="9.2126" class="st4"/>
			<text x="1.02" y="1110.27" class="st5">0..*</text>		</g>
		<g id="shape146-591" transform="translate(652.677,-248.753)">
			<title>Shape146</title>
			<desc>0..1</desc>
			<rect x="0" y="1103.4" width="13.4646" height="9.2126" class="st4"/>
			<text x="0.99" y="1110.27" class="st13">0..1</text>		</g>
	</g>
</svg>
