<?xml version="1.0" encoding="UTF-8" standalone="no"?>
<!DOCTYPE svg PUBLIC "-//W3C//DTD SVG 1.1//EN" "http://www.w3.org/Graphics/SVG/1.1/DTD/svg11.dtd">
<!-- Generated by Microsoft Visio, SVG Export GP_Connect_FHIR_Model.svg FHIR Model 1-5 -->
<svg xmlns="http://www.w3.org/2000/svg" xmlns:xlink="http://www.w3.org/1999/xlink" xmlns:ev="http://www.w3.org/2001/xml-events"
		width="11.5059in" height="16.2795in" viewBox="0 0 828.425 1172.13" xml:space="preserve" color-interpolation-filters="sRGB"
		class="st26">
	<style type="text/css">
	<![CDATA[
		.st1 {fill:#4672c4;stroke:#c8c8c8;stroke-linecap:round;stroke-linejoin:round;stroke-width:0.75}
		.st2 {fill:#000000;font-family:Calibri;font-size:0.801979em}
		.st3 {font-size:1em}
		.st4 {fill:#feffff;font-size:1em}
		.st5 {fill:none;stroke:none;stroke-linecap:round;stroke-linejoin:round;stroke-width:0.75}
		.st6 {fill:#000000;font-family:Calibri;font-size:0.630112em}
		.st7 {fill:#4672c4;font-size:1em}
		.st8 {fill:#70ad47;stroke:#c8c8c8;stroke-linecap:round;stroke-linejoin:round;stroke-width:0.75}
		.st9 {fill:#fec000;stroke:#c8c8c8;stroke-linecap:round;stroke-linejoin:round;stroke-width:0.75}
		.st10 {fill:none;stroke:#0070c0;stroke-dasharray:4.25197,4.25197;stroke-linecap:round;stroke-linejoin:round;stroke-width:1.41732}
		.st11 {fill:#00b050;font-size:1em}
		.st12 {fill:none;stroke:#fec000;stroke-dasharray:4.25197,4.25197;stroke-linecap:round;stroke-linejoin:round;stroke-width:1.41732}
		.st13 {fill:#000000;font-family:Calibri;font-size:0.687401em}
		.st14 {fill:#7030a0;stroke:#c8c8c8;stroke-linecap:round;stroke-linejoin:round;stroke-width:0.75}
		.st15 {fill:#7030a0;font-size:1em}
		.st16 {marker-end:url(#mrkr4-174);stroke:#7030a0;stroke-linecap:round;stroke-linejoin:round;stroke-width:1.41732}
		.st17 {fill:#7030a0;fill-opacity:1;stroke:#7030a0;stroke-opacity:1;stroke-width:0.35997120230382}
		.st18 {marker-end:url(#mrkr5-180);stroke:#4672c4;stroke-linecap:round;stroke-linejoin:round;stroke-width:1.41732}
		.st19 {fill:#4672c4;fill-opacity:1;stroke:#4672c4;stroke-opacity:1;stroke-width:0.35997120230382}
		.st20 {marker-end:url(#mrkr5-211);stroke:#70ad47;stroke-linecap:round;stroke-linejoin:round;stroke-width:1.41732}
		.st21 {fill:#70ad47;fill-opacity:1;stroke:#70ad47;stroke-opacity:1;stroke-width:0.35997120230382}
		.st22 {marker-end:url(#mrkr5-302);stroke:#fec000;stroke-linecap:round;stroke-linejoin:round;stroke-width:1.41732}
		.st23 {fill:#fec000;fill-opacity:1;stroke:#fec000;stroke-opacity:1;stroke-width:0.35997120230382}
		.st24 {marker-end:url(#mrkr5-180);marker-start:url(#mrkr5-439);stroke:#4672c4;stroke-linecap:round;stroke-linejoin:round;stroke-width:1.41732}
		.st25 {marker-end:url(#mrkr5-475);stroke:#7030a0;stroke-linecap:round;stroke-linejoin:round;stroke-width:1.41732}
		.st26 {fill:none;fill-rule:evenodd;font-size:12px;overflow:visible;stroke-linecap:square;stroke-miterlimit:3}
	]]>
	</style>

	<defs id="Markers">
		<g id="lend4">
			<path d="M 2 1 L 0 0 L 2 -1 L 2 1 " style="stroke:none"/>
		</g>
		<marker id="mrkr4-174" class="st17" refX="-5.556" orient="auto" markerUnits="strokeWidth" overflow="visible">
			<use xlink:href="#lend4" transform="scale(-2.778,-2.778) "/>
		</marker>
		<g id="lend5">
			<path d="M 2 1 L 0 0 L 1.98117 -0.993387 C 1.67173 -0.364515 1.67301 0.372641 1.98465 1.00043 " style="stroke:none"/>
		</g>
		<marker id="mrkr5-180" class="st19" refX="-4.8615" orient="auto" markerUnits="strokeWidth" overflow="visible">
			<use xlink:href="#lend5" transform="scale(-2.778,-2.778) "/>
		</marker>
		<marker id="mrkr5-211" class="st21" refX="-4.8615" orient="auto" markerUnits="strokeWidth" overflow="visible">
			<use xlink:href="#lend5" transform="scale(-2.778,-2.778) "/>
		</marker>
		<marker id="mrkr5-302" class="st23" refX="-4.8615" orient="auto" markerUnits="strokeWidth" overflow="visible">
			<use xlink:href="#lend5" transform="scale(-2.778,-2.778) "/>
		</marker>
		<marker id="mrkr5-439" class="st19" refX="4.6075" orient="auto" markerUnits="strokeWidth" overflow="visible">
			<use xlink:href="#lend5" transform="scale(2.778) "/>
		</marker>
		<marker id="mrkr5-475" class="st17" refX="-4.8615" orient="auto" markerUnits="strokeWidth" overflow="visible">
			<use xlink:href="#lend5" transform="scale(-2.778,-2.778) "/>
		</marker>
	</defs>
	<g>
		<title></title>
		<g id="shape1-1" transform="translate(559.843,-945.354)">
			<title></title>
			<desc>Medication Statement</desc>
			<rect x="0" y="1129.61" width="85.0394" height="42.5197" class="st1"/>
			<text x="20.26" y="1147.98" class="st2">Medication <tspan x="22.01" dy="1.2em" class="st3">Statement</tspan></text>		</g>
		<g id="shape2-5" transform="translate(418.11,-874.488)">
			<title></title>
			<desc>MedicationRequest (Intent = Plan)</desc>
			<rect x="0" y="1129.61" width="85.0394" height="42.5197" class="st1"/>
			<text x="4.31" y="1147.98" class="st2">MedicationRequest <tspan x="14.72" dy="1.2em" class="st4">(Intent = Plan)</tspan></text>		</g>
		<g id="shape3-9" transform="translate(418.11,-803.622)">
			<title></title>
			<desc>MedicationRequest (Intent = Issue)</desc>
			<rect x="0" y="1129.61" width="85.0394" height="42.5197" class="st1"/>
			<text x="4.31" y="1147.98" class="st2">MedicationRequest <tspan x="13.24" dy="1.2em" class="st4">(Intent = Issue)</tspan></text>		</g>
		<g id="shape4-13" transform="translate(538.583,-973.701)">
			<title></title>
			<desc>1..1</desc>
			<rect x="0" y="1162.91" width="13.4646" height="9.2126" class="st5"/>
			<text x="0.99" y="1169.79" class="st6">1<tspan class="st7">..1</tspan></text>		</g>
		<g id="shape5-17" transform="translate(559.843,-874.488)">
			<title></title>
			<desc>Medication</desc>
			<rect x="0" y="1129.61" width="85.0394" height="42.5197" class="st1"/>
			<text x="20.26" y="1153.75" class="st2">Medication</text>		</g>
		<g id="shape6-20" transform="translate(219.685,-931.181)">
			<title></title>
			<desc>ProblemHeader (Condition)</desc>
			<rect x="0" y="1129.61" width="85.0394" height="42.5197" class="st8"/>
			<text x="11.65" y="1147.98" class="st2">ProblemHeader <tspan x="20.56" dy="1.2em" class="st4">(Condition)</tspan></text>		</g>
		<g id="shape7-24" transform="translate(85.0394,-931.181)">
			<title></title>
			<desc>List (Topic / Heading)</desc>
			<rect x="0" y="1129.61" width="85.0394" height="42.5197" class="st9"/>
			<text x="35.9" y="1147.98" class="st2">List <tspan x="8.9" dy="1.2em" class="st4">(Topic / Heading)</tspan></text>		</g>
		<g id="shape8-28" transform="translate(85.0394,-1072.91)">
			<title></title>
			<desc>Encounter</desc>
			<rect x="0" y="1129.61" width="85.0394" height="42.5197" class="st9"/>
			<text x="22.33" y="1153.75" class="st2">Encounter</text>		</g>
		<g id="shape9-31" transform="translate(418.11,-732.756)">
			<title></title>
			<desc>AllergyIntolerance</desc>
			<rect x="0" y="1129.61" width="85.0394" height="42.5197" class="st1"/>
			<text x="6.68" y="1153.75" class="st2">AllergyIntolerance</text>		</g>
		<g id="shape10-34" transform="translate(418.11,-661.89)">
			<title></title>
			<desc>Immunization</desc>
			<rect x="0" y="1129.61" width="85.0394" height="42.5197" class="st1"/>
			<text x="15.47" y="1153.75" class="st2">Immunization</text>		</g>
		<g id="shape11-37" transform="translate(418.11,-591.024)">
			<title></title>
			<desc>Observation (Uncategorised)</desc>
			<rect x="0" y="1129.61" width="85.0394" height="42.5197" class="st1"/>
			<text x="18.59" y="1147.98" class="st2">Observation <tspan x="11.25" dy="1.2em" class="st4">(Uncategorised)</tspan></text>		</g>
		<g id="shape12-41" transform="translate(389.764,-789.449)">
			<title></title>
			<path d="M0 1172.13 L283.46 1172.13 L283.46 959.53 L0 959.53 L0 1172.13 Z" class="st10"/>
		</g>
		<g id="shape13-43" transform="translate(276.378,-900.709)">
			<title></title>
			<desc>Primary Item</desc>
			<rect x="0" y="1153.7" width="56.6929" height="18.4252" class="st5"/>
			<text x="-5.67" y="1160.64" class="st6">Primary <tspan x="-5.67" dy="1.2em" class="st11">Item</tspan></text>		</g>
		<g id="shape14-47" transform="translate(187.795,-900.709)">
			<title></title>
			<desc>Associated Item</desc>
			<rect x="0" y="1153.7" width="56.6929" height="18.4252" class="st5"/>
			<text x="24.66" y="1160.64" class="st6">Associated <tspan x="43.52" dy="1.2em" class="st11">Item</tspan></text>		</g>
		<g id="shape15-51" transform="translate(85.0394,-1002.05)">
			<title></title>
			<desc>List (Consultation)</desc>
			<rect x="0" y="1129.61" width="85.0394" height="42.5197" class="st9"/>
			<text x="35.9" y="1147.98" class="st2">List <tspan x="14.76" dy="1.2em" class="st4">(Consultation)</tspan></text>		</g>
		<g id="shape16-55" transform="translate(42.5197,-888.661)">
			<title></title>
			<path d="M0 1172.13 L155.91 1172.13 L155.91 931.18 L0 931.18 L0 1172.13 Z" class="st12"/>
		</g>
		<g id="shape17-57" transform="translate(418.11,-520.157)">
			<title></title>
			<desc>ReferralRequest</desc>
			<rect x="0" y="1129.61" width="85.0394" height="42.5197" class="st1"/>
			<text x="10.93" y="1153.75" class="st2">ReferralRequest</text>		</g>
		<g id="shape18-60" transform="translate(418.11,-449.291)">
			<title></title>
			<desc>DocumentReference (Metadata only)</desc>
			<rect x="0" y="1129.61" width="85.0394" height="42.5197" class="st1"/>
			<text x="7.95" y="1148.39" class="st13">DocumentReference <tspan x="15.5" dy="1.2em" class="st4">(Metadata only)</tspan></text>		</g>
		<g id="shape19-64" transform="translate(418.11,-233.858)">
			<title></title>
			<desc>DiagnosticReport</desc>
			<rect x="0" y="1129.61" width="85.0394" height="42.5197" class="st1"/>
			<text x="8.82" y="1153.75" class="st2">DiagnosticReport</text>		</g>
		<g id="shape20-67" transform="translate(418.11,-148.819)">
			<title></title>
			<desc>Observation (Test Group)</desc>
			<rect x="0" y="1129.61" width="85.0394" height="42.5197" class="st1"/>
			<text x="18.59" y="1147.98" class="st2">Observation <tspan x="17.97" dy="1.2em" class="st4">(Test Group)</tspan></text>		</g>
		<g id="shape21-71" transform="translate(418.11,-304.724)">
			<title></title>
			<desc>ProcedureRequest</desc>
			<rect x="0" y="1129.61" width="85.0394" height="42.5197" class="st1"/>
			<text x="6.31" y="1153.75" class="st2">ProcedureRequest</text>		</g>
		<g id="shape22-74" transform="translate(418.11,-77.9528)">
			<title></title>
			<desc>Observation (Test Result)</desc>
			<rect x="0" y="1129.61" width="85.0394" height="42.5197" class="st1"/>
			<text x="18.59" y="1147.98" class="st2">Observation <tspan x="18.15" dy="1.2em" class="st4">(Test Result)</tspan></text>		</g>
		<g id="shape23-78" transform="translate(559.843,-148.819)">
			<title></title>
			<desc>Specimen</desc>
			<rect x="0" y="1129.61" width="85.0394" height="42.5197" class="st1"/>
			<text x="23.48" y="1153.75" class="st2">Specimen</text>		</g>
		<g id="shape24-81" transform="translate(559.843,-304.724)">
			<title></title>
			<desc>Observation (Test Report Filing)</desc>
			<rect x="0" y="1129.61" width="85.0394" height="42.5197" class="st1"/>
			<text x="18.59" y="1147.98" class="st2">Observation <tspan x="5.51" dy="1.2em" class="st4">(Test Report Filing)</tspan></text>		</g>
		<g id="shape25-85" transform="translate(262.205,-63.7795)">
			<title></title>
			<path d="M0 1172.13 L411.02 1172.13 L411.02 874.49 L0 874.49 L0 1172.13 Z" class="st10"/>
		</g>
		<g id="shape26-87" transform="translate(276.378,-148.819)">
			<title></title>
			<desc>DocumentReference (Test Result)</desc>
			<rect x="0" y="1129.61" width="85.0394" height="42.5197" class="st1"/>
			<text x="7.95" y="1148.39" class="st13">DocumentReference <tspan x="21.63" dy="1.2em" class="st4">(Test Result)</tspan></text>		</g>
		<g id="shape27-91" transform="translate(276.378,-304.724)">
			<title></title>
			<desc>DocumentReference (Test Report)</desc>
			<rect x="0" y="1129.61" width="85.0394" height="42.5197" class="st1"/>
			<text x="7.95" y="1148.39" class="st13">DocumentReference <tspan x="20.58" dy="1.2em" class="st4">(Test Report)</tspan></text>		</g>
		<g id="shape28-95" transform="translate(714.331,-945.354)">
			<title></title>
			<desc>List (Medications and Medical Devices)</desc>
			<rect x="0" y="1129.61" width="85.0394" height="42.5197" class="st14"/>
			<text x="35.9" y="1142.2" class="st2">List <tspan x="8.47" dy="1.2em" class="st4">(Medications and </tspan><tspan
						x="9.45" dy="1.2em" class="st4">Medical Devices)</tspan></text>		</g>
		<g id="shape29-100" transform="translate(714.331,-739.843)">
			<title></title>
			<desc>List (Allergies)</desc>
			<rect x="0" y="1129.61" width="85.0394" height="42.5197" class="st14"/>
			<text x="35.9" y="1147.98" class="st2">List <tspan x="22.89" dy="1.2em" class="st4">(Allergies)</tspan></text>		</g>
		<g id="shape30-104" transform="translate(510.236,-766.063)">
			<title></title>
			<desc>0..*</desc>
			<rect x="0" y="1162.91" width="13.4646" height="9.2126" class="st5"/>
			<text x="1.02" y="1169.79" class="st6">0<tspan class="st15">..*</tspan></text>		</g>
		<g id="shape31-108" transform="translate(651.969,-974.409)">
			<title></title>
			<desc>0..*</desc>
			<rect x="0" y="1162.91" width="13.4646" height="9.2126" class="st5"/>
			<text x="1.02" y="1169.79" class="st6">0<tspan class="st15">..*</tspan></text>		</g>
		<g id="shape32-112" transform="translate(694.488,-969.449)">
			<title></title>
			<desc>0..1</desc>
			<rect x="0" y="1162.91" width="13.4646" height="9.2126" class="st5"/>
			<text x="0.99" y="1169.79" class="st6">0<tspan class="st15">..1</tspan></text>		</g>
		<g id="shape33-116" transform="translate(715.039,-668.976)">
			<title></title>
			<desc>List (Immunisations)</desc>
			<rect x="0" y="1129.61" width="85.0394" height="42.5197" class="st14"/>
			<text x="35.9" y="1147.98" class="st2">List <tspan x="10.69" dy="1.2em" class="st4">(Immunisations)</tspan></text>		</g>
		<g id="shape34-120" transform="translate(510.236,-695.197)">
			<title></title>
			<desc>0..*</desc>
			<rect x="0" y="1162.91" width="13.4646" height="9.2126" class="st5"/>
			<text x="1.02" y="1169.79" class="st6">0<tspan class="st15">..*</tspan></text>		</g>
		<g id="shape35-124" transform="translate(714.331,-598.11)">
			<title></title>
			<desc>List (Uncategorised)</desc>
			<rect x="0" y="1129.61" width="85.0394" height="42.5197" class="st14"/>
			<text x="35.9" y="1147.98" class="st2">List <tspan x="11.25" dy="1.2em" class="st4">(Uncategorised)</tspan></text>		</g>
		<g id="shape36-128" transform="translate(715.748,-530.787)">
			<title></title>
			<desc>List (Referralls)</desc>
			<rect x="0" y="1129.61" width="85.0394" height="42.5197" class="st14"/>
			<text x="35.9" y="1147.98" class="st2">List <tspan x="20.98" dy="1.2em" class="st4">(Referralls)</tspan></text>		</g>
		<g id="shape37-132" transform="translate(712.913,-459.213)">
			<title></title>
			<desc>List (Documents)</desc>
			<rect x="0" y="1129.61" width="85.0394" height="42.5197" class="st14"/>
			<text x="35.9" y="1147.98" class="st2">List <tspan x="17.28" dy="1.2em" class="st4">(Documents)</tspan></text>		</g>
		<g id="shape38-136" transform="translate(694.488,-766.063)">
			<title></title>
			<desc>0..1</desc>
			<rect x="0" y="1162.91" width="13.4646" height="9.2126" class="st5"/>
			<text x="0.99" y="1169.79" class="st6">0<tspan class="st15">..1</tspan></text>		</g>
		<g id="shape39-140" transform="translate(694.488,-695.197)">
			<title></title>
			<desc>0..1</desc>
			<rect x="0" y="1162.91" width="13.4646" height="9.2126" class="st5"/>
			<text x="0.99" y="1169.79" class="st6">0<tspan class="st15">..1</tspan></text>		</g>
		<g id="shape40-144" transform="translate(694.488,-624.331)">
			<title></title>
			<desc>0..1</desc>
			<rect x="0" y="1162.91" width="13.4646" height="9.2126" class="st5"/>
			<text x="0.99" y="1169.79" class="st6">0<tspan class="st15">..1</tspan></text>		</g>
		<g id="shape41-148" transform="translate(694.488,-555.591)">
			<title></title>
			<desc>0..1</desc>
			<rect x="0" y="1162.91" width="13.4646" height="9.2126" class="st5"/>
			<text x="0.99" y="1169.79" class="st6">0<tspan class="st15">..1</tspan></text>		</g>
		<g id="shape42-152" transform="translate(694.488,-487.559)">
			<title></title>
			<desc>0..1</desc>
			<rect x="0" y="1162.91" width="13.4646" height="9.2126" class="st5"/>
			<text x="0.99" y="1169.79" class="st6">0<tspan class="st15">..1</tspan></text>		</g>
		<g id="shape43-156" transform="translate(715.748,-240.945)">
			<title></title>
			<desc>List (Investigations)</desc>
			<rect x="0" y="1129.61" width="85.0394" height="42.5197" class="st14"/>
			<text x="35.9" y="1147.98" class="st2">List <tspan x="12.46" dy="1.2em" class="st4">(Investigations)</tspan></text>		</g>
		<g id="shape44-160" transform="translate(715.748,-1023.31)">
			<title></title>
			<desc>List (Problems)</desc>
			<rect x="0" y="1129.61" width="85.0394" height="42.5197" class="st14"/>
			<text x="35.9" y="1147.98" class="st2">List <tspan x="21.15" dy="1.2em" class="st4">(Problems)</tspan></text>		</g>
		<g id="shape45-164" transform="translate(715.748,-1072.91)">
			<title></title>
			<desc>List (List of Consultations)</desc>
			<rect x="0" y="1129.61" width="85.0394" height="42.5197" class="st14"/>
			<text x="35.9" y="1142.2" class="st2">List <tspan x="29.35" dy="1.2em" class="st4">(List of </tspan><tspan x="14.33"
						dy="1.2em" class="st4">Consultations)</tspan></text>		</g>
		<g id="shape46-169" transform="translate(503.15,-689.528)">
			<title></title>
			<path d="M211.89 1171.42 L179.53 1171.42 L7.87 1171.42" class="st16"/>
		</g>
		<g id="shape48-175" transform="translate(489.685,-917.717)">
			<title></title>
			<path d="M70.16 1122.99 L0 1123.23 L0 1165.24" class="st18"/>
		</g>
		<g id="shape49-181" transform="translate(602.362,-917.008)">
			<title></title>
			<path d="M0 1143.78 L0 1165.24" class="st18"/>
		</g>
		<g id="shape50-186" transform="translate(170.079,-917.008)">
			<title></title>
			<path d="M291.26 1172.13 L291.26 987.87 L6.89 987.87" class="st18"/>
		</g>
		<g id="shape51-191" transform="translate(503.15,-895.039)">
			<title></title>
			<path d="M0 1171.42 L49.8 1171.42" class="st18"/>
		</g>
		<g id="shape52-196" transform="translate(503.15,-824.882)">
			<title></title>
			<path d="M0 1172.13 L99.92 1172.13 L99.92 1126.58" class="st18"/>
		</g>
		<g id="shape53-201" transform="translate(460.63,-846.142)">
			<title></title>
			<path d="M0 1172.13 L0 1150.67" class="st18"/>
		</g>
		<g id="shape54-206" transform="translate(170.079,-973.701)">
			<title></title>
			<path d="M64.49 1172.13 L64.49 1066.54 L6.89 1066.54" class="st20"/>
		</g>
		<g id="shape55-212" transform="translate(269.291,-909.213)">
			<title></title>
			<path d="M0 1150.16 L0 1172.13 L141.93 1172.13" class="st20"/>
		</g>
		<g id="shape56-217" transform="translate(269.291,-838.346)">
			<title></title>
			<path d="M0 1079.29 L0 1172.13 L141.93 1172.13" class="st20"/>
		</g>
		<g id="shape57-222" transform="translate(269.291,-767.48)">
			<title></title>
			<path d="M0 1008.43 L0 1172.13 L141.93 1172.13" class="st20"/>
		</g>
		<g id="shape58-227" transform="translate(269.291,-696.614)">
			<title></title>
			<path d="M0 937.56 L0 1172.13 L141.93 1172.13" class="st20"/>
		</g>
		<g id="shape59-232" transform="translate(269.291,-625.748)">
			<title></title>
			<path d="M0 866.69 L0 1172.13 L141.93 1172.13" class="st20"/>
		</g>
		<g id="shape60-237" transform="translate(269.291,-554.882)">
			<title></title>
			<path d="M0 795.83 L0 1172.13 L141.93 1172.13" class="st20"/>
		</g>
		<g id="shape61-242" transform="translate(269.291,-484.016)">
			<title></title>
			<path d="M0 724.96 L0 1172.13 L141.93 1172.13" class="st20"/>
		</g>
		<g id="shape62-247" transform="translate(269.291,-420.945)">
			<title></title>
			<path d="M0 661.89 L0 1172.13 L141.93 1172.13" class="st20"/>
		</g>
		<g id="shape64-252" transform="translate(269.291,-271.417)">
			<title></title>
			<path d="M0 512.36 L0 1172.13 L141.93 1172.13" class="st20"/>
		</g>
		<g id="shape65-257" transform="translate(248.74,-895.039)">
			<title></title>
			<path d="M0 1135.98 L0 1172.13 L162.48 1172.13" class="st20"/>
		</g>
		<g id="shape66-262" transform="translate(248.74,-753.307)">
			<title></title>
			<path d="M0 994.25 L0 1172.13 L162.48 1172.13" class="st20"/>
		</g>
		<g id="shape67-267" transform="translate(248.74,-682.441)">
			<title></title>
			<path d="M0 923.39 L0 1172.13 L162.48 1172.13" class="st20"/>
		</g>
		<g id="shape68-272" transform="translate(248.74,-611.575)">
			<title></title>
			<path d="M0 852.52 L0 1172.13 L162.48 1172.13" class="st20"/>
		</g>
		<g id="shape69-277" transform="translate(248.74,-540.709)">
			<title></title>
			<path d="M0 781.65 L0 1172.13 L162.48 1172.13" class="st20"/>
		</g>
		<g id="shape70-282" transform="translate(248.74,-469.843)">
			<title></title>
			<path d="M0 710.79 L0 1172.13 L162.48 1172.13" class="st20"/>
		</g>
		<g id="shape71-287" transform="translate(248.74,-404.646)">
			<title></title>
			<path d="M0 645.59 L0 1172.13 L162.48 1172.13" class="st20"/>
		</g>
		<g id="shape72-292" transform="translate(248.74,-254.409)">
			<title></title>
			<path d="M0 495.35 L0 1172.13 L162.48 1172.13" class="st20"/>
		</g>
		<g id="shape73-297" transform="translate(170.079,-951.732)">
			<title></title>
			<path d="M0 1171.42 L42.72 1171.42" class="st22"/>
		</g>
		<g id="shape74-303" transform="translate(127.559,-880.866)">
			<title></title>
			<path d="M0 1121.81 L0 1172.13 L283.66 1172.13" class="st22"/>
		</g>
		<g id="shape75-308" transform="translate(127.559,-810)">
			<title></title>
			<path d="M0 1050.94 L0 1172.13 L283.66 1172.13" class="st22"/>
		</g>
		<g id="shape76-313" transform="translate(127.559,-739.134)">
			<title></title>
			<path d="M0 980.08 L0 1172.13 L283.66 1172.13" class="st22"/>
		</g>
		<g id="shape77-318" transform="translate(127.559,-668.268)">
			<title></title>
			<path d="M0 909.21 L0 1172.13 L283.66 1172.13" class="st22"/>
		</g>
		<g id="shape78-323" transform="translate(127.559,-526.535)">
			<title></title>
			<path d="M0 767.48 L0 1172.13 L283.66 1172.13" class="st22"/>
		</g>
		<g id="shape79-328" transform="translate(127.559,-597.402)">
			<title></title>
			<path d="M0 838.35 L0 1172.13 L283.66 1172.13" class="st22"/>
		</g>
		<g id="shape80-333" transform="translate(127.559,-455.669)">
			<title></title>
			<path d="M0 696.61 L0 1172.13 L283.66 1172.13" class="st22"/>
		</g>
		<g id="shape81-338" transform="translate(127.559,-392.598)">
			<title></title>
			<path d="M0 633.54 L0 1172.13 L283.66 1172.13" class="st22"/>
		</g>
		<g id="shape82-343" transform="translate(127.559,-243.071)">
			<title></title>
			<path d="M0 484.02 L0 1172.13 L283.66 1172.13" class="st22"/>
		</g>
		<g id="shape83-348" transform="translate(170.079,-753.307)">
			<title></title>
			<path d="M333.07 1172.13 L517.32 1172.13 L517.32 823.46 L6.89 823.46" class="st18"/>
		</g>
		<g id="shape84-353" transform="translate(170.079,-683.15)">
			<title></title>
			<path d="M333.07 1172.13 L517.32 1172.13 L517.32 753.31 L6.89 753.31" class="st18"/>
		</g>
		<g id="shape85-358" transform="translate(169.37,-611.575)">
			<title></title>
			<path d="M333.78 1172.13 L518.03 1172.13 L518.03 681.73 L6.89 681.73" class="st18"/>
		</g>
		<g id="shape86-363" transform="translate(127.559,-973.701)">
			<title></title>
			<path d="M0 1143.78 L0 1165.24" class="st22"/>
		</g>
		<g id="shape87-368" transform="translate(127.559,-1044.57)">
			<title></title>
			<path d="M0 1172.13 L0 1150.67" class="st22"/>
		</g>
		<g id="shape88-373" transform="translate(170.787,-541.417)">
			<title></title>
			<path d="M248.03 1172.13 L248.03 1171.42 L516.61 1171.42 L516.61 611.57 L6.89 611.57" class="st18"/>
		</g>
		<g id="shape89-378" transform="translate(170.079,-469.843)">
			<title></title>
			<path d="M333.07 1172.13 L517.32 1172.13 L517.32 540 L6.89 540" class="st18"/>
		</g>
		<g id="shape90-383" transform="translate(460.63,-276.378)">
			<title></title>
			<path d="M0 1172.13 L0 1150.67" class="st18"/>
		</g>
		<g id="shape91-388" transform="translate(460.63,-191.339)">
			<title></title>
			<path d="M0 1129.61 L0 1165.24" class="st18"/>
		</g>
		<g id="shape92-393" transform="translate(390.472,-109.134)">
			<title></title>
			<path d="M56.69 1047.4 L56.69 1066.54 L0 1066.54 L0 1172.13 L20.75 1172.13" class="st18"/>
		</g>
		<g id="shape93-398" transform="translate(481.89,-191.339)">
			<title></title>
			<path d="M0 1129.61 L0 1140.94 L121.18 1140.94 L121.18 1165.24" class="st18"/>
		</g>
		<g id="shape94-403" transform="translate(319.606,-191.339)">
			<title></title>
			<path d="M113.39 1129.61 L113.39 1140.94 L0 1140.94 L0 1165.24" class="st18"/>
		</g>
		<g id="shape95-408" transform="translate(361.417,-276.378)">
			<title></title>
			<path d="M71.57 1172.13 L71.57 1155.12 L21.26 1155.12 L21.26 1123.23 L6.89 1123.23" class="st18"/>
		</g>
		<g id="shape96-413" transform="translate(170.079,-254.409)">
			<title></title>
			<path d="M333.07 1172.13 L518.03 1172.13 L518.03 325.28 L6.89 325.28" class="st18"/>
		</g>
		<g id="shape97-418" transform="translate(361.417,-169.37)">
			<title></title>
			<path d="M56.69 1171.42 L6.89 1171.42" class="st18"/>
		</g>
		<g id="shape98-423" transform="translate(503.15,-169.37)">
			<title></title>
			<path d="M0 1171.42 L49.8 1171.42" class="st18"/>
		</g>
		<g id="shape99-428" transform="translate(489.685,-120.472)">
			<title></title>
			<path d="M0 1172.13 L0 1155.12 L113.39 1155.12 L113.39 1150.67" class="st18"/>
		</g>
		<g id="shape100-433" transform="translate(460.63,-120.472)">
			<title></title>
			<path d="M0 1165.6 L0 1165.24 L0 1150.67" class="st24"/>
		</g>
		<g id="shape101-441" transform="translate(318.898,-99.2126)">
			<title></title>
			<path d="M99.21 1172.13 L0 1172.13 L0 1129.41" class="st18"/>
		</g>
		<g id="shape102-446" transform="translate(503.15,-98.5039)">
			<title></title>
			<path d="M141.73 945.35 L156.61 945.35 L156.61 1172.13 L6.89 1172.13" class="st18"/>
		</g>
		<g id="shape103-451" transform="translate(482.598,-277.087)">
			<title></title>
			<path d="M77.24 1123.94 L41.81 1123.94 L41.81 1155.83 L0 1155.83 L0 1165.24" class="st18"/>
		</g>
		<g id="shape104-456" transform="translate(481.89,-191.339)">
			<title></title>
			<path d="M121.18 1058.74 L121.18 1084.25 L56.69 1084.25 L56.69 1155.12 L0 1155.12 L0 1165.24" class="st18"/>
		</g>
		<g id="shape105-461" transform="translate(170.079,-404.646)">
			<title></title>
			<path d="M333.07 1172.13 L517.32 1172.13 L517.32 475.51 L6.89 475.51" class="st18"/>
		</g>
		<g id="shape63-466" transform="translate(418.11,-384.094)">
			<title></title>
			<desc>ProcedureRequest (Diary Entries)</desc>
			<rect x="0" y="1129.61" width="85.0394" height="42.5197" class="st1"/>
			<text x="11.48" y="1148.39" class="st13">ProcedureRequest <tspan x="18.71" dy="1.2em" class="st4">(Diary Entries)</tspan></text>		</g>
		<g id="shape106-470" transform="translate(501.732,-413.15)">
			<title></title>
			<path d="M211.18 1171.42 L105.59 1171.42 L105.59 1172.13 L6.89 1172.13" class="st25"/>
		</g>
		<g id="shape107-476" transform="translate(712.913,-392.598)">
			<title></title>
			<desc>List (Diary Entries)</desc>
			<rect x="0" y="1129.61" width="85.0394" height="42.5197" class="st14"/>
			<text x="35.9" y="1147.98" class="st2">List <tspan x="14.74" dy="1.2em" class="st4">(Diary Entries)</tspan></text>		</g>
		<g id="shape108-480" transform="translate(694.488,-417.402)">
			<title></title>
			<desc>0..1</desc>
			<rect x="0" y="1162.91" width="13.4646" height="9.2126" class="st5"/>
			<text x="0.99" y="1169.79" class="st6">0<tspan class="st15">..1</tspan></text>		</g>
		<g id="shape109-484" transform="translate(266.457,-950.315)">
			<title></title>
			<path d="M0 1148.74 L0 1120.39 L67.32 1120.39 L67.32 1172.13 L46.58 1172.13" class="st20"/>
		</g>
		<g id="shape110-489" transform="translate(389.764,-390.472)">
			<title></title>
			<desc>0..*</desc>
			<rect x="0" y="1155.12" width="21.2598" height="17.0079" class="st5"/>
			<text x="4.92" y="1165.89" class="st6">0..*</text>		</g>
		<g id="shape111-492" transform="translate(389.764,-405)">
			<title></title>
			<desc>0..1</desc>
			<rect x="0" y="1155.12" width="21.2598" height="17.0079" class="st5"/>
			<text x="4.89" y="1165.89" class="st6">0..1</text>		</g>
		<g id="shape112-495" transform="translate(64.4882,-902.835)">
			<title></title>
			<path d="M20.55 1122.52 L0 1122.52 L0 1172.13 L41.81 1172.13 L41.81 1150.67" class="st22"/>
		</g>
		<g id="shape113-500" transform="translate(201.969,-940.394)">
			<title></title>
			<desc>0..*</desc>
			<rect x="0" y="1162.91" width="13.4646" height="9.2126" class="st5"/>
			<text x="1.02" y="1169.79" class="st6">0..*</text>		</g>
		<g id="shape114-503" transform="translate(170.787,-954.567)">
			<title></title>
			<desc>0..*</desc>
			<rect x="0" y="1162.91" width="13.4646" height="9.2126" class="st5"/>
			<text x="1.02" y="1169.79" class="st6">0..*</text>		</g>
		<g id="shape115-506" transform="translate(389.764,-440.787)">
			<title></title>
			<desc>0..*</desc>
			<rect x="0" y="1155.12" width="21.2598" height="17.0079" class="st5"/>
			<text x="4.92" y="1165.89" class="st6">0..*</text>		</g>
		<g id="shape116-509" transform="translate(389.764,-377.717)">
			<title></title>
			<desc>0..*</desc>
			<rect x="0" y="1155.12" width="21.2598" height="17.0079" class="st5"/>
			<text x="4.92" y="1165.89" class="st6">0..*</text>		</g>
		<g id="shape117-512" transform="translate(475.512,-576.85)">
			<title></title>
			<path d="M0 1157.95 L0 1172.13 L56.69 1172.13 L56.69 1147.32 L35.23 1146.79" class="st18"/>
		</g>
		<g id="shape119-517" transform="translate(694.488,-1096.3)">
			<title></title>
			<desc>0..1</desc>
			<rect x="0" y="1162.91" width="13.4646" height="9.2126" class="st5"/>
			<text x="0.99" y="1169.79" class="st6">0<tspan class="st15">..1</tspan></text>		</g>
		<g id="shape120-521" transform="translate(694.488,-1045.98)">
			<title></title>
			<desc>0..1</desc>
			<rect x="0" y="1162.91" width="13.4646" height="9.2126" class="st5"/>
			<text x="0.99" y="1169.79" class="st6">0<tspan class="st15">..1</tspan></text>		</g>
		<g id="shape121-525" transform="translate(250.866,-981.496)">
			<title></title>
			<desc>0..*</desc>
			<rect x="0" y="1162.91" width="13.4646" height="9.2126" class="st5"/>
			<text x="1.02" y="1169.79" class="st6">0<tspan class="st15">..*</tspan></text>		</g>
		<g id="shape122-529" transform="translate(180.709,-1083.54)">
			<title></title>
			<desc>0..*</desc>
			<rect x="0" y="1162.91" width="13.4646" height="9.2126" class="st5"/>
			<text x="1.02" y="1169.79" class="st6">0<tspan class="st15">..*</tspan></text>		</g>
		<g id="shape123-533" transform="translate(510.945,-623.622)">
			<title></title>
			<desc>0..*</desc>
			<rect x="0" y="1162.91" width="13.4646" height="9.2126" class="st5"/>
			<text x="1.02" y="1169.79" class="st6">0<tspan class="st15">..*</tspan></text>		</g>
		<g id="shape124-537" transform="translate(509.528,-530.787)">
			<title></title>
			<desc>0..*</desc>
			<rect x="0" y="1162.91" width="13.4646" height="9.2126" class="st5"/>
			<text x="1.02" y="1169.79" class="st6">0<tspan class="st7">..*</tspan></text>		</g>
		<g id="shape125-541" transform="translate(512.362,-482.598)">
			<title></title>
			<desc>0..*</desc>
			<rect x="0" y="1162.91" width="13.4646" height="9.2126" class="st5"/>
			<text x="1.02" y="1169.79" class="st6">0<tspan class="st7">..*</tspan></text>		</g>
		<g id="shape126-545" transform="translate(512.362,-414.567)">
			<title></title>
			<desc>0..*</desc>
			<rect x="0" y="1162.91" width="13.4646" height="9.2126" class="st5"/>
			<text x="1.02" y="1169.79" class="st6">0<tspan class="st7">..*</tspan></text>		</g>
		<g id="shape127-549" transform="translate(440.787,-295.512)">
			<title></title>
			<desc>0..1</desc>
			<rect x="0" y="1162.91" width="13.4646" height="9.2126" class="st5"/>
			<text x="0.99" y="1169.79" class="st6">0..1</text>		</g>
		<g id="shape128-552" transform="translate(462.756,-277.795)">
			<title></title>
			<desc>1..1</desc>
			<rect x="0" y="1162.91" width="13.4646" height="9.2126" class="st5"/>
			<text x="0.99" y="1169.79" class="st6">1..1</text>		</g>
		<g id="shape129-555" transform="translate(488.976,-284.173)">
			<title></title>
			<desc>0..1</desc>
			<rect x="0" y="1162.91" width="13.4646" height="9.2126" class="st5"/>
			<text x="0.99" y="1169.79" class="st6">0..1</text>		</g>
		<g id="shape130-558" transform="translate(543.543,-315.354)">
			<title></title>
			<desc>0..1</desc>
			<rect x="0" y="1162.91" width="13.4646" height="9.2126" class="st5"/>
			<text x="0.99" y="1169.79" class="st6">0..1</text>		</g>
		<g id="shape131-561" transform="translate(586.063,-295.512)">
			<title></title>
			<desc>0..1</desc>
			<rect x="0" y="1162.91" width="13.4646" height="9.2126" class="st5"/>
			<text x="0.99" y="1169.79" class="st6">0..1</text>		</g>
		<g id="shape132-564" transform="translate(648.425,-327.402)">
			<title></title>
			<desc>0..1</desc>
			<rect x="0" y="1162.91" width="13.4646" height="9.2126" class="st5"/>
			<text x="0.99" y="1169.79" class="st6">0..1</text>		</g>
		<g id="shape133-567" transform="translate(610.157,-138.189)">
			<title></title>
			<desc>0..*</desc>
			<rect x="0" y="1162.91" width="13.4646" height="9.2126" class="st5"/>
			<text x="1.02" y="1169.79" class="st6">0..*</text>		</g>
		<g id="shape134-570" transform="translate(447.165,-223.937)">
			<title></title>
			<desc>1..1</desc>
			<rect x="0" y="1162.91" width="13.4646" height="9.2126" class="st5"/>
			<text x="0.99" y="1169.79" class="st6">1..1</text>		</g>
		<g id="shape135-573" transform="translate(433.701,-223.937)">
			<title></title>
			<desc>0..1</desc>
			<rect x="0" y="1162.91" width="13.4646" height="9.2126" class="st5"/>
			<text x="0.99" y="1169.79" class="st6">0..1</text>		</g>
		<g id="shape136-576" transform="translate(542.835,-153.78)">
			<title></title>
			<desc>0..*</desc>
			<rect x="0" y="1162.91" width="13.4646" height="9.2126" class="st5"/>
			<text x="1.02" y="1169.79" class="st6">0..*</text>		</g>
		<g id="shape137-579" transform="translate(465.591,-122.598)">
			<title></title>
			<desc>0..*</desc>
			<rect x="0" y="1162.91" width="13.4646" height="9.2126" class="st5"/>
			<text x="1.02" y="1169.79" class="st6">0..*</text>		</g>
		<g id="shape138-582" transform="translate(440.787,-140.315)">
			<title></title>
			<desc>0..1</desc>
			<rect x="0" y="1162.91" width="13.4646" height="9.2126" class="st5"/>
			<text x="0.99" y="1169.79" class="st6">0..1</text>		</g>
		<g id="shape139-585" transform="translate(402.52,-114.803)">
			<title></title>
			<desc>0..*</desc>
			<rect x="0" y="1162.91" width="13.4646" height="9.2126" class="st5"/>
			<text x="1.02" y="1169.79" class="st6">0..*</text>		</g>
		<g id="shape140-588" transform="translate(512.362,-99.9213)">
			<title></title>
			<desc>0..1</desc>
			<rect x="0" y="1162.91" width="13.4646" height="9.2126" class="st5"/>
			<text x="0.99" y="1169.79" class="st6">0..1</text>		</g>
		<g id="shape141-591" transform="translate(491.811,-122.598)">
			<title></title>
			<desc>1..1</desc>
			<rect x="0" y="1162.91" width="13.4646" height="9.2126" class="st5"/>
			<text x="0.99" y="1169.79" class="st6">1..1</text>		</g>
		<g id="shape142-594" transform="translate(505.276,-172.913)">
			<title></title>
			<desc>1..1</desc>
			<rect x="0" y="1162.91" width="13.4646" height="9.2126" class="st5"/>
			<text x="0.99" y="1169.79" class="st6">1..1</text>		</g>
		<g id="shape143-597" transform="translate(488.268,-199.134)">
			<title></title>
			<desc>0..1</desc>
			<rect x="0" y="1162.91" width="13.4646" height="9.2126" class="st5"/>
			<text x="0.99" y="1169.79" class="st6">0..1</text>		</g>
		<g id="shape144-600" transform="translate(463.465,-199.843)">
			<title></title>
			<desc>0..*</desc>
			<rect x="0" y="1162.91" width="13.4646" height="9.2126" class="st5"/>
			<text x="1.02" y="1169.79" class="st6">0..*</text>		</g>
		<g id="shape145-603" transform="translate(505.984,-244.488)">
			<title></title>
			<desc>0..*</desc>
			<rect x="0" y="1162.91" width="13.4646" height="9.2126" class="st5"/>
			<text x="1.02" y="1169.79" class="st6">0..*</text>		</g>
		<g id="shape146-606" transform="translate(694.488,-266.457)">
			<title></title>
			<desc>0..1</desc>
			<rect x="0" y="1162.91" width="13.4646" height="9.2126" class="st5"/>
			<text x="0.99" y="1169.79" class="st6">0<tspan class="st15">..1</tspan></text>		</g>
	</g>
</svg>
