<?xml version="1.0" encoding="UTF-8" standalone="no"?>
<!DOCTYPE svg PUBLIC "-//W3C//DTD SVG 1.1//EN" "http://www.w3.org/Graphics/SVG/1.1/DTD/svg11.dtd">
<!-- Generated by Microsoft Visio, SVG Export Investigation_Return.svg Page-1 -->
<svg xmlns="http://www.w3.org/2000/svg" xmlns:xlink="http://www.w3.org/1999/xlink" xmlns:ev="http://www.w3.org/2001/xml-events"
		width="9.48007in" height="4.75219in" viewBox="0 0 682.565 342.157" xml:space="preserve" color-interpolation-filters="sRGB"
		class="st22">
	<style type="text/css">
	<![CDATA[
		.st1 {fill:#70ad47;stroke:#c8c8c8;stroke-width:0.25}
		.st2 {fill:#feffff;font-family:Calibri;font-size:0.833336em}
		.st3 {font-size:1em}
		.st4 {fill:#00b050;font-family:Calibri;font-size:0.666664em}
		.st5 {stroke:#00b050;stroke-linecap:round;stroke-linejoin:round;stroke-width:1}
		.st6 {fill:none;stroke:none;stroke-width:0.25}
		.st7 {fill:#ffffff;stroke:none;stroke-linecap:butt;stroke-width:7.2}
		.st8 {marker-start:url(#mrkr5-33);stroke:#00b050;stroke-linecap:round;stroke-linejoin:round;stroke-width:1}
		.st9 {fill:#00b050;fill-opacity:1;stroke:#00b050;stroke-opacity:1;stroke-width:0.28409090909091}
		.st10 {fill:#4672c4;stroke:#c8c8c8;stroke-width:0.25}
		.st11 {fill:#4672c4;font-family:Calibri;font-size:0.666664em}
		.st12 {marker-start:url(#mrkr5-66);stroke:#4672c4;stroke-linecap:round;stroke-linejoin:round;stroke-width:1}
		.st13 {fill:#4672c4;fill-opacity:1;stroke:#4672c4;stroke-opacity:1;stroke-width:0.28409090909091}
		.st14 {marker-end:url(#mrkr5-77);stroke:#4672c4;stroke-linecap:round;stroke-linejoin:round;stroke-width:1}
		.st15 {marker-end:url(#mrkr5-77);marker-start:url(#mrkr5-66);stroke:#4672c4;stroke-linecap:round;stroke-linejoin:round;stroke-width:1}
		.st16 {fill:none;stroke:#0070c0;stroke-dasharray:10.5,7.5;stroke-width:1.5}
		.st17 {fill:#feffff;font-family:Calibri;font-size:0.75em}
		.st18 {fill:#7030a0;stroke:#507e32;stroke-width:0.75}
		.st19 {fill:#7030a0;font-family:Calibri;font-size:0.666664em}
		.st20 {marker-end:url(#mrkr5-237);stroke:#7030a0;stroke-linecap:round;stroke-linejoin:round;stroke-width:1}
		.st21 {fill:#7030a0;fill-opacity:1;stroke:#7030a0;stroke-opacity:1;stroke-width:0.28409090909091}
		.st22 {fill:none;fill-rule:evenodd;font-size:12px;overflow:visible;stroke-linecap:square;stroke-miterlimit:3}
	]]>
	</style>

	<defs id="Markers">
		<g id="lend5">
			<path d="M 2 1 L 0 0 L 1.98117 -0.993387 C 1.67173 -0.364515 1.67301 0.372641 1.98465 1.00043 " style="stroke:none"/>
		</g>
		<marker id="mrkr5-33" class="st9" refX="5.8" orient="auto" markerUnits="strokeWidth" overflow="visible">
			<use xlink:href="#lend5" transform="scale(3.52) "/>
		</marker>
		<marker id="mrkr5-66" class="st13" refX="5.8" orient="auto" markerUnits="strokeWidth" overflow="visible">
			<use xlink:href="#lend5" transform="scale(3.52) "/>
		</marker>
		<marker id="mrkr5-77" class="st13" refX="-6.16" orient="auto" markerUnits="strokeWidth" overflow="visible">
			<use xlink:href="#lend5" transform="scale(-3.52,-3.52) "/>
		</marker>
		<marker id="mrkr5-237" class="st21" refX="-6.16" orient="auto" markerUnits="strokeWidth" overflow="visible">
			<use xlink:href="#lend5" transform="scale(-3.52,-3.52) "/>
		</marker>
	</defs>
	<g>
		<title></title>
		<g id="shape1099-1" transform="translate(142.482,-270.791)">
			<title></title>
			<desc>ProblemHeader (Condition)</desc>
			<rect x="0" y="299.638" width="85.0394" height="42.5197" class="st1"/>
			<text x="10.44" y="317.9" class="st2">ProblemHeader <tspan x="19.7" dy="1.2em" class="st3">(Condition)</tspan></text>		</g>
		<g id="group1149-5" transform="translate(185.002,-313.311)">
			<title></title>
			<g id="shape1150-6" transform="translate(-18.9016,-7.66847)">
				<title></title>
				<desc>0..*</desc>
				<text x="0.91" y="339.76" class="st4">0..*</text>			</g>
			<g id="shape1151-8" transform="translate(50.1882,16.2488)">
				<title></title>
				<desc>0..*</desc>
				<text x="0.91" y="339.76" class="st4">0..*</text>			</g>
			<g id="shape1149-10">
				<path d="M0 342.16 L0 313.81 L70.87 313.81 L70.87 363.42 L42.52 363.42" class="st5"/>
			</g>
		</g>
		<g id="shape1168-13" transform="translate(199.175,-237.958)">
			<title></title>
			<desc>Primary Item</desc>
			<rect x="0" y="323.497" width="56.6929" height="18.6605" class="st6"/>
			<text x="4" y="330.43" class="st4">Primary <tspan x="4" dy="1.2em" class="st3">Item</tspan></text>		</g>
		<g id="shape1169-17" transform="translate(114.136,-237.958)">
			<title></title>
			<desc>Associated Item</desc>
			<rect x="0" y="323.497" width="56.6929" height="18.6605" class="st6"/>
			<text x="17.67" y="330.43" class="st4">Associated <tspan x="37.63" dy="1.2em" class="st3">Item</tspan></text>		</g>
		<g id="group1171-21" transform="translate(425.947,-206.161)">
			<title></title>
			<g id="shape1172-22" transform="translate(-30.2214,13.0337)">
				<title></title>
				<desc>0..1</desc>
				<rect x="4.90622" y="328.556" width="12.1487" height="9.59985" class="st7"/>
				<text x="4.91" y="335.76" class="st4">0..1</text>			</g>
			<g id="shape1173-25" transform="translate(-226.126,-47.0264)">
				<title></title>
				<desc>0..*</desc>
				<rect x="4.90622" y="328.556" width="12.0784" height="9.59985" class="st7"/>
				<text x="4.91" y="335.76" class="st4">0..*</text>			</g>
			<g id="shape1171-28">
				<path d="M-5.8 342.16 L-6.16 342.16 L-226.77 342.16 L-226.77 277.53" class="st8"/>
			</g>
		</g>
		<g id="group1174-34" transform="translate(425.947,-192.839)">
			<title></title>
			<g id="shape1175-35" transform="translate(-28.3464,15.8884)">
				<title></title>
				<desc>0..*</desc>
				<rect x="4.90622" y="328.556" width="12.0784" height="9.59985" class="st7"/>
				<text x="4.91" y="335.76" class="st4">0..*</text>			</g>
			<g id="shape1176-38" transform="translate(-254.391,-60.3492)">
				<title></title>
				<desc>0..*</desc>
				<rect x="4.90622" y="328.556" width="12.0784" height="9.59985" class="st7"/>
				<text x="4.91" y="335.76" class="st4">0..*</text>			</g>
			<g id="shape1174-41">
				<path d="M-5.8 342.16 L-6.16 342.16 L-255.12 342.16 L-255.12 264.2" class="st8"/>
			</g>
		</g>
		<g id="shape1177-46" transform="translate(425.947,-171.579)">
			<title></title>
			<desc>DiagnosticReport</desc>
			<rect x="0" y="299.638" width="85.0394" height="42.5197" class="st10"/>
			<text x="7.51" y="323.9" class="st2">DiagnosticReport</text>		</g>
		<g id="shape1178-49" transform="translate(425.947,-86.5394)">
			<title></title>
			<desc>Observation (Test Group)</desc>
			<rect x="0" y="299.638" width="85.0394" height="42.5197" class="st10"/>
			<text x="17.66" y="317.9" class="st2">Observation <tspan x="17.01" dy="1.2em" class="st3">(Test Group)</tspan></text>		</g>
		<g id="shape1179-53" transform="translate(425.947,-242.445)">
			<title></title>
			<desc>ProcedureRequest</desc>
			<rect x="0" y="299.638" width="85.0394" height="42.5197" class="st10"/>
			<text x="4.89" y="323.9" class="st2">ProcedureRequest</text>		</g>
		<g id="group1180-56" transform="translate(461.38,-129.059)">
			<title></title>
			<g id="shape1181-57" transform="translate(7.36929,-7.08663)">
				<title></title>
				<desc>0..*</desc>
				<text x="0.91" y="339.76" class="st11">0..*</text>			</g>
			<g id="shape1182-59" transform="translate(-6.87429,-32.9161)">
				<title></title>
				<desc>1..1</desc>
				<text x="0.91" y="339.76" class="st11">1..1</text>			</g>
			<g id="shape1180-61">
				<path d="M7.09 336.36 L7.09 336 L7.09 299.64" class="st12"/>
			</g>
		</g>
		<g id="group1183-67" transform="translate(461.38,-214.098)">
			<title></title>
			<g id="shape1184-68" transform="translate(7.0163,1.13687E-13)">
				<title></title>
				<desc>1..1</desc>
				<text x="0.91" y="339.76" class="st11">1..1</text>			</g>
			<g id="shape1185-70" transform="translate(-13.9609,-18.7429)">
				<title></title>
				<desc>0..1</desc>
				<text x="0.91" y="339.76" class="st11">0..1</text>			</g>
			<g id="shape1183-72">
				<path d="M7.09 342.16 L7.09 319.97" class="st14"/>
			</g>
		</g>
		<g id="shape1186-78" transform="translate(425.947,-15.6732)">
			<title></title>
			<desc>Observation (Test Result)</desc>
			<rect x="0" y="299.638" width="85.0394" height="42.5197" class="st10"/>
			<text x="17.66" y="317.9" class="st2">Observation <tspan x="17.19" dy="1.2em" class="st3">(Test Result)</tspan></text>		</g>
		<g id="group1187-82" transform="translate(461.38,-58.1929)">
			<title></title>
			<g id="shape1188-83" transform="translate(14.1733,0.154746)">
				<title></title>
				<desc>0..*</desc>
				<text x="0.91" y="339.76" class="st11">0..*</text>			</g>
			<g id="shape1189-85" transform="translate(-13.9609,-18.8976)">
				<title></title>
				<desc>0..1</desc>
				<text x="0.91" y="339.76" class="st11">0..1</text>			</g>
			<g id="shape1187-87">
				<path d="M7.09 336.36 L7.09 336 L7.09 319.97" class="st15"/>
			</g>
		</g>
		<g id="shape1190-94" transform="translate(567.679,-86.5394)">
			<title></title>
			<desc>Specimen</desc>
			<rect x="0" y="299.638" width="85.0394" height="42.5197" class="st10"/>
			<text x="22.74" y="323.9" class="st2">Specimen</text>		</g>
		<g id="group1191-97" transform="translate(425.947,-44.0197)">
			<title></title>
			<g id="shape1192-98" transform="translate(-14.1732,-2.28484)">
				<title></title>
				<desc>0..*</desc>
				<text x="0.91" y="339.76" class="st11">0..*</text>			</g>
			<g id="shape1193-100" transform="translate(13.9609,-118.461)">
				<title></title>
				<desc>0..1</desc>
				<text x="0.91" y="339.76" class="st11">0..1</text>			</g>
			<g id="shape1191-102">
				<path d="M-5.8 342.16 L-6.16 342.16 L-28.35 342.16 L-28.35 242.94 L28.35 242.94 L28.35 214.6" class="st12"/>
			</g>
		</g>
		<g id="shape1194-107" transform="translate(567.679,-242.445)">
			<title></title>
			<desc>Observation (Test Report Filing)</desc>
			<rect x="0" y="299.638" width="85.0394" height="42.5197" class="st10"/>
			<text x="17.66" y="317.9" class="st2">Observation <tspan x="4.07" dy="1.2em" class="st3">(Test Report Filing)</tspan></text>		</g>
		<g id="group1195-111" transform="translate(510.986,-100.713)">
			<title></title>
			<g id="shape1196-112" transform="translate(37.9837,4.80178)">
				<title></title>
				<desc>0..*</desc>
				<text x="0.91" y="339.76" class="st11">0..*</text>			</g>
			<g id="shape1197-114" transform="translate(0.141548,-11.7723)">
				<title></title>
				<desc>1..1</desc>
				<text x="0.91" y="339.76" class="st11">1..1</text>			</g>
			<g id="shape1195-116">
				<path d="M0 335.07 L50.53 335.07" class="st14"/>
			</g>
		</g>
		<g id="group1198-121" transform="translate(496.813,-171.579)">
			<title></title>
			<g id="shape1199-122" transform="translate(120.614,41.4933)">
				<title></title>
				<desc>0..*</desc>
				<text x="0.91" y="339.76" class="st11">0..*</text>			</g>
			<g id="shape1200-124" transform="translate(1.25731,10.6299)">
				<title></title>
				<desc>1..1</desc>
				<text x="0.91" y="339.76" class="st11">1..1</text>			</g>
			<g id="shape1198-126">
				<path d="M0 342.16 L0 356.33 L40.16 356.33 A2.3622 2.3622 0 1 1 44.88 356.33 L113.39 356.33 L113.39 378.52"
						class="st14"/>
			</g>
		</g>
		<g id="group1201-131" transform="translate(496.813,-58.1929)">
			<title></title>
			<g id="shape1202-132" transform="translate(120.614,-16.4581)">
				<title></title>
				<desc>0..*</desc>
				<text x="0.91" y="339.76" class="st11">0..*</text>			</g>
			<g id="shape1203-134" transform="translate(1.25731,-2.28483)">
				<title></title>
				<desc>1..1</desc>
				<text x="0.91" y="339.76" class="st11">1..1</text>			</g>
			<g id="shape1201-136">
				<path d="M0 342.16 L0 327.98 L113.39 327.98 L113.39 319.97" class="st14"/>
			</g>
		</g>
		<g id="group1204-141" transform="translate(496.813,-214.098)">
			<title></title>
			<g id="shape1205-142" transform="translate(54.4786,-37.7179)">
				<title></title>
				<desc>0..1</desc>
				<text x="0.91" y="339.76" class="st11">0..1</text>			</g>
			<g id="shape1206-144" transform="translate(12.4812,-3.54331)">
				<title></title>
				<desc>0..1</desc>
				<text x="0.91" y="339.76" class="st11">0..1</text>			</g>
			<g id="shape1204-146">
				<path d="M0 336.36 L0 336 L0 327.98 L28.35 327.98 L28.35 292.55 L70.87 292.55" class="st12"/>
			</g>
		</g>
		<g id="group1207-151" transform="translate(496.813,-129.059)">
			<title></title>
			<g id="shape1208-152" transform="translate(95.5423,-98.5598)">
				<title></title>
				<desc>0..1</desc>
				<text x="0.91" y="339.76" class="st11">0..1</text>			</g>
			<g id="shape1209-154" transform="translate(3.36797,-5.03762)">
				<title></title>
				<desc>0..1</desc>
				<text x="0.91" y="339.76" class="st11">0..1</text>			</g>
			<g id="shape1207-156">
				<path d="M0 336.36 L0 336 L0 327.98 L42.52 327.98 L42.52 242.94 L113.39 242.94 L113.39 228.77" class="st12"/>
			</g>
		</g>
		<g id="group1210-161" transform="translate(510.986,-36.9331)">
			<title></title>
			<g id="shape1211-162" transform="translate(141.936,-215.427)">
				<title></title>
				<desc>0..1</desc>
				<text x="0.91" y="339.76" class="st11">0..1</text>			</g>
			<g id="shape1212-164" transform="translate(0.485331,-3.85666)">
				<title></title>
				<desc>0..1</desc>
				<text x="0.91" y="339.76" class="st11">0..1</text>			</g>
			<g id="shape1210-166">
				<path d="M5.8 342.16 L6.16 342.16 L155.91 342.16 L155.91 115.39 L141.73 115.39" class="st12"/>
			</g>
		</g>
		<g id="shape1213-171" transform="translate(270.041,-1.5)">
			<title></title>
			<path d="M0 342.16 L411.02 342.16 L411.02 44.52 L0 44.52 L0 342.16 Z" class="st16"/>
		</g>
		<g id="shape1214-173" transform="translate(284.214,-86.5394)">
			<title></title>
			<desc>DocumentReference (Test Result)</desc>
			<rect x="0" y="299.638" width="85.0394" height="42.5197" class="st10"/>
			<text x="4.8" y="318.2" class="st17">DocumentReference <tspan x="19.73" dy="1.2em" class="st3">(Test Result)</tspan></text>		</g>
		<g id="shape1215-177" transform="translate(284.215,-242.445)">
			<title></title>
			<desc>DocumentReference (Test Report)</desc>
			<rect x="0" y="299.638" width="85.0394" height="42.5197" class="st10"/>
			<text x="4.8" y="318.2" class="st17">DocumentReference <tspan x="18.58" dy="1.2em" class="st3">(Test Report)</tspan></text>		</g>
		<g id="group1216-181" transform="translate(440.12,-214.098)">
			<title></title>
			<g id="shape1217-182" transform="translate(-69.3427,-52.7587)">
				<title></title>
				<desc>0..1</desc>
				<text x="0.91" y="339.76" class="st11">0..1</text>			</g>
			<g id="shape1218-184" transform="translate(-15.4844,-0.867541)">
				<title></title>
				<desc>1..1</desc>
				<text x="0.91" y="339.76" class="st11">1..1</text>			</g>
			<g id="shape1216-186">
				<path d="M0 342.16 L0 327.98 L-42.52 327.98 L-42.52 292.55 L-64.71 292.55" class="st14"/>
			</g>
		</g>
		<g id="group1219-191" transform="translate(425.947,-100.713)">
			<title></title>
			<g id="shape1220-192" transform="translate(-55.1342,4.80178)">
				<title></title>
				<desc>0..*</desc>
				<text x="0.91" y="339.76" class="st11">0..*</text>			</g>
			<g id="shape1221-194" transform="translate(-17.0078,-10.239)">
				<title></title>
				<desc>1..1</desc>
				<text x="0.91" y="339.76" class="st11">1..1</text>			</g>
			<g id="shape1219-196">
				<path d="M0 335.07 L-25.98 335.07 A2.3622 2.3622 -180 0 0 -30.71 335.07 L-50.53 335.07" class="st14"/>
			</g>
		</g>
		<g id="group1222-201" transform="translate(440.12,-171.579)">
			<title></title>
			<g id="shape1223-202" transform="translate(-107.839,44.5642)">
				<title></title>
				<desc>0..*</desc>
				<text x="0.91" y="339.76" class="st11">0..*</text>			</g>
			<g id="shape1224-204" transform="translate(-17.4431,9.60354)">
				<title></title>
				<desc>1..1</desc>
				<text x="0.91" y="339.76" class="st11">1..1</text>			</g>
			<g id="shape1222-206">
				<path d="M0 342.16 L0 356.33 L-113.39 356.33 L-113.39 378.52" class="st14"/>
			</g>
		</g>
		<g id="group1225-211" transform="translate(425.947,-29.8465)">
			<title></title>
			<g id="shape1226-212" transform="translate(-92.126,-47.0894)">
				<title></title>
				<desc>0..*</desc>
				<text x="0.91" y="339.76" class="st11">0..*</text>			</g>
			<g id="shape1227-214" transform="translate(-14.1732,9.60355)">
				<title></title>
				<desc>1..1</desc>
				<text x="0.91" y="339.76" class="st11">1..1</text>			</g>
			<g id="shape1225-216">
				<path d="M0 342.16 L-99.21 342.16 L-99.21 291.62" class="st14"/>
			</g>
		</g>
		<g id="shape1228-221" transform="translate(0.75,-270.791)">
			<title></title>
			<desc>List (Query Response)</desc>
			<rect x="0" y="299.638" width="85.0394" height="42.5197" class="st18"/>
			<text x="35.64" y="317.9" class="st2">List <tspan x="6.38" dy="1.2em" class="st3">(Query Response)</tspan></text>		</g>
		<g id="group1229-225" transform="translate(43.2697,-270.791)">
			<title></title>
			<g id="shape1230-226" transform="translate(1.00782E-07,17.6036)">
				<title></title>
				<desc>1..1</desc>
				<rect x="4.90622" y="328.556" width="12.1487" height="9.59985" class="st7"/>
				<text x="4.91" y="335.76" class="st19">1..1</text>			</g>
			<g id="shape1231-229" transform="translate(354.082,108.014)">
				<title></title>
				<desc>0..*</desc>
				<rect x="4.90622" y="328.556" width="12.0784" height="9.59985" class="st7"/>
				<text x="4.91" y="335.76" class="st19">0..*</text>			</g>
			<g id="shape1229-232">
				<path d="M0 342.16 L0 433.43 L376.52 433.43" class="st20"/>
			</g>
		</g>
	</g>
</svg>
