<?xml version="1.0" encoding="UTF-8" standalone="no"?>
<!DOCTYPE svg PUBLIC "-//W3C//DTD SVG 1.1//EN" "http://www.w3.org/Graphics/SVG/1.1/DTD/svg11.dtd">
<!-- Generated by Microsoft Visio, SVG Export Medication_Return.svg Medication -->
<svg xmlns="http://www.w3.org/2000/svg" xmlns:xlink="http://www.w3.org/1999/xlink" xmlns:ev="http://www.w3.org/2001/xml-events"
		width="11.6929in" height="16.5354in" viewBox="0 0 841.89 1190.55" xml:space="preserve" color-interpolation-filters="sRGB"
		class="st22">
	<style type="text/css">
	<![CDATA[
		.st1 {fill:#4672c4;stroke:#c8c8c8;stroke-width:0.25}
		.st2 {fill:#feffff;font-family:Calibri;font-size:0.833336em}
		.st3 {font-size:1em}
		.st4 {fill:#4672c4;font-family:Calibri;font-size:0.666664em}
		.st5 {marker-end:url(#mrkr5-23);stroke:#4672c4;stroke-linecap:round;stroke-linejoin:round;stroke-width:1}
		.st6 {fill:#4672c4;fill-opacity:1;stroke:#4672c4;stroke-opacity:1;stroke-width:0.28409090909091}
		.st7 {marker-start:url(#mrkr5-37);stroke:#4672c4;stroke-linecap:round;stroke-linejoin:round;stroke-width:1}
		.st8 {fill:#ffffff;stroke:none;stroke-linecap:butt;stroke-width:7.2}
		.st9 {fill:#3d64ac;font-family:Calibri;font-size:0.666664em}
		.st10 {fill:#ffffff;stroke:none;stroke-linecap:butt}
		.st11 {fill:#70ad47;stroke:#c8c8c8;stroke-width:0.25}
		.st12 {fill:#00b050;font-family:Calibri;font-size:0.666664em}
		.st13 {marker-start:url(#mrkr5-73);stroke:#00b050;stroke-linecap:round;stroke-linejoin:round;stroke-width:1}
		.st14 {fill:#00b050;fill-opacity:1;stroke:#00b050;stroke-opacity:1;stroke-width:0.28409090909091}
		.st15 {marker-end:url(#mrkr5-84);stroke:#00b050;stroke-linecap:round;stroke-linejoin:round;stroke-width:1}
		.st16 {fill:none;stroke:#0070c0;stroke-dasharray:10.5,7.5;stroke-width:1.5}
		.st17 {fill:none;stroke:none;stroke-width:0.25}
		.st18 {fill:#7030a0;stroke:#507e32;stroke-width:0.75}
		.st19 {fill:#7030a0;font-family:Calibri;font-size:0.666664em}
		.st20 {marker-end:url(#mrkr5-132);stroke:#7030a0;stroke-linecap:round;stroke-linejoin:round;stroke-width:1}
		.st21 {fill:#7030a0;fill-opacity:1;stroke:#7030a0;stroke-opacity:1;stroke-width:0.28409090909091}
		.st22 {fill:none;fill-rule:evenodd;font-size:12px;overflow:visible;stroke-linecap:square;stroke-miterlimit:3}
	]]>
	</style>

	<defs id="Markers">
		<g id="lend5">
			<path d="M 2 1 L 0 0 L 1.98117 -0.993387 C 1.67173 -0.364515 1.67301 0.372641 1.98465 1.00043 " style="stroke:none"/>
		</g>
		<marker id="mrkr5-23" class="st6" refX="-6.16" orient="auto" markerUnits="strokeWidth" overflow="visible">
			<use xlink:href="#lend5" transform="scale(-3.52,-3.52) "/>
		</marker>
		<marker id="mrkr5-37" class="st6" refX="5.8" orient="auto" markerUnits="strokeWidth" overflow="visible">
			<use xlink:href="#lend5" transform="scale(3.52) "/>
		</marker>
		<marker id="mrkr5-73" class="st14" refX="5.8" orient="auto" markerUnits="strokeWidth" overflow="visible">
			<use xlink:href="#lend5" transform="scale(3.52) "/>
		</marker>
		<marker id="mrkr5-84" class="st14" refX="-6.16" orient="auto" markerUnits="strokeWidth" overflow="visible">
			<use xlink:href="#lend5" transform="scale(-3.52,-3.52) "/>
		</marker>
		<marker id="mrkr5-132" class="st21" refX="-6.16" orient="auto" markerUnits="strokeWidth" overflow="visible">
			<use xlink:href="#lend5" transform="scale(-3.52,-3.52) "/>
		</marker>
	</defs>
	<g>
		<title>Medication</title>
		<g id="shape1083-1" transform="translate(651.968,-949.606)">
			<title>Process</title>
			<desc>Medication Statement</desc>
			<rect x="0" y="1148.03" width="85.0394" height="42.5197" class="st1"/>
			<text x="19.39" y="1166.29" class="st2">Medication <tspan x="21.21" dy="1.2em" class="st3">Statement</tspan></text>		</g>
		<g id="shape1084-5" transform="translate(510.236,-878.74)">
			<title>Process.3</title>
			<desc>MedicationRequest (Intent = Plan)</desc>
			<rect x="0" y="1148.03" width="85.0394" height="42.5197" class="st1"/>
			<text x="2.81" y="1166.29" class="st2">MedicationRequest <tspan x="13.63" dy="1.2em" class="st3">(Intent = Plan)</tspan></text>		</g>
		<g id="shape1085-9" transform="translate(510.236,-807.874)">
			<title>Process.4</title>
			<desc>MedicationRequest (Intent = Issue)</desc>
			<rect x="0" y="1148.03" width="85.0394" height="42.5197" class="st1"/>
			<text x="2.81" y="1166.29" class="st2">MedicationRequest <tspan x="12.1" dy="1.2em" class="st3">(Intent = Issue)</tspan></text>		</g>
		<g id="group1086-13" transform="translate(651.968,-970.866)">
			<title>Relationship.1033</title>
			<g id="shape1087-14" transform="translate(-20.779,14.6146)">
				<title>Sheet.1087</title>
				<desc>1..1</desc>
				<text x="0.91" y="1188.15" class="st4">1..1</text>			</g>
			<g id="shape1088-16" transform="translate(-63.6734,42.7882)">
				<title>Sheet.1088</title>
				<desc>1..1</desc>
				<text x="0.91" y="1188.15" class="st4">1..1</text>			</g>
			<g id="shape1086-18">
				<path d="M0 1190.55 L-70.87 1190.55 L-70.87 1234" class="st5"/>
			</g>
		</g>
		<g id="shape1089-24" transform="translate(651.968,-878.74)">
			<title>Process.1003</title>
			<desc>Medication</desc>
			<rect x="0" y="1148.03" width="85.0394" height="42.5197" class="st1"/>
			<text x="19.39" y="1172.29" class="st2">Medication</text>		</g>
		<g id="group1090-27" transform="translate(694.488,-878.74)">
			<title>Relationship.1004</title>
			<g id="shape1091-28" transform="translate(5.01099,16.9481)">
				<title>Sheet.1091</title>
				<desc>1..1</desc>
				<text x="0.91" y="1188.15" class="st4">1..1</text>			</g>
			<g id="shape1092-30" transform="translate(-91.9847,56.5478)">
				<title>Sheet.1092</title>
				<desc>0..*</desc>
				<text x="0.91" y="1188.15" class="st4">0..*</text>			</g>
			<g id="shape1090-32">
				<path d="M0 1196.35 L0 1196.71 L0 1246.91 L-99.21 1246.91" class="st7"/>
			</g>
		</g>
		<g id="group1093-38" transform="translate(651.968,-892.913)">
			<title>Relationship.1007</title>
			<g id="shape1094-39" transform="translate(-27.8223,8.80178)">
				<title>Sheet.1094</title>
				<desc>1..1</desc>
				<rect x="4.90622" y="1176.95" width="12.1487" height="9.59985" class="st8"/>
				<text x="4.91" y="1184.15" class="st9">1..1</text>			</g>
			<g id="shape1095-42" transform="translate(-50.8315,-5.37145)">
				<title>Sheet.1095</title>
				<desc>0..*</desc>
				<rect x="4.90622" y="1176.95" width="12.0784" height="9.59985" class="st10"/>
				<text x="4.91" y="1184.15" class="st9">0..*</text>			</g>
			<g id="shape1093-45">
				<path d="M-5.8 1183.46 L-6.16 1183.46 L-56.69 1183.46" class="st7"/>
			</g>
		</g>
		<g id="shape1099-50" transform="translate(269.291,-949.606)">
			<title>Process.1099</title>
			<desc>ProblemHeader (Condition)</desc>
			<rect x="0" y="1148.03" width="85.0394" height="42.5197" class="st11"/>
			<text x="10.44" y="1166.29" class="st2">ProblemHeader <tspan x="19.7" dy="1.2em" class="st3">(Condition)</tspan></text>		</g>
		<g id="group1100-54" transform="translate(545.669,-878.74)">
			<title>Relationship.1017</title>
			<g id="shape1101-55" transform="translate(14.2794,9.60356)">
				<title>Sheet.1101</title>
				<desc>1..1</desc>
				<text x="0.91" y="1188.15" class="st4">1..1</text>			</g>
			<g id="shape1102-57" transform="translate(-7.08661,28.3465)">
				<title>Sheet.1102</title>
				<desc>0..*</desc>
				<text x="0.91" y="1188.15" class="st4">0..*</text>			</g>
			<g id="shape1100-59">
				<path d="M7.09 1196.35 L7.09 1196.71 L7.09 1218.9" class="st7"/>
			</g>
		</g>
		<g id="group1106-64" transform="translate(510.236,-829.134)">
			<title>Relationship.1023</title>
			<g id="shape1107-65" transform="translate(-29.6348,15.8884)">
				<title>Sheet.1107</title>
				<desc>0..*</desc>
				<rect x="4.90622" y="1176.95" width="12.0784" height="9.59985" class="st8"/>
				<text x="4.91" y="1184.15" class="st12">0..*</text>			</g>
			<g id="shape1106-68">
				<path d="M-5.8 1190.55 L-6.16 1190.55 L-212.6 1190.55 L-212.6 1070.08" class="st13"/>
			</g>
		</g>
		<g id="group1149-74" transform="translate(311.811,-992.126)">
			<title>Relationship.1149</title>
			<g id="shape1150-75" transform="translate(7.22793,-7.66847)">
				<title>Sheet.1150</title>
				<desc>0..*</desc>
				<text x="0.91" y="1188.15" class="st12">0..*</text>			</g>
			<g id="shape1151-77" transform="translate(50.1882,16.2488)">
				<title>Sheet.1151</title>
				<desc>0..*</desc>
				<text x="0.91" y="1188.15" class="st12">0..*</text>			</g>
			<g id="shape1149-79">
				<path d="M0 1190.55 L0 1162.2 L70.87 1162.2 L70.87 1211.81 L48.68 1211.81" class="st15"/>
			</g>
		</g>
		<g id="shape1153-85" transform="translate(481.89,-793.701)">
			<title>Sheet.1153</title>
			<path d="M0 1190.55 L283.46 1190.55 L283.46 977.95 L0 977.95 L0 1190.55 Z" class="st16"/>
		</g>
		<g id="group1164-87" transform="translate(510.236,-842.632)">
			<title>Relationship.1164</title>
			<g id="shape1165-88" transform="translate(-28.6726,15.2135)">
				<title>Sheet.1165</title>
				<desc>0..1</desc>
				<rect x="4.90622" y="1176.95" width="12.1487" height="9.59985" class="st8"/>
				<text x="4.91" y="1184.15" class="st12">0..1</text>			</g>
			<g id="shape1164-91">
				<path d="M-5.8 1190.55 L-6.16 1190.55 L-184.25 1190.55 L-184.25 1083.58" class="st13"/>
			</g>
		</g>
		<g id="shape1168-96" transform="translate(325.984,-916.773)">
			<title>Sheet.1168</title>
			<desc>Primary Item</desc>
			<rect x="0" y="1171.89" width="56.6929" height="18.6605" class="st17"/>
			<text x="4" y="1178.82" class="st12">Primary <tspan x="4" dy="1.2em" class="st3">Item</tspan></text>		</g>
		<g id="shape1169-100" transform="translate(240.945,-916.773)">
			<title>Sheet.1169</title>
			<desc>Associated Item</desc>
			<rect x="0" y="1171.89" width="56.6929" height="18.6605" class="st17"/>
			<text x="17.67" y="1178.82" class="st12">Associated <tspan x="37.63" dy="1.2em" class="st3">Item</tspan></text>		</g>
		<g id="group1189-104" transform="translate(701.575,-921.26)">
			<title>Relationship.1189</title>
			<g id="shape1190-105" transform="translate(-34.0585,0)">
				<title>Sheet.1190</title>
				<desc>1..1</desc>
				<rect x="4.90622" y="1176.95" width="12.1487" height="9.59985" class="st8"/>
				<text x="4.91" y="1184.15" class="st9">1..1</text>			</g>
			<g id="shape1191-108" transform="translate(-2.07562,-10.7429)">
				<title>Sheet.1191</title>
				<desc>0..*</desc>
				<rect x="4.90622" y="1176.95" width="12.0784" height="9.59985" class="st8"/>
				<text x="4.91" y="1184.15" class="st9">0..*</text>			</g>
			<g id="shape1189-111">
				<path d="M-7.09 1184.75 L-7.09 1184.39 L-7.09 1162.2" class="st7"/>
			</g>
		</g>
		<g id="shape1192-116" transform="translate(651.968,-1048.82)">
			<title>Process.1209</title>
			<desc>List (Query Response)</desc>
			<rect x="0" y="1148.03" width="85.0394" height="42.5197" class="st18"/>
			<text x="35.64" y="1166.29" class="st2">List <tspan x="6.38" dy="1.2em" class="st3">(Query Response)</tspan></text>		</g>
		<g id="group1193-120" transform="translate(701.575,-1048.82)">
			<title>Relationship.1210</title>
			<g id="shape1194-121" transform="translate(-7.08661,17.6036)">
				<title>Sheet.1194</title>
				<desc>1..1</desc>
				<rect x="4.90622" y="1176.95" width="12.1487" height="9.59985" class="st8"/>
				<text x="4.91" y="1184.15" class="st19">1..1</text>			</g>
			<g id="shape1195-124" transform="translate(-28.9772,56.6929)">
				<title>Sheet.1195</title>
				<desc>0..*</desc>
				<rect x="4.90622" y="1176.95" width="12.0784" height="9.59985" class="st8"/>
				<text x="4.91" y="1184.15" class="st19">0..*</text>			</g>
			<g id="shape1193-127">
				<path d="M-7.09 1190.55 L-7.09 1241.08" class="st20"/>
			</g>
		</g>
		<g id="group1196-133" transform="translate(510.236,-913.323)">
			<title>Relationship.1157</title>
			<g id="shape1197-134" transform="translate(-28.6726,17.4084)">
				<title>Sheet.1197</title>
				<desc>0..1</desc>
				<rect x="4.90622" y="1176.95" width="12.1487" height="9.59985" class="st8"/>
				<text x="4.91" y="1184.15" class="st12">0..1</text>			</g>
			<g id="shape1198-137" transform="translate(-183.727,-18.6799)">
				<title>Sheet.1198</title>
				<desc>0..*</desc>
				<rect x="4.90622" y="1176.95" width="12.0784" height="9.59985" class="st8"/>
				<text x="4.91" y="1184.15" class="st12">0..*</text>			</g>
			<g id="shape1196-140">
				<path d="M-5.8 1190.55 L-6.16 1190.55 L-184.25 1190.55 L-184.25 1154.27" class="st13"/>
			</g>
		</g>
		<g id="group1199-145" transform="translate(510.236,-900)">
			<title>Relationship.1199</title>
			<g id="shape1200-146" transform="translate(-29.6348,17.3368)">
				<title>Sheet.1200</title>
				<desc>0..*</desc>
				<rect x="4.90622" y="1176.95" width="12.0784" height="9.59985" class="st8"/>
				<text x="4.91" y="1184.15" class="st12">0..*</text>			</g>
			<g id="shape1201-149" transform="translate(-211.993,-32.0027)">
				<title>Sheet.1201</title>
				<desc>0..*</desc>
				<rect x="4.90622" y="1176.95" width="12.0784" height="9.59985" class="st8"/>
				<text x="4.91" y="1184.15" class="st12">0..*</text>			</g>
			<g id="shape1199-152">
				<path d="M-5.8 1190.55 L-6.16 1190.55 L-181.89 1190.55 A2.3622 2.3622 -180 0 0 -186.61 1190.55 L-212.6 1190.55 L-212.6
							 1140.94" class="st13"/>
			</g>
		</g>
	</g>
</svg>
