<?xml version="1.0" encoding="UTF-8" standalone="no"?>
<!DOCTYPE svg PUBLIC "-//W3C//DTD SVG 1.1//EN" "http://www.w3.org/Graphics/SVG/1.1/DTD/svg11.dtd">
<!-- Generated by Microsoft Visio, SVG Export Medication_Return.svg Page-1 -->
<svg xmlns="http://www.w3.org/2000/svg" xmlns:xlink="http://www.w3.org/1999/xlink" xmlns:ev="http://www.w3.org/2001/xml-events"
		width="7.30777in" height="4.34113in" viewBox="0 0 526.159 312.561" xml:space="preserve" color-interpolation-filters="sRGB"
		class="st21">
	<style type="text/css">
	<![CDATA[
		.st1 {fill:#4672c4;stroke:#c8c8c8;stroke-width:0.25}
		.st2 {fill:#feffff;font-family:Calibri;font-size:0.833336em}
		.st3 {font-size:1em}
		.st4 {fill:#4672c4;font-family:Calibri;font-size:0.666664em}
		.st5 {marker-end:url(#mrkr5-23);stroke:#4672c4;stroke-linecap:round;stroke-linejoin:round;stroke-width:1}
		.st6 {fill:#4672c4;fill-opacity:1;stroke:#4672c4;stroke-opacity:1;stroke-width:0.28409090909091}
		.st7 {marker-start:url(#mrkr5-37);stroke:#4672c4;stroke-linecap:round;stroke-linejoin:round;stroke-width:1}
		.st8 {fill:#ffffff;stroke:none;stroke-linecap:butt;stroke-width:7.2}
		.st9 {fill:#3d64ac;font-family:Calibri;font-size:0.666664em}
		.st10 {fill:#70ad47;stroke:#c8c8c8;stroke-width:0.25}
		.st11 {fill:#00b050;font-family:Calibri;font-size:0.666664em}
		.st12 {marker-start:url(#mrkr5-73);stroke:#00b050;stroke-linecap:round;stroke-linejoin:round;stroke-width:1}
		.st13 {fill:#00b050;fill-opacity:1;stroke:#00b050;stroke-opacity:1;stroke-width:0.28409090909091}
		.st14 {marker-end:url(#mrkr5-84);stroke:#00b050;stroke-linecap:round;stroke-linejoin:round;stroke-width:1}
		.st15 {fill:none;stroke:#0070c0;stroke-dasharray:10.5,7.5;stroke-width:1.5}
		.st16 {fill:none;stroke:none;stroke-width:0.25}
		.st17 {fill:#7030a0;stroke:#507e32;stroke-width:0.75}
		.st18 {fill:#7030a0;font-family:Calibri;font-size:0.666664em}
		.st19 {marker-end:url(#mrkr5-132);stroke:#7030a0;stroke-linecap:round;stroke-linejoin:round;stroke-width:1}
		.st20 {fill:#7030a0;fill-opacity:1;stroke:#7030a0;stroke-opacity:1;stroke-width:0.28409090909091}
		.st21 {fill:none;fill-rule:evenodd;font-size:12px;overflow:visible;stroke-linecap:square;stroke-miterlimit:3}
	]]>
	</style>

	<defs id="Markers">
		<g id="lend5">
			<path d="M 2 1 L 0 0 L 1.98117 -0.993387 C 1.67173 -0.364515 1.67301 0.372641 1.98465 1.00043 " style="stroke:none"/>
		</g>
		<marker id="mrkr5-23" class="st6" refX="-6.16" orient="auto" markerUnits="strokeWidth" overflow="visible">
			<use xlink:href="#lend5" transform="scale(-3.52,-3.52) "/>
		</marker>
		<marker id="mrkr5-37" class="st6" refX="5.8" orient="auto" markerUnits="strokeWidth" overflow="visible">
			<use xlink:href="#lend5" transform="scale(3.52) "/>
		</marker>
		<marker id="mrkr5-73" class="st13" refX="5.8" orient="auto" markerUnits="strokeWidth" overflow="visible">
			<use xlink:href="#lend5" transform="scale(3.52) "/>
		</marker>
		<marker id="mrkr5-84" class="st13" refX="-6.16" orient="auto" markerUnits="strokeWidth" overflow="visible">
			<use xlink:href="#lend5" transform="scale(-3.52,-3.52) "/>
		</marker>
		<marker id="mrkr5-132" class="st20" refX="-6.16" orient="auto" markerUnits="strokeWidth" overflow="visible">
			<use xlink:href="#lend5" transform="scale(-3.52,-3.52) "/>
		</marker>
	</defs>
	<g>
		<title></title>
		<g id="shape1083-1" transform="translate(411.274,-170.079)">
			<title></title>
			<desc>Medication Statement</desc>
			<rect x="0" y="270.041" width="85.0394" height="42.5197" class="st1"/>
			<text x="19.39" y="288.3" class="st2">Medication <tspan x="21.21" dy="1.2em" class="st3">Statement</tspan></text>		</g>
		<g id="shape1084-5" transform="translate(269.541,-99.2126)">
			<title></title>
			<desc>MedicationRequest (Intent = Plan)</desc>
			<rect x="0" y="270.041" width="85.0394" height="42.5197" class="st1"/>
			<text x="2.81" y="288.3" class="st2">MedicationRequest <tspan x="13.63" dy="1.2em" class="st3">(Intent = Plan)</tspan></text>		</g>
		<g id="shape1085-9" transform="translate(269.541,-28.3465)">
			<title></title>
			<desc>MedicationRequest (Intent = Issue)</desc>
			<rect x="0" y="270.041" width="85.0394" height="42.5197" class="st1"/>
			<text x="2.81" y="288.3" class="st2">MedicationRequest <tspan x="12.1" dy="1.2em" class="st3">(Intent = Issue)</tspan></text>		</g>
		<g id="group1086-13" transform="translate(411.274,-191.339)">
			<title></title>
			<g id="shape1087-14" transform="translate(-20.779,14.6146)">
				<title></title>
				<desc>1..1</desc>
				<text x="0.91" y="310.16" class="st4">1..1</text>			</g>
			<g id="shape1088-16" transform="translate(-63.6734,42.7882)">
				<title></title>
				<desc>1..1</desc>
				<text x="0.91" y="310.16" class="st4">1..1</text>			</g>
			<g id="shape1086-18">
				<path d="M0 312.56 L-70.87 312.56 L-70.87 356.01" class="st5"/>
			</g>
		</g>
		<g id="shape1089-24" transform="translate(411.274,-99.2126)">
			<title></title>
			<desc>Medication</desc>
			<rect x="0" y="270.041" width="85.0394" height="42.5197" class="st1"/>
			<text x="19.39" y="294.3" class="st2">Medication</text>		</g>
		<g id="group1090-27" transform="translate(453.793,-99.2126)">
			<title></title>
			<g id="shape1091-28" transform="translate(5.01099,16.9481)">
				<title></title>
				<desc>1..1</desc>
				<text x="0.91" y="310.16" class="st4">1..1</text>			</g>
			<g id="shape1092-30" transform="translate(-91.9847,56.5478)">
				<title></title>
				<desc>0..*</desc>
				<text x="0.91" y="310.16" class="st4">0..*</text>			</g>
			<g id="shape1090-32">
				<path d="M0 318.36 L0 318.72 L0 368.92 L-99.21 368.92" class="st7"/>
			</g>
		</g>
		<g id="group1093-38" transform="translate(411.274,-113.386)">
			<title></title>
			<g id="shape1094-39" transform="translate(-27.8223,8.80178)">
				<title></title>
				<desc>1..1</desc>
				<rect x="4.90622" y="298.959" width="12.1487" height="9.59985" class="st8"/>
				<text x="4.91" y="306.16" class="st9">1..1</text>			</g>
			<g id="shape1095-42" transform="translate(-50.8315,-5.37145)">
				<title></title>
				<desc>0..*</desc>
				<rect x="4.90622" y="298.959" width="12.0784" height="9.59985" class="st8"/>
				<text x="4.91" y="306.16" class="st9">0..*</text>			</g>
			<g id="shape1093-45">
				<path d="M-5.8 305.47 L-6.16 305.47 L-56.69 305.47" class="st7"/>
			</g>
		</g>
		<g id="shape1099-50" transform="translate(28.5965,-170.079)">
			<title></title>
			<desc>ProblemHeader (Condition)</desc>
			<rect x="0" y="270.041" width="85.0394" height="42.5197" class="st10"/>
			<text x="10.44" y="288.3" class="st2">ProblemHeader <tspan x="19.7" dy="1.2em" class="st3">(Condition)</tspan></text>		</g>
		<g id="group1100-54" transform="translate(304.974,-99.2126)">
			<title></title>
			<g id="shape1101-55" transform="translate(14.2794,9.60356)">
				<title></title>
				<desc>1..1</desc>
				<text x="0.91" y="310.16" class="st4">1..1</text>			</g>
			<g id="shape1102-57" transform="translate(-7.08661,28.3465)">
				<title></title>
				<desc>0..*</desc>
				<text x="0.91" y="310.16" class="st4">0..*</text>			</g>
			<g id="shape1100-59">
				<path d="M7.09 318.36 L7.09 318.72 L7.09 340.91" class="st7"/>
			</g>
		</g>
		<g id="group1106-64" transform="translate(269.541,-49.6063)">
			<title></title>
			<g id="shape1107-65" transform="translate(-29.6348,15.8884)">
				<title></title>
				<desc>0..*</desc>
				<rect x="4.90622" y="298.959" width="12.0784" height="9.59985" class="st8"/>
				<text x="4.91" y="306.16" class="st11">0..*</text>			</g>
			<g id="shape1106-68">
				<path d="M-5.8 312.56 L-6.16 312.56 L-212.6 312.56 L-212.6 192.09" class="st12"/>
			</g>
		</g>
		<g id="group1149-74" transform="translate(71.1161,-212.598)">
			<title></title>
			<g id="shape1150-75" transform="translate(7.22793,-7.66847)">
				<title></title>
				<desc>0..*</desc>
				<text x="0.91" y="310.16" class="st11">0..*</text>			</g>
			<g id="shape1151-77" transform="translate(50.1882,16.2488)">
				<title></title>
				<desc>0..*</desc>
				<text x="0.91" y="310.16" class="st11">0..*</text>			</g>
			<g id="shape1149-79">
				<path d="M0 312.56 L0 284.21 L70.87 284.21 L70.87 333.82 L48.68 333.82" class="st14"/>
			</g>
		</g>
		<g id="shape1153-85" transform="translate(241.195,-14.1732)">
			<title></title>
			<path d="M0 312.56 L283.46 312.56 L283.46 99.96 L0 99.96 L0 312.56 Z" class="st15"/>
		</g>
		<g id="group1164-87" transform="translate(269.541,-63.1046)">
			<title></title>
			<g id="shape1165-88" transform="translate(-28.6726,15.2135)">
				<title></title>
				<desc>0..1</desc>
				<rect x="4.90622" y="298.959" width="12.1487" height="9.59985" class="st8"/>
				<text x="4.91" y="306.16" class="st11">0..1</text>			</g>
			<g id="shape1164-91">
				<path d="M-5.8 312.56 L-6.16 312.56 L-184.25 312.56 L-184.25 205.59" class="st12"/>
			</g>
		</g>
		<g id="shape1168-96" transform="translate(85.2894,-137.245)">
			<title></title>
			<desc>Primary Item</desc>
			<rect x="0" y="293.901" width="56.6929" height="18.6605" class="st16"/>
			<text x="4" y="300.83" class="st11">Primary <tspan x="4" dy="1.2em" class="st3">Item</tspan></text>		</g>
		<g id="shape1169-100" transform="translate(0.25,-137.245)">
			<title></title>
			<desc>Associated Item</desc>
			<rect x="0" y="293.901" width="56.6929" height="18.6605" class="st16"/>
			<text x="17.67" y="300.83" class="st11">Associated <tspan x="37.63" dy="1.2em" class="st3">Item</tspan></text>		</g>
		<g id="group1189-104" transform="translate(460.88,-141.732)">
			<title></title>
			<g id="shape1190-105" transform="translate(-34.0585,1.7053E-13)">
				<title></title>
				<desc>1..1</desc>
				<rect x="4.90622" y="298.959" width="12.1487" height="9.59985" class="st8"/>
				<text x="4.91" y="306.16" class="st9">1..1</text>			</g>
			<g id="shape1191-108" transform="translate(-2.07562,-10.7429)">
				<title></title>
				<desc>0..*</desc>
				<rect x="4.90622" y="298.959" width="12.0784" height="9.59985" class="st8"/>
				<text x="4.91" y="306.16" class="st9">0..*</text>			</g>
			<g id="shape1189-111">
				<path d="M-7.09 306.76 L-7.09 306.4 L-7.09 284.21" class="st7"/>
			</g>
		</g>
		<g id="shape1192-116" transform="translate(411.274,-269.291)">
			<title></title>
			<desc>List (Query Response)</desc>
			<rect x="0" y="270.041" width="85.0394" height="42.5197" class="st17"/>
			<text x="35.64" y="288.3" class="st2">List <tspan x="6.38" dy="1.2em" class="st3">(Query Response)</tspan></text>		</g>
		<g id="group1193-120" transform="translate(460.88,-269.291)">
			<title></title>
			<g id="shape1194-121" transform="translate(-7.08661,17.6036)">
				<title></title>
				<desc>1..1</desc>
				<rect x="4.90622" y="298.959" width="12.1487" height="9.59985" class="st8"/>
				<text x="4.91" y="306.16" class="st18">1..1</text>			</g>
			<g id="shape1195-124" transform="translate(-28.9772,56.6929)">
				<title></title>
				<desc>0..*</desc>
				<rect x="4.90622" y="298.959" width="12.0784" height="9.59985" class="st8"/>
				<text x="4.91" y="306.16" class="st18">0..*</text>			</g>
			<g id="shape1193-127">
				<path d="M-7.09 312.56 L-7.09 363.09" class="st19"/>
			</g>
		</g>
		<g id="group1196-133" transform="translate(269.541,-133.795)">
			<title></title>
			<g id="shape1197-134" transform="translate(-28.6726,17.4084)">
				<title></title>
				<desc>0..1</desc>
				<rect x="4.90622" y="298.959" width="12.1487" height="9.59985" class="st8"/>
				<text x="4.91" y="306.16" class="st11">0..1</text>			</g>
			<g id="shape1198-137" transform="translate(-183.727,-18.6799)">
				<title></title>
				<desc>0..*</desc>
				<rect x="4.90622" y="298.959" width="12.0784" height="9.59985" class="st8"/>
				<text x="4.91" y="306.16" class="st11">0..*</text>			</g>
			<g id="shape1196-140">
				<path d="M-5.8 312.56 L-6.16 312.56 L-184.25 312.56 L-184.25 276.28" class="st12"/>
			</g>
		</g>
		<g id="group1199-145" transform="translate(269.541,-120.472)">
			<title></title>
			<g id="shape1200-146" transform="translate(-29.6348,17.3368)">
				<title></title>
				<desc>0..*</desc>
				<rect x="4.90622" y="298.959" width="12.0784" height="9.59985" class="st8"/>
				<text x="4.91" y="306.16" class="st11">0..*</text>			</g>
			<g id="shape1201-149" transform="translate(-211.993,-32.0027)">
				<title></title>
				<desc>0..*</desc>
				<rect x="4.90622" y="298.959" width="12.0784" height="9.59985" class="st8"/>
				<text x="4.91" y="306.16" class="st11">0..*</text>			</g>
			<g id="shape1199-152">
				<path d="M-5.8 312.56 L-6.16 312.56 L-181.89 312.56 A2.3622 2.3622 -180 0 0 -186.61 312.56 L-212.6 312.56 L-212.6
							 262.95" class="st12"/>
			</g>
		</g>
	</g>
</svg>
