<?xml version="1.0" encoding="UTF-8" standalone="no"?>
<!DOCTYPE svg PUBLIC "-//W3C//DTD SVG 1.1//EN" "http://www.w3.org/Graphics/SVG/1.1/DTD/svg11.dtd">
<!-- Generated by Microsoft Visio, SVG Export Pathology - Combined Logical Data Model.svg Full -->
<svg xmlns="http://www.w3.org/2000/svg" xmlns:xlink="http://www.w3.org/1999/xlink" xmlns:ev="http://www.w3.org/2001/xml-events"
		width="11.6929in" height="8.26772in" viewBox="0 0 841.89 595.276" xml:space="preserve" color-interpolation-filters="sRGB"
		class="st11">
	<style type="text/css">
	<![CDATA[
		.st1 {fill:#4672c4;stroke:#c7c8c8;stroke-width:0.25}
		.st2 {fill:#feffff;font-family:Calibri;font-size:1.16666em}
		.st3 {fill:#ffffff;stroke:none;stroke-linecap:butt;stroke-width:7.2}
		.st4 {fill:#4672c4;font-family:Calibri;font-size:0.666664em}
		.st5 {stroke:#4672c4;stroke-linecap:round;stroke-linejoin:round;stroke-width:1}
		.st6 {fill:#feffff;font-family:Calibri;font-size:1.00001em}
		.st7 {font-size:1em}
		.st8 {fill:none;stroke:#000000;stroke-width:0.25}
		.st9 {fill:#000000;font-family:Calibri;font-size:1.00001em}
		.st10 {fill:#4672c4;stroke:#c8c8c8;stroke-width:0.25}
		.st11 {fill:none;fill-rule:evenodd;font-size:12px;overflow:visible;stroke-linecap:square;stroke-miterlimit:3}
	]]>
	</style>

	<g>
		<title></title>
		<g id="shape1-1" transform="translate(368.504,-325.984)">
			<title></title>
			<desc>Test Report</desc>
			<rect x="0" y="552.756" width="85.0394" height="42.5197" class="st1"/>
			<text x="9.52" y="578.22" class="st2">Test Report</text>		</g>
		<g id="shape4-4" transform="translate(368.504,-226.772)">
			<title></title>
			<desc>Test Group</desc>
			<rect x="0" y="552.756" width="85.0394" height="42.5197" class="st1"/>
			<text x="11.06" y="578.22" class="st2">Test Group</text>		</g>
		<g id="shape5-7" transform="translate(368.504,-127.559)">
			<title></title>
			<desc>Test Result</desc>
			<rect x="0" y="552.756" width="85.0394" height="42.5197" class="st1"/>
			<text x="11.31" y="578.22" class="st2">Test Result</text>		</g>
		<g id="group1080-10" transform="translate(403.937,-325.984)">
			<title></title>
			<g id="shape1082-11" transform="translate(-11.8853,15.465)">
				<title></title>
				<desc>0..1</desc>
				<rect x="0.906097" y="585.674" width="12.1487" height="9.59985" class="st3"/>
				<text x="0.91" y="592.87" class="st4">0..1</text>			</g>
			<g id="shape1084-14" transform="translate(-11.815,50.8315)">
				<title></title>
				<desc>0..*</desc>
				<rect x="0.906097" y="585.674" width="12.0784" height="9.59985" class="st3"/>
				<text x="0.91" y="592.87" class="st4">0..*</text>			</g>
			<g id="shape1080-17">
				<path d="M7.09 595.28 L7.09 651.97" class="st5"/>
			</g>
		</g>
		<g id="group1070-20" transform="translate(403.937,-226.772)">
			<title></title>
			<g id="shape1072-21" transform="translate(-11.8853,15.465)">
				<title></title>
				<desc>0..1</desc>
				<rect x="0.906097" y="585.674" width="12.1487" height="9.59985" class="st3"/>
				<text x="0.91" y="592.87" class="st4">0..1</text>			</g>
			<g id="shape1074-24" transform="translate(-11.815,50.8315)">
				<title></title>
				<desc>0..*</desc>
				<rect x="0.906097" y="585.674" width="12.0784" height="9.59985" class="st3"/>
				<text x="0.91" y="592.87" class="st4">0..*</text>			</g>
			<g id="shape1070-27">
				<path d="M7.09 595.28 L7.09 651.97" class="st5"/>
			</g>
		</g>
		<g id="shape8-30" transform="translate(368.504,-425.197)">
			<title></title>
			<desc>Test Request Summary</desc>
			<rect x="0" y="552.756" width="85.0394" height="42.5197" class="st1"/>
			<text x="11.01" y="570.42" class="st6">Test Request <tspan x="19.34" dy="1.2em" class="st7">Summary</tspan></text>		</g>
		<g id="group1135-34" transform="translate(403.937,-425.197)">
			<title></title>
			<g id="shape1137-35" transform="translate(-11.8853,15.465)">
				<title></title>
				<desc>0..1</desc>
				<rect x="0.906097" y="585.674" width="12.1487" height="9.59985" class="st3"/>
				<text x="0.91" y="592.87" class="st4">0..1</text>			</g>
			<g id="shape1139-38" transform="translate(-11.815,50.8315)">
				<title></title>
				<desc>0..*</desc>
				<rect x="0.906097" y="585.674" width="12.0784" height="9.59985" class="st3"/>
				<text x="0.91" y="592.87" class="st4">0..*</text>			</g>
			<g id="shape1135-41">
				<path d="M7.09 595.28 L7.09 651.97" class="st5"/>
			</g>
		</g>
		<g id="shape12-44" transform="translate(198.425,-425.197)">
			<title></title>
			<desc>Requesting HCP</desc>
			<rect x="0" y="552.756" width="85.0394" height="42.5197" class="st1"/>
			<text x="10.74" y="569.82" class="st2">Requesting <tspan x="30.81" dy="1.2em" class="st7">HCP</tspan></text>		</g>
		<g id="group1000-48" transform="translate(368.504,-439.37)">
			<title></title>
			<g id="shape1002-49" transform="translate(-18.2279,-12.0976)">
				<title></title>
				<desc>1.1</desc>
				<rect x="0.906097" y="585.674" width="10.1291" height="9.59985" class="st3"/>
				<text x="0.91" y="592.87" class="st4">1.1</text>			</g>
			<g id="shape1004-52" transform="translate(-78.7528,-12.0976)">
				<title></title>
				<desc>1..1</desc>
				<rect x="0.906097" y="585.674" width="12.1487" height="9.59985" class="st3"/>
				<text x="0.91" y="592.87" class="st4">1..1</text>			</g>
			<g id="shape1000-55">
				<path d="M0 588.19 L-85.04 588.19" class="st5"/>
			</g>
		</g>
		<g id="shape14-58" transform="translate(42.5197,-425.197)">
			<title></title>
			<desc>Requesting Organisation</desc>
			<rect x="0" y="552.756" width="85.0394" height="42.5197" class="st1"/>
			<text x="10.74" y="569.82" class="st2">Requesting <tspan x="6.1" dy="1.2em" class="st7">Organisation</tspan></text>		</g>
		<g id="group1020-62" transform="translate(198.425,-439.37)">
			<title></title>
			<g id="shape1022-63" transform="translate(-19.9646,-12.0976)">
				<title></title>
				<desc>1..*</desc>
				<rect x="0.906097" y="585.674" width="12.0784" height="9.59985" class="st3"/>
				<text x="0.91" y="592.87" class="st4">1..*</text>			</g>
			<g id="shape1024-66" transform="translate(-64.7922,-12.0976)">
				<title></title>
				<desc>1..1</desc>
				<rect x="0.906097" y="585.674" width="12.1487" height="9.59985" class="st3"/>
				<text x="0.91" y="592.87" class="st4">1..1</text>			</g>
			<g id="shape1020-69">
				<path d="M0 588.19 L-70.87 588.19" class="st5"/>
			</g>
		</g>
		<g id="shape16-72" transform="translate(198.425,-325.984)">
			<title></title>
			<desc>Test Report Document</desc>
			<rect x="0" y="552.756" width="85.0394" height="42.5197" class="st1"/>
			<text x="9.52" y="569.82" class="st2">Test Report <tspan x="12.79" dy="1.2em" class="st7">Document</tspan></text>		</g>
		<g id="group1030-76" transform="translate(240.945,-375.591)">
			<title></title>
			<g id="shape1031-77" transform="translate(-18.9719,-0.475561)">
				<title></title>
				<desc>0..1</desc>
				<rect x="0.906097" y="585.674" width="12.1487" height="9.59985" class="st3"/>
				<text x="0.91" y="592.87" class="st4">0..1</text>			</g>
			<g id="shape1033-80" transform="translate(146.743,-0.475559)">
				<title></title>
				<desc>1..1</desc>
				<rect x="0.906097" y="585.674" width="12.1487" height="9.59985" class="st3"/>
				<text x="0.91" y="592.87" class="st4">1..1</text>			</g>
			<g id="shape1030-83">
				<path d="M0 602.36 L0 588.19 L141.73 588.19 L141.73 602.36" class="st5"/>
			</g>
		</g>
		<g id="shape18-86" transform="translate(198.425,-226.772)">
			<title></title>
			<desc>Test Result Document</desc>
			<rect x="0" y="552.756" width="85.0394" height="42.5197" class="st1"/>
			<text x="11.31" y="569.82" class="st2">Test Result <tspan x="12.79" dy="1.2em" class="st7">Document</tspan></text>		</g>
		<g id="group1040-90" transform="translate(382.677,-325.984)">
			<title></title>
			<g id="shape1042-91" transform="translate(-18.9719,17.5909)">
				<title></title>
				<desc>1..1</desc>
				<rect x="0.906097" y="585.674" width="12.1487" height="9.59985" class="st3"/>
				<text x="0.91" y="592.87" class="st4">1..1</text>			</g>
			<g id="shape1044-94" transform="translate(-160.634,48.7055)">
				<title></title>
				<desc>0..*</desc>
				<rect x="0.906097" y="585.674" width="12.0784" height="9.59985" class="st3"/>
				<text x="0.91" y="592.87" class="st4">0..*</text>			</g>
			<g id="shape1040-97">
				<path d="M0 595.28 L0 623.62 L-25.98 623.62 A2.3622 2.3622 -180 0 0 -30.71 623.62 L-62.56 623.62 A2.3622 2.3622 -180
							 0 0 -67.28 623.62 L-141.73 623.62 L-141.73 651.97" class="st5"/>
			</g>
		</g>
		<g id="group1045-100" transform="translate(368.504,-240.945)">
			<title></title>
			<g id="shape1047-101" transform="translate(-20.2475,-12.0976)">
				<title></title>
				<desc>0..1</desc>
				<rect x="0.906097" y="585.674" width="12.1487" height="9.59985" class="st3"/>
				<text x="0.91" y="592.87" class="st4">0..1</text>			</g>
			<g id="shape1049-104" transform="translate(-78.7528,-12.0976)">
				<title></title>
				<desc>0..*</desc>
				<rect x="0.906097" y="585.674" width="12.0784" height="9.59985" class="st3"/>
				<text x="0.91" y="592.87" class="st4">0..*</text>			</g>
			<g id="shape1045-107">
				<path d="M0 588.19 L-11.81 588.19 A2.3622 2.3622 -180 0 0 -16.54 588.19 L-48.39 588.19 A2.3622 2.3622 -180 0 0 -53.11
							 588.19 L-85.04 588.19" class="st5"/>
			</g>
		</g>
		<g id="group1050-110" transform="translate(382.677,-170.079)">
			<title></title>
			<g id="shape1051-111" transform="translate(-18.9719,-7.98737)">
				<title></title>
				<desc>0..1</desc>
				<rect x="1.16933" y="589.092" width="12.1487" height="9.59985" class="st3"/>
				<text x="1.17" y="596.29" class="st4">0..1</text>			</g>
			<g id="shape1053-114" transform="translate(-160.634,-39.102)">
				<title></title>
				<desc>0..*</desc>
				<rect x="0.906097" y="585.674" width="12.0784" height="9.59985" class="st3"/>
				<text x="0.91" y="592.87" class="st4">0..*</text>			</g>
			<g id="shape1050-117">
				<path d="M0 595.28 L0 578.83 L-25.98 578.83 A2.3622 2.3622 -180 0 0 -30.71 578.83 L-40.16 578.83 A2.3622 2.3622 -180
							 0 0 -44.88 578.83 L-62.56 578.83 A2.3622 2.3622 -180 0 0 -67.28 578.83 L-141.73 578.83 L-141.73 538.58"
						class="st5"/>
			</g>
		</g>
		<g id="shape22-120" transform="translate(538.583,-226.772)">
			<title></title>
			<desc>Specimen</desc>
			<rect x="0" y="552.756" width="85.0394" height="42.5197" class="st1"/>
			<text x="14.82" y="578.22" class="st2">Specimen</text>		</g>
		<g id="group1120-123" transform="translate(538.583,-240.945)">
			<title></title>
			<g id="shape1122-124" transform="translate(-20.1772,-12.0976)">
				<title></title>
				<desc>0..*</desc>
				<rect x="0.906097" y="585.674" width="12.0784" height="9.59985" class="st3"/>
				<text x="0.91" y="592.87" class="st4">0..*</text>			</g>
			<g id="shape1124-127" transform="translate(-78.7528,-12.0976)">
				<title></title>
				<desc>0..*</desc>
				<rect x="0.906097" y="585.674" width="12.0784" height="9.59985" class="st3"/>
				<text x="0.91" y="592.87" class="st4">0..*</text>			</g>
			<g id="shape1120-130">
				<path d="M0 588.19 L-33.07 588.19 A2.3622 2.3622 -180 0 0 -37.8 588.19 L-85.04 588.19" class="st5"/>
			</g>
		</g>
		<g id="group1085-133" transform="translate(581.102,-269.291)">
			<title></title>
			<g id="shape1086-134" transform="translate(-18.9016,-7.98737)">
				<title></title>
				<desc>0..*</desc>
				<rect x="0.906097" y="585.674" width="12.0784" height="9.59985" class="st3"/>
				<text x="0.91" y="592.87" class="st4">0..*</text>			</g>
			<g id="shape1088-137" transform="translate(-160.634,-39.102)">
				<title></title>
				<desc>0..*</desc>
				<rect x="0.906097" y="585.674" width="12.0784" height="9.59985" class="st3"/>
				<text x="0.91" y="592.87" class="st4">0..*</text>			</g>
			<g id="shape1085-140">
				<path d="M0 595.28 L0 552.76 L-75.59 552.76 A2.3622 2.3622 -180 1 0 -80.31 552.76 L-141.73 552.76 L-141.73 538.58"
						class="st5"/>
			</g>
		</g>
		<g id="group1100-143" transform="translate(581.102,-226.772)">
			<title></title>
			<g id="shape1102-144" transform="translate(-18.9016,17.5909)">
				<title></title>
				<desc>0..*</desc>
				<rect x="0.906097" y="585.674" width="12.0784" height="9.59985" class="st3"/>
				<text x="0.91" y="592.87" class="st4">0..*</text>			</g>
			<g id="shape1104-147" transform="translate(-160.634,48.7055)">
				<title></title>
				<desc>0..*</desc>
				<rect x="0.906097" y="589.092" width="12.0784" height="9.59985" class="st3"/>
				<text x="0.91" y="596.29" class="st4">0..*</text>			</g>
			<g id="shape1100-150">
				<path d="M0 595.28 L0 634.96 L-75.59 634.96 A2.3622 2.3622 -180 1 0 -80.31 634.96 L-100.21 634.96 A2.3622 2.3622
							 -180 0 0 -104.93 634.96 L-141.73 634.96 L-141.73 651.97" class="st5"/>
			</g>
		</g>
		<g id="shape26-153" transform="translate(694.488,-226.772)">
			<title></title>
			<desc>Specimen Collecting HCP</desc>
			<rect x="0" y="552.756" width="85.0394" height="42.5197" class="st1"/>
			<text x="18.78" y="570.42" class="st6">Specimen <tspan x="7.12" dy="1.2em" class="st7">Collecting HCP</tspan></text>		</g>
		<g id="group1095-157" transform="translate(694.488,-240.945)">
			<title></title>
			<g id="shape1097-158" transform="translate(-20.0349,-12.0976)">
				<title></title>
				<desc>0..1</desc>
				<rect x="0.906097" y="585.674" width="12.1487" height="9.59985" class="st3"/>
				<text x="0.91" y="592.87" class="st4">0..1</text>			</g>
			<g id="shape1099-161" transform="translate(-64.7922,-12.0976)">
				<title></title>
				<desc>1..1</desc>
				<rect x="0.906097" y="585.674" width="12.1487" height="9.59985" class="st3"/>
				<text x="0.91" y="592.87" class="st4">1..1</text>			</g>
			<g id="shape1095-164">
				<path d="M0 588.19 L-40.16 588.19 A2.3622 2.3622 -180 0 0 -44.88 588.19 L-70.87 588.19" class="st5"/>
			</g>
		</g>
		<g id="shape28-167" transform="translate(694.488,-127.559)">
			<title></title>
			<desc>Specimen Collecting Organisation</desc>
			<rect x="0" y="552.756" width="85.0394" height="42.5197" class="st1"/>
			<text x="18.78" y="563.22" class="st6">Specimen <tspan x="18.52" dy="1.2em" class="st7">Collecting </tspan><tspan
						x="11.3" dy="1.2em" class="st7">Organisation</tspan></text>		</g>
		<g id="group1125-172" transform="translate(729.921,-226.772)">
			<title></title>
			<g id="shape1127-173" transform="translate(-11.815,15.465)">
				<title></title>
				<desc>1..*</desc>
				<rect x="0.906097" y="585.674" width="12.0784" height="9.59985" class="st3"/>
				<text x="0.91" y="592.87" class="st4">1..*</text>			</g>
			<g id="shape1129-176" transform="translate(-11.8853,50.8315)">
				<title></title>
				<desc>1..1</desc>
				<rect x="0.906097" y="585.674" width="12.1487" height="9.59985" class="st3"/>
				<text x="0.91" y="592.87" class="st4">1..1</text>			</g>
			<g id="shape1125-179">
				<path d="M7.09 595.28 L7.09 651.97" class="st5"/>
			</g>
		</g>
		<g id="shape30-182" transform="translate(198.425,-42.5197)">
			<title></title>
			<desc>Performing HCP</desc>
			<rect x="0" y="552.756" width="85.0394" height="42.5197" class="st1"/>
			<text x="10.54" y="569.82" class="st2">Performing <tspan x="30.81" dy="1.2em" class="st7">HCP</tspan></text>		</g>
		<g id="group1065-186" transform="translate(283.465,-56.6929)">
			<title></title>
			<g id="shape1067-187" transform="translate(7.77477,14.6146)">
				<title></title>
				<desc>1..*</desc>
				<rect x="0.906097" y="585.674" width="12.0784" height="9.59985" class="st3"/>
				<text x="0.91" y="592.87" class="st4">1..*</text>			</g>
			<g id="shape1068-190" transform="translate(94.4139,-53.4878)">
				<title></title>
				<desc>1..1</desc>
				<rect x="0.906097" y="585.674" width="12.1487" height="9.59985" class="st3"/>
				<text x="0.91" y="592.87" class="st4">1..1</text>			</g>
			<g id="shape1065-193">
				<path d="M0 595.28 L113.39 595.28 L113.39 524.41" class="st5"/>
			</g>
		</g>
		<g id="group1055-196" transform="translate(283.465,-70.8661)">
			<title></title>
			<g id="shape1056-197" transform="translate(8.83776,-5.01099)">
				<title></title>
				<desc>1..*</desc>
				<rect x="-0.562415" y="585.674" width="12.0784" height="9.59985" class="st3"/>
				<text x="-0.56" y="592.87" class="st4">1..*</text>			</g>
			<g id="shape1058-200" transform="translate(80.2407,-137.464)">
				<title></title>
				<desc>1..1</desc>
				<rect x="0.906097" y="581.406" width="12.1487" height="9.59985" class="st3"/>
				<text x="0.91" y="588.61" class="st4">1..1</text>			</g>
			<g id="shape1055-203">
				<path d="M0 595.28 L56.69 595.28 L56.69 453.54 L68.5 453.54 A2.3622 2.3622 0 0 1 73.23 453.54 L99.21 453.54 L99.21
							 439.37" class="st5"/>
			</g>
		</g>
		<g id="group1035-206" transform="translate(240.945,-85.0394)">
			<title></title>
			<g id="shape1036-207" transform="translate(-18.9016,-11.0573)">
				<title></title>
				<desc>1..*</desc>
				<rect x="0.906097" y="589.338" width="12.0784" height="9.59985" class="st3"/>
				<text x="0.91" y="596.54" class="st4">1..*</text>			</g>
			<g id="shape1039-210" transform="translate(102.541,-260.913)">
				<title></title>
				<desc>1..1</desc>
				<rect x="4.77061" y="565.372" width="12.1487" height="9.59985" class="st3"/>
				<text x="4.77" y="572.57" class="st4">1..1</text>			</g>
			<g id="shape1035-213">
				<path d="M0 595.28 L0 561.61 L76.81 561.61 L76.81 319.75 L127.56 319.75" class="st5"/>
			</g>
		</g>
		<g id="shape34-216" transform="translate(42.5197,-42.5197)">
			<title></title>
			<desc>Performing Organisation</desc>
			<rect x="0" y="552.756" width="85.0394" height="42.5197" class="st1"/>
			<text x="10.54" y="569.82" class="st2">Performing <tspan x="6.1" dy="1.2em" class="st7">Organisation</tspan></text>		</g>
		<g id="group1060-220" transform="translate(198.425,-56.6929)">
			<title></title>
			<g id="shape1062-221" transform="translate(-19.9646,-12.0976)">
				<title></title>
				<desc>1..*</desc>
				<rect x="0.906097" y="585.674" width="12.0784" height="9.59985" class="st3"/>
				<text x="0.91" y="592.87" class="st4">1..*</text>			</g>
			<g id="shape1064-224" transform="translate(-64.7922,-12.0976)">
				<title></title>
				<desc>1..1</desc>
				<rect x="0.906097" y="585.674" width="12.1487" height="9.59985" class="st3"/>
				<text x="0.91" y="592.87" class="st4">1..1</text>			</g>
			<g id="shape1060-227">
				<path d="M0 588.19 L-70.87 588.19" class="st5"/>
			</g>
		</g>
		<g id="shape37-230" transform="translate(538.583,-42.5197)">
			<title></title>
			<desc>Receiving HCP</desc>
			<rect x="0" y="552.756" width="85.0394" height="42.5197" class="st1"/>
			<text x="15.45" y="569.82" class="st2">Receiving <tspan x="30.81" dy="1.2em" class="st7">HCP</tspan></text>		</g>
		<g id="shape38-234" transform="translate(694.488,-42.5197)">
			<title></title>
			<desc>Receiving Organisation</desc>
			<rect x="0" y="552.756" width="85.0394" height="42.5197" class="st1"/>
			<text x="15.45" y="569.82" class="st2">Receiving <tspan x="6.1" dy="1.2em" class="st7">Organisation</tspan></text>		</g>
		<g id="group1110-238" transform="translate(694.488,-56.6929)">
			<title></title>
			<g id="shape1112-239" transform="translate(-20.0349,-12.0976)">
				<title></title>
				<desc>1..1</desc>
				<rect x="0.906097" y="585.674" width="12.1487" height="9.59985" class="st3"/>
				<text x="0.91" y="592.87" class="st4">1..1</text>			</g>
			<g id="shape1114-242" transform="translate(-64.7922,-12.0976)">
				<title></title>
				<desc>1..*</desc>
				<rect x="0.906097" y="585.674" width="12.0784" height="9.59985" class="st3"/>
				<text x="0.91" y="592.87" class="st4">1..*</text>			</g>
			<g id="shape1110-245">
				<path d="M0 588.19 L-70.87 588.19" class="st5"/>
			</g>
		</g>
		<g id="group1115-248" transform="translate(425.197,-127.559)">
			<title></title>
			<g id="shape1116-249" transform="translate(5.01099,17.3783)">
				<title></title>
				<desc>1..1</desc>
				<rect x="0.906097" y="585.674" width="12.1487" height="9.59985" class="st3"/>
				<text x="0.91" y="592.87" class="st4">1..1</text>			</g>
			<g id="shape1119-252" transform="translate(91.7205,85.4807)">
				<title></title>
				<desc>1..*</desc>
				<rect x="0.906097" y="585.674" width="12.0784" height="9.59985" class="st3"/>
				<text x="0.91" y="592.87" class="st4">1..*</text>			</g>
			<g id="shape1115-255">
				<path d="M0 595.28 L0 666.14 L113.39 666.14" class="st5"/>
			</g>
		</g>
		<g id="group1075-258" transform="translate(439.37,-226.772)">
			<title></title>
			<g id="shape1076-259" transform="translate(5.01099,18.4413)">
				<title></title>
				<desc>1..1</desc>
				<rect x="1.00647" y="581.105" width="12.1487" height="9.59985" class="st3"/>
				<text x="1.01" y="588.31" class="st4">1..1</text>			</g>
			<g id="shape1078-262" transform="translate(76.4842,150.895)">
				<title></title>
				<desc>1..*</desc>
				<rect x="0.906097" y="585.674" width="12.0784" height="9.59985" class="st3"/>
				<text x="0.91" y="592.87" class="st4">1..*</text>			</g>
			<g id="shape1075-265">
				<path d="M0 595.28 L0 608.88 L39.16 608.88 L39.16 751.18 L99.21 751.18" class="st5"/>
			</g>
		</g>
		<g id="group1105-268" transform="translate(453.543,-340.157)">
			<title></title>
			<g id="shape1107-269" transform="translate(10.7512,14.6146)">
				<title></title>
				<desc>1..1</desc>
				<rect x="0.906097" y="585.674" width="12.1487" height="9.59985" class="st3"/>
				<text x="0.91" y="592.87" class="st4">1..1</text>			</g>
			<g id="shape1109-272" transform="translate(108.657,244.367)">
				<title></title>
				<desc>1..*</desc>
				<rect x="4.35845" y="583.351" width="12.0784" height="9.59985" class="st3"/>
				<text x="4.36" y="590.55" class="st4">1..*</text>			</g>
			<g id="shape1105-275">
				<path d="M0 595.28 L49.61 595.28 L49.61 839.76 L127.56 839.76 L127.56 850.39" class="st5"/>
			</g>
		</g>
		<g id="shape43-278" transform="translate(694.488,-425.197)">
			<title></title>
			<desc>Patient</desc>
			<rect x="0" y="552.756" width="85.0394" height="42.5197" class="st1"/>
			<text x="22.09" y="578.22" class="st2">Patient</text>		</g>
		<g id="group1090-281" transform="translate(609.449,-269.291)">
			<title></title>
			<g id="shape1091-282" transform="translate(-18.9016,-9.47556)">
				<title></title>
				<desc>1..*</desc>
				<rect x="1.52378" y="586.646" width="12.0784" height="9.59985" class="st3"/>
				<text x="1.52" y="593.85" class="st4">1..*</text>			</g>
			<g id="shape1093-285" transform="translate(122.76,-136.826)">
				<title></title>
				<desc>1..1</desc>
				<rect x="0.906097" y="585.674" width="12.1487" height="9.59985" class="st3"/>
				<text x="0.91" y="592.87" class="st4">1..1</text>			</g>
			<g id="shape1090-288">
				<path d="M0 595.28 L-0 567.68 L40.16 567.68 A2.3622 2.3622 0 0 1 44.88 567.68 L141.73 567.68 L141.73 439.37"
						class="st5"/>
			</g>
		</g>
		<g id="group1015-291" transform="translate(722.835,-425.197)">
			<title></title>
			<g id="shape1017-292" transform="translate(-18.9719,19.7169)">
				<title></title>
				<desc>1..1</desc>
				<rect x="0.906097" y="585.674" width="12.1487" height="9.59985" class="st3"/>
				<text x="0.91" y="592.87" class="st4">1..1</text>			</g>
			<g id="shape1019-295" transform="translate(-259.178,65.8551)">
				<title></title>
				<desc>1..1</desc>
				<rect x="0.906097" y="585.674" width="12.1487" height="9.59985" class="st3"/>
				<text x="0.91" y="592.87" class="st4">1..1</text>			</g>
			<g id="shape1015-298">
				<path d="M0 595.28 L0 666.14 L-68.5 666.14 A2.3622 2.3622 -180 0 0 -73.23 666.14 L-125.2 666.14 A2.3622 2.3622 -180
							 0 0 -129.92 666.14 L-269.29 666.14" class="st5"/>
			</g>
		</g>
		<g id="group1010-301" transform="translate(694.488,-439.37)">
			<title></title>
			<g id="shape1012-302" transform="translate(-22.5861,-12.0976)">
				<title></title>
				<desc>1..1</desc>
				<rect x="0.906097" y="585.674" width="12.1487" height="9.59985" class="st3"/>
				<text x="0.91" y="592.87" class="st4">1..1</text>			</g>
			<g id="shape1014-305" transform="translate(-232.32,-12.0976)">
				<title></title>
				<desc>1..1</desc>
				<rect x="0.906097" y="585.674" width="12.1487" height="9.59985" class="st3"/>
				<text x="0.91" y="592.87" class="st4">1..1</text>			</g>
			<g id="shape1010-308">
				<path d="M0 588.19 L-40.16 588.19 A2.3622 2.3622 -180 0 0 -44.88 588.19 L-96.85 588.19 A2.3622 2.3622 -180 0 0 -101.57
							 588.19 L-125.2 588.19 A2.3622 2.3622 -180 1 0 -129.92 588.19 L-240.94 588.19" class="st5"/>
			</g>
		</g>
		<g id="shape1140-311" transform="translate(18,-548.929)">
			<title></title>
			<desc>Pathology Reporting – Combined Logical Data Model (Full)</desc>
			<rect x="0" y="566.929" width="322.157" height="28.3465" class="st8"/>
			<text x="4" y="584.7" class="st9">Pathology Reporting – Combined Logical Data Model (Full)</text>		</g>
		<g id="shape1141-314" transform="translate(538.583,-496.063)">
			<title></title>
			<desc>Test Report Filing</desc>
			<rect x="0" y="552.756" width="85.0394" height="42.5197" class="st10"/>
			<text x="9.52" y="569.82" class="st2">Test Report <tspan x="27.51" dy="1.2em" class="st7">Filing</tspan></text>		</g>
		<g id="group1142-318" transform="translate(566.929,-496.063)">
			<title></title>
			<g id="shape1143-319" transform="translate(5.01099,18.4413)">
				<title></title>
				<desc>0..1</desc>
				<rect x="0.906097" y="585.674" width="12.1487" height="9.59985" class="st3"/>
				<text x="0.91" y="592.87" class="st4">0..1</text>			</g>
			<g id="shape1144-322" transform="translate(-122.548,118.721)">
				<title></title>
				<desc>0..1</desc>
				<rect x="0.906097" y="585.674" width="12.1487" height="9.59985" class="st3"/>
				<text x="0.91" y="592.87" class="st4">0..1</text>			</g>
			<g id="shape1142-325">
				<path d="M0 595.28 L0 680.31 L-127.56 680.31 L-127.56 722.83" class="st5"/>
			</g>
		</g>
		<g id="group1145-328" transform="translate(595.276,-496.063)">
			<title></title>
			<g id="shape1146-329" transform="translate(5.01099,20.3547)">
				<title></title>
				<desc>0..1</desc>
				<rect x="0.906097" y="585.674" width="12.1487" height="9.59985" class="st3"/>
				<text x="0.91" y="592.87" class="st4">0..1</text>			</g>
			<g id="shape1147-332" transform="translate(-150.895,216.021)">
				<title></title>
				<desc>0..1</desc>
				<rect x="0.906097" y="585.674" width="12.1487" height="9.59985" class="st3"/>
				<text x="0.91" y="592.87" class="st4">0..1</text>			</g>
			<g id="shape1145-335">
				<path d="M0 595.28 L0 793.7 L-11.81 793.7 A2.3622 2.3622 -180 0 0 -16.54 793.7 L-89.76 793.7 A2.3622 2.3622 -180
							 0 0 -94.49 793.7 L-155.91 793.7 L-155.91 822.05" class="st5"/>
			</g>
		</g>
		<g id="group1148-338" transform="translate(623.622,-517.323)">
			<title></title>
			<g id="shape1149-339" transform="translate(13.9401,-5.01099)">
				<title></title>
				<desc>0..1</desc>
				<rect x="0.906097" y="585.674" width="12.1487" height="9.59985" class="st3"/>
				<text x="0.91" y="592.87" class="st4">0..1</text>			</g>
			<g id="shape1150-342" transform="translate(-156.139,383.118)">
				<title></title>
				<desc>0..1</desc>
				<rect x="0.906097" y="585.674" width="12.1487" height="9.59985" class="st3"/>
				<text x="0.91" y="592.87" class="st4">0..1</text>			</g>
			<g id="shape1148-345">
				<path d="M0 595.28 L28.35 595.28 L28.35 963.78 L-118.11 963.78 A2.3622 2.3622 -180 0 0 -122.83 963.78 L-142.73 963.78
							 A2.3622 2.3622 -180 0 0 -147.45 963.78 L-170.08 963.78" class="st5"/>
			</g>
		</g>
		<g id="group1151-348" transform="translate(361.417,-334.488)">
			<title></title>
			<g id="shape1152-349" transform="translate(-15.0955,-5.01099)">
				<title></title>
				<desc>0..1</desc>
				<rect x="5.0844" y="585.016" width="12.1487" height="9.59985" class="st3"/>
				<text x="5.08" y="592.22" class="st4">0..1</text>			</g>
			<g id="shape1153-352" transform="translate(-15.0252,200.284)">
				<title></title>
				<desc>0..*</desc>
				<rect x="0.906097" y="585.674" width="12.0784" height="9.59985" class="st3"/>
				<text x="0.91" y="592.87" class="st4">0..*</text>			</g>
			<g id="shape1151-355">
				<path d="M7.09 595.28 L-7.09 595.28 L-7.09 780.94 L7.09 780.94" class="st5"/>
			</g>
		</g>
	</g>
</svg>
