<?xml version="1.0" encoding="UTF-8" standalone="no"?>
<!DOCTYPE svg PUBLIC "-//W3C//DTD SVG 1.1//EN" "http://www.w3.org/Graphics/SVG/1.1/DTD/svg11.dtd">
<!-- Generated by Microsoft Visio, SVG Export Problem_Return.svg Problem 1-5 -->
<svg xmlns="http://www.w3.org/2000/svg" xmlns:xlink="http://www.w3.org/1999/xlink" xmlns:ev="http://www.w3.org/2001/xml-events"
		width="11.5059in" height="16.2795in" viewBox="0 0 828.425 1172.13" xml:space="preserve" color-interpolation-filters="sRGB"
		class="st25">
	<style type="text/css">
	<![CDATA[
		.st1 {fill:none;stroke:#0070c0;stroke-dasharray:4.25197,4.25197;stroke-linecap:round;stroke-linejoin:round;stroke-width:1.41732}
		.st2 {marker-end:url(#mrkr5-10);stroke:#4672c4;stroke-linecap:round;stroke-linejoin:round;stroke-width:1.41732}
		.st3 {fill:#4672c4;fill-opacity:1;stroke:#4672c4;stroke-opacity:1;stroke-width:0.35997120230382}
		.st4 {fill:#4672c4;stroke:#c8c8c8;stroke-linecap:round;stroke-linejoin:round;stroke-width:0.75}
		.st5 {fill:#000000;font-family:Calibri;font-size:0.801979em}
		.st6 {font-size:1em}
		.st7 {fill:#feffff;font-size:1em}
		.st8 {marker-end:url(#mrkr5-51);stroke:#70ad47;stroke-linecap:round;stroke-linejoin:round;stroke-width:1.41732}
		.st9 {fill:#70ad47;fill-opacity:1;stroke:#70ad47;stroke-opacity:1;stroke-width:0.35997120230382}
		.st10 {fill:#70ad47;stroke:#c8c8c8;stroke-linecap:round;stroke-linejoin:round;stroke-width:0.75}
		.st11 {fill:none;stroke:none;stroke-linecap:round;stroke-linejoin:round;stroke-width:0.75}
		.st12 {fill:#000000;font-family:Calibri;font-size:0.630112em}
		.st13 {fill:#00b050;font-size:1em}
		.st14 {fill:#000000;font-family:Calibri;font-size:0.687401em}
		.st15 {marker-end:url(#mrkr5-10);marker-start:url(#mrkr5-222);stroke:#4672c4;stroke-linecap:round;stroke-linejoin:round;stroke-width:1.41732}
		.st16 {marker-end:url(#mrkr5-268);stroke:#7030a0;stroke-linecap:round;stroke-linejoin:round;stroke-width:1.41732}
		.st17 {fill:#7030a0;fill-opacity:1;stroke:#7030a0;stroke-opacity:1;stroke-width:0.35997120230382}
		.st18 {fill:#7030a0;stroke:#c8c8c8;stroke-linecap:round;stroke-linejoin:round;stroke-width:0.75}
		.st19 {fill:#7030a0;font-size:1em}
		.st20 {fill:#4672c4;font-size:1em}
		.st21 {fill:#feffff;stroke:none;stroke-linecap:round;stroke-linejoin:round;stroke-width:0.75}
		.st22 {marker-end:url(#mrkr1-484);stroke:#000000;stroke-linecap:round;stroke-linejoin:round;stroke-width:1.41732}
		.st23 {fill:#000000;fill-opacity:1;stroke:#000000;stroke-opacity:1;stroke-width:0.35997120230382}
		.st24 {fill:#ffffff;stroke:none;stroke-linecap:round;stroke-linejoin:round;stroke-width:0.75}
		.st25 {fill:none;fill-rule:evenodd;font-size:12px;overflow:visible;stroke-linecap:square;stroke-miterlimit:3}
	]]>
	</style>

	<defs id="Markers">
		<g id="lend5">
			<path d="M 2 1 L 0 0 L 1.98117 -0.993387 C 1.67173 -0.364515 1.67301 0.372641 1.98465 1.00043 " style="stroke:none"/>
		</g>
		<marker id="mrkr5-10" class="st3" refX="-4.8615" orient="auto" markerUnits="strokeWidth" overflow="visible">
			<use xlink:href="#lend5" transform="scale(-2.778,-2.778) "/>
		</marker>
		<marker id="mrkr5-51" class="st9" refX="-4.8615" orient="auto" markerUnits="strokeWidth" overflow="visible">
			<use xlink:href="#lend5" transform="scale(-2.778,-2.778) "/>
		</marker>
		<marker id="mrkr5-222" class="st3" refX="4.6075" orient="auto" markerUnits="strokeWidth" overflow="visible">
			<use xlink:href="#lend5" transform="scale(2.778) "/>
		</marker>
		<marker id="mrkr5-268" class="st17" refX="-4.8615" orient="auto" markerUnits="strokeWidth" overflow="visible">
			<use xlink:href="#lend5" transform="scale(-2.778,-2.778) "/>
		</marker>
		<g id="lend1">
			<path d="M 1 -1 L 0 0 L 1 1 " style="stroke-linecap:round;stroke-linejoin:round;fill:none"/>
		</g>
		<marker id="mrkr1-484" class="st23" orient="auto" markerUnits="strokeWidth" overflow="visible">
			<use xlink:href="#lend1" transform="scale(-2.778,-2.778) "/>
		</marker>
	</defs>
	<g>
		<title>Problem 1-5</title>
		<g id="shape332-1" transform="translate(389.764,-789.449)">
			<title>Shape332</title>
			<path d="M0 1172.13 L283.46 1172.13 L283.46 959.53 L0 959.53 L0 1172.13 Z" class="st1"/>
		</g>
		<g id="shape333-3" transform="translate(262.205,-66.6142)">
			<title>Shape333</title>
			<path d="M0 1172.13 L418.11 1172.13 L418.11 877.32 L0 877.32 L0 1172.13 Z" class="st1"/>
		</g>
		<g id="shape334-5" transform="translate(489.685,-917.717)">
			<title>Dynamic connector.334</title>
			<path d="M70.16 1122.99 L0 1123.23 L0 1165.24" class="st2"/>
		</g>
		<g id="shape336-11" transform="translate(602.362,-917.008)">
			<title>Dynamic connector.336</title>
			<path d="M0 1143.78 L0 1165.24" class="st2"/>
		</g>
		<g id="shape337-16" transform="translate(559.843,-945.354)">
			<title>Shape337</title>
			<desc>Medication Statement</desc>
			<rect x="0" y="1129.61" width="85.0394" height="42.5197" class="st4"/>
			<text x="20.26" y="1147.98" class="st5">Medication <tspan x="22.01" dy="1.2em" class="st6">Statement</tspan></text>		</g>
		<g id="shape339-20" transform="translate(503.15,-895.039)">
			<title>Dynamic connector.339</title>
			<path d="M0 1171.42 L49.8 1171.42" class="st2"/>
		</g>
		<g id="shape335-25" transform="translate(418.11,-874.488)">
			<title>Shape335</title>
			<desc>MedicationRequest (Intent = Plan)</desc>
			<rect x="0" y="1129.61" width="85.0394" height="42.5197" class="st4"/>
			<text x="4.31" y="1147.98" class="st5">MedicationRequest <tspan x="14.72" dy="1.2em" class="st7">(Intent = Plan)</tspan></text>		</g>
		<g id="shape340-29" transform="translate(503.15,-824.882)">
			<title>Dynamic connector.340</title>
			<path d="M0 1172.13 L99.92 1172.13 L99.92 1126.58" class="st2"/>
		</g>
		<g id="shape342-34" transform="translate(460.63,-846.142)">
			<title>Dynamic connector.342</title>
			<path d="M0 1172.13 L0 1150.67" class="st2"/>
		</g>
		<g id="shape341-39" transform="translate(418.11,-803.622)">
			<title>Shape341</title>
			<desc>MedicationRequest (Intent = Issue)</desc>
			<rect x="0" y="1129.61" width="85.0394" height="42.5197" class="st4"/>
			<text x="4.31" y="1147.98" class="st5">MedicationRequest <tspan x="13.24" dy="1.2em" class="st7">(Intent = Issue)</tspan></text>		</g>
		<g id="shape338-43" transform="translate(559.843,-874.488)">
			<title>Shape338</title>
			<desc>Medication</desc>
			<rect x="0" y="1129.61" width="85.0394" height="42.5197" class="st4"/>
			<text x="20.26" y="1153.75" class="st5">Medication</text>		</g>
		<g id="shape343-46" transform="translate(269.291,-909.213)">
			<title>Dynamic connector.343</title>
			<path d="M0 1064.41 L0 1172.13 L141.93 1172.13" class="st8"/>
		</g>
		<g id="shape345-52" transform="translate(269.291,-838.346)">
			<title>Dynamic connector.345</title>
			<path d="M0 993.54 L0 1172.13 L141.93 1172.13" class="st8"/>
		</g>
		<g id="shape346-57" transform="translate(269.291,-767.48)">
			<title>Dynamic connector.346</title>
			<path d="M0 922.68 L0 1172.13 L141.93 1172.13" class="st8"/>
		</g>
		<g id="shape348-62" transform="translate(269.291,-696.614)">
			<title>Dynamic connector.348</title>
			<path d="M0 851.81 L0 1172.13 L141.93 1172.13" class="st8"/>
		</g>
		<g id="shape350-67" transform="translate(269.291,-625.748)">
			<title>Dynamic connector.350</title>
			<path d="M0 780.94 L0 1172.13 L141.93 1172.13" class="st8"/>
		</g>
		<g id="shape352-72" transform="translate(269.291,-554.882)">
			<title>Dynamic connector.352</title>
			<path d="M0 710.08 L0 1172.13 L141.93 1172.13" class="st8"/>
		</g>
		<g id="shape354-77" transform="translate(269.291,-484.016)">
			<title>Dynamic connector.354</title>
			<path d="M0 639.21 L0 1172.13 L141.93 1172.13" class="st8"/>
		</g>
		<g id="shape356-82" transform="translate(269.291,-420.945)">
			<title>Dynamic connector.356</title>
			<path d="M0 576.14 L0 1172.13 L141.93 1172.13" class="st8"/>
		</g>
		<g id="shape358-87" transform="translate(269.291,-271.417)">
			<title>Dynamic connector.358</title>
			<path d="M0 426.61 L0 1172.13 L141.93 1172.13" class="st8"/>
		</g>
		<g id="shape360-92" transform="translate(248.74,-895.039)">
			<title>Dynamic connector.360</title>
			<path d="M0 1050.24 L0 1172.13 L162.48 1172.13" class="st8"/>
		</g>
		<g id="shape361-97" transform="translate(248.74,-753.307)">
			<title>Dynamic connector.361</title>
			<path d="M0 908.5 L0 1172.13 L162.48 1172.13" class="st8"/>
		</g>
		<g id="shape362-102" transform="translate(248.74,-682.441)">
			<title>Dynamic connector.362</title>
			<path d="M0 837.64 L0 1172.13 L162.48 1172.13" class="st8"/>
		</g>
		<g id="shape363-107" transform="translate(248.74,-611.575)">
			<title>Dynamic connector.363</title>
			<path d="M0 766.77 L0 1172.13 L162.48 1172.13" class="st8"/>
		</g>
		<g id="shape364-112" transform="translate(248.74,-540.709)">
			<title>Dynamic connector.364</title>
			<path d="M0 695.91 L0 1172.13 L162.48 1172.13" class="st8"/>
		</g>
		<g id="shape365-117" transform="translate(248.74,-469.843)">
			<title>Dynamic connector.365</title>
			<path d="M0 625.04 L0 1172.13 L162.48 1172.13" class="st8"/>
		</g>
		<g id="shape366-122" transform="translate(248.74,-404.646)">
			<title>Dynamic connector.366</title>
			<path d="M0 559.84 L0 1172.13 L162.48 1172.13" class="st8"/>
		</g>
		<g id="shape367-127" transform="translate(248.74,-254.409)">
			<title>Dynamic connector.367</title>
			<path d="M0 409.61 L0 1172.13 L162.48 1172.13" class="st8"/>
		</g>
		<g id="shape344-132" transform="translate(216.142,-1016.93)">
			<title>Shape344</title>
			<desc>ProblemHeader (Condition)</desc>
			<rect x="0" y="1129.61" width="85.0394" height="42.5197" class="st10"/>
			<text x="11.65" y="1147.98" class="st5">ProblemHeader <tspan x="20.56" dy="1.2em" class="st7">(Condition)</tspan></text>		</g>
		<g id="shape347-136" transform="translate(418.11,-732.756)">
			<title>Shape347</title>
			<desc>AllergyIntolerance</desc>
			<rect x="0" y="1129.61" width="85.0394" height="42.5197" class="st4"/>
			<text x="6.68" y="1153.75" class="st5">AllergyIntolerance</text>		</g>
		<g id="shape349-139" transform="translate(418.11,-661.89)">
			<title>Shape349</title>
			<desc>Immunization</desc>
			<rect x="0" y="1129.61" width="85.0394" height="42.5197" class="st4"/>
			<text x="15.47" y="1153.75" class="st5">Immunization</text>		</g>
		<g id="shape351-142" transform="translate(418.11,-591.024)">
			<title>Shape351</title>
			<desc>Observation (Uncategorised)</desc>
			<rect x="0" y="1129.61" width="85.0394" height="42.5197" class="st4"/>
			<text x="18.59" y="1147.98" class="st5">Observation <tspan x="11.25" dy="1.2em" class="st7">(Uncategorised)</tspan></text>		</g>
		<g id="shape368-146" transform="translate(272.835,-986.457)">
			<title>Shape368</title>
			<desc>Primary Item</desc>
			<rect x="0" y="1153.7" width="56.6929" height="18.4252" class="st11"/>
			<text x="-5.67" y="1160.64" class="st12">Primary <tspan x="-5.67" dy="1.2em" class="st13">Item</tspan></text>		</g>
		<g id="shape369-150" transform="translate(184.252,-986.457)">
			<title>Shape369</title>
			<desc>Associated Item</desc>
			<rect x="0" y="1153.7" width="56.6929" height="18.4252" class="st11"/>
			<text x="24.66" y="1160.64" class="st12">Associated <tspan x="43.52" dy="1.2em" class="st13">Item</tspan></text>		</g>
		<g id="shape353-154" transform="translate(418.11,-520.157)">
			<title>Shape353</title>
			<desc>ReferralRequest</desc>
			<rect x="0" y="1129.61" width="85.0394" height="42.5197" class="st4"/>
			<text x="10.93" y="1153.75" class="st5">ReferralRequest</text>		</g>
		<g id="shape355-157" transform="translate(418.11,-449.291)">
			<title>Shape355</title>
			<desc>DocumentReference (Metadata only)</desc>
			<rect x="0" y="1129.61" width="85.0394" height="42.5197" class="st4"/>
			<text x="7.95" y="1148.39" class="st14">DocumentReference <tspan x="15.5" dy="1.2em" class="st7">(Metadata only)</tspan></text>		</g>
		<g id="shape370-161" transform="translate(460.63,-276.378)">
			<title>Dynamic connector.370</title>
			<path d="M0 1172.13 L0 1150.67" class="st2"/>
		</g>
		<g id="shape372-166" transform="translate(460.63,-191.339)">
			<title>Dynamic connector.372</title>
			<path d="M0 1129.61 L0 1165.24" class="st2"/>
		</g>
		<g id="shape374-171" transform="translate(390.472,-109.134)">
			<title>Dynamic connector.374</title>
			<path d="M56.69 1047.4 L56.69 1066.54 L0 1066.54 L0 1172.13 L20.75 1172.13" class="st2"/>
		</g>
		<g id="shape376-176" transform="translate(481.89,-191.339)">
			<title>Dynamic connector.376</title>
			<path d="M0 1129.61 L0 1148.03 L121.18 1148.03 L121.18 1165.24" class="st2"/>
		</g>
		<g id="shape378-181" transform="translate(319.606,-191.339)">
			<title>Dynamic connector.378</title>
			<path d="M113.39 1129.61 L113.39 1140.94 L0 1140.94 L0 1165.24" class="st2"/>
		</g>
		<g id="shape380-186" transform="translate(361.417,-276.378)">
			<title>Dynamic connector.380</title>
			<path d="M71.57 1172.13 L71.57 1155.12 L21.26 1155.12 L21.26 1123.23 L6.89 1123.23" class="st2"/>
		</g>
		<g id="shape359-191" transform="translate(418.11,-233.858)">
			<title>Shape359</title>
			<desc>DiagnosticReport</desc>
			<rect x="0" y="1129.61" width="85.0394" height="42.5197" class="st4"/>
			<text x="8.82" y="1153.75" class="st5">DiagnosticReport</text>		</g>
		<g id="shape382-194" transform="translate(361.417,-169.37)">
			<title>Dynamic connector.382</title>
			<path d="M56.69 1171.42 L6.89 1171.42" class="st2"/>
		</g>
		<g id="shape383-199" transform="translate(503.15,-169.37)">
			<title>Dynamic connector.383</title>
			<path d="M0 1171.42 L49.8 1171.42" class="st2"/>
		</g>
		<g id="shape373-204" transform="translate(418.11,-148.819)">
			<title>Shape373</title>
			<desc>Observation (Test Group)</desc>
			<rect x="0" y="1129.61" width="85.0394" height="42.5197" class="st4"/>
			<text x="18.59" y="1147.98" class="st5">Observation <tspan x="17.97" dy="1.2em" class="st7">(Test Group)</tspan></text>		</g>
		<g id="shape371-208" transform="translate(418.11,-304.724)">
			<title>Shape371</title>
			<desc>ProcedureRequest</desc>
			<rect x="0" y="1129.61" width="85.0394" height="42.5197" class="st4"/>
			<text x="6.31" y="1153.75" class="st5">ProcedureRequest</text>		</g>
		<g id="shape384-211" transform="translate(489.685,-120.472)">
			<title>Dynamic connector.384</title>
			<path d="M0 1172.13 L0 1155.12 L113.39 1155.12 L113.39 1150.67" class="st2"/>
		</g>
		<g id="shape385-216" transform="translate(460.63,-120.472)">
			<title>Dynamic connector.385</title>
			<path d="M0 1165.6 L0 1165.24 L0 1150.67" class="st15"/>
		</g>
		<g id="shape386-224" transform="translate(318.898,-99.2126)">
			<title>Dynamic connector.386</title>
			<path d="M99.21 1172.13 L0 1172.13 L0 1129.41" class="st2"/>
		</g>
		<g id="shape375-229" transform="translate(418.11,-77.9528)">
			<title>Shape375</title>
			<desc>Observation (Test Result)</desc>
			<rect x="0" y="1129.61" width="85.0394" height="42.5197" class="st4"/>
			<text x="18.59" y="1147.98" class="st5">Observation <tspan x="18.15" dy="1.2em" class="st7">(Test Result)</tspan></text>		</g>
		<g id="shape377-233" transform="translate(559.843,-148.819)">
			<title>Shape377</title>
			<desc>Specimen</desc>
			<rect x="0" y="1129.61" width="85.0394" height="42.5197" class="st4"/>
			<text x="23.48" y="1153.75" class="st5">Specimen</text>		</g>
		<g id="shape387-236" transform="translate(503.15,-98.5039)">
			<title>Dynamic connector.387</title>
			<path d="M141.73 945.35 L156.61 945.35 L156.61 1172.13 L6.89 1172.13" class="st2"/>
		</g>
		<g id="shape389-241" transform="translate(482.598,-277.087)">
			<title>Dynamic connector.389</title>
			<path d="M77.24 1123.94 L41.81 1123.94 L41.81 1155.83 L0 1155.83 L0 1165.24" class="st2"/>
		</g>
		<g id="shape390-246" transform="translate(481.89,-191.339)">
			<title>Dynamic connector.390</title>
			<path d="M121.18 1058.74 L121.18 1084.25 L42.52 1084.25 L42.52 1155.12 L0 1155.12 L0 1165.24" class="st2"/>
		</g>
		<g id="shape388-251" transform="translate(559.843,-304.724)">
			<title>Shape388</title>
			<desc>Observation (Test Report Filing)</desc>
			<rect x="0" y="1129.61" width="85.0394" height="42.5197" class="st4"/>
			<text x="18.59" y="1147.98" class="st5">Observation <tspan x="5.51" dy="1.2em" class="st7">(Test Report Filing)</tspan></text>		</g>
		<g id="shape379-255" transform="translate(276.378,-148.819)">
			<title>Shape379</title>
			<desc>DocumentReference (Test Result)</desc>
			<rect x="0" y="1129.61" width="85.0394" height="42.5197" class="st4"/>
			<text x="7.95" y="1148.39" class="st14">DocumentReference <tspan x="21.63" dy="1.2em" class="st7">(Test Result)</tspan></text>		</g>
		<g id="shape381-259" transform="translate(276.378,-304.724)">
			<title>Shape381</title>
			<desc>DocumentReference (Test Report)</desc>
			<rect x="0" y="1129.61" width="85.0394" height="42.5197" class="st4"/>
			<text x="7.95" y="1148.39" class="st14">DocumentReference <tspan x="20.58" dy="1.2em" class="st7">(Test Report)</tspan></text>		</g>
		<g id="shape391-263" transform="translate(170.787,-980.079)">
			<title>Dynamic connector.391</title>
			<path d="M0 1171.42 L197.72 1171.42 L382.16 1171.42" class="st16"/>
		</g>
		<g id="shape392-269" transform="translate(85.748,-959.528)">
			<title>Shape392</title>
			<desc>List (Medications and Medical Devices)</desc>
			<rect x="0" y="1129.61" width="85.0394" height="42.5197" class="st18"/>
			<text x="35.9" y="1142.2" class="st5">List <tspan x="8.47" dy="1.2em" class="st7">(Medications and </tspan><tspan
						x="9.45" dy="1.2em" class="st7">Medical Devices)</tspan></text>		</g>
		<g id="shape393-274" transform="translate(170.079,-739.134)">
			<title>Dynamic connector.393</title>
			<path d="M0 1171.42 L184.25 1171.42 L241.14 1171.42" class="st16"/>
		</g>
		<g id="shape394-279" transform="translate(85.0394,-718.583)">
			<title>Shape394</title>
			<desc>List (Allergies)</desc>
			<rect x="0" y="1129.61" width="85.0394" height="42.5197" class="st18"/>
			<text x="35.9" y="1147.98" class="st5">List <tspan x="22.89" dy="1.2em" class="st7">(Allergies)</tspan></text>		</g>
		<g id="shape395-283" transform="translate(544.252,-986.457)">
			<title>Shape395</title>
			<desc>0..*</desc>
			<rect x="0" y="1162.91" width="13.4646" height="9.2126" class="st11"/>
			<text x="1.02" y="1169.79" class="st12">0<tspan class="st19">..*</tspan></text>		</g>
		<g id="shape396-287" transform="translate(177.52,-986.457)">
			<title>Shape396</title>
			<desc>0..1</desc>
			<rect x="0" y="1162.91" width="13.4646" height="9.2126" class="st11"/>
			<text x="0.99" y="1169.79" class="st12">0<tspan class="st19">..1</tspan></text>		</g>
		<g id="shape397-291" transform="translate(170.787,-668.268)">
			<title>Dynamic connector.397</title>
			<path d="M0 1171.42 L190.63 1171.42 L240.43 1171.42" class="st16"/>
		</g>
		<g id="shape398-296" transform="translate(85.748,-647.717)">
			<title>Shape398</title>
			<desc>List (Immunisations)</desc>
			<rect x="0" y="1129.61" width="85.0394" height="42.5197" class="st18"/>
			<text x="35.9" y="1147.98" class="st5">List <tspan x="10.69" dy="1.2em" class="st7">(Immunisations)</tspan></text>		</g>
		<g id="shape399-300" transform="translate(170.079,-597.402)">
			<title>Dynamic connector.399</title>
			<path d="M0 1171.42 L63.78 1171.42 L241.14 1171.42" class="st16"/>
		</g>
		<g id="shape400-305" transform="translate(85.0394,-575.433)">
			<title>Shape400</title>
			<desc>List (Uncategorised)</desc>
			<rect x="0" y="1129.61" width="85.0394" height="42.5197" class="st18"/>
			<text x="35.9" y="1147.98" class="st5">List <tspan x="11.25" dy="1.2em" class="st7">(Uncategorised)</tspan></text>		</g>
		<g id="shape401-309" transform="translate(170.787,-526.535)">
			<title>Dynamic connector.401</title>
			<path d="M0 1171.42 L63.07 1171.42 L240.43 1171.42" class="st16"/>
		</g>
		<g id="shape402-314" transform="translate(85.748,-505.276)">
			<title>Shape402</title>
			<desc>List (Referralls)</desc>
			<rect x="0" y="1129.61" width="85.0394" height="42.5197" class="st18"/>
			<text x="35.9" y="1147.98" class="st5">List <tspan x="20.98" dy="1.2em" class="st7">(Referralls)</tspan></text>		</g>
		<g id="shape403-318" transform="translate(170.079,-457.087)">
			<title>Dynamic connector.403</title>
			<path d="M0 1171.42 L184.25 1171.42 L241.14 1171.42" class="st16"/>
		</g>
		<g id="shape404-323" transform="translate(85.0394,-436.535)">
			<title>Shape404</title>
			<desc>List (Documents)</desc>
			<rect x="0" y="1129.61" width="85.0394" height="42.5197" class="st18"/>
			<text x="35.9" y="1147.98" class="st5">List <tspan x="17.28" dy="1.2em" class="st7">(Documents)</tspan></text>		</g>
		<g id="shape405-327" transform="translate(177.52,-744.803)">
			<title>Shape405</title>
			<desc>0..1</desc>
			<rect x="0" y="1162.91" width="13.4646" height="9.2126" class="st11"/>
			<text x="0.99" y="1169.79" class="st12">0<tspan class="st19">..1</tspan></text>		</g>
		<g id="shape406-331" transform="translate(177.52,-673.937)">
			<title>Shape406</title>
			<desc>0..1</desc>
			<rect x="0" y="1162.91" width="13.4646" height="9.2126" class="st11"/>
			<text x="0.99" y="1169.79" class="st12">0<tspan class="st19">..1</tspan></text>		</g>
		<g id="shape407-335" transform="translate(177.52,-603.071)">
			<title>Shape407</title>
			<desc>0..1</desc>
			<rect x="0" y="1162.91" width="13.4646" height="9.2126" class="st11"/>
			<text x="0.99" y="1169.79" class="st12">0<tspan class="st19">..1</tspan></text>		</g>
		<g id="shape408-339" transform="translate(177.52,-530.079)">
			<title>Shape408</title>
			<desc>0..1</desc>
			<rect x="0" y="1162.91" width="13.4646" height="9.2126" class="st11"/>
			<text x="0.99" y="1169.79" class="st12">0<tspan class="st19">..1</tspan></text>		</g>
		<g id="shape409-343" transform="translate(177.52,-461.339)">
			<title>Shape409</title>
			<desc>0..1</desc>
			<rect x="0" y="1162.91" width="13.4646" height="9.2126" class="st11"/>
			<text x="0.99" y="1169.79" class="st12">0<tspan class="st19">..1</tspan></text>		</g>
		<g id="shape410-347" transform="translate(170.079,-243.78)">
			<title>Dynamic connector.410</title>
			<path d="M0 1171.42 L184.25 1171.42 L241.14 1171.42" class="st16"/>
		</g>
		<g id="shape411-352" transform="translate(85.0394,-223.228)">
			<title>Shape411</title>
			<desc>List (Investigations)</desc>
			<rect x="0" y="1129.61" width="85.0394" height="42.5197" class="st18"/>
			<text x="35.9" y="1147.98" class="st5">List <tspan x="12.46" dy="1.2em" class="st7">(Investigations)</tspan></text>		</g>
		<g id="shape412-356" transform="translate(170.079,-1037.48)">
			<title>Dynamic connector.412</title>
			<path d="M0 1171.42 L42.72 1171.42" class="st16"/>
		</g>
		<g id="shape413-361" transform="translate(85.0394,-1016.93)">
			<title>Shape413</title>
			<desc>List (Query Response)</desc>
			<rect x="0" y="1129.61" width="85.0394" height="42.5197" class="st18"/>
			<text x="35.9" y="1147.98" class="st5">List <tspan x="7.74" dy="1.2em" class="st7">(Query Response)</tspan></text>		</g>
		<g id="shape357-365" transform="translate(418.11,-384.094)">
			<title>Shape357</title>
			<desc>ProcedureRequest (Diary Entries)</desc>
			<rect x="0" y="1129.61" width="85.0394" height="42.5197" class="st4"/>
			<text x="11.48" y="1148.39" class="st14">ProcedureRequest <tspan x="18.71" dy="1.2em" class="st7">(Diary Entries)</tspan></text>		</g>
		<g id="shape414-369" transform="translate(170.079,-392.598)">
			<title>Dynamic connector.414</title>
			<path d="M0 1171.42 L120.47 1171.42 L241.14 1171.42" class="st16"/>
		</g>
		<g id="shape415-374" transform="translate(85.0394,-372.047)">
			<title>Shape415</title>
			<desc>List (Diary Entries)</desc>
			<rect x="0" y="1129.61" width="85.0394" height="42.5197" class="st18"/>
			<text x="35.9" y="1147.98" class="st5">List <tspan x="14.74" dy="1.2em" class="st7">(Diary Entries)</tspan></text>		</g>
		<g id="shape416-378" transform="translate(177.52,-396.142)">
			<title>Shape416</title>
			<desc>0..1</desc>
			<rect x="0" y="1162.91" width="13.4646" height="9.2126" class="st11"/>
			<text x="0.99" y="1169.79" class="st12">0<tspan class="st19">..1</tspan></text>		</g>
		<g id="shape417-382" transform="translate(544.252,-970.157)">
			<title>Shape417</title>
			<desc>1..1</desc>
			<rect x="0" y="1162.91" width="13.4646" height="9.2126" class="st11"/>
			<text x="0.99" y="1169.79" class="st12">1<tspan class="st20">..1</tspan></text>		</g>
		<g id="shape418-386" transform="translate(262.913,-1036.06)">
			<title>Dynamic connector.418</title>
			<path d="M0 1148.74 L0 1120.39 L67.32 1120.39 L67.32 1172.13 L46.58 1172.13" class="st8"/>
		</g>
		<g id="shape419-391" transform="translate(389.764,-391.181)">
			<title>Shape419</title>
			<desc>0..*</desc>
			<rect x="0" y="1155.12" width="21.2598" height="17.0079" class="st11"/>
			<text x="4.92" y="1165.89" class="st12">0..*</text>		</g>
		<g id="shape420-394" transform="translate(389.764,-405)">
			<title>Shape420</title>
			<desc>0..1</desc>
			<rect x="0" y="1155.12" width="21.2598" height="17.0079" class="st11"/>
			<text x="4.89" y="1165.89" class="st12">0..1</text>		</g>
		<g id="shape421-397" transform="translate(389.764,-442.205)">
			<title>Shape421</title>
			<desc>0..*</desc>
			<rect x="0" y="1155.12" width="21.2598" height="17.0079" class="st11"/>
			<text x="4.92" y="1165.89" class="st12">0..*</text>		</g>
		<g id="shape422-400" transform="translate(389.764,-377.717)">
			<title>Shape422</title>
			<desc>0..*</desc>
			<rect x="0" y="1155.12" width="21.2598" height="17.0079" class="st11"/>
			<text x="4.92" y="1165.89" class="st12">0..*</text>		</g>
		<g id="shape423-403" transform="translate(461.339,-576.85)">
			<title>Dynamic connector.423</title>
			<path d="M0 1156.54 L0 1172.13 L72.99 1172.13 L72.99 1136.69 L50.12 1136.69" class="st2"/>
		</g>
		<g id="shape424-408" transform="translate(177.52,-1042.44)">
			<title>Shape424</title>
			<desc>1..1</desc>
			<rect x="0" y="1162.91" width="13.4646" height="9.2126" class="st11"/>
			<text x="0.99" y="1169.79" class="st12">1<tspan class="st19">..1</tspan></text>		</g>
		<g id="shape425-412" transform="translate(199.134,-1024.72)">
			<title>Shape425</title>
			<desc>0..*</desc>
			<rect x="0" y="1162.91" width="13.4646" height="9.2126" class="st11"/>
			<text x="1.02" y="1169.79" class="st12">0<tspan class="st19">..*</tspan></text>		</g>
		<g id="shape426-416" transform="translate(440.787,-295.512)">
			<title>Shape426</title>
			<desc>0..1</desc>
			<rect x="0" y="1162.91" width="13.4646" height="9.2126" class="st11"/>
			<text x="0.99" y="1169.79" class="st12">0..1</text>		</g>
		<g id="shape427-419" transform="translate(462.756,-277.795)">
			<title>Shape427</title>
			<desc>1..1</desc>
			<rect x="0" y="1162.91" width="13.4646" height="9.2126" class="st11"/>
			<text x="0.99" y="1169.79" class="st12">1..1</text>		</g>
		<g id="shape428-422" transform="translate(488.976,-284.173)">
			<title>Shape428</title>
			<desc>0..1</desc>
			<rect x="0" y="1162.91" width="13.4646" height="9.2126" class="st11"/>
			<text x="0.99" y="1169.79" class="st12">0..1</text>		</g>
		<g id="shape429-425" transform="translate(543.543,-315.354)">
			<title>Shape429</title>
			<desc>0..1</desc>
			<rect x="0" y="1162.91" width="13.4646" height="9.2126" class="st11"/>
			<text x="0.99" y="1169.79" class="st12">0..1</text>		</g>
		<g id="shape430-428" transform="translate(586.063,-295.512)">
			<title>Shape430</title>
			<desc>0..1</desc>
			<rect x="0" y="1162.91" width="13.4646" height="9.2126" class="st11"/>
			<text x="0.99" y="1169.79" class="st12">0..1</text>		</g>
		<g id="shape431-431" transform="translate(648.425,-327.402)">
			<title>Shape431</title>
			<desc>0..1</desc>
			<rect x="0" y="1162.91" width="13.4646" height="9.2126" class="st11"/>
			<text x="0.99" y="1169.79" class="st12">0..1</text>		</g>
		<g id="shape432-434" transform="translate(610.157,-138.189)">
			<title>Shape432</title>
			<desc>0..*</desc>
			<rect x="0" y="1162.91" width="13.4646" height="9.2126" class="st11"/>
			<text x="1.02" y="1169.79" class="st12">0..*</text>		</g>
		<g id="shape433-437" transform="translate(447.165,-223.937)">
			<title>Shape433</title>
			<desc>1..1</desc>
			<rect x="0" y="1162.91" width="13.4646" height="9.2126" class="st11"/>
			<text x="0.99" y="1169.79" class="st12">1..1</text>		</g>
		<g id="shape434-440" transform="translate(433.701,-223.937)">
			<title>Shape434</title>
			<desc>0..1</desc>
			<rect x="0" y="1162.91" width="13.4646" height="9.2126" class="st11"/>
			<text x="0.99" y="1169.79" class="st12">0..1</text>		</g>
		<g id="shape435-443" transform="translate(542.835,-153.78)">
			<title>Shape435</title>
			<desc>0..*</desc>
			<rect x="0" y="1162.91" width="13.4646" height="9.2126" class="st11"/>
			<text x="1.02" y="1169.79" class="st12">0..*</text>		</g>
		<g id="shape436-446" transform="translate(465.591,-122.598)">
			<title>Shape436</title>
			<desc>0..*</desc>
			<rect x="0" y="1162.91" width="13.4646" height="9.2126" class="st11"/>
			<text x="1.02" y="1169.79" class="st12">0..*</text>		</g>
		<g id="shape437-449" transform="translate(440.787,-140.315)">
			<title>Shape437</title>
			<desc>0..1</desc>
			<rect x="0" y="1162.91" width="13.4646" height="9.2126" class="st11"/>
			<text x="0.99" y="1169.79" class="st12">0..1</text>		</g>
		<g id="shape438-452" transform="translate(402.52,-114.803)">
			<title>Shape438</title>
			<desc>0..*</desc>
			<rect x="0" y="1162.91" width="13.4646" height="9.2126" class="st11"/>
			<text x="1.02" y="1169.79" class="st12">0..*</text>		</g>
		<g id="shape439-455" transform="translate(512.362,-99.9213)">
			<title>Shape439</title>
			<desc>0..1</desc>
			<rect x="0" y="1162.91" width="13.4646" height="9.2126" class="st11"/>
			<text x="0.99" y="1169.79" class="st12">0..1</text>		</g>
		<g id="shape440-458" transform="translate(491.811,-122.598)">
			<title>Shape440</title>
			<desc>1..1</desc>
			<rect x="0" y="1162.91" width="13.4646" height="9.2126" class="st11"/>
			<text x="0.99" y="1169.79" class="st12">1..1</text>		</g>
		<g id="shape441-461" transform="translate(505.276,-172.913)">
			<title>Shape441</title>
			<desc>1..1</desc>
			<rect x="0" y="1162.91" width="13.4646" height="9.2126" class="st11"/>
			<text x="0.99" y="1169.79" class="st12">1..1</text>		</g>
		<g id="shape442-464" transform="translate(488.268,-199.134)">
			<title>Shape442</title>
			<desc>0..1</desc>
			<rect x="0" y="1162.91" width="13.4646" height="9.2126" class="st11"/>
			<text x="0.99" y="1169.79" class="st12">0..1</text>		</g>
		<g id="shape443-467" transform="translate(463.465,-199.843)">
			<title>Shape443</title>
			<desc>0..*</desc>
			<rect x="0" y="1162.91" width="13.4646" height="9.2126" class="st11"/>
			<text x="1.02" y="1169.79" class="st12">0..*</text>		</g>
		<g id="shape444-470" transform="translate(177.52,-249.094)">
			<title>Shape444</title>
			<desc>0..1</desc>
			<rect x="0" y="1162.91" width="13.4646" height="9.2126" class="st11"/>
			<text x="0.99" y="1169.79" class="st12">0<tspan class="st19">..1</tspan></text>		</g>
		<g id="shape445-474" transform="translate(468.425,-1016.93)">
			<title>Shape445</title>
			<desc>Include a MedicationStatement, MedicationRequest (plan) and M...</desc>
			<rect x="0" y="1121.1" width="204.803" height="51.0236" class="st21"/>
			<text x="1.42" y="1139.19" class="st14">Include a MedicationStatement, MedicationRequest (plan) <tspan x="1.42"
						dy="1.2em" class="st6">and Medication profile for each Medication or Medical </tspan><tspan x="1.42"
						dy="1.2em" class="st6">Device plan or </tspan>issue directly linked to the consultation</text>		</g>
		<g id="shape446-479" transform="translate(467.717,-924.803)">
			<title>Dynamic connector.446</title>
			<path d="M27.64 1070.08 L0 1172.13" class="st22"/>
		</g>
		<g id="shape447-485" transform="translate(517.373,-919.134)">
			<title>Dynamic connector.447</title>
			<path d="M0 1064.43 L38.22 1172.13" class="st22"/>
		</g>
		<g id="shape448-490" transform="translate(559.843,-990.709)">
			<title>Dynamic connector.448</title>
			<path d="M0 1138.11 L15.59 1172.13" class="st22"/>
		</g>
		<g id="shape449-495" transform="translate(532.913,-775.276)">
			<title>Shape449</title>
			<desc>Include a MedicationRequest(issue) profile for each Medicatio...</desc>
			<rect x="0" y="1126.77" width="151.654" height="45.3543" class="st21"/>
			<text x="1.42" y="1142.02" class="st14">Include a MedicationRequest(issue) profile <tspan x="1.42" dy="1.2em"
						class="st6">for each Medication or Medical Device issue </tspan><tspan x="1.42" dy="1.2em" class="st6">directly linked to the consultation</tspan></text>		</g>
		<g id="shape450-500" transform="translate(505.984,-803.622)">
			<title>Dynamic connector.450</title>
			<path d="M25.51 1172.13 L0 1157.24" class="st22"/>
		</g>
		<g id="shape451-505" transform="translate(536.457,-726.378)">
			<title>Shape451</title>
			<desc>Include an AllergyIntolerance profile for each allergy linked...</desc>
			<rect x="0" y="1149.45" width="141.732" height="22.6772" class="st21"/>
			<text x="1.42" y="1158.31" class="st14">Include an AllergyIntolerance profile for <tspan x="1.42" dy="1.2em"
						class="st6">each allergy linked to the consultation</tspan></text>		</g>
		<g id="shape452-509" transform="translate(501.024,-738.425)">
			<title>Dynamic connector.452</title>
			<path d="M35.43 1172.13 L0 1157.24" class="st22"/>
		</g>
		<g id="shape453-514" transform="translate(539.291,-654.449)">
			<title>Shape453</title>
			<desc>Include an Immunization profile for each immunisation linked ...</desc>
			<rect x="0" y="1149.45" width="147.402" height="22.6772" class="st21"/>
			<text x="1.42" y="1158.31" class="st14">Include an Immunization profile for each <tspan x="1.42" dy="1.2em" class="st6">immunisation linked to the consultation</tspan></text>		</g>
		<g id="shape454-518" transform="translate(503.858,-667.913)">
			<title>Dynamic connector.454</title>
			<path d="M35.43 1172.13 L0 1157.24" class="st22"/>
		</g>
		<g id="shape455-523" transform="translate(551.339,-566.929)">
			<title>Shape455</title>
			<desc>Include an Observation profile for each uncategorised data li...</desc>
			<rect x="0" y="1133.86" width="134.646" height="38.2677" class="st21"/>
			<text x="1.42" y="1145.57" class="st14">Include an Observation profile for each <tspan x="1.42" dy="1.2em" class="st6">uncategorised data linked to the </tspan><tspan
						x="1.42" dy="1.2em" class="st6">consultation</tspan></text>		</g>
		<g id="shape456-528" transform="translate(504.213,-591.024)">
			<title>Dynamic connector.456</title>
			<path d="M41.46 1172.13 L0 1167.87" class="st22"/>
		</g>
		<g id="shape457-533" transform="translate(535.748,-510.236)">
			<title>Shape457</title>
			<desc>Include a ReferralRequest profile for each referral data link...</desc>
			<rect x="0" y="1133.86" width="148.819" height="38.2677" class="st21"/>
			<text x="1.42" y="1150.52" class="st14">Include a ReferralRequest profile for each <tspan x="1.42" dy="1.2em"
						class="st6">referral data linked to the consultation</tspan></text>		</g>
		<g id="shape458-537" transform="translate(501.024,-529.37)">
			<title>Dynamic connector.458</title>
			<path d="M36.14 1172.13 L0 1163.62" class="st22"/>
		</g>
		<g id="shape459-542" transform="translate(536.457,-438.661)">
			<title>Shape459</title>
			<desc>Include a DocumentReference profile containing metadata only ...</desc>
			<rect x="0" y="1133.86" width="150.236" height="38.2677" class="st21"/>
			<text x="1.42" y="1145.57" class="st14">Include a DocumentReference profile <tspan x="1.42" dy="1.2em" class="st6">containing metadata only for each </tspan><tspan
						x="1.42" dy="1.2em" class="st6">document linked to the consultation</tspan></text>		</g>
		<g id="shape460-547" transform="translate(501.732,-459.921)">
			<title>Dynamic connector.460</title>
			<path d="M36.85 1172.13 L0 1163.62" class="st22"/>
		</g>
		<g id="shape461-552" transform="translate(533.622,-376.299)">
			<title>Shape461</title>
			<desc>Include a ProcedureRequest profile for each diary entry data ...</desc>
			<rect x="0" y="1133.86" width="153.071" height="38.2677" class="st21"/>
			<text x="1.42" y="1150.52" class="st14">Include a ProcedureRequest profile for each <tspan x="1.42" dy="1.2em"
						class="st6">diary entry data linked to the consultation</tspan></text>		</g>
		<g id="shape462-556" transform="translate(503.15,-395.433)">
			<title>Dynamic connector.462</title>
			<path d="M29.06 1172.13 L0 1163.62" class="st22"/>
		</g>
		<g id="shape463-561" transform="translate(503.15,-230.315)">
			<title>Dynamic connector.463</title>
			<path d="M34.02 1172.13 L0 1166.46" class="st22"/>
		</g>
		<g id="shape464-566" transform="translate(533.622,-216.142)">
			<title>Shape464</title>
			<desc>Include a DiagnosticReport for each Investigation linked to t...</desc>
			<rect x="0" y="1143.78" width="144.567" height="28.3465" class="st21"/>
			<text x="1.42" y="1155.48" class="st14">Include a DiagnosticReport for each <tspan x="1.42" dy="1.2em" class="st6">Investigation linked to the consultation.</tspan></text>		</g>
		<g id="shape465-570" transform="translate(546.378,-48.189)">
			<title>Shape465</title>
			<desc>Include all the ProcedureRequests, Observations, Specimens an...</desc>
			<rect x="0" y="1133.86" width="194.173" height="38.2677" class="st21"/>
			<text x="1.42" y="1145.57" class="st14">Include all the ProcedureRequests, Observations, <tspan x="1.42" dy="1.2em"
						class="st6">Specimens and DocumentReferences (metadata only) </tspan><tspan x="1.42" dy="1.2em" class="st6">related to the diagnostic report</tspan></text>		</g>
		<g id="shape466-575" transform="translate(251.575,-1094.17)">
			<title>Shape466</title>
			<desc>In addition a ProblemHeader for the returned problem include ...</desc>
			<rect x="0" y="1143.78" width="250.866" height="28.3465" class="st24"/>
			<text x="1.42" y="1155.48" class="st14">In addition a ProblemHeader for the returned problem include a <tspan x="1.42"
						dy="1.2em" class="st6">ProblemHeader profile for each linked Problem</tspan></text>		</g>
		<g id="shape467-579" transform="translate(245.906,-1059.45)">
			<title>Dynamic connector.467</title>
			<path d="M9.21 1137.4 L0 1172.13" class="st22"/>
		</g>
		<g id="shape468-584" transform="translate(512.717,-615.118)">
			<title>Shape468</title>
			<desc>0..*</desc>
			<rect x="0" y="1162.91" width="13.4646" height="9.2126" class="st11"/>
			<text x="1.02" y="1169.79" class="st12">0<tspan class="st20">..*</tspan></text>		</g>
		<g id="shape469-588" transform="translate(391.181,-271.417)">
			<title>Shape469</title>
			<desc>0..1</desc>
			<rect x="0" y="1155.12" width="21.2598" height="17.0079" class="st11"/>
			<text x="4.89" y="1165.89" class="st12">0..1</text>		</g>
	</g>
</svg>
