<?xml version="1.0" encoding="UTF-8" standalone="no"?>
<!DOCTYPE svg PUBLIC "-//W3C//DTD SVG 1.1//EN" "http://www.w3.org/Graphics/SVG/1.1/DTD/svg11.dtd">
<!-- Generated by Microsoft Visio, SVG Export Problem_Return.svg Page-1 -->
<svg xmlns="http://www.w3.org/2000/svg" xmlns:xlink="http://www.w3.org/1999/xlink" xmlns:ev="http://www.w3.org/2001/xml-events"
		width="9.11475in" height="15.4234in" viewBox="0 0 656.262 1110.49" xml:space="preserve" color-interpolation-filters="sRGB"
		class="st25">
	<style type="text/css">
	<![CDATA[
		.st1 {fill:none;stroke:#0070c0;stroke-dasharray:4.25197,4.25197;stroke-linecap:round;stroke-linejoin:round;stroke-width:1.41732}
		.st2 {marker-end:url(#mrkr5-10);stroke:#4672c4;stroke-linecap:round;stroke-linejoin:round;stroke-width:1.41732}
		.st3 {fill:#4672c4;fill-opacity:1;stroke:#4672c4;stroke-opacity:1;stroke-width:0.35997120230382}
		.st4 {fill:#4672c4;stroke:#c8c8c8;stroke-linecap:round;stroke-linejoin:round;stroke-width:0.75}
		.st5 {fill:#feffff;font-family:Calibri;font-size:0.801979em}
		.st6 {font-size:1em}
		.st7 {marker-end:url(#mrkr5-51);stroke:#70ad47;stroke-linecap:round;stroke-linejoin:round;stroke-width:1.41732}
		.st8 {fill:#70ad47;fill-opacity:1;stroke:#70ad47;stroke-opacity:1;stroke-width:0.35997120230382}
		.st9 {fill:#70ad47;stroke:#c8c8c8;stroke-linecap:round;stroke-linejoin:round;stroke-width:0.75}
		.st10 {fill:none;stroke:none;stroke-linecap:round;stroke-linejoin:round;stroke-width:0.75}
		.st11 {fill:#00b050;font-family:Calibri;font-size:0.630112em}
		.st12 {fill:#feffff;font-family:Calibri;font-size:0.687401em}
		.st13 {marker-end:url(#mrkr5-10);marker-start:url(#mrkr5-222);stroke:#4672c4;stroke-linecap:round;stroke-linejoin:round;stroke-width:1.41732}
		.st14 {marker-end:url(#mrkr5-268);stroke:#7030a0;stroke-linecap:round;stroke-linejoin:round;stroke-width:1.41732}
		.st15 {fill:#7030a0;fill-opacity:1;stroke:#7030a0;stroke-opacity:1;stroke-width:0.35997120230382}
		.st16 {fill:#7030a0;stroke:#c8c8c8;stroke-linecap:round;stroke-linejoin:round;stroke-width:0.75}
		.st17 {fill:#7030a0;font-family:Calibri;font-size:0.630112em}
		.st18 {fill:#4672c4;font-family:Calibri;font-size:0.630112em}
		.st19 {fill:#ffffff;stroke:none;stroke-linecap:butt;stroke-width:7.2}
		.st20 {fill:#feffff;stroke:none;stroke-linecap:round;stroke-linejoin:round;stroke-width:0.75}
		.st21 {fill:#000000;font-family:Calibri;font-size:0.687401em}
		.st22 {marker-end:url(#mrkr1-476);stroke:#000000;stroke-linecap:round;stroke-linejoin:round;stroke-width:1.41732}
		.st23 {fill:#000000;fill-opacity:1;stroke:#000000;stroke-opacity:1;stroke-width:0.35997120230382}
		.st24 {fill:#ffffff;stroke:none;stroke-linecap:round;stroke-linejoin:round;stroke-width:0.75}
		.st25 {fill:none;fill-rule:evenodd;font-size:12px;overflow:visible;stroke-linecap:square;stroke-miterlimit:3}
	]]>
	</style>

	<defs id="Markers">
		<g id="lend5">
			<path d="M 2 1 L 0 0 L 1.98117 -0.993387 C 1.67173 -0.364515 1.67301 0.372641 1.98465 1.00043 " style="stroke:none"/>
		</g>
		<marker id="mrkr5-10" class="st3" refX="-4.8615" orient="auto" markerUnits="strokeWidth" overflow="visible">
			<use xlink:href="#lend5" transform="scale(-2.778,-2.778) "/>
		</marker>
		<marker id="mrkr5-51" class="st8" refX="-4.8615" orient="auto" markerUnits="strokeWidth" overflow="visible">
			<use xlink:href="#lend5" transform="scale(-2.778,-2.778) "/>
		</marker>
		<marker id="mrkr5-222" class="st3" refX="4.6075" orient="auto" markerUnits="strokeWidth" overflow="visible">
			<use xlink:href="#lend5" transform="scale(2.778) "/>
		</marker>
		<marker id="mrkr5-268" class="st15" refX="-4.8615" orient="auto" markerUnits="strokeWidth" overflow="visible">
			<use xlink:href="#lend5" transform="scale(-2.778,-2.778) "/>
		</marker>
		<g id="lend1">
			<path d="M 1 -1 L 0 0 L 1 1 " style="stroke-linecap:round;stroke-linejoin:round;fill:none"/>
		</g>
		<marker id="mrkr1-476" class="st23" orient="auto" markerUnits="strokeWidth" overflow="visible">
			<use xlink:href="#lend1" transform="scale(-2.778,-2.778) "/>
		</marker>
	</defs>
	<g>
		<title>Page-1</title>
		<g id="shape332-1" transform="translate(305.099,-771.745)">
			<title>Shape332</title>
			<path d="M0 1110.49 L283.46 1110.49 L283.46 897.89 L0 897.89 L0 1110.49 Z" class="st1"/>
		</g>
		<g id="shape333-3" transform="translate(177.54,-48.9102)">
			<title>Shape333</title>
			<path d="M0 1110.49 L418.11 1110.49 L418.11 815.68 L0 815.68 L0 1110.49 Z" class="st1"/>
		</g>
		<g id="shape334-5" transform="translate(475.178,-949.146)">
			<title>Dynamic connector.334</title>
			<path d="M0 1110.49 L14.51 1110.49 L14.51 1135.02" class="st2"/>
		</g>
		<g id="shape336-11" transform="translate(595.276,-945.354)">
			<title>Dynamic connector.336</title>
			<path d="M7.09 1110.49 L7.09 1131.94" class="st2"/>
		</g>
		<g id="shape337-16" transform="translate(475.178,-927.65)">
			<title>Shape337</title>
			<desc>Medication Statement</desc>
			<rect x="0" y="1067.97" width="85.0394" height="42.5197" class="st4"/>
			<text x="20.26" y="1086.34" class="st5">Medication <tspan x="22.01" dy="1.2em" class="st6">Statement</tspan></text>		</g>
		<g id="shape339-20" transform="translate(503.15,-888.661)">
			<title>Dynamic connector.339</title>
			<path d="M0 1103.4 L49.8 1103.4" class="st2"/>
		</g>
		<g id="shape335-25" transform="translate(333.446,-856.784)">
			<title>Shape335</title>
			<desc>MedicationRequest (Intent = Plan)</desc>
			<rect x="0" y="1067.97" width="85.0394" height="42.5197" class="st4"/>
			<text x="4.31" y="1086.34" class="st5">MedicationRequest <tspan x="14.72" dy="1.2em" class="st6">(Intent = Plan)</tspan></text>		</g>
		<g id="shape340-29" transform="translate(503.15,-824.882)">
			<title>Dynamic connector.340</title>
			<path d="M0 1110.49 L99.92 1110.49 L99.92 1064.93" class="st2"/>
		</g>
		<g id="shape342-34" transform="translate(453.543,-846.142)">
			<title>Dynamic connector.342</title>
			<path d="M7.09 1110.49 L7.09 1089.03" class="st2"/>
		</g>
		<g id="shape341-39" transform="translate(333.446,-785.918)">
			<title>Shape341</title>
			<desc>MedicationRequest (Intent = Issue)</desc>
			<rect x="0" y="1067.97" width="85.0394" height="42.5197" class="st4"/>
			<text x="4.31" y="1086.34" class="st5">MedicationRequest <tspan x="13.24" dy="1.2em" class="st6">(Intent = Issue)</tspan></text>		</g>
		<g id="shape338-43" transform="translate(475.178,-856.784)">
			<title>Shape338</title>
			<desc>Medication</desc>
			<rect x="0" y="1067.97" width="85.0394" height="42.5197" class="st4"/>
			<text x="20.26" y="1092.11" class="st5">Medication</text>		</g>
		<g id="shape343-46" transform="translate(269.291,-1016.93)">
			<title>Dynamic connector.343</title>
			<path d="M0 1110.49 L0 1218.2 L141.93 1218.2" class="st7"/>
		</g>
		<g id="shape345-52" transform="translate(269.291,-1016.93)">
			<title>Dynamic connector.345</title>
			<path d="M0 1110.49 L0 1289.07 L141.93 1289.07" class="st7"/>
		</g>
		<g id="shape346-57" transform="translate(269.291,-1016.93)">
			<title>Dynamic connector.346</title>
			<path d="M0 1110.49 L0 1359.93 L141.93 1359.93" class="st7"/>
		</g>
		<g id="shape348-62" transform="translate(269.291,-1016.93)">
			<title>Dynamic connector.348</title>
			<path d="M0 1110.49 L0 1430.8 L141.93 1430.8" class="st7"/>
		</g>
		<g id="shape350-67" transform="translate(269.291,-1016.93)">
			<title>Dynamic connector.350</title>
			<path d="M0 1110.49 L0 1501.67 L141.93 1501.67" class="st7"/>
		</g>
		<g id="shape352-72" transform="translate(269.291,-1016.93)">
			<title>Dynamic connector.352</title>
			<path d="M0 1110.49 L0 1572.53 L141.93 1572.53" class="st7"/>
		</g>
		<g id="shape354-77" transform="translate(269.291,-1016.93)">
			<title>Dynamic connector.354</title>
			<path d="M0 1110.49 L0 1643.4 L141.93 1643.4" class="st7"/>
		</g>
		<g id="shape356-82" transform="translate(269.291,-1016.93)">
			<title>Dynamic connector.356</title>
			<path d="M0 1110.49 L0 1706.47 L141.93 1706.47" class="st7"/>
		</g>
		<g id="shape358-87" transform="translate(269.291,-1016.93)">
			<title>Dynamic connector.358</title>
			<path d="M0 1110.49 L0 1856 L141.93 1856" class="st7"/>
		</g>
		<g id="shape360-92" transform="translate(248.74,-1016.93)">
			<title>Dynamic connector.360</title>
			<path d="M0 1110.49 L0 1232.37 L17.55 1232.37 A3 3 0 0 1 23.55 1232.37 L162.48 1232.37" class="st7"/>
		</g>
		<g id="shape361-97" transform="translate(248.74,-1016.93)">
			<title>Dynamic connector.361</title>
			<path d="M0 1110.49 L0 1374.11 L17.55 1374.11 A3 3 0 0 1 23.55 1374.11 L162.48 1374.11" class="st7"/>
		</g>
		<g id="shape362-102" transform="translate(248.74,-1016.93)">
			<title>Dynamic connector.362</title>
			<path d="M0 1110.49 L0 1444.97 L17.55 1444.97 A3 3 0 0 1 23.55 1444.97 L162.48 1444.97" class="st7"/>
		</g>
		<g id="shape363-107" transform="translate(248.74,-1016.93)">
			<title>Dynamic connector.363</title>
			<path d="M0 1110.49 L0 1515.84 L17.55 1515.84 A3 3 0 0 1 23.55 1515.84 L162.48 1515.84" class="st7"/>
		</g>
		<g id="shape364-112" transform="translate(248.74,-1016.93)">
			<title>Dynamic connector.364</title>
			<path d="M0 1110.49 L0 1586.71 L17.55 1586.71 A3 3 0 0 1 23.55 1586.71 L162.48 1586.71" class="st7"/>
		</g>
		<g id="shape365-117" transform="translate(248.74,-1016.93)">
			<title>Dynamic connector.365</title>
			<path d="M0 1110.49 L0 1657.57 L17.55 1657.57 A3 3 0 0 1 23.55 1657.57 L162.48 1657.57" class="st7"/>
		</g>
		<g id="shape366-122" transform="translate(248.74,-1016.93)">
			<title>Dynamic connector.366</title>
			<path d="M0 1110.49 L0 1722.77 L17.55 1722.77 A3 3 0 0 1 23.55 1722.77 L162.48 1722.77" class="st7"/>
		</g>
		<g id="shape367-127" transform="translate(248.74,-1016.93)">
			<title>Dynamic connector.367</title>
			<path d="M0 1110.49 L0 1873 L162.48 1873" class="st7"/>
		</g>
		<g id="shape344-132" transform="translate(131.477,-999.225)">
			<title>Shape344</title>
			<desc>ProblemHeader (Condition)</desc>
			<rect x="0" y="1067.97" width="85.0394" height="42.5197" class="st9"/>
			<text x="11.65" y="1086.34" class="st5">ProblemHeader <tspan x="20.56" dy="1.2em" class="st6">(Condition)</tspan></text>		</g>
		<g id="shape347-136" transform="translate(333.446,-715.052)">
			<title>Shape347</title>
			<desc>AllergyIntolerance</desc>
			<rect x="0" y="1067.97" width="85.0394" height="42.5197" class="st4"/>
			<text x="6.68" y="1092.11" class="st5">AllergyIntolerance</text>		</g>
		<g id="shape349-139" transform="translate(333.446,-644.186)">
			<title>Shape349</title>
			<desc>Immunization</desc>
			<rect x="0" y="1067.97" width="85.0394" height="42.5197" class="st4"/>
			<text x="15.47" y="1092.11" class="st5">Immunization</text>		</g>
		<g id="shape351-142" transform="translate(333.446,-573.32)">
			<title>Shape351</title>
			<desc>Observation (Uncategorised)</desc>
			<rect x="0" y="1067.97" width="85.0394" height="42.5197" class="st4"/>
			<text x="18.59" y="1086.34" class="st5">Observation <tspan x="11.25" dy="1.2em" class="st6">(Uncategorised)</tspan></text>		</g>
		<g id="shape368-146" transform="translate(188.17,-968.753)">
			<title>Shape368</title>
			<desc>Primary Item</desc>
			<rect x="0" y="1092.06" width="56.6929" height="18.4252" class="st10"/>
			<text x="-5.67" y="1099" class="st11">Primary <tspan x="-5.67" dy="1.2em" class="st6">Item</tspan></text>		</g>
		<g id="shape369-150" transform="translate(99.5876,-968.753)">
			<title>Shape369</title>
			<desc>Associated Item</desc>
			<rect x="0" y="1092.06" width="56.6929" height="18.4252" class="st10"/>
			<text x="24.66" y="1099" class="st11">Associated <tspan x="43.52" dy="1.2em" class="st6">Item</tspan></text>		</g>
		<g id="shape353-154" transform="translate(333.446,-502.454)">
			<title>Shape353</title>
			<desc>ReferralRequest</desc>
			<rect x="0" y="1067.97" width="85.0394" height="42.5197" class="st4"/>
			<text x="10.93" y="1092.11" class="st5">ReferralRequest</text>		</g>
		<g id="shape355-157" transform="translate(333.446,-431.587)">
			<title>Shape355</title>
			<desc>DocumentReference (Metadata only)</desc>
			<rect x="0" y="1067.97" width="85.0394" height="42.5197" class="st4"/>
			<text x="7.95" y="1086.75" class="st12">DocumentReference <tspan x="15.5" dy="1.2em" class="st6">(Metadata only)</tspan></text>		</g>
		<g id="shape370-161" transform="translate(453.543,-276.378)">
			<title>Dynamic connector.370</title>
			<path d="M7.09 1110.49 L7.09 1089.03" class="st2"/>
		</g>
		<g id="shape372-166" transform="translate(453.543,-233.858)">
			<title>Dynamic connector.372</title>
			<path d="M7.09 1110.49 L7.09 1146.11" class="st2"/>
		</g>
		<g id="shape374-171" transform="translate(447.165,-233.858)">
			<title>Dynamic connector.374</title>
			<path d="M0 1110.49 L0 1129.62 L-4.34 1129.62 A3 3 -180 0 0 -10.34 1129.62 L-56.69 1129.62 L-56.69 1235.21 L-35.95 1235.21"
					class="st2"/>
		</g>
		<g id="shape376-176" transform="translate(481.89,-233.858)">
			<title>Dynamic connector.376</title>
			<path d="M0 1110.49 L0 1128.91 L39.52 1128.91 A3 3 0 1 1 45.52 1128.91 L121.18 1128.91 L121.18 1146.11" class="st2"/>
		</g>
		<g id="shape378-181" transform="translate(432.992,-233.858)">
			<title>Dynamic connector.378</title>
			<path d="M0 1110.49 L0 1121.82 L-113.39 1121.82 L-113.39 1146.11" class="st2"/>
		</g>
		<g id="shape380-186" transform="translate(432.992,-276.378)">
			<title>Dynamic connector.380</title>
			<path d="M0 1110.49 L0 1093.48 L-50.31 1093.48 L-50.31 1061.59 L-64.68 1061.59" class="st2"/>
		</g>
		<g id="shape359-191" transform="translate(333.446,-216.154)">
			<title>Shape359</title>
			<desc>DiagnosticReport</desc>
			<rect x="0" y="1067.97" width="85.0394" height="42.5197" class="st4"/>
			<text x="8.82" y="1092.11" class="st5">DiagnosticReport</text>		</g>
		<g id="shape382-194" transform="translate(418.11,-162.992)">
			<title>Dynamic connector.382</title>
			<path d="M0 1103.4 L-24.64 1103.4 A3 3 -180 0 0 -30.64 1103.4 L-49.8 1103.4" class="st2"/>
		</g>
		<g id="shape383-199" transform="translate(503.15,-162.992)">
			<title>Dynamic connector.383</title>
			<path d="M0 1103.4 L49.8 1103.4" class="st2"/>
		</g>
		<g id="shape373-204" transform="translate(333.446,-131.115)">
			<title>Shape373</title>
			<desc>Observation (Test Group)</desc>
			<rect x="0" y="1067.97" width="85.0394" height="42.5197" class="st4"/>
			<text x="18.59" y="1086.34" class="st5">Observation <tspan x="17.97" dy="1.2em" class="st6">(Test Group)</tspan></text>		</g>
		<g id="shape371-208" transform="translate(333.446,-287.02)">
			<title>Shape371</title>
			<desc>ProcedureRequest</desc>
			<rect x="0" y="1067.97" width="85.0394" height="42.5197" class="st4"/>
			<text x="6.31" y="1092.11" class="st5">ProcedureRequest</text>		</g>
		<g id="shape384-211" transform="translate(489.685,-120.472)">
			<title>Dynamic connector.384</title>
			<path d="M0 1110.49 L0 1093.48 L113.39 1093.48 L113.39 1089.03" class="st2"/>
		</g>
		<g id="shape385-216" transform="translate(453.543,-120.472)">
			<title>Dynamic connector.385</title>
			<path d="M7.09 1103.95 L7.09 1103.59 L7.09 1089.03" class="st13"/>
		</g>
		<g id="shape386-224" transform="translate(418.11,-99.2126)">
			<title>Dynamic connector.386</title>
			<path d="M0 1110.49 L-99.21 1110.49 L-99.21 1067.77" class="st2"/>
		</g>
		<g id="shape375-229" transform="translate(333.446,-60.2488)">
			<title>Shape375</title>
			<desc>Observation (Test Result)</desc>
			<rect x="0" y="1067.97" width="85.0394" height="42.5197" class="st4"/>
			<text x="18.59" y="1086.34" class="st5">Observation <tspan x="18.15" dy="1.2em" class="st6">(Test Result)</tspan></text>		</g>
		<g id="shape377-233" transform="translate(475.178,-131.115)">
			<title>Shape377</title>
			<desc>Specimen</desc>
			<rect x="0" y="1067.97" width="85.0394" height="42.5197" class="st4"/>
			<text x="23.48" y="1092.11" class="st5">Specimen</text>		</g>
		<g id="shape387-236" transform="translate(644.882,-325.276)">
			<title>Dynamic connector.387</title>
			<path d="M0 1110.49 L14.88 1110.49 L14.88 1337.26 L-134.84 1337.26" class="st2"/>
		</g>
		<g id="shape389-241" transform="translate(559.843,-325.276)">
			<title>Dynamic connector.389</title>
			<path d="M0 1110.49 L-35.43 1110.49 L-35.43 1142.37 L-77.24 1142.37 L-77.24 1151.78" class="st2"/>
		</g>
		<g id="shape390-246" transform="translate(603.071,-304.724)">
			<title>Dynamic connector.390</title>
			<path d="M0 1110.49 L0 1136 L-78.66 1136 L-78.66 1206.86 L-121.18 1206.86 L-121.18 1216.98" class="st2"/>
		</g>
		<g id="shape388-251" transform="translate(475.178,-287.02)">
			<title>Shape388</title>
			<desc>Observation (Test Report Filing)</desc>
			<rect x="0" y="1067.97" width="85.0394" height="42.5197" class="st4"/>
			<text x="18.59" y="1086.34" class="st5">Observation <tspan x="5.51" dy="1.2em" class="st6">(Test Report Filing)</tspan></text>		</g>
		<g id="shape379-255" transform="translate(191.714,-131.115)">
			<title>Shape379</title>
			<desc>DocumentReference (Test Result)</desc>
			<rect x="0" y="1067.97" width="85.0394" height="42.5197" class="st4"/>
			<text x="7.95" y="1086.75" class="st12">DocumentReference <tspan x="21.63" dy="1.2em" class="st6">(Test Result)</tspan></text>		</g>
		<g id="shape381-259" transform="translate(191.714,-287.02)">
			<title>Shape381</title>
			<desc>DocumentReference (Test Report)</desc>
			<rect x="0" y="1067.97" width="85.0394" height="42.5197" class="st4"/>
			<text x="7.95" y="1086.75" class="st12">DocumentReference <tspan x="20.58" dy="1.2em" class="st6">(Test Report)</tspan></text>		</g>
		<g id="shape391-263" transform="translate(170.787,-973.701)">
			<title>Dynamic connector.391</title>
			<path d="M0 1103.4 L74.95 1103.4 A3 3 0 1 1 80.95 1103.4 L95.5 1103.4 A3 3 0 0 1 101.5 1103.4 L229.22 1103.4 A3 3 0 1
						 1 235.22 1103.4 L313.41 1103.4 A3 3 0 0 1 319.41 1103.4 L326.53 1103.4 A3 3 0 0 1 332.53 1103.4 L382.16
						 1103.4" class="st14"/>
		</g>
		<g id="shape392-269" transform="translate(1.08366,-941.824)">
			<title>Shape392</title>
			<desc>List (Medications and Medical Devices)</desc>
			<rect x="0" y="1067.97" width="85.0394" height="42.5197" class="st16"/>
			<text x="35.9" y="1080.56" class="st5">List <tspan x="8.47" dy="1.2em" class="st6">(Medications and </tspan><tspan
						x="9.45" dy="1.2em" class="st6">Medical Devices)</tspan></text>		</g>
		<g id="shape393-274" transform="translate(170.079,-732.756)">
			<title>Dynamic connector.393</title>
			<path d="M0 1103.4 L75.66 1103.4 A3 3 0 0 1 81.66 1103.4 L96.21 1103.4 A3 3 0 0 1 102.21 1103.4 L241.14 1103.4"
					class="st14"/>
		</g>
		<g id="shape394-279" transform="translate(0.375,-700.879)">
			<title>Shape394</title>
			<desc>List (Allergies)</desc>
			<rect x="0" y="1067.97" width="85.0394" height="42.5197" class="st16"/>
			<text x="35.9" y="1086.34" class="st5">List <tspan x="22.89" dy="1.2em" class="st6">(Allergies)</tspan></text>		</g>
		<g id="shape395-283" transform="translate(459.588,-968.753)">
			<title>Shape395</title>
			<desc>0..*</desc>
			<rect x="0" y="1101.27" width="13.4646" height="9.2126" class="st10"/>
			<text x="1.02" y="1108.15" class="st17">0..*</text>		</g>
		<g id="shape396-286" transform="translate(92.8553,-968.753)">
			<title>Shape396</title>
			<desc>0..1</desc>
			<rect x="0" y="1101.27" width="13.4646" height="9.2126" class="st10"/>
			<text x="0.99" y="1108.15" class="st17">0..1</text>		</g>
		<g id="shape397-289" transform="translate(170.787,-661.89)">
			<title>Dynamic connector.397</title>
			<path d="M0 1103.4 L74.95 1103.4 A3 3 0 1 1 80.95 1103.4 L95.5 1103.4 A3 3 0 0 1 101.5 1103.4 L240.43 1103.4"
					class="st14"/>
		</g>
		<g id="shape398-294" transform="translate(1.08366,-630.013)">
			<title>Shape398</title>
			<desc>List (Immunisations)</desc>
			<rect x="0" y="1067.97" width="85.0394" height="42.5197" class="st16"/>
			<text x="35.9" y="1086.34" class="st5">List <tspan x="10.69" dy="1.2em" class="st6">(Immunisations)</tspan></text>		</g>
		<g id="shape399-298" transform="translate(170.079,-591.024)">
			<title>Dynamic connector.399</title>
			<path d="M0 1103.4 L75.66 1103.4 A3 3 0 0 1 81.66 1103.4 L96.21 1103.4 A3 3 0 0 1 102.21 1103.4 L241.14 1103.4"
					class="st14"/>
		</g>
		<g id="shape400-303" transform="translate(0.375,-557.729)">
			<title>Shape400</title>
			<desc>List (Uncategorised)</desc>
			<rect x="0" y="1067.97" width="85.0394" height="42.5197" class="st16"/>
			<text x="35.9" y="1086.34" class="st5">List <tspan x="11.25" dy="1.2em" class="st6">(Uncategorised)</tspan></text>		</g>
		<g id="shape401-307" transform="translate(170.787,-520.157)">
			<title>Dynamic connector.401</title>
			<path d="M0 1103.4 L74.95 1103.4 A3 3 0 1 1 80.95 1103.4 L95.5 1103.4 A3 3 0 0 1 101.5 1103.4 L240.43 1103.4"
					class="st14"/>
		</g>
		<g id="shape402-312" transform="translate(1.08366,-487.572)">
			<title>Shape402</title>
			<desc>List (Referralls)</desc>
			<rect x="0" y="1067.97" width="85.0394" height="42.5197" class="st16"/>
			<text x="35.9" y="1086.34" class="st5">List <tspan x="20.98" dy="1.2em" class="st6">(Referralls)</tspan></text>		</g>
		<g id="shape403-316" transform="translate(170.079,-450.709)">
			<title>Dynamic connector.403</title>
			<path d="M0 1103.4 L75.66 1103.4 A3 3 0 0 1 81.66 1103.4 L96.21 1103.4 A3 3 0 0 1 102.21 1103.4 L241.14 1103.4"
					class="st14"/>
		</g>
		<g id="shape404-321" transform="translate(0.375,-418.831)">
			<title>Shape404</title>
			<desc>List (Documents)</desc>
			<rect x="0" y="1067.97" width="85.0394" height="42.5197" class="st16"/>
			<text x="35.9" y="1086.34" class="st5">List <tspan x="17.28" dy="1.2em" class="st6">(Documents)</tspan></text>		</g>
		<g id="shape405-325" transform="translate(92.8553,-727.099)">
			<title>Shape405</title>
			<desc>0..1</desc>
			<rect x="0" y="1101.27" width="13.4646" height="9.2126" class="st10"/>
			<text x="0.99" y="1108.15" class="st17">0..1</text>		</g>
		<g id="shape406-328" transform="translate(92.8553,-656.233)">
			<title>Shape406</title>
			<desc>0..1</desc>
			<rect x="0" y="1101.27" width="13.4646" height="9.2126" class="st10"/>
			<text x="0.99" y="1108.15" class="st17">0..1</text>		</g>
		<g id="shape407-331" transform="translate(92.8553,-585.367)">
			<title>Shape407</title>
			<desc>0..1</desc>
			<rect x="0" y="1101.27" width="13.4646" height="9.2126" class="st10"/>
			<text x="0.99" y="1108.15" class="st17">0..1</text>		</g>
		<g id="shape408-334" transform="translate(92.8553,-512.375)">
			<title>Shape408</title>
			<desc>0..1</desc>
			<rect x="0" y="1101.27" width="13.4646" height="9.2126" class="st10"/>
			<text x="0.99" y="1108.15" class="st17">0..1</text>		</g>
		<g id="shape409-337" transform="translate(92.8553,-443.635)">
			<title>Shape409</title>
			<desc>0..1</desc>
			<rect x="0" y="1101.27" width="13.4646" height="9.2126" class="st10"/>
			<text x="0.99" y="1108.15" class="st17">0..1</text>		</g>
		<g id="shape410-340" transform="translate(170.079,-237.402)">
			<title>Dynamic connector.410</title>
			<path d="M0 1103.4 L241.14 1103.4" class="st14"/>
		</g>
		<g id="shape411-345" transform="translate(0.375,-205.524)">
			<title>Shape411</title>
			<desc>List (Investigations)</desc>
			<rect x="0" y="1067.97" width="85.0394" height="42.5197" class="st16"/>
			<text x="35.9" y="1086.34" class="st5">List <tspan x="12.46" dy="1.2em" class="st6">(Investigations)</tspan></text>		</g>
		<g id="shape412-349" transform="translate(170.079,-1031.1)">
			<title>Dynamic connector.412</title>
			<path d="M0 1103.4 L42.72 1103.4" class="st14"/>
		</g>
		<g id="shape413-354" transform="translate(0.375,-999.225)">
			<title>Shape413</title>
			<desc>List (Query Response)</desc>
			<rect x="0" y="1067.97" width="85.0394" height="42.5197" class="st16"/>
			<text x="35.9" y="1086.34" class="st5">List <tspan x="7.74" dy="1.2em" class="st6">(Query Response)</tspan></text>		</g>
		<g id="shape357-358" transform="translate(333.446,-366.391)">
			<title>Shape357</title>
			<desc>ProcedureRequest (Diary Entries)</desc>
			<rect x="0" y="1067.97" width="85.0394" height="42.5197" class="st4"/>
			<text x="11.48" y="1086.75" class="st12">ProcedureRequest <tspan x="18.71" dy="1.2em" class="st6">(Diary Entries)</tspan></text>		</g>
		<g id="shape414-362" transform="translate(170.079,-386.22)">
			<title>Dynamic connector.414</title>
			<path d="M0 1103.4 L75.66 1103.4 A3 3 0 0 1 81.66 1103.4 L96.21 1103.4 A3 3 0 0 1 102.21 1103.4 L241.14 1103.4"
					class="st14"/>
		</g>
		<g id="shape415-367" transform="translate(0.375,-354.343)">
			<title>Shape415</title>
			<desc>List (Diary Entries)</desc>
			<rect x="0" y="1067.97" width="85.0394" height="42.5197" class="st16"/>
			<text x="35.9" y="1086.34" class="st5">List <tspan x="14.74" dy="1.2em" class="st6">(Diary Entries)</tspan></text>		</g>
		<g id="shape416-371" transform="translate(92.8553,-378.438)">
			<title>Shape416</title>
			<desc>0..1</desc>
			<rect x="0" y="1101.27" width="13.4646" height="9.2126" class="st10"/>
			<text x="0.99" y="1108.15" class="st17">0..1</text>		</g>
		<g id="shape417-374" transform="translate(459.588,-952.454)">
			<title>Shape417</title>
			<desc>1..1</desc>
			<rect x="0" y="1101.27" width="13.4646" height="9.2126" class="st10"/>
			<text x="0.99" y="1108.15" class="st18">1..1</text>		</g>
		<g id="shape418-377" transform="translate(262.913,-1059.45)">
			<title>Dynamic connector.418</title>
			<path d="M0 1110.49 L0 1082.14 L67.32 1082.14 L67.32 1133.87 L46.58 1133.87" class="st7"/>
		</g>
		<g id="shape419-382" transform="translate(305.099,-373.477)">
			<title>Shape419</title>
			<desc>0..*</desc>
			<rect x="0" y="1093.48" width="21.2598" height="17.0079" class="st10"/>
			<rect x="4.92196" y="1097.44" width="11.4159" height="9.07388" class="st19"/>
			<text x="4.92" y="1104.25" class="st11">0..*</text>		</g>
		<g id="shape420-386" transform="translate(305.099,-387.296)">
			<title>Shape420</title>
			<desc>0..1</desc>
			<rect x="0" y="1093.48" width="21.2598" height="17.0079" class="st10"/>
			<rect x="4.88873" y="1097.44" width="11.4824" height="9.07388" class="st19"/>
			<text x="4.89" y="1104.25" class="st11">0..1</text>		</g>
		<g id="shape421-390" transform="translate(305.099,-424.501)">
			<title>Shape421</title>
			<desc>0..*</desc>
			<rect x="0" y="1093.48" width="21.2598" height="17.0079" class="st10"/>
			<rect x="4.92196" y="1097.44" width="11.4159" height="9.07388" class="st19"/>
			<text x="4.92" y="1104.25" class="st17">0..*</text>		</g>
		<g id="shape422-394" transform="translate(305.099,-360.013)">
			<title>Shape422</title>
			<desc>0..*</desc>
			<rect x="0" y="1093.48" width="21.2598" height="17.0079" class="st10"/>
			<rect x="4.92196" y="1097.44" width="11.4159" height="9.07388" class="st19"/>
			<text x="4.92" y="1104.25" class="st17">0..*</text>		</g>
		<g id="shape423-398" transform="translate(461.339,-586.424)">
			<title>Dynamic connector.423</title>
			<path d="M0 1104.47 L0 1120.06 L72.99 1120.06 L72.99 1102.33 L-34.55 1102.33" class="st2"/>
		</g>
		<g id="shape424-403" transform="translate(92.8553,-1024.74)">
			<title>Shape424</title>
			<desc>1..1</desc>
			<rect x="0" y="1101.27" width="13.4646" height="9.2126" class="st10"/>
			<text x="0.99" y="1108.15" class="st17">1..1</text>		</g>
		<g id="shape425-406" transform="translate(114.469,-1007.02)">
			<title>Shape425</title>
			<desc>0..*</desc>
			<rect x="0" y="1101.27" width="13.4646" height="9.2126" class="st10"/>
			<text x="1.02" y="1108.15" class="st17">0..*</text>		</g>
		<g id="shape426-409" transform="translate(356.123,-277.808)">
			<title>Shape426</title>
			<desc>0..1</desc>
			<rect x="0" y="1101.27" width="13.4646" height="9.2126" class="st10"/>
			<text x="0.99" y="1108.15" class="st18">0..1</text>		</g>
		<g id="shape427-412" transform="translate(378.092,-260.091)">
			<title>Shape427</title>
			<desc>1..1</desc>
			<rect x="0" y="1101.27" width="13.4646" height="9.2126" class="st10"/>
			<text x="0.99" y="1108.15" class="st18">1..1</text>		</g>
		<g id="shape428-415" transform="translate(404.312,-266.469)">
			<title>Shape428</title>
			<desc>0..1</desc>
			<rect x="0" y="1101.27" width="13.4646" height="9.2126" class="st10"/>
			<text x="0.99" y="1108.15" class="st18">0..1</text>		</g>
		<g id="shape429-418" transform="translate(458.879,-297.65)">
			<title>Shape429</title>
			<desc>0..1</desc>
			<rect x="0" y="1101.27" width="13.4646" height="9.2126" class="st10"/>
			<text x="0.99" y="1108.15" class="st18">0..1</text>		</g>
		<g id="shape430-421" transform="translate(501.399,-277.808)">
			<title>Shape430</title>
			<desc>0..1</desc>
			<rect x="0" y="1101.27" width="13.4646" height="9.2126" class="st10"/>
			<text x="0.99" y="1108.15" class="st18">0..1</text>		</g>
		<g id="shape431-424" transform="translate(563.761,-309.698)">
			<title>Shape431</title>
			<desc>0..1</desc>
			<rect x="0" y="1101.27" width="13.4646" height="9.2126" class="st10"/>
			<text x="0.99" y="1108.15" class="st18">0..1</text>		</g>
		<g id="shape432-427" transform="translate(525.493,-120.485)">
			<title>Shape432</title>
			<desc>0..*</desc>
			<rect x="0" y="1101.27" width="13.4646" height="9.2126" class="st10"/>
			<text x="1.02" y="1108.15" class="st18">0..*</text>		</g>
		<g id="shape433-430" transform="translate(362.501,-206.233)">
			<title>Shape433</title>
			<desc>1..1</desc>
			<rect x="0" y="1101.27" width="13.4646" height="9.2126" class="st10"/>
			<text x="0.99" y="1108.15" class="st18">1..1</text>		</g>
		<g id="shape434-433" transform="translate(349.036,-206.233)">
			<title>Shape434</title>
			<desc>0..1</desc>
			<rect x="0" y="1101.27" width="13.4646" height="9.2126" class="st10"/>
			<text x="0.99" y="1108.15" class="st18">0..1</text>		</g>
		<g id="shape435-436" transform="translate(458.17,-136.076)">
			<title>Shape435</title>
			<desc>0..*</desc>
			<rect x="0" y="1101.27" width="13.4646" height="9.2126" class="st10"/>
			<text x="1.02" y="1108.15" class="st18">0..*</text>		</g>
		<g id="shape436-439" transform="translate(380.926,-104.894)">
			<title>Shape436</title>
			<desc>0..*</desc>
			<rect x="0" y="1101.27" width="13.4646" height="9.2126" class="st10"/>
			<text x="1.02" y="1108.15" class="st18">0..*</text>		</g>
		<g id="shape437-442" transform="translate(356.123,-122.611)">
			<title>Shape437</title>
			<desc>0..1</desc>
			<rect x="0" y="1101.27" width="13.4646" height="9.2126" class="st10"/>
			<text x="0.99" y="1108.15" class="st18">0..1</text>		</g>
		<g id="shape438-445" transform="translate(317.855,-97.0992)">
			<title>Shape438</title>
			<desc>0..*</desc>
			<rect x="0" y="1101.27" width="13.4646" height="9.2126" class="st10"/>
			<text x="1.02" y="1108.15" class="st18">0..*</text>		</g>
		<g id="shape439-448" transform="translate(427.698,-82.2173)">
			<title>Shape439</title>
			<desc>0..1</desc>
			<rect x="0" y="1101.27" width="13.4646" height="9.2126" class="st10"/>
			<text x="0.99" y="1108.15" class="st18">0..1</text>		</g>
		<g id="shape440-451" transform="translate(407.147,-104.894)">
			<title>Shape440</title>
			<desc>1..1</desc>
			<rect x="0" y="1101.27" width="13.4646" height="9.2126" class="st10"/>
			<text x="0.99" y="1108.15" class="st18">1..1</text>		</g>
		<g id="shape441-454" transform="translate(420.611,-155.209)">
			<title>Shape441</title>
			<desc>1..1</desc>
			<rect x="0" y="1101.27" width="13.4646" height="9.2126" class="st10"/>
			<text x="0.99" y="1108.15" class="st18">1..1</text>		</g>
		<g id="shape442-457" transform="translate(403.603,-181.43)">
			<title>Shape442</title>
			<desc>0..1</desc>
			<rect x="0" y="1101.27" width="13.4646" height="9.2126" class="st10"/>
			<text x="0.99" y="1108.15" class="st18">0..1</text>		</g>
		<g id="shape443-460" transform="translate(378.8,-182.139)">
			<title>Shape443</title>
			<desc>0..*</desc>
			<rect x="0" y="1101.27" width="13.4646" height="9.2126" class="st10"/>
			<text x="1.02" y="1108.15" class="st18">0..*</text>		</g>
		<g id="shape444-463" transform="translate(92.8553,-231.391)">
			<title>Shape444</title>
			<desc>0..1</desc>
			<rect x="0" y="1101.27" width="13.4646" height="9.2126" class="st10"/>
			<text x="0.99" y="1108.15" class="st17">0..1</text>		</g>
		<g id="shape445-466" transform="translate(383.761,-999.225)">
			<title>Shape445</title>
			<desc>Include a MedicationStatement, MedicationRequest (plan) and M...</desc>
			<rect x="0" y="1059.46" width="204.803" height="51.0236" class="st20"/>
			<text x="1.42" y="1077.55" class="st21">Include a MedicationStatement, MedicationRequest (plan) <tspan x="1.42"
						dy="1.2em" class="st6">and Medication profile for each Medication or Medical </tspan><tspan x="1.42"
						dy="1.2em" class="st6">Device plan or </tspan>issue directly linked to the consultation</text>		</g>
		<g id="shape446-471" transform="translate(410.69,-1009.15)">
			<title>Dynamic connector.446</title>
			<path d="M0 1110.49 L-27.64 1212.53" class="st22"/>
		</g>
		<g id="shape447-477" transform="translate(517.373,-1026.83)">
			<title>Dynamic connector.447</title>
			<path d="M0 1110.49 L-46.45 1235.88" class="st22"/>
		</g>
		<g id="shape448-482" transform="translate(475.178,-1007.02)">
			<title>Dynamic connector.448</title>
			<path d="M0 1110.49 L15.59 1144.5" class="st22"/>
		</g>
		<g id="shape449-487" transform="translate(448.249,-757.572)">
			<title>Shape449</title>
			<desc>Include a MedicationRequest(issue) profile for each Medicatio...</desc>
			<rect x="0" y="1065.13" width="151.654" height="45.3543" class="st20"/>
			<text x="1.42" y="1080.38" class="st21">Include a MedicationRequest(issue) profile <tspan x="1.42" dy="1.2em"
						class="st6">for each Medication or Medical Device issue </tspan><tspan x="1.42" dy="1.2em" class="st6">directly linked to the consultation</tspan></text>		</g>
		<g id="shape450-492" transform="translate(446.832,-785.918)">
			<title>Dynamic connector.450</title>
			<path d="M0 1110.49 L-25.51 1095.6" class="st22"/>
		</g>
		<g id="shape451-497" transform="translate(451.792,-708.674)">
			<title>Shape451</title>
			<desc>Include an AllergyIntolerance profile for each allergy linked...</desc>
			<rect x="0" y="1087.81" width="141.732" height="22.6772" class="st20"/>
			<text x="1.42" y="1096.67" class="st21">Include an AllergyIntolerance profile for <tspan x="1.42" dy="1.2em"
						class="st6">each allergy linked to the consultation</tspan></text>		</g>
		<g id="shape452-501" transform="translate(451.792,-720.721)">
			<title>Dynamic connector.452</title>
			<path d="M0 1110.49 L-35.43 1095.6" class="st22"/>
		</g>
		<g id="shape453-506" transform="translate(454.627,-636.745)">
			<title>Shape453</title>
			<desc>Include an Immunization profile for each immunisation linked ...</desc>
			<rect x="0" y="1087.81" width="147.402" height="22.6772" class="st20"/>
			<text x="1.42" y="1096.67" class="st21">Include an Immunization profile for each <tspan x="1.42" dy="1.2em" class="st6">immunisation linked to the consultation</tspan></text>		</g>
		<g id="shape454-510" transform="translate(454.627,-650.209)">
			<title>Dynamic connector.454</title>
			<path d="M0 1110.49 L-35.43 1095.6" class="st22"/>
		</g>
		<g id="shape455-515" transform="translate(466.674,-549.225)">
			<title>Shape455</title>
			<desc>Include an Observation profile for each uncategorised data li...</desc>
			<rect x="0" y="1072.22" width="134.646" height="38.2677" class="st20"/>
			<text x="1.42" y="1083.93" class="st21">Include an Observation profile for each <tspan x="1.42" dy="1.2em" class="st6">uncategorised data linked to the </tspan><tspan
						x="1.42" dy="1.2em" class="st6">consultation</tspan></text>		</g>
		<g id="shape456-520" transform="translate(461.005,-568.359)">
			<title>Dynamic connector.456</title>
			<path d="M0 1105.52 L-41.46 1101.27" class="st22"/>
		</g>
		<g id="shape457-525" transform="translate(451.084,-492.532)">
			<title>Shape457</title>
			<desc>Include a ReferralRequest profile for each referral data link...</desc>
			<rect x="0" y="1072.22" width="148.819" height="38.2677" class="st20"/>
			<text x="1.42" y="1088.88" class="st21">Include a ReferralRequest profile for each <tspan x="1.42" dy="1.2em"
						class="st6">referral data linked to the consultation</tspan></text>		</g>
		<g id="shape458-529" transform="translate(452.501,-508.831)">
			<title>Dynamic connector.458</title>
			<path d="M0 1107.65 L-36.14 1099.15" class="st22"/>
		</g>
		<g id="shape459-534" transform="translate(451.792,-420.957)">
			<title>Shape459</title>
			<desc>Include a DocumentReference profile containing metadata only ...</desc>
			<rect x="0" y="1072.22" width="150.236" height="38.2677" class="st20"/>
			<text x="1.42" y="1083.93" class="st21">Include a DocumentReference profile <tspan x="1.42" dy="1.2em" class="st6">containing metadata only for each </tspan><tspan
						x="1.42" dy="1.2em" class="st6">document linked to the consultation</tspan></text>		</g>
		<g id="shape460-539" transform="translate(453.918,-439.383)">
			<title>Dynamic connector.460</title>
			<path d="M0 1107.65 L-36.85 1099.15" class="st22"/>
		</g>
		<g id="shape461-544" transform="translate(448.958,-358.595)">
			<title>Shape461</title>
			<desc>Include a ProcedureRequest profile for each diary entry data ...</desc>
			<rect x="0" y="1072.22" width="153.071" height="38.2677" class="st20"/>
			<text x="1.42" y="1088.88" class="st21">Include a ProcedureRequest profile for each <tspan x="1.42" dy="1.2em"
						class="st6">diary entry data linked to the consultation</tspan></text>		</g>
		<g id="shape462-548" transform="translate(447.54,-374.894)">
			<title>Dynamic connector.462</title>
			<path d="M0 1107.65 L-29.06 1099.15" class="st22"/>
		</g>
		<g id="shape463-553" transform="translate(452.501,-208.359)">
			<title>Dynamic connector.463</title>
			<path d="M0 1106.23 L-34.02 1100.56" class="st22"/>
		</g>
		<g id="shape464-558" transform="translate(448.958,-198.438)">
			<title>Shape464</title>
			<desc>Include a DiagnosticReport for each Investigation linked to t...</desc>
			<rect x="0" y="1082.14" width="144.567" height="28.3465" class="st20"/>
			<text x="1.42" y="1093.84" class="st21">Include a DiagnosticReport for each <tspan x="1.42" dy="1.2em" class="st6">Investigation linked to the consultation.</tspan></text>		</g>
		<g id="shape465-562" transform="translate(461.714,-30.485)">
			<title>Shape465</title>
			<desc>Include all the ProcedureRequests, Observations, Specimens an...</desc>
			<rect x="0" y="1072.22" width="194.173" height="38.2677" class="st20"/>
			<text x="1.42" y="1083.93" class="st21">Include all the ProcedureRequests, Observations, <tspan x="1.42" dy="1.2em"
						class="st6">Specimens and DocumentReferences (metadata only) </tspan><tspan x="1.42" dy="1.2em" class="st6">related to the diagnostic report</tspan></text>		</g>
		<g id="shape466-567" transform="translate(166.91,-1076.47)">
			<title>Shape466</title>
			<desc>In addition a ProblemHeader for the returned problem include ...</desc>
			<rect x="0" y="1082.14" width="250.866" height="28.3465" class="st24"/>
			<text x="1.42" y="1093.84" class="st21">In addition a ProblemHeader for the returned problem include a <tspan x="1.42"
						dy="1.2em" class="st6">ProblemHeader profile for each linked Problem</tspan></text>		</g>
		<g id="shape467-571" transform="translate(172.934,-1076.47)">
			<title>Dynamic connector.467</title>
			<path d="M-2.48 1110.49 L-11.69 1145.21" class="st22"/>
		</g>
		<g id="shape468-576" transform="translate(428.052,-597.414)">
			<title>Shape468</title>
			<desc>0..*</desc>
			<rect x="0" y="1101.27" width="13.4646" height="9.2126" class="st10"/>
			<text x="1.02" y="1108.15" class="st18">0..*</text>		</g>
		<g id="shape469-579" transform="translate(306.517,-253.713)">
			<title>Shape469</title>
			<desc>0..1</desc>
			<rect x="0" y="1093.48" width="21.2598" height="17.0079" class="st10"/>
			<rect x="4.88873" y="1097.44" width="11.4824" height="9.07388" class="st19"/>
			<text x="4.89" y="1104.25" class="st11">0..1</text>		</g>
	</g>
</svg>
