<?xml version="1.0" encoding="UTF-8" standalone="no"?>
<!DOCTYPE svg PUBLIC "-//W3C//DTD SVG 1.1//EN" "http://www.w3.org/Graphics/SVG/1.1/DTD/svg11.dtd">
<!-- Generated by Microsoft Visio, SVG Export Problem_Return.svg Page-1 -->
<svg xmlns="http://www.w3.org/2000/svg" xmlns:xlink="http://www.w3.org/1999/xlink" xmlns:ev="http://www.w3.org/2001/xml-events"
		width="9.49739in" height="13.3613in" viewBox="0 0 683.812 962.012" xml:space="preserve" color-interpolation-filters="sRGB"
		class="st28">
	<style type="text/css">
	<![CDATA[
		.st1 {fill:#4672c4;stroke:#c8c8c8;stroke-width:0.25}
		.st2 {fill:#feffff;font-family:Calibri;font-size:0.833336em}
		.st3 {font-size:1em}
		.st4 {fill:#4672c4;font-family:Calibri;font-size:0.666664em}
		.st5 {marker-end:url(#mrkr5-23);stroke:#4672c4;stroke-linecap:round;stroke-linejoin:round;stroke-width:1}
		.st6 {fill:#4672c4;fill-opacity:1;stroke:#4672c4;stroke-opacity:1;stroke-width:0.28409090909091}
		.st7 {marker-start:url(#mrkr5-37);stroke:#4672c4;stroke-linecap:round;stroke-linejoin:round;stroke-width:1}
		.st8 {fill:#ffffff;stroke:none;stroke-linecap:butt;stroke-width:7.2}
		.st9 {fill:#3d64ac;font-family:Calibri;font-size:0.666664em}
		.st10 {fill:#70ad47;stroke:#c8c8c8;stroke-width:0.25}
		.st11 {fill:#00b050;font-family:Calibri;font-size:0.666664em}
		.st12 {marker-start:url(#mrkr5-73);stroke:#00b050;stroke-linecap:round;stroke-linejoin:round;stroke-width:1}
		.st13 {fill:#00b050;fill-opacity:1;stroke:#00b050;stroke-opacity:1;stroke-width:0.28409090909091}
		.st14 {marker-end:url(#mrkr5-133);stroke:#00b050;stroke-linecap:round;stroke-linejoin:round;stroke-width:1}
		.st15 {fill:none;stroke:#0070c0;stroke-dasharray:10.5,7.5;stroke-width:1.5}
		.st16 {fill:none;stroke:none;stroke-width:0.25}
		.st17 {fill:#ffffff;stroke:none;stroke-width:0.25}
		.st18 {fill:#000000;font-family:Calibri;font-size:0.75em}
		.st19 {marker-end:url(#mrkr1-212);stroke:#000000;stroke-linecap:round;stroke-linejoin:round;stroke-width:1.5}
		.st20 {fill:#000000;fill-opacity:1;stroke:#000000;stroke-opacity:1;stroke-width:0.37313432835821}
		.st21 {fill:#7030a0;stroke:#507e32;stroke-width:0.75}
		.st22 {fill:#7030a0;font-family:Calibri;font-size:0.666664em}
		.st23 {marker-end:url(#mrkr5-284);stroke:#7030a0;stroke-linecap:round;stroke-linejoin:round;stroke-width:1}
		.st24 {fill:#7030a0;fill-opacity:1;stroke:#7030a0;stroke-opacity:1;stroke-width:0.28409090909091}
		.st25 {marker-end:url(#mrkr5-23);marker-start:url(#mrkr5-37);stroke:#4672c4;stroke-linecap:round;stroke-linejoin:round;stroke-width:1}
		.st26 {fill:#feffff;font-family:Calibri;font-size:0.75em}
		.st27 {fill:#feffff;stroke:none;stroke-width:0.25}
		.st28 {fill:none;fill-rule:evenodd;font-size:12px;overflow:visible;stroke-linecap:square;stroke-miterlimit:3}
	]]>
	</style>

	<defs id="Markers">
		<g id="lend5">
			<path d="M 2 1 L 0 0 L 1.98117 -0.993387 C 1.67173 -0.364515 1.67301 0.372641 1.98465 1.00043 " style="stroke:none"/>
		</g>
		<marker id="mrkr5-23" class="st6" refX="-6.16" orient="auto" markerUnits="strokeWidth" overflow="visible">
			<use xlink:href="#lend5" transform="scale(-3.52,-3.52) "/>
		</marker>
		<marker id="mrkr5-37" class="st6" refX="5.8" orient="auto" markerUnits="strokeWidth" overflow="visible">
			<use xlink:href="#lend5" transform="scale(3.52) "/>
		</marker>
		<marker id="mrkr5-73" class="st13" refX="5.8" orient="auto" markerUnits="strokeWidth" overflow="visible">
			<use xlink:href="#lend5" transform="scale(3.52) "/>
		</marker>
		<marker id="mrkr5-133" class="st13" refX="-6.16" orient="auto" markerUnits="strokeWidth" overflow="visible">
			<use xlink:href="#lend5" transform="scale(-3.52,-3.52) "/>
		</marker>
		<g id="lend1">
			<path d="M 1 -1 L 0 0 L 1 1 " style="stroke-linecap:round;stroke-linejoin:round;fill:none"/>
		</g>
		<marker id="mrkr1-212" class="st20" orient="auto" markerUnits="strokeWidth" overflow="visible">
			<use xlink:href="#lend1" transform="scale(-2.68,-2.68) "/>
		</marker>
		<marker id="mrkr5-284" class="st24" refX="-6.16" orient="auto" markerUnits="strokeWidth" overflow="visible">
			<use xlink:href="#lend5" transform="scale(-3.52,-3.52) "/>
		</marker>
	</defs>
	<g>
		<title>Page-1</title>
		<g id="shape1083-1" transform="translate(525.159,-822.297)">
			<title>Process</title>
			<desc>Medication Statement</desc>
			<rect x="0" y="919.492" width="85.0394" height="42.5197" class="st1"/>
			<text x="19.39" y="937.75" class="st2">Medication <tspan x="21.21" dy="1.2em" class="st3">Statement</tspan></text>		</g>
		<g id="shape1084-5" transform="translate(383.427,-751.431)">
			<title>Process.3</title>
			<desc>MedicationRequest (Intent = Plan)</desc>
			<rect x="0" y="919.492" width="85.0394" height="42.5197" class="st1"/>
			<text x="2.81" y="937.75" class="st2">MedicationRequest <tspan x="13.63" dy="1.2em" class="st3">(Intent = Plan)</tspan></text>		</g>
		<g id="shape1085-9" transform="translate(383.427,-680.565)">
			<title>Process.4</title>
			<desc>MedicationRequest (Intent = Issue)</desc>
			<rect x="0" y="919.492" width="85.0394" height="42.5197" class="st1"/>
			<text x="2.81" y="937.75" class="st2">MedicationRequest <tspan x="12.1" dy="1.2em" class="st3">(Intent = Issue)</tspan></text>		</g>
		<g id="group1086-13" transform="translate(525.159,-843.557)">
			<title>Relationship.1033</title>
			<g id="shape1087-14" transform="translate(-20.779,14.6146)">
				<title>Sheet.1087</title>
				<desc>1..1</desc>
				<text x="0.91" y="959.61" class="st4">1..1</text>			</g>
			<g id="shape1088-16" transform="translate(-63.6734,42.7882)">
				<title>Sheet.1088</title>
				<desc>1..1</desc>
				<text x="0.91" y="959.61" class="st4">1..1</text>			</g>
			<g id="shape1086-18">
				<path d="M0 962.01 L-70.87 962.01 L-70.87 1005.46" class="st5"/>
			</g>
		</g>
		<g id="shape1089-24" transform="translate(525.159,-751.431)">
			<title>Process.1003</title>
			<desc>Medication</desc>
			<rect x="0" y="919.492" width="85.0394" height="42.5197" class="st1"/>
			<text x="19.39" y="943.75" class="st2">Medication</text>		</g>
		<g id="group1090-27" transform="translate(567.679,-751.431)">
			<title>Relationship.1004</title>
			<g id="shape1091-28" transform="translate(5.01099,16.9481)">
				<title>Sheet.1091</title>
				<desc>1..1</desc>
				<text x="0.91" y="959.61" class="st4">1..1</text>			</g>
			<g id="shape1092-30" transform="translate(-91.9847,56.5478)">
				<title>Sheet.1092</title>
				<desc>0..*</desc>
				<text x="0.91" y="959.61" class="st4">0..*</text>			</g>
			<g id="shape1090-32">
				<path d="M0 967.81 L0 968.17 L0 1018.37 L-99.21 1018.37" class="st7"/>
			</g>
		</g>
		<g id="group1093-38" transform="translate(525.159,-765.604)">
			<title>Relationship.1007</title>
			<g id="shape1094-39" transform="translate(-27.8223,8.80178)">
				<title>Sheet.1094</title>
				<desc>1..1</desc>
				<rect x="4.90622" y="948.41" width="12.1487" height="9.59985" class="st8"/>
				<text x="4.91" y="955.61" class="st9">1..1</text>			</g>
			<g id="shape1095-42" transform="translate(-50.8315,-5.37145)">
				<title>Sheet.1095</title>
				<desc>0..*</desc>
				<rect x="4.90622" y="948.41" width="12.0784" height="9.59985" class="st8"/>
				<text x="4.91" y="955.61" class="st9">0..*</text>			</g>
			<g id="shape1093-45">
				<path d="M-5.8 954.93 L-6.16 954.93 L-56.69 954.93" class="st7"/>
			</g>
		</g>
		<g id="shape1099-50" transform="translate(142.482,-822.297)">
			<title>Process.1099</title>
			<desc>ProblemHeader (Condition)</desc>
			<rect x="0" y="919.492" width="85.0394" height="42.5197" class="st10"/>
			<text x="10.44" y="937.75" class="st2">ProblemHeader <tspan x="19.7" dy="1.2em" class="st3">(Condition)</tspan></text>		</g>
		<g id="group1100-54" transform="translate(418.86,-751.431)">
			<title>Relationship.1017</title>
			<g id="shape1101-55" transform="translate(14.2794,9.60356)">
				<title>Sheet.1101</title>
				<desc>1..1</desc>
				<text x="0.91" y="959.61" class="st4">1..1</text>			</g>
			<g id="shape1102-57" transform="translate(-7.08661,28.3465)">
				<title>Sheet.1102</title>
				<desc>0..*</desc>
				<text x="0.91" y="959.61" class="st4">0..*</text>			</g>
			<g id="shape1100-59">
				<path d="M7.09 967.81 L7.09 968.17 L7.09 990.36" class="st7"/>
			</g>
		</g>
		<g id="group1103-64" transform="translate(383.427,-772.691)">
			<title>Relationship.1020</title>
			<g id="shape1104-65" transform="translate(-28.3849,17.6036)">
				<title>Sheet.1104</title>
				<desc>0..*</desc>
				<rect x="4.90622" y="948.41" width="12.0784" height="9.59985" class="st8"/>
				<text x="4.91" y="955.61" class="st11">0..*</text>			</g>
			<g id="shape1103-68">
				<path d="M-5.8 962.01 L-6.16 962.01 L-181.89 962.01 A2.3622 2.3622 -180 0 0 -186.61 962.01 L-212.6 962.01 L-212.6
							 912.41" class="st12"/>
			</g>
		</g>
		<g id="group1106-74" transform="translate(383.427,-701.825)">
			<title>Relationship.1023</title>
			<g id="shape1107-75" transform="translate(-29.6348,15.8884)">
				<title>Sheet.1107</title>
				<desc>0..*</desc>
				<rect x="4.90622" y="948.41" width="12.0784" height="9.59985" class="st8"/>
				<text x="4.91" y="955.61" class="st11">0..*</text>			</g>
			<g id="shape1106-78">
				<path d="M-5.8 962.01 L-6.16 962.01 L-181.89 962.01 A2.3622 2.3622 -180 1 0 -186.61 962.01 L-212.6 962.01 L-212.6
							 841.54" class="st12"/>
			</g>
		</g>
		<g id="shape1123-83" transform="translate(383.427,-609.699)">
			<title>Process.1123</title>
			<desc>AllergyIntolerance</desc>
			<rect x="0" y="919.492" width="85.0394" height="42.5197" class="st1"/>
			<text x="5.28" y="943.75" class="st2">AllergyIntolerance</text>		</g>
		<g id="group1124-86" transform="translate(383.427,-630.959)">
			<title>Relationship.1124</title>
			<g id="shape1125-87" transform="translate(-29.6348,17.6036)">
				<title>Sheet.1125</title>
				<desc>0..*</desc>
				<rect x="4.90622" y="948.41" width="12.0784" height="9.59985" class="st8"/>
				<text x="4.91" y="955.61" class="st11">0..*</text>			</g>
			<g id="shape1124-90">
				<path d="M-5.8 962.01 L-6.16 962.01 L-181.89 962.01 A2.3622 2.3622 -180 1 0 -186.61 962.01 L-212.6 962.01 L-212.6
							 770.67" class="st12"/>
			</g>
		</g>
		<g id="shape1129-95" transform="translate(383.427,-538.833)">
			<title>Process.1129</title>
			<desc>Immunization</desc>
			<rect x="0" y="919.492" width="85.0394" height="42.5197" class="st1"/>
			<text x="14.41" y="943.75" class="st2">Immunization</text>		</g>
		<g id="group1130-98" transform="translate(383.427,-560.092)">
			<title>Relationship.1130</title>
			<g id="shape1131-99" transform="translate(-29.6348,15.8884)">
				<title>Sheet.1131</title>
				<desc>0..*</desc>
				<rect x="4.90622" y="948.41" width="12.0784" height="9.59985" class="st8"/>
				<text x="4.91" y="955.61" class="st11">0..*</text>			</g>
			<g id="shape1130-102">
				<path d="M-5.8 962.01 L-6.16 962.01 L-181.89 962.01 A2.3622 2.3622 -180 0 0 -186.61 962.01 L-212.6 962.01 L-212.6
							 699.81" class="st12"/>
			</g>
		</g>
		<g id="shape1135-107" transform="translate(383.427,-467.967)">
			<title>Process.1135</title>
			<desc>Observation (Uncategorised)</desc>
			<rect x="0" y="919.492" width="85.0394" height="42.5197" class="st1"/>
			<text x="17.66" y="937.75" class="st2">Observation <tspan x="10.03" dy="1.2em" class="st3">(Uncategorised)</tspan></text>		</g>
		<g id="group1136-111" transform="translate(383.427,-489.226)">
			<title>Relationship.1136</title>
			<g id="shape1137-112" transform="translate(-29.6348,15.8884)">
				<title>Sheet.1137</title>
				<desc>0..*</desc>
				<rect x="4.90622" y="948.41" width="12.0784" height="9.59985" class="st8"/>
				<text x="4.91" y="955.61" class="st11">0..*</text>			</g>
			<g id="shape1138-115" transform="translate(-211.993,-315.467)">
				<title>Sheet.1138</title>
				<desc>0..*</desc>
				<rect x="4.90622" y="948.41" width="12.0784" height="9.59985" class="st8"/>
				<text x="4.91" y="955.61" class="st11">0..*</text>			</g>
			<g id="shape1136-118">
				<path d="M-5.8 962.01 L-6.16 962.01 L-181.89 962.01 A2.3622 2.3622 -180 0 0 -186.61 962.01 L-212.6 962.01 L-212.6
							 628.94" class="st12"/>
			</g>
		</g>
		<g id="group1149-123" transform="translate(185.002,-864.817)">
			<title>Relationship.1149</title>
			<g id="shape1150-124" transform="translate(7.22793,-7.66847)">
				<title>Sheet.1150</title>
				<desc>0..*</desc>
				<text x="0.91" y="959.61" class="st11">0..*</text>			</g>
			<g id="shape1151-126" transform="translate(50.1882,16.2488)">
				<title>Sheet.1151</title>
				<desc>0..*</desc>
				<text x="0.91" y="959.61" class="st11">0..*</text>			</g>
			<g id="shape1149-128">
				<path d="M0 962.01 L0 933.67 L70.87 933.67 L70.87 983.27 L48.68 983.27" class="st14"/>
			</g>
		</g>
		<g id="shape1153-134" transform="translate(355.081,-666.392)">
			<title>Sheet.1153</title>
			<path d="M0 962.01 L283.46 962.01 L283.46 749.41 L0 749.41 L0 962.01 Z" class="st15"/>
		</g>
		<g id="group1157-136" transform="translate(383.427,-503.4)">
			<title>Relationship.1157</title>
			<g id="shape1158-137" transform="translate(-28.6726,15.8884)">
				<title>Sheet.1158</title>
				<desc>0..1</desc>
				<rect x="4.90622" y="948.41" width="12.1487" height="9.59985" class="st8"/>
				<text x="4.91" y="955.61" class="st11">0..1</text>			</g>
			<g id="shape1159-140" transform="translate(-183.727,-301.294)">
				<title>Sheet.1159</title>
				<desc>0..*</desc>
				<rect x="4.90622" y="948.41" width="12.0784" height="9.59985" class="st8"/>
				<text x="4.91" y="955.61" class="st11">0..*</text>			</g>
			<g id="shape1157-143">
				<path d="M-5.8 962.01 L-6.16 962.01 L-184.25 962.01 L-184.25 643.11" class="st12"/>
			</g>
		</g>
		<g id="group1160-148" transform="translate(383.427,-573.415)">
			<title>Relationship.1160</title>
			<g id="shape1161-149" transform="translate(-28.6726,15.038)">
				<title>Sheet.1161</title>
				<desc>0..1</desc>
				<rect x="4.90622" y="948.41" width="12.1487" height="9.59985" class="st8"/>
				<text x="4.91" y="955.61" class="st11">0..1</text>			</g>
			<g id="shape1160-152">
				<path d="M-5.8 962.01 L-6.16 962.01 L-184.25 962.01 L-184.25 713.13" class="st12"/>
			</g>
		</g>
		<g id="group1162-157" transform="translate(383.427,-644.281)">
			<title>Relationship.1162</title>
			<g id="shape1163-158" transform="translate(-28.6726,15.038)">
				<title>Sheet.1163</title>
				<desc>0..1</desc>
				<rect x="4.90622" y="948.41" width="12.1487" height="9.59985" class="st8"/>
				<text x="4.91" y="955.61" class="st11">0..1</text>			</g>
			<g id="shape1162-161">
				<path d="M-5.8 962.01 L-6.16 962.01 L-184.25 962.01 L-184.25 784" class="st12"/>
			</g>
		</g>
		<g id="group1164-166" transform="translate(383.427,-715.323)">
			<title>Relationship.1164</title>
			<g id="shape1165-167" transform="translate(-28.6726,15.2135)">
				<title>Sheet.1165</title>
				<desc>0..1</desc>
				<rect x="4.90622" y="948.41" width="12.1487" height="9.59985" class="st8"/>
				<text x="4.91" y="955.61" class="st11">0..1</text>			</g>
			<g id="shape1164-170">
				<path d="M-5.8 962.01 L-6.16 962.01 L-184.25 962.01 L-184.25 855.04" class="st12"/>
			</g>
		</g>
		<g id="group1166-175" transform="translate(383.427,-786.014)">
			<title>Relationship.1166</title>
			<g id="shape1167-176" transform="translate(-28.1341,9.60356)">
				<title>Sheet.1167</title>
				<desc>0..1</desc>
				<text x="0.91" y="959.61" class="st11">0..1</text>			</g>
			<g id="shape1166-178">
				<path d="M-5.8 962.01 L-6.16 962.01 L-184.25 962.01 L-184.25 925.73" class="st12"/>
			</g>
		</g>
		<g id="shape1168-183" transform="translate(199.175,-789.464)">
			<title>Sheet.1168</title>
			<desc>Primary Item</desc>
			<rect x="0" y="943.351" width="56.6929" height="18.6605" class="st16"/>
			<text x="4" y="950.28" class="st11">Primary <tspan x="4" dy="1.2em" class="st3">Item</tspan></text>		</g>
		<g id="shape1169-187" transform="translate(114.136,-789.464)">
			<title>Sheet.1169</title>
			<desc>Associated Item</desc>
			<rect x="0" y="943.351" width="56.6929" height="18.6605" class="st16"/>
			<text x="17.67" y="950.28" class="st11">Associated <tspan x="37.63" dy="1.2em" class="st3">Item</tspan></text>		</g>
		<g id="group1189-191" transform="translate(574.766,-793.951)">
			<title>Relationship.1189</title>
			<g id="shape1190-192" transform="translate(-34.0585,2.27374E-13)">
				<title>Sheet.1190</title>
				<desc>1..1</desc>
				<rect x="4.90622" y="948.41" width="12.1487" height="9.59985" class="st8"/>
				<text x="4.91" y="955.61" class="st9">1..1</text>			</g>
			<g id="shape1191-195" transform="translate(-2.07562,-10.7429)">
				<title>Sheet.1191</title>
				<desc>0..*</desc>
				<rect x="4.90622" y="948.41" width="12.0784" height="9.59985" class="st8"/>
				<text x="4.91" y="955.61" class="st9">0..*</text>			</g>
			<g id="shape1189-198">
				<path d="M-7.09 956.21 L-7.09 955.85 L-7.09 933.67" class="st7"/>
			</g>
		</g>
		<g id="shape1195-203" transform="translate(179.94,-921.51)">
			<title>Sheet.1195</title>
			<desc>In addition a ProblemHeader for the returned problem include ...</desc>
			<rect x="0" y="923.744" width="251.532" height="38.2677" class="st17"/>
			<text x="4" y="940.18" class="st18">In addition a ProblemHeader for the returned problem include a <tspan x="4"
						dy="1.2em" class="st3">ProblemHeader profile for each linked Problem</tspan></text>		</g>
		<g id="shape1196-207" transform="translate(1099.45,347.788) rotate(108.628)">
			<title>Sheet.1196</title>
			<path d="M0 962.01 L53.25 962.01" class="st19"/>
		</g>
		<g id="shape1197-213" transform="translate(443.495,-910.738)">
			<title>Sheet.1197</title>
			<desc>Include a MedicationStatement, MedicationRequest (plan) and M...</desc>
			<rect x="0" y="910.988" width="204.972" height="51.0236" class="st17"/>
			<text x="4" y="923" class="st18">Include a MedicationStatement, MedicationRequest <tspan x="4" dy="1.2em" class="st3">(plan) and Medication profile for each Medication or </tspan><tspan
						x="4" dy="1.2em" class="st3">Medical Device plan or </tspan>issue directly linked to the <tspan x="4"
						dy="1.2em" class="st3">problem</tspan></text>		</g>
		<g id="shape1198-219" transform="translate(529.411,-643.431)">
			<title>Sheet.1198</title>
			<desc>Include a MedicationRequest(issue) profile for each Medicatio...</desc>
			<rect x="0" y="916.091" width="151.654" height="45.9213" class="st17"/>
			<text x="4" y="925.55" class="st18">Include a MedicationRequest(issue) <tspan x="4" dy="1.2em" class="st3">profile for each Medication or Medical </tspan><tspan
						x="4" dy="1.2em" class="st3">Device issue directly linked to the </tspan><tspan x="4" dy="1.2em"
						class="st3">problem</tspan></text>		</g>
		<g id="shape1199-225" transform="translate(1388.74,309.302) rotate(105.348)">
			<title>Sheet.1199</title>
			<path d="M0 962.01 L105.82 962.01" class="st19"/>
		</g>
		<g id="shape1200-230" transform="translate(1438.2,-258.608) rotate(70.8519)">
			<title>Sheet.1200</title>
			<path d="M0 962.01 L36.01 962.01" class="st19"/>
		</g>
		<g id="shape1201-235" transform="translate(1435.62,-155.322) rotate(77.3914)">
			<title>Sheet.1201</title>
			<path d="M0 962.01 L110.38 962.01" class="st19"/>
		</g>
		<g id="shape1202-240" transform="translate(237.205,1207.79) rotate(-162.583)">
			<title>Sheet.1202</title>
			<path d="M0 962.01 L49.02 962.01" class="st19"/>
		</g>
		<g id="shape1203-245" transform="translate(519.49,-581.352)">
			<title>Sheet.1203</title>
			<desc>Include an AllergyIntolerance profile for each allergy linked...</desc>
			<rect x="0" y="923.744" width="161.575" height="38.2677" class="st17"/>
			<text x="4" y="940.18" class="st18">Include an AllergyIntolerance profile for <tspan x="4" dy="1.2em" class="st3">each allergy linked to the problem</tspan></text>		</g>
		<g id="shape1204-249" transform="translate(231.536,1275.95) rotate(-162.583)">
			<title>Sheet.1204</title>
			<path d="M0 962.01 L49.02 962.01" class="st19"/>
		</g>
		<g id="shape1205-254" transform="translate(521.987,-510.486)">
			<title>Sheet.1205</title>
			<desc>Include an Immunization profile for each immunisation linked ...</desc>
			<rect x="0" y="923.744" width="161.575" height="38.2677" class="st17"/>
			<text x="4" y="940.18" class="st18">Include an Immunization profile for each <tspan x="4" dy="1.2em" class="st3">immunisation linked to the problem</tspan></text>		</g>
		<g id="shape1206-258" transform="translate(234.033,1346.82) rotate(-162.583)">
			<title>Sheet.1206</title>
			<path d="M0 962.01 L49.02 962.01" class="st19"/>
		</g>
		<g id="shape1208-263" transform="translate(490.538,1447.12) rotate(-178.275)">
			<title>Sheet.1208</title>
			<path d="M0 962.01 L43.59 962.01" class="st19"/>
		</g>
		<g id="shape1209-268" transform="translate(0.75,-822.297)">
			<title>Process.1209</title>
			<desc>List (Query Response)</desc>
			<rect x="0" y="919.492" width="85.0394" height="42.5197" class="st21"/>
			<text x="35.64" y="937.75" class="st2">List <tspan x="6.38" dy="1.2em" class="st3">(Query Response)</tspan></text>		</g>
		<g id="group1210-272" transform="translate(85.7894,-836.47)">
			<title>Relationship.1210</title>
			<g id="shape1211-273" transform="translate(1.29398E-07,8.80178)">
				<title>Sheet.1211</title>
				<desc>0..1</desc>
				<rect x="4.90622" y="948.41" width="12.1487" height="9.59985" class="st8"/>
				<text x="4.91" y="955.61" class="st22">0..1</text>			</g>
			<g id="shape1212-276" transform="translate(34.8023,-5.37145)">
				<title>Sheet.1212</title>
				<desc>0..*</desc>
				<rect x="4.90622" y="948.41" width="12.0784" height="9.59985" class="st8"/>
				<text x="4.91" y="955.61" class="st22">0..*</text>			</g>
			<g id="shape1210-279">
				<path d="M0 954.93 L50.53 954.93" class="st23"/>
			</g>
		</g>
		<g id="group1213-285" transform="translate(468.467,-489.226)">
			<title>Relationship.1213</title>
			<g id="shape1214-286" transform="translate(-42.5197,35.4331)">
				<title>Sheet.1214</title>
				<desc>0..1</desc>
				<rect x="4.90622" y="948.41" width="12.1487" height="9.59985" class="st8"/>
				<text x="4.91" y="955.61" class="st9">0..1</text>			</g>
			<g id="shape1215-289" transform="translate(6.38555,1.71517)">
				<title>Sheet.1215</title>
				<desc>0..*</desc>
				<rect x="4.90622" y="948.41" width="12.0784" height="9.59985" class="st8"/>
				<text x="4.91" y="955.61" class="st9">0..*</text>			</g>
			<g id="shape1213-292">
				<path d="M5.8 962.01 L6.16 962.01 L14.17 962.01 L14.17 997.01 L-42.52 997.01 L-42.52 989.43" class="st25"/>
			</g>
		</g>
		<g id="shape1207-299" transform="translate(519.49,-458.045)">
			<title>Sheet.1207</title>
			<desc>Include an Observation profile for each uncategorised data li...</desc>
			<rect x="0" y="923.744" width="161.575" height="38.2677" class="st17"/>
			<text x="4" y="940.18" class="st18">Include an Observation profile for each <tspan x="4" dy="1.2em" class="st3">uncategorised data linked to the problem</tspan></text>		</g>
		<g id="shape1216-303" transform="translate(383.427,-397.1)">
			<title>Process.1198</title>
			<desc>ReferralRequest</desc>
			<rect x="0" y="919.492" width="85.0394" height="42.5197" class="st1"/>
			<text x="9.7" y="943.75" class="st2">ReferralRequest</text>		</g>
		<g id="shape1217-306" transform="translate(383.427,-326.234)">
			<title>Process.1199</title>
			<desc>DocumentReference (Metadata only)</desc>
			<rect x="0" y="919.492" width="85.0394" height="42.5197" class="st1"/>
			<text x="4.8" y="938.05" class="st26">DocumentReference <tspan x="13.03" dy="1.2em" class="st3">(Metadata only)</tspan></text>		</g>
		<g id="shape1218-310" transform="translate(383.427,-184.502)">
			<title>Process.1038</title>
			<desc>DiagnosticReport</desc>
			<rect x="0" y="919.492" width="85.0394" height="42.5197" class="st1"/>
			<text x="7.51" y="943.75" class="st2">DiagnosticReport</text>		</g>
		<g id="shape1219-313" transform="translate(383.427,-99.4626)">
			<title>Process.1039</title>
			<desc>Observation (Test Group)</desc>
			<rect x="0" y="919.492" width="85.0394" height="42.5197" class="st1"/>
			<text x="17.66" y="937.75" class="st2">Observation <tspan x="17.01" dy="1.2em" class="st3">(Test Group)</tspan></text>		</g>
		<g id="shape1220-317" transform="translate(383.427,-255.368)">
			<title>Process.1040</title>
			<desc>ProcedureRequest</desc>
			<rect x="0" y="919.492" width="85.0394" height="42.5197" class="st1"/>
			<text x="4.89" y="943.75" class="st2">ProcedureRequest</text>		</g>
		<g id="group1221-320" transform="translate(418.86,-141.982)">
			<title>Relationship.1041</title>
			<g id="shape1222-321" transform="translate(8.64526,-4.56967)">
				<title>Sheet.1222</title>
				<desc>0..*</desc>
				<text x="0.91" y="959.61" class="st4">0..*</text>			</g>
			<g id="shape1223-323" transform="translate(-6.87429,-32.9161)">
				<title>Sheet.1223</title>
				<desc>1..1</desc>
				<text x="0.91" y="959.61" class="st4">1..1</text>			</g>
			<g id="shape1221-325">
				<path d="M7.09 956.21 L7.09 955.85 L7.09 919.49" class="st7"/>
			</g>
		</g>
		<g id="group1224-330" transform="translate(418.86,-227.022)">
			<title>Relationship.1047</title>
			<g id="shape1225-331" transform="translate(7.0163,2.27374E-13)">
				<title>Sheet.1225</title>
				<desc>1..1</desc>
				<text x="0.91" y="959.61" class="st4">1..1</text>			</g>
			<g id="shape1226-333" transform="translate(-12.7559,-15.9083)">
				<title>Sheet.1226</title>
				<desc>0..1</desc>
				<text x="0.91" y="959.61" class="st4">0..1</text>			</g>
			<g id="shape1224-335">
				<path d="M7.09 962.01 L7.09 939.83" class="st5"/>
			</g>
		</g>
		<g id="shape1227-340" transform="translate(383.427,-28.5965)">
			<title>Process.1050</title>
			<desc>Observation (Test Result)</desc>
			<rect x="0" y="919.492" width="85.0394" height="42.5197" class="st1"/>
			<text x="17.66" y="937.75" class="st2">Observation <tspan x="17.19" dy="1.2em" class="st3">(Test Result)</tspan></text>		</g>
		<g id="group1228-344" transform="translate(418.86,-71.1161)">
			<title>Relationship.1051</title>
			<g id="shape1229-345" transform="translate(9.92127,0.154746)">
				<title>Sheet.1229</title>
				<desc>0..*</desc>
				<text x="0.91" y="959.61" class="st4">0..*</text>			</g>
			<g id="shape1230-347" transform="translate(-12.7559,-18.8976)">
				<title>Sheet.1230</title>
				<desc>0..1</desc>
				<text x="0.91" y="959.61" class="st4">0..1</text>			</g>
			<g id="shape1228-349">
				<path d="M7.09 956.21 L7.09 955.85 L7.09 939.83" class="st25"/>
			</g>
		</g>
		<g id="shape1231-356" transform="translate(525.159,-99.4626)">
			<title>Process.1054</title>
			<desc>Specimen</desc>
			<rect x="0" y="919.492" width="85.0394" height="42.5197" class="st1"/>
			<text x="22.74" y="943.75" class="st2">Specimen</text>		</g>
		<g id="group1232-359" transform="translate(383.427,-56.9429)">
			<title>Relationship.1055</title>
			<g id="shape1233-360" transform="translate(-13.8906,1.04392)">
				<title>Sheet.1233</title>
				<desc>0..*</desc>
				<text x="0.91" y="959.61" class="st4">0..*</text>			</g>
			<g id="shape1234-362" transform="translate(13.9609,-118.461)">
				<title>Sheet.1234</title>
				<desc>0..1</desc>
				<text x="0.91" y="959.61" class="st4">0..1</text>			</g>
			<g id="shape1232-364">
				<path d="M-5.8 962.01 L-6.16 962.01 L-28.35 962.01 L-28.35 862.8 L28.35 862.8 L28.35 834.45" class="st7"/>
			</g>
		</g>
		<g id="shape1235-369" transform="translate(525.159,-255.368)">
			<title>Process.1058</title>
			<desc>Observation (Test Report Filing)</desc>
			<rect x="0" y="919.492" width="85.0394" height="42.5197" class="st1"/>
			<text x="17.66" y="937.75" class="st2">Observation <tspan x="4.07" dy="1.2em" class="st3">(Test Report Filing)</tspan></text>		</g>
		<g id="group1236-373" transform="translate(468.467,-113.636)">
			<title>Relationship.1059</title>
			<g id="shape1237-374" transform="translate(37.9837,4.80178)">
				<title>Sheet.1237</title>
				<desc>0..*</desc>
				<text x="0.91" y="959.61" class="st4">0..*</text>			</g>
			<g id="shape1238-376" transform="translate(0.141548,-11.7723)">
				<title>Sheet.1238</title>
				<desc>1..1</desc>
				<text x="0.91" y="959.61" class="st4">1..1</text>			</g>
			<g id="shape1236-378">
				<path d="M0 954.93 L50.53 954.93" class="st5"/>
			</g>
		</g>
		<g id="group1239-383" transform="translate(454.293,-184.502)">
			<title>Relationship.1062</title>
			<g id="shape1240-384" transform="translate(120.614,41.4933)">
				<title>Sheet.1240</title>
				<desc>0..*</desc>
				<text x="0.91" y="959.61" class="st4">0..*</text>			</g>
			<g id="shape1241-386" transform="translate(1.25731,10.6299)">
				<title>Sheet.1241</title>
				<desc>1..1</desc>
				<text x="0.91" y="959.61" class="st4">1..1</text>			</g>
			<g id="shape1239-388">
				<path d="M0 962.01 L0 976.18 L40.16 976.18 A2.3622 2.3622 0 1 1 44.88 976.18 L113.39 976.18 L113.39 998.37"
						class="st5"/>
			</g>
		</g>
		<g id="group1242-393" transform="translate(454.293,-71.1161)">
			<title>Relationship.1065</title>
			<g id="shape1243-394" transform="translate(120.614,-16.4581)">
				<title>Sheet.1243</title>
				<desc>0..*</desc>
				<text x="0.91" y="959.61" class="st4">0..*</text>			</g>
			<g id="shape1244-396" transform="translate(1.25731,-2.28483)">
				<title>Sheet.1244</title>
				<desc>1..1</desc>
				<text x="0.91" y="959.61" class="st4">1..1</text>			</g>
			<g id="shape1242-398">
				<path d="M0 962.01 L0 947.84 L113.39 947.84 L113.39 939.83" class="st5"/>
			</g>
		</g>
		<g id="group1245-403" transform="translate(454.293,-227.022)">
			<title>Relationship.1068</title>
			<g id="shape1246-404" transform="translate(54.4786,-37.7179)">
				<title>Sheet.1246</title>
				<desc>0..1</desc>
				<text x="0.91" y="959.61" class="st4">0..1</text>			</g>
			<g id="shape1247-406" transform="translate(12.4812,-3.54331)">
				<title>Sheet.1247</title>
				<desc>0..1</desc>
				<text x="0.91" y="959.61" class="st4">0..1</text>			</g>
			<g id="shape1245-408">
				<path d="M0 956.21 L0 955.85 L0 947.84 L28.35 947.84 L28.35 912.41 L70.87 912.41" class="st7"/>
			</g>
		</g>
		<g id="group1248-413" transform="translate(454.293,-141.982)">
			<title>Relationship.1071</title>
			<g id="shape1249-414" transform="translate(95.5423,-98.5598)">
				<title>Sheet.1249</title>
				<desc>0..1</desc>
				<text x="0.91" y="959.61" class="st4">0..1</text>			</g>
			<g id="shape1250-416" transform="translate(3.36797,-5.03762)">
				<title>Sheet.1250</title>
				<desc>0..1</desc>
				<text x="0.91" y="959.61" class="st4">0..1</text>			</g>
			<g id="shape1248-418">
				<path d="M0 956.21 L0 955.85 L0 947.84 L42.52 947.84 L42.52 862.8 L113.39 862.8 L113.39 848.63" class="st7"/>
			</g>
		</g>
		<g id="group1251-423" transform="translate(468.467,-49.8563)">
			<title>Relationship.1074</title>
			<g id="shape1252-424" transform="translate(141.936,-215.427)">
				<title>Sheet.1252</title>
				<desc>0..1</desc>
				<text x="0.91" y="959.61" class="st4">0..1</text>			</g>
			<g id="shape1253-426" transform="translate(0.485331,-3.85666)">
				<title>Sheet.1253</title>
				<desc>0..1</desc>
				<text x="0.91" y="959.61" class="st4">0..1</text>			</g>
			<g id="shape1251-428">
				<path d="M5.8 962.01 L6.16 962.01 L155.91 962.01 L155.91 735.24 L141.73 735.24" class="st7"/>
			</g>
		</g>
		<g id="shape1254-433" transform="translate(227.522,-14.4232)">
			<title>Sheet.1254</title>
			<path d="M0 962.01 L411.02 962.01 L411.02 664.37 L0 664.37 L0 962.01 Z" class="st15"/>
		</g>
		<g id="shape1255-435" transform="translate(241.695,-99.4626)">
			<title>Process.1237</title>
			<desc>DocumentReference (Test Result)</desc>
			<rect x="0" y="919.492" width="85.0394" height="42.5197" class="st1"/>
			<text x="4.8" y="938.05" class="st26">DocumentReference <tspan x="19.73" dy="1.2em" class="st3">(Test Result)</tspan></text>		</g>
		<g id="shape1256-439" transform="translate(241.695,-255.368)">
			<title>Process.1238</title>
			<desc>DocumentReference (Test Report)</desc>
			<rect x="0" y="919.492" width="85.0394" height="42.5197" class="st1"/>
			<text x="4.8" y="938.05" class="st26">DocumentReference <tspan x="18.58" dy="1.2em" class="st3">(Test Report)</tspan></text>		</g>
		<g id="group1257-443" transform="translate(397.6,-227.022)">
			<title>Relationship.1239</title>
			<g id="shape1258-444" transform="translate(-69.3427,-52.7587)">
				<title>Sheet.1258</title>
				<desc>0..1</desc>
				<text x="0.91" y="959.61" class="st4">0..1</text>			</g>
			<g id="shape1259-446" transform="translate(-15.4844,-0.867541)">
				<title>Sheet.1259</title>
				<desc>1..1</desc>
				<text x="0.91" y="959.61" class="st4">1..1</text>			</g>
			<g id="shape1257-448">
				<path d="M0 962.01 L0 947.84 L-42.52 947.84 L-42.52 912.41 L-64.71 912.41" class="st5"/>
			</g>
		</g>
		<g id="group1260-453" transform="translate(383.427,-113.636)">
			<title>Relationship.1242</title>
			<g id="shape1261-454" transform="translate(-55.1342,4.80178)">
				<title>Sheet.1261</title>
				<desc>0..*</desc>
				<text x="0.91" y="959.61" class="st4">0..*</text>			</g>
			<g id="shape1262-456" transform="translate(-17.0078,-10.239)">
				<title>Sheet.1262</title>
				<desc>1..1</desc>
				<text x="0.91" y="959.61" class="st4">1..1</text>			</g>
			<g id="shape1260-458">
				<path d="M0 954.93 L-25.98 954.93 A2.3622 2.3622 -180 0 0 -30.71 954.93 L-50.53 954.93" class="st5"/>
			</g>
		</g>
		<g id="group1263-463" transform="translate(397.6,-184.502)">
			<title>Relationship.1245</title>
			<g id="shape1264-464" transform="translate(-107.839,44.5642)">
				<title>Sheet.1264</title>
				<desc>0..*</desc>
				<text x="0.91" y="959.61" class="st4">0..*</text>			</g>
			<g id="shape1265-466" transform="translate(-17.4431,9.60354)">
				<title>Sheet.1265</title>
				<desc>1..1</desc>
				<text x="0.91" y="959.61" class="st4">1..1</text>			</g>
			<g id="shape1263-468">
				<path d="M0 962.01 L0 976.18 L-113.39 976.18 L-113.39 998.37" class="st5"/>
			</g>
		</g>
		<g id="group1266-473" transform="translate(383.427,-42.7697)">
			<title>Relationship.1248</title>
			<g id="shape1267-474" transform="translate(-92.126,-47.0894)">
				<title>Sheet.1267</title>
				<desc>0..*</desc>
				<text x="0.91" y="959.61" class="st4">0..*</text>			</g>
			<g id="shape1268-476" transform="translate(-14.1732,9.60355)">
				<title>Sheet.1268</title>
				<desc>1..1</desc>
				<text x="0.91" y="959.61" class="st4">1..1</text>			</g>
			<g id="shape1266-478">
				<path d="M0 962.01 L-99.21 962.01 L-99.21 911.48" class="st5"/>
			</g>
		</g>
		<g id="group1271-483" transform="translate(383.427,-418.36)">
			<title>Relationship.1253</title>
			<g id="shape1272-484" transform="translate(-29.6348,15.5235)">
				<title>Sheet.1272</title>
				<desc>0..*</desc>
				<rect x="4.90622" y="948.41" width="12.0784" height="9.59985" class="st8"/>
				<text x="4.91" y="955.61" class="st11">0..*</text>			</g>
			<g id="shape1273-487" transform="translate(-211.993,-386.333)">
				<title>Sheet.1273</title>
				<desc>0..*</desc>
				<rect x="4.90622" y="948.41" width="12.0784" height="9.59985" class="st8"/>
				<text x="4.91" y="955.61" class="st11">0..*</text>			</g>
			<g id="shape1271-490">
				<path d="M-5.8 962.01 L-6.16 962.01 L-181.89 962.01 A2.3622 2.3622 -180 1 0 -186.61 962.01 L-212.6 962.01 L-212.6
							 558.07" class="st12"/>
			</g>
		</g>
		<g id="group1274-495" transform="translate(383.427,-431.683)">
			<title>Relationship.1256</title>
			<g id="shape1275-496" transform="translate(-28.6726,15.5027)">
				<title>Sheet.1275</title>
				<desc>0..1</desc>
				<rect x="4.90622" y="948.41" width="12.1487" height="9.59985" class="st8"/>
				<text x="4.91" y="955.61" class="st11">0..1</text>			</g>
			<g id="shape1276-499" transform="translate(-183.727,-373.011)">
				<title>Sheet.1276</title>
				<desc>0..*</desc>
				<rect x="4.90622" y="948.41" width="12.0784" height="9.59985" class="st8"/>
				<text x="4.91" y="955.61" class="st11">0..*</text>			</g>
			<g id="shape1274-502">
				<path d="M-5.8 962.01 L-6.16 962.01 L-184.25 962.01 L-184.25 571.4" class="st12"/>
			</g>
		</g>
		<g id="group1279-507" transform="translate(383.427,-347.494)">
			<title>Relationship.1261</title>
			<g id="shape1280-508" transform="translate(-29.6348,15.1585)">
				<title>Sheet.1280</title>
				<desc>0..*</desc>
				<rect x="4.90622" y="948.41" width="12.0784" height="9.59985" class="st8"/>
				<text x="4.91" y="955.61" class="st11">0..*</text>			</g>
			<g id="shape1281-511" transform="translate(-211.993,-457.2)">
				<title>Sheet.1281</title>
				<desc>0..*</desc>
				<rect x="4.90622" y="948.41" width="12.0784" height="9.59985" class="st8"/>
				<text x="4.91" y="955.61" class="st11">0..*</text>			</g>
			<g id="shape1279-514">
				<path d="M-5.8 962.01 L-6.16 962.01 L-181.89 962.01 A2.3622 2.3622 -180 0 0 -186.61 962.01 L-212.6 962.01 L-212.6
							 487.21" class="st12"/>
			</g>
		</g>
		<g id="group1282-519" transform="translate(383.427,-360.817)">
			<title>Relationship.1264</title>
			<g id="shape1283-520" transform="translate(-28.6726,15.1215)">
				<title>Sheet.1283</title>
				<desc>0..1</desc>
				<rect x="4.90622" y="948.41" width="12.1487" height="9.59985" class="st8"/>
				<text x="4.91" y="955.61" class="st11">0..1</text>			</g>
			<g id="shape1284-523" transform="translate(-183.727,-443.877)">
				<title>Sheet.1284</title>
				<desc>0..*</desc>
				<rect x="4.90622" y="948.41" width="12.0784" height="9.59985" class="st8"/>
				<text x="4.91" y="955.61" class="st11">0..*</text>			</g>
			<g id="shape1282-526">
				<path d="M-5.8 962.01 L-6.16 962.01 L-184.25 962.01 L-184.25 500.53" class="st12"/>
			</g>
		</g>
		<g id="group1287-531" transform="translate(383.427,-205.762)">
			<title>Relationship.1269</title>
			<g id="shape1288-532" transform="translate(-29.6348,14.4287)">
				<title>Sheet.1288</title>
				<desc>0..*</desc>
				<rect x="4.90622" y="948.41" width="12.0784" height="9.59985" class="st8"/>
				<text x="4.91" y="955.61" class="st11">0..*</text>			</g>
			<g id="shape1289-535" transform="translate(-211.993,-598.932)">
				<title>Sheet.1289</title>
				<desc>0..*</desc>
				<rect x="4.90622" y="948.41" width="12.0784" height="9.59985" class="st8"/>
				<text x="4.91" y="955.61" class="st11">0..*</text>			</g>
			<g id="shape1287-538">
				<path d="M-5.8 962.01 L-6.16 962.01 L-212.6 962.01 L-212.6 345.48" class="st12"/>
			</g>
		</g>
		<g id="group1290-543" transform="translate(383.427,-219.085)">
			<title>Relationship.1272</title>
			<g id="shape1291-544" transform="translate(-28.6726,14.3592)">
				<title>Sheet.1291</title>
				<desc>0..1</desc>
				<rect x="4.90622" y="948.41" width="12.1487" height="9.59985" class="st8"/>
				<text x="4.91" y="955.61" class="st11">0..1</text>			</g>
			<g id="shape1292-547" transform="translate(-183.727,-585.609)">
				<title>Sheet.1292</title>
				<desc>0..*</desc>
				<rect x="4.90622" y="948.41" width="12.0784" height="9.59985" class="st8"/>
				<text x="4.91" y="955.61" class="st11">0..*</text>			</g>
			<g id="shape1290-550">
				<path d="M-5.8 962.01 L-6.16 962.01 L-184.25 962.01 L-184.25 358.8" class="st12"/>
			</g>
		</g>
		<g id="shape1299-555" transform="translate(346.646,1511.1) rotate(-169.592)">
			<title>Sheet.1299</title>
			<path d="M0 962.01 L47.07 962.01" class="st19"/>
		</g>
		<g id="shape1300-560" transform="translate(520.435,-377.967)">
			<title>Sheet.1300</title>
			<desc>Include a ReferralRequest profile for each referral data link...</desc>
			<rect x="0" y="923.744" width="153.543" height="38.2677" class="st27"/>
			<text x="4" y="934.78" class="st18">Include a ReferralRequest profile for <tspan x="4" dy="1.2em" class="st3">each referral data linked to the </tspan><tspan
						x="4" dy="1.2em" class="st3">problem</tspan></text>		</g>
		<g id="shape1301-565" transform="translate(525.159,-302.14)">
			<title>Sheet.1301</title>
			<desc>Include a DocumentReference profile containing metadata only ...</desc>
			<rect x="0" y="923.744" width="153.543" height="38.2677" class="st27"/>
			<text x="4" y="934.78" class="st18">Include a DocumentReference profile <tspan x="4" dy="1.2em" class="st3">containing metadata only for each </tspan><tspan
						x="4" dy="1.2em" class="st3">document linked to the problem</tspan></text>		</g>
		<g id="shape1302-570" transform="translate(351.371,1581.96) rotate(-169.592)">
			<title>Sheet.1302</title>
			<path d="M0 962.01 L47.07 962.01" class="st19"/>
		</g>
		<g id="shape1303-575" transform="translate(513.382,-174.378)">
			<title>Sheet.1303</title>
			<desc>Include a DiagnosticReport for each Investigation linked to t...</desc>
			<rect x="0" y="933.665" width="153.51" height="28.3465" class="st27"/>
			<text x="4" y="945.14" class="st18">Include a DiagnosticReport for each <tspan x="4" dy="1.2em" class="st3">Investigation linked to the problem.</tspan></text>		</g>
		<g id="shape1304-579" transform="translate(482.64,-0.25)">
			<title>Sheet.1304</title>
			<desc>Include all the ProcedureRequests, Observations, Specimens an...</desc>
			<rect x="0" y="923.744" width="194.612" height="38.2677" class="st27"/>
			<text x="4" y="934.78" class="st18">Include all the ProcedureRequests, Observations, <tspan x="4" dy="1.2em"
						class="st3">Specimens and DocumentReferences (metadata </tspan><tspan x="4" dy="1.2em" class="st3">only) related to the diagnostic report</tspan></text>		</g>
		<g id="shape1305-584" transform="translate(352.832,1726.43) rotate(-170.538)">
			<title>Sheet.1305</title>
			<path d="M0 962.01 L34.48 962.01" class="st19"/>
		</g>
	</g>
</svg>
