<?xml version="1.0" encoding="UTF-8" standalone="no"?>
<!DOCTYPE svg PUBLIC "-//W3C//DTD SVG 1.1//EN" "http://www.w3.org/Graphics/SVG/1.1/DTD/svg11.dtd">
<!-- Generated by Microsoft Visio, SVG Export Consultation_FHIR_Resource_Model.svg Page-1 -->
<svg xmlns="http://www.w3.org/2000/svg" xmlns:xlink="http://www.w3.org/1999/xlink" xmlns:ev="http://www.w3.org/2001/xml-events"
		width="8.11016in" height="5.84241in" viewBox="0 0 583.931 420.653" xml:space="preserve" color-interpolation-filters="sRGB"
		class="st15">
	<style type="text/css">
	<![CDATA[
		.st1 {stroke:#92d050;stroke-linecap:round;stroke-linejoin:round;stroke-width:1.25}
		.st2 {stroke:#0070c0;stroke-dasharray:0,6.75;stroke-linecap:round;stroke-linejoin:round;stroke-width:2.25}
		.st3 {stroke:#bfbfbf;stroke-width:2.25}
		.st4 {fill:#000000;font-family:Calibri;font-size:0.801659em}
		.st5 {font-size:1em}
		.st6 {fill:#fec000;stroke:#c8c8c8;stroke-linecap:round;stroke-linejoin:round;stroke-width:0.75}
		.st7 {fill:#feffff;font-family:Calibri;font-size:0.801659em;font-weight:bold}
		.st8 {font-size:1em;font-style:italic}
		.st9 {fill:#70ad47;stroke:#c8c8c8;stroke-linecap:round;stroke-linejoin:round;stroke-width:0.75}
		.st10 {fill:#feffff;font-family:Calibri;font-size:0.801979em}
		.st11 {fill:#4672c4;stroke:#c8c8c8;stroke-linecap:round;stroke-linejoin:round;stroke-width:0.75}
		.st12 {stroke:#f59d56;stroke-linecap:round;stroke-linejoin:round;stroke-width:0.75}
		.st13 {fill:none;stroke:none;stroke-linecap:round;stroke-linejoin:round;stroke-width:0.75}
		.st14 {fill:#92d050;font-family:Calibri;font-size:0.75em;font-weight:bold}
		.st15 {fill:none;fill-rule:evenodd;font-size:12px;overflow:visible;stroke-linecap:square;stroke-miterlimit:3}
	]]>
	</style>

	<g>
		<title>Page-1</title>
		<g id="shape1045-1" transform="translate(385.512,-165.807)">
			<title>Dynamic connector.1045</title>
			<path d="M0 420.65 L0 515.61 L-101.96 515.61" class="st1"/>
		</g>
		<g id="shape1048-4" transform="translate(283.556,-282.736)">
			<title>Dynamic connector.1048</title>
			<path d="M0 420.65 L70.64 420.65 L70.64 352.89" class="st1"/>
		</g>
		<g id="shape1043-7" transform="translate(283.556,-364.333)">
			<title>Dynamic connector.1043</title>
			<path d="M0 413.57 L59.44 413.57" class="st1"/>
		</g>
		<g id="group1006-10" transform="translate(-297.346,76.3237) rotate(-90)">
			<title>Annotation.1006</title>
			<g id="shape1007-11" transform="translate(447.743,420.653) rotate(90)">
				<title>Sheet.1007</title>
				<path d="M34.11 420.65 L0 420.65" class="st2"/>
			</g>
			<g id="shape1008-14" transform="translate(420.653,420.653) rotate(90) scale(-1,1)">
				<title>Sheet.1008</title>
				<desc>A consultation has context – ‘Date, Dr, Place, Type’ represen...</desc>
				<path d="M20.55 366.47 L0 366.47 L0 420.65 L20.55 420.65" class="st3"/>
				<text x="-114.68" y="379.13" transform="scale(-1,1)" class="st4">A consultation has context –<tspan x="-89.86"
							dy="1.2em" class="st5">‘</tspan>Date, Dr, Place, Type’ <tspan x="-99.06" dy="1.2em" class="st5">represented by the FHIR </tspan><tspan
							x="-80.78" dy="1.2em" class="st5">Encounter resource</tspan></text>			</g>
		</g>
		<g id="group1010-21" transform="translate(-297.346,170.814) rotate(-90)">
			<title>Annotation.1010</title>
			<g id="shape1012-22" transform="translate(420.653,420.653) rotate(90) scale(-1,1)">
				<title>Sheet.1012</title>
				<desc>A consultation as a grouped and organised collection of clini...</desc>
				<path d="M19.44 354.93 L0 354.93 L0 420.65 L19.44 420.65" class="st3"/>
				<text x="-77.68" y="367.59" transform="scale(-1,1)" class="st4">A consultation as a <tspan x="-94.4" dy="1.2em"
							class="st5">grouped and organised </tspan><tspan x="-108.82" dy="1.2em" class="st5">collection of clinical record </tspan><tspan
							x="-107.86" dy="1.2em" class="st5">entries is represented by a </tspan><tspan x="-90.45" dy="1.2em"
							class="st5">top</tspan>-level List resource</text>			</g>
			<g id="shape1011-30" transform="translate(453.515,420.202) rotate(89.9386)">
				<title>Sheet.1011</title>
				<path d="M32.69 420.65 L0 420.65" class="st2"/>
			</g>
		</g>
		<g id="group1015-33" transform="translate(-298.764,270.746) rotate(-90)">
			<title>Annotation.1015</title>
			<g id="shape1016-34" transform="translate(453.514,419.902) rotate(89.8976)">
				<title>Sheet.1016</title>
				<path d="M34.11 420.65 L0 420.65" class="st2"/>
			</g>
			<g id="shape1017-37" transform="translate(420.653,420.653) rotate(90) scale(-1,1)">
				<title>Sheet.1017</title>
				<desc>A Consultation may be organised into sub-groups sometimes des...</desc>
				<path d="M18.66 354.93 L0 354.93 L0 420.65 L18.66 420.65" class="st3"/>
				<text x="-92.25" y="367.59" transform="scale(-1,1)" class="st4">A Consultation may be <tspan x="-105.98" dy="1.2em"
							class="st5">organised into sub</tspan>-groups <tspan x="-97.82" dy="1.2em" class="st5">sometimes described as </tspan><tspan
							x="-83.45" dy="1.2em" class="st5">‘</tspan>topics’ or related to <tspan x="-40.98" dy="1.2em"
							class="st5">problems</tspan></text>			</g>
		</g>
		<g id="group1019-45" transform="translate(-297.128,382.669) rotate(-90)">
			<title>Annotation.1019</title>
			<g id="shape1020-46" transform="translate(453.515,420.653) rotate(90)">
				<title>Sheet.1020</title>
				<path d="M32.47 420.65 L0 420.65" class="st2"/>
			</g>
			<g id="shape1021-49" transform="translate(420.653,420.653) rotate(90) scale(-1,1)">
				<title>Sheet.1021</title>
				<desc>A topic is further decomposed into sub-headings equivalent to...</desc>
				<path d="M19.48 354.93 L0 354.93 L0 420.65 L19.48 420.65" class="st3"/>
				<text x="-69.45" y="367.59" transform="scale(-1,1)" class="st4">A topic is further <tspan x="-91.12" dy="1.2em"
							class="st5">decomposed into sub</tspan>-<tspan x="-103.63" dy="1.2em" class="st5">headings equivalent to or </tspan><tspan
							x="-109.82" dy="1.2em" class="st5">along the lines of the SOAP </tspan><tspan x="-106.93" dy="1.2em"
							class="st5">structure of medical notes</tspan></text>			</g>
		</g>
		<g id="shape1028-57" transform="translate(155.997,-145.733)">
			<title>Rectangle.1028</title>
			<desc>Topic/Problem (List.code = 25851000000105 | Topic (EHR) (reco...</desc>
			<rect x="0" y="346.459" width="127.559" height="74.1946" class="st6"/>
			<text x="34.02" y="374.9" class="st7">Topic/Problem<tspan x="2.73" dy="1.2em" class="st8">(List.code = 25851000000105 | </tspan><tspan
						x="4.85" dy="1.2em" class="st8">Topic (EHR) (record artifact) |</tspan></text>		</g>
		<g id="shape1029-62" transform="translate(155.997,-347.169)">
			<title>Rectangle.1029</title>
			<desc>Consultation Context (Encounter)</desc>
			<rect x="0" y="372.153" width="127.559" height="48.4999" class="st6"/>
			<text x="21.56" y="393.52" class="st7">Consultation Context <tspan x="40.59" dy="1.2em" class="st8">(Encounter)</tspan></text>		</g>
		<g id="shape1030-66" transform="translate(155.997,-33.7489)">
			<title>Rectangle.1030</title>
			<desc>Heading (List.code = 24781000000107 | Category (EHR) (record ...</desc>
			<rect x="0" y="346.459" width="127.559" height="74.1946" class="st6"/>
			<text x="47.33" y="369.13" class="st7">Heading <tspan x="2.73" dy="1.2em" class="st8">(List.code = 24781000000107 | </tspan><tspan
						x="18.12" dy="1.2em" class="st8">Category (EHR) (record </tspan><tspan x="43.71" dy="1.2em" class="st8">artifact)|)</tspan></text>		</g>
		<g id="group1031-72" transform="translate(-5.15964,199.89) rotate(-90)">
			<title>Annotation.1031</title>
			<g id="shape1032-73" transform="translate(-114.107,-83.9039) rotate(-18.7802)">
				<title>Sheet.1032</title>
				<path d="M42.94 420.65 L0 420.65" class="st2"/>
			</g>
			<g id="shape1033-76" transform="translate(420.653,314.354) rotate(90)">
				<title>Sheet.1033</title>
				<desc>Represents the authorship of the Consultation</desc>
				<path d="M17.72 378.02 L0 378.02 L0 420.65 L17.72 420.65" class="st3"/>
				<text x="4" y="390.68" class="st4">Represents the <tspan x="4" dy="1.2em" class="st5">authorship of the </tspan><tspan
							x="4" dy="1.2em" class="st5">Consultation</tspan></text>			</g>
		</g>
		<g id="group1034-82" transform="translate(154.476,56.4291) rotate(-90)">
			<title>Annotation.1034</title>
			<g id="shape1035-83" transform="translate(-390.249,367.056) rotate(-97.1973)">
				<title>Sheet.1035</title>
				<path d="M158.79 420.65 L0 420.65" class="st2"/>
			</g>
			<g id="shape1036-86" transform="translate(420.653,314.354) rotate(90)">
				<title>Sheet.1036</title>
				<desc>A Consultation or Record Entry may be attributed to more then...</desc>
				<path d="M17.72 366.47 L0 366.47 L0 420.65 L17.72 420.65" class="st3"/>
				<text x="4" y="379.13" class="st4">A Consultation or Record <tspan x="4" dy="1.2em" class="st5">Entry may be attributed </tspan><tspan
							x="4" dy="1.2em" class="st5">to more then one Actor </tspan><tspan x="4" dy="1.2em" class="st5">acting in different role</tspan></text>			</g>
		</g>
		<g id="group1037-93" transform="translate(163.278,328.112) rotate(-90)">
			<title>Annotation.1037</title>
			<g id="shape1038-94" transform="translate(-249.86,20.9282) rotate(-50.1881)">
				<title>Sheet.1038</title>
				<path d="M33.2 420.65 L0 420.65" class="st2"/>
			</g>
			<g id="shape1039-97" transform="translate(420.653,290.26) rotate(90)">
				<title>Sheet.1039</title>
				<desc>Record entries may appear directly within a consultation with...</desc>
				<path d="M21.73 274.12 L0 274.12 L0 420.65 L21.73 420.65" class="st3"/>
				<text x="4" y="286.78" class="st4">Record entries may appear <tspan x="4" dy="1.2em" class="st5">directly within a consultation </tspan><tspan
							x="4" dy="1.2em" class="st5">without being embedded in </tspan><tspan x="4" dy="1.2em" class="st5">the Topic/Heading structure. </tspan><tspan
							x="4" dy="1.2em" class="st5">By convention, an </tspan>‘artificial’ <tspan x="4" dy="1.2em" class="st5">topic level will be generated to </tspan><tspan
							x="4" dy="1.2em" class="st5">accommodate record entries </tspan><tspan x="4" dy="1.2em" class="st5">recorded within this </tspan>‘flat’ <tspan
							x="4" dy="1.2em" class="st5">structure. A Consultation may </tspan><tspan x="4" dy="1.2em" class="st5">exhibit both styles but </tspan><tspan
							x="4" dy="1.2em" class="st5">represented within different </tspan><tspan x="4" dy="1.2em" class="st5">topics.</tspan></text>			</g>
		</g>
		<g id="group1040-112" transform="translate(103.756,418.403) rotate(-90)">
			<title>Annotation.1040</title>
			<g id="shape1041-113" transform="translate(-271.508,-7.28927) rotate(-45.222)">
				<title>Sheet.1041</title>
				<path d="M58.93 420.65 L0 420.65" class="st2"/>
			</g>
			<g id="shape1042-116" transform="translate(420.653,289.003) rotate(90)">
				<title>Sheet.1042</title>
				<desc>Each heading may contain multiple record entries of different...</desc>
				<path d="M21.94 366.47 L0 366.47 L0 420.65 L21.94 420.65" class="st3"/>
				<text x="4" y="379.13" class="st4">Each heading may contain <tspan x="4" dy="1.2em" class="st5">multiple record entries of </tspan><tspan
							x="4" dy="1.2em" class="st5">different types represented by </tspan><tspan x="4" dy="1.2em" class="st5">an appropriate FHIR resource</tspan></text>			</g>
		</g>
		<g id="shape1046-123" transform="translate(342.992,657.09) rotate(180)">
			<title>Sheet.1046</title>
			<path d="M0 420.65 L59.44 420.65" class="st1"/>
		</g>
		<g id="shape1047-126" transform="translate(806.165,70.1556) rotate(90)">
			<title>Sheet.1047</title>
			<path d="M0 420.65 L142.17 420.65" class="st1"/>
		</g>
		<g id="shape1000-129" transform="translate(342.992,-350.498)">
			<title>Shape14.1000</title>
			<desc>Actor (Practitioner)</desc>
			<rect x="0" y="378.134" width="85.0394" height="42.5197" class="st9"/>
			<text x="31.87" y="396.51" class="st10">Actor<tspan x="16.67" dy="1.2em" class="st8">(Practitioner)</tspan></text>		</g>
		<g id="shape1004-133" transform="translate(342.992,-165.807)">
			<title>Shape40</title>
			<desc>Record Entry (Appropriate FHIR Resource)</desc>
			<rect x="0" y="378.134" width="85.0394" height="42.5197" class="st11"/>
			<text x="17.3" y="390.73" class="st10">Record Entry<tspan x="7.26" dy="1.2em" class="st5">(Appropriate FHIR </tspan><tspan
						x="23" dy="1.2em" class="st5">Resource)</tspan></text>		</g>
		<g id="shape1027-138" transform="translate(155.997,-245.639)">
			<title>Rectangle.1027</title>
			<desc>Consultation (List.code = 325851000000107| Consultation encou...</desc>
			<rect x="0" y="346.459" width="127.559" height="74.1946" class="st6"/>
			<text x="38.33" y="369.13" class="st7">Consultation <tspan x="1.38" dy="1.2em" class="st8">(List.code = 325851000000107|</tspan><tspan
						x="7.25" dy="1.2em" class="st8">Consultation encounter type </tspan><tspan x="31.31" dy="1.2em" class="st8">record artifact|)</tspan></text>		</g>
		<g id="shape1049-144" transform="translate(212.69,-319.833)">
			<title>Dynamic connector.1049</title>
			<path d="M7.09 420.65 L7.09 393.32" class="st12"/>
		</g>
		<g id="shape1050-147" transform="translate(212.69,-245.639)">
			<title>Dynamic connector.1050</title>
			<path d="M7.09 420.65 L7.09 446.36" class="st12"/>
		</g>
		<g id="shape1051-150" transform="translate(212.69,-145.733)">
			<title>Dynamic connector.1051</title>
			<path d="M7.09 420.65 L7.09 458.44" class="st12"/>
		</g>
		<g id="shape1052-153" transform="translate(272.126,-365.055)">
			<title>Sheet.1052</title>
			<desc>0..*</desc>
			<rect x="0" y="390.039" width="42.5197" height="30.6142" class="st13"/>
			<text x="14.33" y="408.05" class="st14">0..*</text>		</g>
		<g id="shape1053-156" transform="translate(311.662,-344.091)">
			<title>Sheet.1053</title>
			<desc>0..*</desc>
			<rect x="0" y="390.039" width="42.5197" height="30.6142" class="st13"/>
			<text x="14.33" y="408.05" class="st14">0..*</text>		</g>
		<g id="shape1054-159" transform="translate(342.992,-324.227)">
			<title>Sheet.1054</title>
			<desc>1.1</desc>
			<rect x="0" y="390.039" width="42.5197" height="30.6142" class="st13"/>
			<text x="15.5" y="408.05" class="st14">1.1</text>		</g>
		<g id="shape1055-162" transform="translate(211.775,-324.227)">
			<title>Sheet.1055</title>
			<desc>1.1</desc>
			<rect x="0" y="390.039" width="42.5197" height="30.6142" class="st13"/>
			<text x="15.5" y="408.05" class="st14">1.1</text>		</g>
		<g id="shape1056-165" transform="translate(187.087,-310.282)">
			<title>Sheet.1056</title>
			<desc>1.1</desc>
			<rect x="0" y="390.039" width="42.5197" height="30.6142" class="st13"/>
			<text x="15.5" y="408.05" class="st14">1.1</text>		</g>
		<g id="shape1057-168" transform="translate(210.861,-222.5)">
			<title>Sheet.1057</title>
			<desc>1.1</desc>
			<rect x="0" y="390.039" width="42.5197" height="30.6142" class="st13"/>
			<text x="15.5" y="408.05" class="st14">1.1</text>		</g>
		<g id="shape1058-171" transform="translate(187.087,-210.613)">
			<title>Sheet.1058</title>
			<desc>1..*</desc>
			<rect x="0" y="390.039" width="42.5197" height="30.6142" class="st13"/>
			<text x="14.33" y="408.05" class="st14">1..*</text>		</g>
		<g id="shape1059-174" transform="translate(205.375,-123.287)">
			<title>Sheet.1059</title>
			<desc>1</desc>
			<rect x="0" y="390.039" width="42.5197" height="30.6142" class="st13"/>
			<text x="18.98" y="408.05" class="st14">1</text>		</g>
		<g id="shape1060-177" transform="translate(188.458,-99.7596)">
			<title>Sheet.1060</title>
			<desc>0..*</desc>
			<rect x="0" y="390.039" width="42.5197" height="30.6142" class="st13"/>
			<text x="14.33" y="408.05" class="st14">0..*</text>		</g>
		<g id="shape1061-180" transform="translate(279.213,-64.3265)">
			<title>Sheet.1061</title>
			<desc>0.1</desc>
			<rect x="0" y="390.039" width="42.5197" height="30.6142" class="st13"/>
			<text x="15.5" y="408.05" class="st14">0.1</text>		</g>
		<g id="shape1062-183" transform="translate(273.472,-177.712)">
			<title>Sheet.1062</title>
			<desc>0.1</desc>
			<rect x="0" y="390.039" width="42.5197" height="30.6142" class="st13"/>
			<text x="15.5" y="408.05" class="st14">0.1</text>		</g>
		<g id="shape1063-186" transform="translate(274.641,-281.25)">
			<title>Sheet.1063</title>
			<desc>0..*</desc>
			<rect x="0" y="390.039" width="42.5197" height="30.6142" class="st13"/>
			<text x="14.33" y="408.05" class="st14">0..*</text>		</g>
		<g id="shape1064-189" transform="translate(351.679,-201.935)">
			<title>Sheet.1064</title>
			<desc>0..*</desc>
			<rect x="0" y="390.039" width="42.5197" height="30.6142" class="st13"/>
			<text x="14.33" y="408.05" class="st14">0..*</text>		</g>
		<g id="shape1065-192" transform="translate(312.36,-158.72)">
			<title>Sheet.1065</title>
			<desc>0..*</desc>
			<rect x="0" y="390.039" width="42.5197" height="30.6142" class="st13"/>
			<text x="14.33" y="408.05" class="st14">0..*</text>		</g>
		<g id="shape1066-195" transform="translate(378.425,-142.279)">
			<title>Sheet.1066</title>
			<desc>1..*</desc>
			<rect x="0" y="390.039" width="42.5197" height="30.6142" class="st13"/>
			<text x="14.33" y="408.05" class="st14">1..*</text>		</g>
		<g id="shape1067-198" transform="translate(378.425,-326.561)">
			<title>Sheet.1067</title>
			<desc>0..*</desc>
			<rect x="0" y="390.039" width="42.5197" height="30.6142" class="st13"/>
			<text x="14.33" y="408.05" class="st14">0..*</text>		</g>
	</g>
</svg>
