<?xml version="1.0" encoding="UTF-8" standalone="no"?>
<!DOCTYPE svg PUBLIC "-//W3C//DTD SVG 1.1//EN" "http://www.w3.org/Graphics/SVG/1.1/DTD/svg11.dtd">
<!-- Generated by Microsoft Visio, SVG Export Problem_Relationships_1_5.svg Problem 1-5 -->
<svg xmlns="http://www.w3.org/2000/svg" xmlns:xlink="http://www.w3.org/1999/xlink" xmlns:ev="http://www.w3.org/2001/xml-events"
		width="11.5059in" height="16.2795in" viewBox="0 0 828.425 1172.13" xml:space="preserve" color-interpolation-filters="sRGB"
		class="st19">
	<style type="text/css">
	<![CDATA[
		.st1 {fill:none;stroke:#0070c0;stroke-dasharray:4.25197,4.25197;stroke-linecap:round;stroke-linejoin:round;stroke-width:1.41732}
		.st2 {marker-end:url(#mrkr5-10);stroke:#4672c4;stroke-linecap:round;stroke-linejoin:round;stroke-width:1.41732}
		.st3 {fill:#4672c4;fill-opacity:1;stroke:#4672c4;stroke-opacity:1;stroke-width:0.35997120230382}
		.st4 {fill:#4672c4;stroke:#c8c8c8;stroke-linecap:round;stroke-linejoin:round;stroke-width:0.75}
		.st5 {fill:#000000;font-family:Calibri;font-size:0.801979em}
		.st6 {font-size:1em}
		.st7 {fill:#feffff;font-size:1em}
		.st8 {marker-end:url(#mrkr5-51);stroke:#70ad47;stroke-linecap:round;stroke-linejoin:round;stroke-width:1.41732}
		.st9 {fill:#70ad47;fill-opacity:1;stroke:#70ad47;stroke-opacity:1;stroke-width:0.35997120230382}
		.st10 {fill:#70ad47;stroke:#c8c8c8;stroke-linecap:round;stroke-linejoin:round;stroke-width:0.75}
		.st11 {fill:none;stroke:none;stroke-linecap:round;stroke-linejoin:round;stroke-width:0.75}
		.st12 {fill:#000000;font-family:Calibri;font-size:0.630112em}
		.st13 {fill:#00b050;font-size:1em}
		.st14 {fill:#000000;font-family:Calibri;font-size:0.687401em}
		.st15 {marker-end:url(#mrkr5-10);marker-start:url(#mrkr5-222);stroke:#4672c4;stroke-linecap:round;stroke-linejoin:round;stroke-width:1.41732}
		.st16 {fill:#70ad47;font-size:1em}
		.st17 {fill:#fec000;stroke:#c8c8c8;stroke-linecap:round;stroke-linejoin:round;stroke-width:0.75}
		.st18 {fill:#4672c4;font-size:1em}
		.st19 {fill:none;fill-rule:evenodd;font-size:12px;overflow:visible;stroke-linecap:square;stroke-miterlimit:3}
	]]>
	</style>

	<defs id="Markers">
		<g id="lend5">
			<path d="M 2 1 L 0 0 L 1.98117 -0.993387 C 1.67173 -0.364515 1.67301 0.372641 1.98465 1.00043 " style="stroke:none"/>
		</g>
		<marker id="mrkr5-10" class="st3" refX="-4.8615" orient="auto" markerUnits="strokeWidth" overflow="visible">
			<use xlink:href="#lend5" transform="scale(-2.778,-2.778) "/>
		</marker>
		<marker id="mrkr5-51" class="st9" refX="-4.8615" orient="auto" markerUnits="strokeWidth" overflow="visible">
			<use xlink:href="#lend5" transform="scale(-2.778,-2.778) "/>
		</marker>
		<marker id="mrkr5-222" class="st3" refX="4.6075" orient="auto" markerUnits="strokeWidth" overflow="visible">
			<use xlink:href="#lend5" transform="scale(2.778) "/>
		</marker>
	</defs>
	<g>
		<title></title>
		<g id="shape1-1" transform="translate(389.764,-789.449)">
			<title></title>
			<path d="M0 1172.13 L283.46 1172.13 L283.46 959.53 L0 959.53 L0 1172.13 Z" class="st1"/>
		</g>
		<g id="shape2-3" transform="translate(262.205,-66.6142)">
			<title></title>
			<path d="M0 1172.13 L418.11 1172.13 L418.11 877.32 L0 877.32 L0 1172.13 Z" class="st1"/>
		</g>
		<g id="shape3-5" transform="translate(489.685,-917.717)">
			<title></title>
			<path d="M70.16 1122.99 L0 1123.23 L0 1165.24" class="st2"/>
		</g>
		<g id="shape5-11" transform="translate(602.362,-917.008)">
			<title></title>
			<path d="M0 1143.78 L0 1165.24" class="st2"/>
		</g>
		<g id="shape6-16" transform="translate(559.843,-945.354)">
			<title></title>
			<desc>Medication Statement</desc>
			<rect x="0" y="1129.61" width="85.0394" height="42.5197" class="st4"/>
			<text x="20.26" y="1147.98" class="st5">Medication <tspan x="22.01" dy="1.2em" class="st6">Statement</tspan></text>		</g>
		<g id="shape8-20" transform="translate(503.15,-895.039)">
			<title></title>
			<path d="M0 1171.42 L49.8 1171.42" class="st2"/>
		</g>
		<g id="shape4-25" transform="translate(418.11,-874.488)">
			<title></title>
			<desc>MedicationRequest (Intent = Plan)</desc>
			<rect x="0" y="1129.61" width="85.0394" height="42.5197" class="st4"/>
			<text x="4.31" y="1147.98" class="st5">MedicationRequest <tspan x="14.72" dy="1.2em" class="st7">(Intent = Plan)</tspan></text>		</g>
		<g id="shape9-29" transform="translate(503.15,-824.882)">
			<title></title>
			<path d="M0 1172.13 L99.92 1172.13 L99.92 1126.58" class="st2"/>
		</g>
		<g id="shape11-34" transform="translate(460.63,-846.142)">
			<title></title>
			<path d="M0 1172.13 L0 1150.67" class="st2"/>
		</g>
		<g id="shape10-39" transform="translate(418.11,-803.622)">
			<title></title>
			<desc>MedicationRequest (Intent = Issue)</desc>
			<rect x="0" y="1129.61" width="85.0394" height="42.5197" class="st4"/>
			<text x="4.31" y="1147.98" class="st5">MedicationRequest <tspan x="13.24" dy="1.2em" class="st7">(Intent = Issue)</tspan></text>		</g>
		<g id="shape7-43" transform="translate(559.843,-874.488)">
			<title></title>
			<desc>Medication</desc>
			<rect x="0" y="1129.61" width="85.0394" height="42.5197" class="st4"/>
			<text x="20.26" y="1153.75" class="st5">Medication</text>		</g>
		<g id="shape12-46" transform="translate(269.291,-909.213)">
			<title></title>
			<path d="M0 1064.41 L0 1172.13 L141.93 1172.13" class="st8"/>
		</g>
		<g id="shape14-52" transform="translate(269.291,-838.346)">
			<title></title>
			<path d="M0 993.54 L0 1172.13 L141.93 1172.13" class="st8"/>
		</g>
		<g id="shape15-57" transform="translate(269.291,-767.48)">
			<title></title>
			<path d="M0 922.68 L0 1172.13 L141.93 1172.13" class="st8"/>
		</g>
		<g id="shape17-62" transform="translate(269.291,-696.614)">
			<title></title>
			<path d="M0 851.81 L0 1172.13 L141.93 1172.13" class="st8"/>
		</g>
		<g id="shape19-67" transform="translate(269.291,-625.748)">
			<title></title>
			<path d="M0 780.94 L0 1172.13 L141.93 1172.13" class="st8"/>
		</g>
		<g id="shape21-72" transform="translate(269.291,-554.882)">
			<title></title>
			<path d="M0 710.08 L0 1172.13 L141.93 1172.13" class="st8"/>
		</g>
		<g id="shape23-77" transform="translate(269.291,-484.016)">
			<title></title>
			<path d="M0 639.21 L0 1172.13 L141.93 1172.13" class="st8"/>
		</g>
		<g id="shape25-82" transform="translate(269.291,-420.945)">
			<title></title>
			<path d="M0 576.14 L0 1172.13 L141.93 1172.13" class="st8"/>
		</g>
		<g id="shape27-87" transform="translate(269.291,-271.417)">
			<title></title>
			<path d="M0 426.61 L0 1172.13 L141.93 1172.13" class="st8"/>
		</g>
		<g id="shape29-92" transform="translate(248.74,-895.039)">
			<title></title>
			<path d="M0 1050.24 L0 1172.13 L162.48 1172.13" class="st8"/>
		</g>
		<g id="shape30-97" transform="translate(248.74,-753.307)">
			<title></title>
			<path d="M0 908.5 L0 1172.13 L162.48 1172.13" class="st8"/>
		</g>
		<g id="shape31-102" transform="translate(248.74,-682.441)">
			<title></title>
			<path d="M0 837.64 L0 1172.13 L162.48 1172.13" class="st8"/>
		</g>
		<g id="shape32-107" transform="translate(248.74,-611.575)">
			<title></title>
			<path d="M0 766.77 L0 1172.13 L162.48 1172.13" class="st8"/>
		</g>
		<g id="shape33-112" transform="translate(248.74,-540.709)">
			<title></title>
			<path d="M0 695.91 L0 1172.13 L162.48 1172.13" class="st8"/>
		</g>
		<g id="shape34-117" transform="translate(248.74,-469.843)">
			<title></title>
			<path d="M0 625.04 L0 1172.13 L162.48 1172.13" class="st8"/>
		</g>
		<g id="shape35-122" transform="translate(248.74,-404.646)">
			<title></title>
			<path d="M0 559.84 L0 1172.13 L162.48 1172.13" class="st8"/>
		</g>
		<g id="shape36-127" transform="translate(248.74,-254.409)">
			<title></title>
			<path d="M0 409.61 L0 1172.13 L162.48 1172.13" class="st8"/>
		</g>
		<g id="shape13-132" transform="translate(216.142,-1016.93)">
			<title></title>
			<desc>ProblemHeader (Condition)</desc>
			<rect x="0" y="1129.61" width="85.0394" height="42.5197" class="st10"/>
			<text x="11.65" y="1147.98" class="st5">ProblemHeader <tspan x="20.56" dy="1.2em" class="st6">(Condition)</tspan></text>		</g>
		<g id="shape16-136" transform="translate(418.11,-732.756)">
			<title></title>
			<desc>AllergyIntolerance</desc>
			<rect x="0" y="1129.61" width="85.0394" height="42.5197" class="st4"/>
			<text x="6.68" y="1153.75" class="st5">AllergyIntolerance</text>		</g>
		<g id="shape18-139" transform="translate(418.11,-661.89)">
			<title></title>
			<desc>Immunization</desc>
			<rect x="0" y="1129.61" width="85.0394" height="42.5197" class="st4"/>
			<text x="15.47" y="1153.75" class="st5">Immunization</text>		</g>
		<g id="shape20-142" transform="translate(418.11,-591.024)">
			<title></title>
			<desc>Observation (Uncategorised)</desc>
			<rect x="0" y="1129.61" width="85.0394" height="42.5197" class="st4"/>
			<text x="18.59" y="1147.98" class="st5">Observation <tspan x="11.25" dy="1.2em" class="st7">(Uncategorised)</tspan></text>		</g>
		<g id="shape37-146" transform="translate(272.835,-983.622)">
			<title></title>
			<desc>Primary Item</desc>
			<rect x="0" y="1153.7" width="56.6929" height="18.4252" class="st11"/>
			<text x="-5.67" y="1160.64" class="st12">Primary <tspan x="-5.67" dy="1.2em" class="st13">Item</tspan></text>		</g>
		<g id="shape38-150" transform="translate(184.252,-983.622)">
			<title></title>
			<desc>Associated Item</desc>
			<rect x="0" y="1153.7" width="56.6929" height="18.4252" class="st11"/>
			<text x="24.66" y="1160.64" class="st12">Associated <tspan x="43.52" dy="1.2em" class="st13">Item</tspan></text>		</g>
		<g id="shape22-154" transform="translate(418.11,-520.157)">
			<title></title>
			<desc>ReferralRequest</desc>
			<rect x="0" y="1129.61" width="85.0394" height="42.5197" class="st4"/>
			<text x="10.93" y="1153.75" class="st5">ReferralRequest</text>		</g>
		<g id="shape24-157" transform="translate(418.11,-449.291)">
			<title></title>
			<desc>DocumentReference (Metadata only)</desc>
			<rect x="0" y="1129.61" width="85.0394" height="42.5197" class="st4"/>
			<text x="7.95" y="1148.39" class="st14">DocumentReference <tspan x="15.5" dy="1.2em" class="st7">(Metadata only)</tspan></text>		</g>
		<g id="shape39-161" transform="translate(460.63,-276.378)">
			<title></title>
			<path d="M0 1172.13 L0 1150.67" class="st2"/>
		</g>
		<g id="shape41-166" transform="translate(460.63,-191.339)">
			<title></title>
			<path d="M0 1129.61 L0 1165.24" class="st2"/>
		</g>
		<g id="shape43-171" transform="translate(390.472,-109.134)">
			<title></title>
			<path d="M56.69 1047.4 L56.69 1066.54 L0 1066.54 L0 1172.13 L20.75 1172.13" class="st2"/>
		</g>
		<g id="shape45-176" transform="translate(481.89,-191.339)">
			<title></title>
			<path d="M0 1129.61 L0 1148.03 L121.18 1148.03 L121.18 1165.24" class="st2"/>
		</g>
		<g id="shape47-181" transform="translate(319.606,-191.339)">
			<title></title>
			<path d="M113.39 1129.61 L113.39 1140.94 L0 1140.94 L0 1165.24" class="st2"/>
		</g>
		<g id="shape49-186" transform="translate(361.417,-276.378)">
			<title></title>
			<path d="M71.57 1172.13 L71.57 1155.12 L21.26 1155.12 L21.26 1123.23 L6.89 1123.23" class="st2"/>
		</g>
		<g id="shape28-191" transform="translate(418.11,-233.858)">
			<title></title>
			<desc>DiagnosticReport</desc>
			<rect x="0" y="1129.61" width="85.0394" height="42.5197" class="st4"/>
			<text x="8.82" y="1153.75" class="st5">DiagnosticReport</text>		</g>
		<g id="shape51-194" transform="translate(361.417,-169.37)">
			<title></title>
			<path d="M56.69 1171.42 L6.89 1171.42" class="st2"/>
		</g>
		<g id="shape52-199" transform="translate(503.15,-169.37)">
			<title></title>
			<path d="M0 1171.42 L49.8 1171.42" class="st2"/>
		</g>
		<g id="shape42-204" transform="translate(418.11,-148.819)">
			<title></title>
			<desc>Observation (Test Group)</desc>
			<rect x="0" y="1129.61" width="85.0394" height="42.5197" class="st4"/>
			<text x="18.59" y="1147.98" class="st5">Observation <tspan x="17.97" dy="1.2em" class="st7">(Test Group)</tspan></text>		</g>
		<g id="shape40-208" transform="translate(418.11,-304.724)">
			<title></title>
			<desc>ProcedureRequest</desc>
			<rect x="0" y="1129.61" width="85.0394" height="42.5197" class="st4"/>
			<text x="6.31" y="1153.75" class="st5">ProcedureRequest</text>		</g>
		<g id="shape53-211" transform="translate(489.685,-120.472)">
			<title></title>
			<path d="M0 1172.13 L0 1155.12 L113.39 1155.12 L113.39 1150.67" class="st2"/>
		</g>
		<g id="shape54-216" transform="translate(460.63,-120.472)">
			<title></title>
			<path d="M0 1165.6 L0 1165.24 L0 1150.67" class="st15"/>
		</g>
		<g id="shape55-224" transform="translate(318.898,-99.2126)">
			<title></title>
			<path d="M99.21 1172.13 L0 1172.13 L0 1129.41" class="st2"/>
		</g>
		<g id="shape44-229" transform="translate(418.11,-77.9528)">
			<title></title>
			<desc>Observation (Test Result)</desc>
			<rect x="0" y="1129.61" width="85.0394" height="42.5197" class="st4"/>
			<text x="18.59" y="1147.98" class="st5">Observation <tspan x="18.15" dy="1.2em" class="st7">(Test Result)</tspan></text>		</g>
		<g id="shape46-233" transform="translate(559.843,-148.819)">
			<title></title>
			<desc>Specimen</desc>
			<rect x="0" y="1129.61" width="85.0394" height="42.5197" class="st4"/>
			<text x="23.48" y="1153.75" class="st5">Specimen</text>		</g>
		<g id="shape56-236" transform="translate(503.15,-98.5039)">
			<title></title>
			<path d="M141.73 945.35 L156.61 945.35 L156.61 1172.13 L6.89 1172.13" class="st2"/>
		</g>
		<g id="shape58-241" transform="translate(482.598,-277.087)">
			<title></title>
			<path d="M77.24 1123.94 L41.81 1123.94 L41.81 1155.83 L0 1155.83 L0 1165.24" class="st2"/>
		</g>
		<g id="shape59-246" transform="translate(481.89,-191.339)">
			<title></title>
			<path d="M121.18 1058.74 L121.18 1084.25 L42.52 1084.25 L42.52 1155.12 L0 1155.12 L0 1165.24" class="st2"/>
		</g>
		<g id="shape57-251" transform="translate(559.843,-304.724)">
			<title></title>
			<desc>Observation (Test Report Filing)</desc>
			<rect x="0" y="1129.61" width="85.0394" height="42.5197" class="st4"/>
			<text x="18.59" y="1147.98" class="st5">Observation <tspan x="5.51" dy="1.2em" class="st7">(Test Report Filing)</tspan></text>		</g>
		<g id="shape48-255" transform="translate(276.378,-148.819)">
			<title></title>
			<desc>DocumentReference (Test Result)</desc>
			<rect x="0" y="1129.61" width="85.0394" height="42.5197" class="st4"/>
			<text x="7.95" y="1148.39" class="st14">DocumentReference <tspan x="21.63" dy="1.2em" class="st7">(Test Result)</tspan></text>		</g>
		<g id="shape50-259" transform="translate(276.378,-304.724)">
			<title></title>
			<desc>DocumentReference (Test Report)</desc>
			<rect x="0" y="1129.61" width="85.0394" height="42.5197" class="st4"/>
			<text x="7.95" y="1148.39" class="st14">DocumentReference <tspan x="20.58" dy="1.2em" class="st7">(Test Report)</tspan></text>		</g>
		<g id="shape60-263" transform="translate(266.102,-1099.13)">
			<title></title>
			<desc>0..*</desc>
			<rect x="0" y="1162.91" width="13.4646" height="9.2126" class="st11"/>
			<text x="1.02" y="1169.79" class="st12">0<tspan class="st16">..*</tspan></text>		</g>
		<g id="shape61-267" transform="translate(216.142,-1115.43)">
			<title></title>
			<desc>Encounters</desc>
			<rect x="0" y="1129.61" width="85.0394" height="42.5197" class="st17"/>
			<text x="20.45" y="1153.75" class="st5">Encounters</text>		</g>
		<g id="shape26-270" transform="translate(418.11,-384.094)">
			<title></title>
			<desc>ProcedureRequest (Diary Entries)</desc>
			<rect x="0" y="1129.61" width="85.0394" height="42.5197" class="st4"/>
			<text x="11.48" y="1148.39" class="st14">ProcedureRequest <tspan x="18.71" dy="1.2em" class="st7">(Diary Entries)</tspan></text>		</g>
		<g id="shape62-274" transform="translate(544.252,-970.157)">
			<title></title>
			<desc>1..1</desc>
			<rect x="0" y="1162.91" width="13.4646" height="9.2126" class="st11"/>
			<text x="0.99" y="1169.79" class="st12">1<tspan class="st18">..1</tspan></text>		</g>
		<g id="shape63-278" transform="translate(269.291,-1036.06)">
			<title></title>
			<path d="M0 1148.74 L0 1120.39 L60.94 1120.39 L60.94 1172.13 L40.2 1172.13" class="st8"/>
		</g>
		<g id="shape64-283" transform="translate(389.764,-391.181)">
			<title></title>
			<desc>0..*</desc>
			<rect x="0" y="1155.12" width="21.2598" height="17.0079" class="st11"/>
			<text x="4.92" y="1165.89" class="st12">0..*</text>		</g>
		<g id="shape65-286" transform="translate(389.764,-405)">
			<title></title>
			<desc>0..1</desc>
			<rect x="0" y="1155.12" width="21.2598" height="17.0079" class="st11"/>
			<text x="4.89" y="1165.89" class="st12">0..1</text>		</g>
		<g id="shape66-289" transform="translate(461.339,-576.85)">
			<title></title>
			<path d="M0 1156.54 L0 1172.13 L72.99 1172.13 L72.99 1136.69 L50.12 1136.69" class="st2"/>
		</g>
		<g id="shape67-294" transform="translate(234.213,-1071.5)">
			<title></title>
			<desc>0..*</desc>
			<rect x="0" y="1162.91" width="13.4646" height="9.2126" class="st11"/>
			<text x="1.02" y="1169.79" class="st12">0<tspan class="st16">..*</tspan></text>		</g>
		<g id="shape68-298" transform="translate(440.787,-295.512)">
			<title></title>
			<desc>0..1</desc>
			<rect x="0" y="1162.91" width="13.4646" height="9.2126" class="st11"/>
			<text x="0.99" y="1169.79" class="st12">0..1</text>		</g>
		<g id="shape69-301" transform="translate(462.756,-277.795)">
			<title></title>
			<desc>1..1</desc>
			<rect x="0" y="1162.91" width="13.4646" height="9.2126" class="st11"/>
			<text x="0.99" y="1169.79" class="st12">1..1</text>		</g>
		<g id="shape70-304" transform="translate(488.976,-284.173)">
			<title></title>
			<desc>0..1</desc>
			<rect x="0" y="1162.91" width="13.4646" height="9.2126" class="st11"/>
			<text x="0.99" y="1169.79" class="st12">0..1</text>		</g>
		<g id="shape71-307" transform="translate(543.543,-315.354)">
			<title></title>
			<desc>0..1</desc>
			<rect x="0" y="1162.91" width="13.4646" height="9.2126" class="st11"/>
			<text x="0.99" y="1169.79" class="st12">0..1</text>		</g>
		<g id="shape72-310" transform="translate(586.063,-295.512)">
			<title></title>
			<desc>0..1</desc>
			<rect x="0" y="1162.91" width="13.4646" height="9.2126" class="st11"/>
			<text x="0.99" y="1169.79" class="st12">0..1</text>		</g>
		<g id="shape73-313" transform="translate(648.425,-327.402)">
			<title></title>
			<desc>0..1</desc>
			<rect x="0" y="1162.91" width="13.4646" height="9.2126" class="st11"/>
			<text x="0.99" y="1169.79" class="st12">0..1</text>		</g>
		<g id="shape74-316" transform="translate(610.157,-138.189)">
			<title></title>
			<desc>0..*</desc>
			<rect x="0" y="1162.91" width="13.4646" height="9.2126" class="st11"/>
			<text x="1.02" y="1169.79" class="st12">0..*</text>		</g>
		<g id="shape75-319" transform="translate(447.165,-223.937)">
			<title></title>
			<desc>1..1</desc>
			<rect x="0" y="1162.91" width="13.4646" height="9.2126" class="st11"/>
			<text x="0.99" y="1169.79" class="st12">1..1</text>		</g>
		<g id="shape76-322" transform="translate(433.701,-223.937)">
			<title></title>
			<desc>0..1</desc>
			<rect x="0" y="1162.91" width="13.4646" height="9.2126" class="st11"/>
			<text x="0.99" y="1169.79" class="st12">0..1</text>		</g>
		<g id="shape77-325" transform="translate(542.835,-153.78)">
			<title></title>
			<desc>0..*</desc>
			<rect x="0" y="1162.91" width="13.4646" height="9.2126" class="st11"/>
			<text x="1.02" y="1169.79" class="st12">0..*</text>		</g>
		<g id="shape78-328" transform="translate(465.591,-122.598)">
			<title></title>
			<desc>0..*</desc>
			<rect x="0" y="1162.91" width="13.4646" height="9.2126" class="st11"/>
			<text x="1.02" y="1169.79" class="st12">0..*</text>		</g>
		<g id="shape79-331" transform="translate(440.787,-140.315)">
			<title></title>
			<desc>0..1</desc>
			<rect x="0" y="1162.91" width="13.4646" height="9.2126" class="st11"/>
			<text x="0.99" y="1169.79" class="st12">0..1</text>		</g>
		<g id="shape80-334" transform="translate(402.52,-114.803)">
			<title></title>
			<desc>0..*</desc>
			<rect x="0" y="1162.91" width="13.4646" height="9.2126" class="st11"/>
			<text x="1.02" y="1169.79" class="st12">0..*</text>		</g>
		<g id="shape81-337" transform="translate(512.362,-99.9213)">
			<title></title>
			<desc>0..1</desc>
			<rect x="0" y="1162.91" width="13.4646" height="9.2126" class="st11"/>
			<text x="0.99" y="1169.79" class="st12">0..1</text>		</g>
		<g id="shape82-340" transform="translate(491.811,-122.598)">
			<title></title>
			<desc>1..1</desc>
			<rect x="0" y="1162.91" width="13.4646" height="9.2126" class="st11"/>
			<text x="0.99" y="1169.79" class="st12">1..1</text>		</g>
		<g id="shape83-343" transform="translate(505.276,-172.913)">
			<title></title>
			<desc>1..1</desc>
			<rect x="0" y="1162.91" width="13.4646" height="9.2126" class="st11"/>
			<text x="0.99" y="1169.79" class="st12">1..1</text>		</g>
		<g id="shape84-346" transform="translate(488.268,-199.134)">
			<title></title>
			<desc>0..1</desc>
			<rect x="0" y="1162.91" width="13.4646" height="9.2126" class="st11"/>
			<text x="0.99" y="1169.79" class="st12">0..1</text>		</g>
		<g id="shape85-349" transform="translate(463.465,-199.843)">
			<title></title>
			<desc>0..*</desc>
			<rect x="0" y="1162.91" width="13.4646" height="9.2126" class="st11"/>
			<text x="1.02" y="1169.79" class="st12">0..*</text>		</g>
		<g id="shape86-352" transform="translate(512.717,-615.118)">
			<title></title>
			<desc>0..*</desc>
			<rect x="0" y="1162.91" width="13.4646" height="9.2126" class="st11"/>
			<text x="1.02" y="1169.79" class="st12">0<tspan class="st18">..*</tspan></text>		</g>
		<g id="shape87-356" transform="translate(391.181,-271.417)">
			<title></title>
			<desc>0..1</desc>
			<rect x="0" y="1155.12" width="21.2598" height="17.0079" class="st11"/>
			<text x="4.89" y="1165.89" class="st12">0..1</text>		</g>
		<g id="shape88-359" transform="translate(273.543,-1071.5)">
			<title></title>
			<desc>0..*</desc>
			<rect x="0" y="1162.91" width="13.4646" height="9.2126" class="st11"/>
			<text x="1.02" y="1169.79" class="st12">0..*</text>		</g>
		<g id="shape89-362" transform="translate(258.661,-1059.45)">
			<title></title>
			<path d="M0 1172.13 L0 1123.03" class="st8"/>
		</g>
	</g>
</svg>
