<?xml version="1.0" encoding="UTF-8" standalone="no"?>
<!DOCTYPE svg PUBLIC "-//W3C//DTD SVG 1.1//EN" "http://www.w3.org/Graphics/SVG/1.1/DTD/svg11.dtd">
<!-- Generated by Microsoft Visio, SVG Export Uncategorised_Structure.svg Page-1 -->
<svg xmlns="http://www.w3.org/2000/svg" xmlns:xlink="http://www.w3.org/1999/xlink" xmlns:ev="http://www.w3.org/2001/xml-events"
		width="8.66836in" height="4.73135in" viewBox="0 0 624.122 340.657" xml:space="preserve" color-interpolation-filters="sRGB"
		class="st12">
	<style type="text/css">
	<![CDATA[
		.st1 {fill:#4672c4;stroke:#c8c8c8;stroke-width:0.25}
		.st2 {fill:#feffff;font-family:Calibri;font-size:0.833336em}
		.st3 {font-size:1em}
		.st4 {fill:#70ad47;stroke:#c8c8c8;stroke-width:0.25}
		.st5 {marker-start:url(#mrkr5-15);stroke:#00b050;stroke-linecap:round;stroke-linejoin:round;stroke-width:1}
		.st6 {fill:#00b050;fill-opacity:1;stroke:#00b050;stroke-opacity:1;stroke-width:0.28409090909091}
		.st7 {marker-end:url(#mrkr5-37);marker-start:url(#mrkr5-35);stroke:#4672c4;stroke-linecap:round;stroke-linejoin:round;stroke-width:1}
		.st8 {fill:#4672c4;fill-opacity:1;stroke:#4672c4;stroke-opacity:1;stroke-width:0.28409090909091}
		.st9 {fill:#fec000;stroke:#c8c8c8;stroke-width:0.25}
		.st10 {marker-end:url(#mrkr5-93);stroke:#ffc000;stroke-linecap:round;stroke-linejoin:round;stroke-width:1}
		.st11 {fill:#ffc000;fill-opacity:1;stroke:#ffc000;stroke-opacity:1;stroke-width:0.28409090909091}
		.st12 {fill:none;fill-rule:evenodd;font-size:12px;overflow:visible;stroke-linecap:square;stroke-miterlimit:3}
	]]>
	</style>

	<defs id="Markers">
		<g id="lend5">
			<path d="M 2 1 L 0 0 L 1.98117 -0.993387 C 1.67173 -0.364515 1.67301 0.372641 1.98465 1.00043 " style="stroke:none"/>
		</g>
		<marker id="mrkr5-15" class="st6" refX="5.8" orient="auto" markerUnits="strokeWidth" overflow="visible">
			<use xlink:href="#lend5" transform="scale(3.52) "/>
		</marker>
		<marker id="mrkr5-35" class="st8" refX="5.8" orient="auto" markerUnits="strokeWidth" overflow="visible">
			<use xlink:href="#lend5" transform="scale(3.52) "/>
		</marker>
		<marker id="mrkr5-37" class="st8" refX="-6.16" orient="auto" markerUnits="strokeWidth" overflow="visible">
			<use xlink:href="#lend5" transform="scale(-3.52,-3.52) "/>
		</marker>
		<marker id="mrkr5-93" class="st11" refX="-6.16" orient="auto" markerUnits="strokeWidth" overflow="visible">
			<use xlink:href="#lend5" transform="scale(-3.52,-3.52) "/>
		</marker>
	</defs>
	<g>
		<title></title>
		<g id="shape1041-1" transform="translate(198.675,-170.329)">
			<title></title>
			<desc>Uncategorised Data Item 1</desc>
			<rect x="0" y="298.138" width="85.0394" height="42.5197" class="st1"/>
			<text x="2.39" y="316.4" class="st2">Uncategorised Data <tspan x="29.44" dy="1.2em" class="st3">Item 1</tspan></text>		</g>
		<g id="shape1056-5" transform="translate(538.833,-85.2894)">
			<title></title>
			<desc>ProblemHeader (Condition)</desc>
			<rect x="0" y="298.138" width="85.0394" height="42.5197" class="st4"/>
			<text x="10.44" y="316.4" class="st2">ProblemHeader <tspan x="19.7" dy="1.2em" class="st3">(Condition)</tspan></text>		</g>
		<g id="group1060-9" transform="translate(283.715,-191.589)">
			<title></title>
			<g id="shape1060-10">
				<path d="M5.8 340.66 L6.16 340.66 L198.43 340.66 L198.43 425.7 L255.12 425.7" class="st5"/>
			</g>
		</g>
		<g id="shape1089-16" transform="translate(340.407,-113.636)">
			<title></title>
			<desc>Uncategorised Data Item 2</desc>
			<rect x="0" y="298.138" width="85.0394" height="42.5197" class="st1"/>
			<text x="2.39" y="316.4" class="st2">Uncategorised Data <tspan x="29.44" dy="1.2em" class="st3">Item 2</tspan></text>		</g>
		<g id="shape1090-20" transform="translate(340.407,-56.9429)">
			<title></title>
			<desc>Uncategorised Data Item 3</desc>
			<rect x="0" y="298.138" width="85.0394" height="42.5197" class="st1"/>
			<text x="2.39" y="316.4" class="st2">Uncategorised Data <tspan x="29.44" dy="1.2em" class="st3">Item 3</tspan></text>		</g>
		<g id="shape1091-24" transform="translate(340.407,-0.25)">
			<title></title>
			<desc>Uncategorised Data Item 4</desc>
			<rect x="0" y="298.138" width="85.0394" height="42.5197" class="st1"/>
			<text x="2.39" y="316.4" class="st2">Uncategorised Data <tspan x="29.44" dy="1.2em" class="st3">Item 4</tspan></text>		</g>
		<g id="group1092-28" transform="translate(340.407,-141.982)">
			<title></title>
			<g id="shape1092-29">
				<path d="M-5.8 340.66 L-6.16 340.66 L-85.04 340.66 L-85.04 318.47" class="st7"/>
			</g>
		</g>
		<g id="group1093-38" transform="translate(425.447,-134.896)">
			<title></title>
			<g id="shape1093-39">
				<path d="M5.8 340.66 L6.16 340.66 L56.69 340.66 L56.69 369 L113.39 369" class="st5"/>
			</g>
		</g>
		<g id="group1095-44" transform="translate(340.407,-85.2894)">
			<title></title>
			<g id="shape1095-45">
				<path d="M-5.8 340.66 L-6.16 340.66 L-99.21 340.66 L-99.21 261.78" class="st7"/>
			</g>
		</g>
		<g id="group1096-52" transform="translate(340.407,-28.5965)">
			<title></title>
			<g id="shape1096-53">
				<path d="M-5.8 340.66 L-6.16 340.66 L-113.39 340.66 L-113.39 205.09" class="st7"/>
			</g>
		</g>
		<g id="group1097-60" transform="translate(425.447,-78.2028)">
			<title></title>
			<g id="shape1097-61">
				<path d="M5.8 340.66 L6.16 340.66 L56.69 340.66 L56.69 312.31 L113.39 312.31" class="st5"/>
			</g>
		</g>
		<g id="group1099-66" transform="translate(425.447,-21.5098)">
			<title></title>
			<g id="shape1099-67">
				<path d="M5.8 340.66 L6.16 340.66 L56.69 340.66 L56.69 255.62 L113.39 255.62" class="st5"/>
			</g>
		</g>
		<g id="shape1101-72" transform="translate(0.25,-156.156)">
			<title></title>
			<desc>List (Topic)</desc>
			<rect x="0" y="298.138" width="85.0394" height="42.5197" class="st9"/>
			<text x="35.64" y="316.4" class="st2">List <tspan x="28.53" dy="1.2em" class="st3">(Topic)</tspan></text>		</g>
		<g id="shape1102-76" transform="translate(0.25,-297.888)">
			<title></title>
			<desc>Encounter</desc>
			<rect x="0" y="298.138" width="85.0394" height="42.5197" class="st9"/>
			<text x="21.54" y="322.4" class="st2">Encounter</text>		</g>
		<g id="shape1103-79" transform="translate(0.25,-227.022)">
			<title></title>
			<desc>List (Consultation)</desc>
			<rect x="0" y="298.138" width="85.0394" height="42.5197" class="st9"/>
			<text x="35.64" y="316.4" class="st2">List <tspan x="13.67" dy="1.2em" class="st3">(Consultation)</tspan></text>		</g>
		<g id="shape1104-83" transform="translate(0.25,-85.2894)">
			<title></title>
			<desc>List (Heading)</desc>
			<rect x="0" y="298.138" width="85.0394" height="42.5197" class="st9"/>
			<text x="35.64" y="316.4" class="st2">List <tspan x="22.73" dy="1.2em" class="st3">(Heading)</tspan></text>		</g>
		<g id="group1105-87" transform="translate(85.2894,-106.549)">
			<title></title>
			<g id="shape1105-88">
				<path d="M0 340.66 L56.69 340.66 L56.69 255.62 L107.23 255.62" class="st10"/>
			</g>
		</g>
		<g id="group1106-94" transform="translate(85.2894,-106.549)">
			<title></title>
			<g id="shape1106-95">
				<path d="M0 340.66 L56.69 340.66 L56.69 319.06 L139.37 319.06 A2.3622 2.3622 0 1 1 144.09 319.06 L153.54 319.06 A2.3622
							 2.3622 0 1 1 158.27 319.06 L248.96 319.06" class="st10"/>
			</g>
		</g>
		<g id="group1107-100" transform="translate(85.2894,-106.549)">
			<title></title>
			<g id="shape1107-101">
				<path d="M0 340.66 L56.69 340.66 L56.69 375.75 L139.37 375.75 A2.3622 2.3622 0 1 1 144.09 375.75 L248.96 375.75"
						class="st10"/>
			</g>
		</g>
		<g id="group1108-106" transform="translate(85.2894,-106.549)">
			<title></title>
			<g id="shape1108-107">
				<path d="M0 340.66 L56.69 340.66 L56.69 432.45 L248.96 432.45" class="st10"/>
			</g>
		</g>
		<g id="group1109-112" transform="translate(49.8563,-269.541)">
			<title></title>
			<g id="shape1109-113">
				<path d="M-7.09 340.66 L-7.09 318.47" class="st10"/>
			</g>
		</g>
		<g id="group1110-118" transform="translate(49.8563,-227.022)">
			<title></title>
			<g id="shape1110-119">
				<path d="M-7.09 340.66 L-7.09 362.84" class="st10"/>
			</g>
		</g>
		<g id="group1111-124" transform="translate(35.6831,-156.156)">
			<title></title>
			<g id="shape1111-125">
				<path d="M7.09 340.66 L7.09 362.84" class="st10"/>
			</g>
		</g>
	</g>
</svg>
